<svg width="40" height="40" viewBox="0 0 40 40" fill="none" xmlns="http://www.w3.org/2000/svg">
<path d="M13.3091 40.0001C17.0026 40.0001 20.0001 37.0134 20.0001 33.3334V26.6667H13.3091C9.61572 26.6667 6.61816 29.6534 6.61816 33.3334C6.61816 37.0134 9.61572 40.0001 13.3091 40.0001Z" fill="#1E386B"/>
<path d="M6.61816 19.9999C6.61816 16.3199 9.61572 13.3333 13.3091 13.3333H20.0001V26.6666H13.3091C9.61572 26.6666 6.61816 23.6799 6.61816 19.9999Z" fill="#1E386B"/>
<path d="M6.61816 6.66667C6.61816 2.98667 9.61572 0 13.3091 0H20.0001V13.3333H13.3091C9.61572 13.3333 6.61816 10.3467 6.61816 6.66667Z" fill="#1E386B"/>
<path d="M20 0H26.691C30.3844 0 33.3819 2.98667 33.3819 6.66667C33.3819 10.3467 30.3844 13.3333 26.691 13.3333H20V0Z" fill="#1E386B"/>
<path d="M33.3819 19.9999C33.3819 23.6799 30.3844 26.6666 26.691 26.6666C22.9976 26.6666 20 23.6799 20 19.9999C20 16.3199 22.9976 13.3333 26.691 13.3333C30.3844 13.3333 33.3819 16.3199 33.3819 19.9999Z" fill="#1E386B"/>
</svg>
