<svg width="40" height="40" viewBox="0 0 40 40" fill="none" xmlns="http://www.w3.org/2000/svg">
<g clip-path="url(#clip0_67_4145)">
<path d="M25.0696 32.5C25.3821 32.9515 25.573 32.9168 25.816 32.8125C26.0589 32.7083 38.5591 28.4896 38.941 28.3508C39.3228 28.2119 39.2014 28.0904 39.08 27.8993C38.9585 27.7083 34.7917 22.0486 34.5833 21.7188C34.375 21.389 34.2708 21.4583 33.941 21.5625L20.6902 25.0105C20.6902 25.0105 24.7571 32.0485 25.0696 32.5ZM40 26.7368V20.1121C38.5092 20.5093 36.6236 21.0115 35.8792 21.2094C37.0022 22.7119 38.7578 25.0633 40 26.7368ZM35.8664 13.0502C35.6622 13.0966 31.1403 13.9138 30.8617 13.9508C30.5833 13.988 30.6761 14.1458 30.7875 14.3036L34.7667 19.7635C34.7667 19.7635 39.6322 18.5565 39.9294 18.4915C39.9535 18.4861 39.9771 18.4805 40 18.4747V17.7518C39.1157 16.6304 36.7063 13.5771 36.498 13.2918C36.2474 12.9482 36.0708 13.004 35.8664 13.0502Z" fill="#1E386B"/>
<path d="M7.41505 4.47406C8.39427 4.42953 8.48364 4.65234 8.9138 5.29031L19.7216 23.3594L33.3113 20.1039C32.5583 19.0366 29.1402 14.1905 28.8097 13.728C28.4385 13.208 28.8191 12.9666 29.4227 12.8645C30.0261 12.7623 35.2258 11.8895 35.6715 11.8245C36.1172 11.7595 36.4702 11.6017 37.1943 12.4745C37.5649 12.9211 38.8211 14.4855 40 15.9519V7.5C40 5.43406 39.2665 3.6675 37.7996 2.20047C36.3325 0.733594 34.566 0 32.5 0H7.50005C5.43411 0 3.66755 0.733594 2.20052 2.20047C1.35911 3.04219 0.760205 3.98234 0.401611 5.02094C2.8513 4.81969 6.72989 4.50531 7.4152 4.47406H7.41505Z" fill="#1E386B"/>
<path d="M26.2952 34.9319C25.1492 35.2791 24.6353 35.4514 23.8889 34.4097C23.3298 33.6295 20.3066 28.1842 18.8242 25.4998C16.0187 26.2345 10.8845 27.5745 9.40391 27.9303C7.95891 28.2775 7.34172 27.4111 7.10437 26.8772C6.93797 26.5025 2.70141 17.3684 0 11.5078V32.5C0 34.5661 0.733594 36.3323 2.20047 37.7995C3.6675 39.2664 5.43406 40 7.5 40H32.5C34.5659 40 36.3325 39.2664 37.7995 37.7995C39.2664 36.3323 40 34.5661 40 32.5V30.0342C36.9313 31.1567 27.0672 34.698 26.2952 34.9319Z" fill="#1E386B"/>
<path d="M9.43934 25.8262C9.84559 25.7332 17.457 23.9117 17.6195 23.8768C17.782 23.842 17.8864 23.7492 17.7123 23.4476C17.5382 23.1461 7.56637 5.93356 7.56637 5.93356C7.47434 5.77559 7.50059 5.72293 7.25043 5.73606C7.02746 5.74793 1.38512 6.25137 0.0788672 6.36043C0.0403083 6.63664 0.0162649 6.91468 0.00683594 7.1934C1.33293 9.90824 8.94418 25.6054 8.98684 25.7332C9.03324 25.8726 9.03324 25.919 9.43934 25.8262Z" fill="#1E386B"/>
</g>
<defs>
<clipPath id="clip0_67_4145">
<rect width="40" height="40" fill="#1E386B"/>
</clipPath>
</defs>
</svg>
