<svg width="40" height="40" viewBox="0 0 40 40" fill="none" xmlns="http://www.w3.org/2000/svg">
<g clip-path="url(#clip0_67_4156)">
<path d="M32.2655 14.4275C30.8112 8.92062 25.7721 5 20.0003 5C14.2642 5 9.23103 8.91915 7.75064 14.4244C6.30349 14.6929 5.20386 15.9649 5.20386 17.4888V21.0005C5.20386 22.3673 6.08852 23.5314 7.31521 23.9504V25.4192C7.31521 29.8287 10.9031 33.4162 15.3131 33.4162H16.2972C16.6903 34.3458 17.6114 34.9999 18.6825 34.9999H21.3163C22.7436 34.9999 23.9049 33.8387 23.9049 32.4115C23.9049 30.984 22.7436 29.8227 21.3163 29.8227H18.6825C17.6117 29.8227 16.6907 30.4764 16.2975 31.4059H15.3131C12.0115 31.4059 9.32551 28.7202 9.32551 25.4192V23.1115C9.32551 22.5564 8.87547 22.1063 8.32036 22.1063C7.71044 22.1063 7.21416 21.6102 7.21416 21.0004V17.4888C7.21416 16.8789 7.71044 16.3826 8.31567 16.3826L8.55275 16.3837C8.55436 16.3837 8.55597 16.3837 8.55758 16.3837C9.03469 16.3837 9.44653 16.0479 9.54222 15.5801C10.5585 10.6144 14.9568 7.0103 20.0003 7.0103C25.0765 7.0103 29.4789 10.6118 30.4684 15.5739C30.5621 16.0439 30.9747 16.3825 31.4541 16.3825H31.6797C32.2896 16.3825 32.7859 16.8787 32.7859 17.4887V21.0004C32.7859 21.6102 32.2896 22.1063 31.6797 22.1063C31.1246 22.1063 30.6745 22.5564 30.6745 23.1115C30.6745 23.6666 31.1246 24.1166 31.6797 24.1166C33.3981 24.1166 34.7962 22.7187 34.7962 21.0004V17.4888C34.796 15.9705 33.7047 14.7024 32.2655 14.4275ZM18.6827 31.833H21.3164C21.6353 31.833 21.8947 32.0924 21.8947 32.4115C21.8947 32.7302 21.6353 32.9896 21.3164 32.9896H18.6827C18.364 32.9896 18.1046 32.7302 18.1046 32.4115C18.1045 32.0924 18.3638 31.833 18.6827 31.833Z" fill="#1E386B"/>
<path d="M19.9997 9.83032C14.8087 9.83032 10.5854 14.0532 10.5854 19.2436C10.5854 24.4349 14.8087 28.6584 19.9997 28.6584C25.1907 28.6584 29.4138 24.4349 29.4138 19.2436C29.4138 14.0532 25.1907 9.83032 19.9997 9.83032ZM19.9997 26.6481C15.9172 26.6481 12.5958 23.3264 12.5958 19.2436C12.5958 15.1616 15.9172 11.8406 19.9997 11.8406C24.0822 11.8406 27.4035 15.1616 27.4035 19.2436C27.4035 23.3265 24.0822 26.6481 19.9997 26.6481Z" fill="#1E386B"/>
</g>
<defs>
<clipPath id="clip0_67_4156">
<rect width="30" height="30" fill="#1E386B" transform="translate(5 5)"/>
</clipPath>
</defs>
</svg>
