<svg width="40" height="40" viewBox="0 0 40 40" fill="none" xmlns="http://www.w3.org/2000/svg">
<path fill-rule="evenodd" clip-rule="evenodd" d="M30.4784 3.84519C30.9455 4.03866 31.25 4.49446 31.25 5.00004V6.98227L32.8661 5.36615C33.3543 4.878 34.1457 4.878 34.6339 5.36615C35.1221 5.85431 35.1221 6.64576 34.6339 7.13392L33.0178 8.75004H35C35.5056 8.75004 35.9614 9.05459 36.1549 9.52168C36.3483 9.98878 36.2414 10.5264 35.8839 10.8839L30.8839 15.8839C30.6495 16.1183 30.3315 16.25 30 16.25H25.5178L21.1653 20.6025C21.2206 20.809 21.25 21.0261 21.25 21.25C21.25 22.6307 20.1307 23.75 18.75 23.75C17.3693 23.75 16.25 22.6307 16.25 21.25C16.25 19.8693 17.3693 18.75 18.75 18.75C18.974 18.75 19.191 18.7795 19.3976 18.8347L23.75 14.4823V10C23.75 9.66852 23.8817 9.35057 24.1161 9.11615L29.1161 4.11615C29.4736 3.75866 30.0113 3.65171 30.4784 3.84519ZM26.25 11.9823L28.75 9.48227V8.0178L26.25 10.5178V11.9823ZM28.0178 13.75H29.4822L31.9822 11.25H30.5178L28.0178 13.75Z" fill="#1E386B"/>
<path d="M12.8816 10.2132C15.2124 8.97391 17.8756 8.5043 20.4897 8.87169C21.1733 8.96776 21.8054 8.49145 21.9015 7.80782C21.9976 7.12418 21.5212 6.49209 20.8376 6.39602C17.7007 5.95516 14.5048 6.51868 11.7079 8.00582C8.91104 9.49296 6.65673 11.8274 5.2681 14.6745C3.87948 17.5216 3.42783 20.7352 3.9779 23.8548C4.52796 26.9743 6.05149 29.8397 8.33014 32.0401C10.6088 34.2406 13.5256 35.6632 16.6624 36.1041C19.7993 36.5449 22.9952 35.9814 25.7921 34.4942C28.589 33.0071 30.8433 30.6727 32.2319 27.8256C33.6205 24.9785 34.0722 21.7649 33.5221 18.6453C33.4023 17.9655 32.7539 17.5115 32.0741 17.6314C31.3942 17.7512 30.9402 18.3996 31.0601 19.0794C31.5185 21.6791 31.1421 24.3571 29.9849 26.7297C28.8278 29.1023 26.9492 31.0476 24.6184 32.2869C22.2877 33.5262 19.6244 33.9958 17.0104 33.6284C14.3963 33.261 11.9657 32.0755 10.0668 30.2418C8.16791 28.4081 6.8983 26.0203 6.43992 23.4206C5.98153 20.821 6.3579 18.143 7.51509 15.7704C8.67228 13.3978 10.5509 11.4525 12.8816 10.2132Z" fill="#1E386B"/>
<path d="M15.8158 15.7316C16.9812 15.112 18.3128 14.8772 19.6198 15.0609C20.3035 15.1569 20.9356 14.6806 21.0316 13.997C21.1277 13.3134 20.6514 12.6813 19.9678 12.5852C18.1379 12.328 16.2737 12.6567 14.6421 13.5242C13.0106 14.3917 11.6956 15.7535 10.8856 17.4143C10.0755 19.0751 9.81208 20.9497 10.1329 22.7695C10.4538 24.5892 11.3425 26.2607 12.6718 27.5443C14.001 28.8279 15.7024 29.6577 17.5322 29.9149C19.3621 30.172 21.2264 29.8433 22.8579 28.9758C24.4894 28.1083 25.8044 26.7466 26.6145 25.0858C27.4245 23.425 27.688 21.5504 27.3671 19.7306C27.2472 19.0507 26.5989 18.5968 25.919 18.7167C25.2391 18.8365 24.7852 19.4849 24.9051 20.1647C25.1343 21.4646 24.9461 22.8036 24.3675 23.9899C23.7889 25.1761 22.8496 26.1488 21.6842 26.7685C20.5188 27.3881 19.1872 27.6229 17.8802 27.4392C16.5732 27.2555 15.3578 26.6628 14.4084 25.7459C13.459 24.8291 12.8242 23.6352 12.595 22.3353C12.3658 21.0355 12.554 19.6965 13.1326 18.5102C13.7111 17.3239 14.6504 16.3513 15.8158 15.7316Z" fill="#1E386B"/>
</svg>
