<svg width="40" height="40" viewBox="0 0 40 40" fill="none" xmlns="http://www.w3.org/2000/svg">
<path d="M39.5 20C39.5 30.7696 30.7696 39.5 20 39.5C9.23045 39.5 0.5 30.7696 0.5 20C0.5 9.23045 9.23045 0.5 20 0.5C30.7696 0.5 39.5 9.23045 39.5 20Z" stroke="#1E386B"/>
<path fill-rule="evenodd" clip-rule="evenodd" d="M28.0064 38.333C25.5549 39.4052 22.8469 40 20 40C18.886 40 17.7932 39.9089 16.7287 39.7338L31.671 26.0193L28.2631 36.1584C28.0792 36.7052 27.9849 37.2802 27.9849 37.8553C27.9849 38.016 27.9922 38.1753 28.0064 38.333ZM32.8398 4.66509L11.3976 9.8751C8.96067 10.4737 7.2449 12.6609 7.2449 15.1732C7.2449 15.5786 7.29204 15.984 7.3816 16.3799C7.92838 18.7886 10.0684 20.4997 12.5383 20.4997C12.9673 20.4997 13.3915 20.4478 13.8016 20.3488L24.1103 17.8412L6.09494 34.3753C2.33658 30.7392 0 25.6425 0 20C0 8.9543 8.95431 0 20 0C24.8876 0 29.3657 1.75323 32.8398 4.66509Z" fill="#1E386B"/>
</svg>
