<svg width="40" height="40" viewBox="0 0 40 40" fill="none" xmlns="http://www.w3.org/2000/svg">
<path fill-rule="evenodd" clip-rule="evenodd" d="M19.9981 0C18.5108 0 17.0617 0.167795 15.6659 0.47669V20.0133C15.6659 22.4082 17.6185 24.3608 20.0095 24.3608C22.4006 24.3608 24.3569 22.4082 24.3569 20.0133C24.3569 17.6185 22.5608 15.8261 20.2994 15.6774V12.1956C24.4752 12.3482 27.8311 15.7994 27.8311 20.0133C27.8311 24.2273 24.3188 27.8349 20.0095 27.8349C15.7003 27.8349 12.188 24.3188 12.188 20.0133V1.58261C11.6922 1.79235 11.2117 2.02498 10.7389 2.27286V20.0133C10.7389 25.1196 14.907 29.284 20.0095 29.284C25.1158 29.284 29.2802 25.1196 29.2802 20.0133C29.2802 14.907 25.2722 10.9029 20.2994 10.7465V7.26857C27.1866 7.42492 32.7581 13.088 32.7581 20.0133C32.7581 27.034 27.034 32.7619 20.0095 32.7619C12.9888 32.7619 7.26094 27.034 7.26094 20.0133V4.58004C2.82582 8.24864 0 13.7935 0 19.9981C0 31.0459 8.95414 40 19.9981 40C31.042 40 40 31.0459 40 19.9981C40 8.95033 31.0459 0 19.9981 0Z" fill="#1E386B"/>
</svg>
