<svg width="40" height="40" viewBox="0 0 40 40" fill="none" xmlns="http://www.w3.org/2000/svg">
<path d="M40 14.256C39.985 12.5724 36.8741 11.8083 28.8209 11.8083C9.92448 11.8083 5.13056 11.0012 0 5.60266C2.15809 8.84416 3.33894 14.924 23.3119 14.6215C44.1504 14.3005 31.4378 19.9946 27.7389 26.4278C34.4091 20.4742 39.98 16.55 40 14.2805V14.256ZM13.4467 31.5445C13.4467 33.1191 12.1687 34.3974 10.5934 34.3974C9.0123 34.3974 7.73402 33.1191 7.73402 31.5445C7.73402 29.9634 9.0123 28.6847 10.5934 28.6847C12.1687 28.6847 13.4467 29.9634 13.4467 31.5445ZM26.4596 31.5445C26.4596 33.1191 25.1816 34.3974 23.6063 34.3974C22.0267 34.3974 20.7473 33.1191 20.7473 31.5445C20.7473 29.9634 22.0267 28.6847 23.6063 28.6847C25.1816 28.6847 26.4596 29.9634 26.4596 31.5445Z" fill="#1E386B"/>
</svg>
