<svg width="42" height="40" viewBox="0 0 42 40" fill="none" xmlns="http://www.w3.org/2000/svg">
<g clip-path="url(#clip0_67_4221)">
<path fill-rule="evenodd" clip-rule="evenodd" d="M8.13041 20.1333L7.38182 19.3847C4.97881 16.9817 4.28491 13.6182 5.13947 10.5726C2.73646 10.0393 0.972656 7.90292 0.972656 5.33926C0.972656 2.40301 3.37566 0 6.31191 0C8.98154 0 11.1726 1.92104 11.5999 4.4847C14.4849 3.7908 17.6365 4.59067 19.8788 6.83302L20.2001 7.15433L16.2487 11.1058L15.9274 10.7845C14.6455 9.50265 12.5638 9.50265 11.282 10.7845C10.0002 12.0663 10.0002 14.148 11.282 15.4298L20.1489 24.2967L16.1974 28.2482L12.0306 24.0814L8.13041 20.1299V20.1333Z" fill="#1E386B"/>
<path fill-rule="evenodd" clip-rule="evenodd" d="M12.5603 15.7546L16.7271 11.5878L20.6786 7.6363L21.4272 6.88771C23.7755 4.53939 27.1937 3.7908 30.1846 4.64536C30.5572 2.027 32.803 0.0512695 35.4726 0.0512695C38.4089 0.0512695 40.8119 2.45428 40.8119 5.39053C40.8119 8.11485 38.7815 10.3572 36.1665 10.6785C37.0211 13.6695 36.2725 17.033 33.9242 19.3847L33.6029 19.706L29.7574 15.7546L30.0787 15.4333C31.3605 14.1514 31.3605 12.0697 30.0787 10.7879C28.7968 9.50606 26.7151 9.50606 25.4333 10.7879L24.6847 11.5365L20.7333 15.4879L16.5665 19.6548L12.5603 15.7546Z" fill="#1E386B"/>
<path fill-rule="evenodd" clip-rule="evenodd" d="M30.3454 35.6759C27.2998 36.5852 23.8815 35.8879 21.4785 33.4848L21.1572 33.1635L25.1087 29.2121L25.43 29.5334C26.7118 30.8152 28.7935 30.8152 30.0754 29.5334C31.3572 28.2516 31.3572 26.1699 30.0754 24.888L29.3268 24.1394L25.3753 20.188L21.2085 16.0212L25.16 12.0697L34.0781 20.9878C36.3204 23.2302 37.1237 26.4365 36.4264 29.3727C39.0448 29.7453 41.0205 31.9911 41.0205 34.6607C41.0205 37.597 38.6175 40 35.6812 40C33.0116 39.9453 30.8205 38.0789 30.342 35.6725L30.3454 35.6759Z" fill="#1E386B"/>
<path fill-rule="evenodd" clip-rule="evenodd" d="M28.797 24.5667L24.6301 28.7335L20.6787 32.685L19.9301 33.4336C17.6331 35.7306 14.4302 36.4792 11.5452 35.7819C11.012 38.1849 8.87558 39.9487 6.31191 39.9487C3.37566 39.9487 0.972656 37.5457 0.972656 34.6094C0.972656 32.1004 2.73646 29.9641 5.08477 29.4274C4.33618 26.4365 5.08477 23.2336 7.38182 20.9365L7.70313 20.6152L11.6546 24.5667L11.3333 24.888C10.0514 26.1698 10.0514 28.2515 11.3333 29.5334C12.6151 30.8152 14.6968 30.8152 15.9786 29.5334L16.7272 28.7848L20.6787 24.8333L24.8455 20.6665L28.797 24.5667Z" fill="#1E386B"/>
</g>
<defs>
<clipPath id="clip0_67_4221">
<rect width="40.0547" height="40" fill="#1E386B" transform="translate(0.972656)"/>
</clipPath>
</defs>
</svg>
