<svg width="40" height="40" viewBox="0 0 40 40" fill="none" xmlns="http://www.w3.org/2000/svg">
<path fill-rule="evenodd" clip-rule="evenodd" d="M35.7778 11.3735C37.181 13.9344 37.981 16.8741 37.981 20C37.981 26.6328 34.3852 32.4254 29.0392 35.5429L34.5312 19.6635C35.5577 17.0984 35.8984 15.0476 35.8984 13.2233C35.8984 12.5608 35.854 11.9471 35.7778 11.3735ZM22.4762 11.5683L28.9735 30.8974L30.7683 24.9058C31.545 22.4169 32.1354 20.6307 32.1354 19.0921C32.1354 16.8698 31.3376 15.3312 30.654 14.1333C29.7418 12.6519 28.8868 11.3968 28.8868 9.91534C28.8868 8.26243 30.1397 6.72381 31.9069 6.72381C31.9873 6.72381 32.0614 6.73439 32.1397 6.73862C28.9418 3.80741 24.6794 2.01693 19.9979 2.01693C13.7164 2.01693 8.18836 5.24021 4.97355 10.1206C5.39683 10.1333 5.79259 10.1418 6.13122 10.1418C8.01058 10.1418 10.9228 9.91323 10.9228 9.91323C11.8921 9.85608 12.0063 11.2804 11.037 11.3947C11.037 11.3947 10.0635 11.509 8.97989 11.5661L15.528 31.0434L19.4646 19.2423L16.6624 11.5661C15.6931 11.509 14.7767 11.3947 14.7767 11.3947C13.8074 11.3376 13.9217 9.85608 14.891 9.91323C14.891 9.91323 17.8603 10.1418 19.6275 10.1418C21.5069 10.1418 24.4212 9.91323 24.4212 9.91323C25.3905 9.85608 25.5048 11.2804 24.5354 11.3947C24.5354 11.3947 23.5598 11.509 22.4783 11.5661L22.4762 11.5683ZM19.9979 37.981C18.2328 37.981 16.5291 37.7228 14.9185 37.2487L20.3132 21.5725L25.8392 36.7153C25.8751 36.8042 25.9196 36.8868 25.9683 36.963C24.0995 37.6212 22.091 37.9831 19.9979 37.9831V37.981ZM2.01905 20C2.01905 17.3926 2.57778 14.9185 3.57672 12.6815L12.1545 36.182C6.15661 33.2677 2.01905 27.1153 2.01905 19.9979V20ZM20 0C8.97143 0 0 8.97143 0 20C0 31.0286 8.97143 40 20 40C31.0286 40 40 31.0265 40 20C40 8.97355 31.0286 0 20 0Z" fill="#1E386B"/>
</svg>
