<svg width="40" height="40" viewBox="0 0 40 40" fill="none" xmlns="http://www.w3.org/2000/svg">
<g clip-path="url(#clip0_67_4248)">
<path fill-rule="evenodd" clip-rule="evenodd" d="M25.5696 11.1933C23.6831 5.87513 29.1989 0.16769 33.7444 0C36.4634 1.38344 38.7991 5.0247 38.6853 9.95957C38.332 16.0443 33.9181 21.2846 29.121 26.1117C28.8515 20.2246 27.5699 16.4695 25.5696 11.1933Z" fill="#1E386B"/>
<path fill-rule="evenodd" clip-rule="evenodd" d="M14.8673 40C14.1067 34.059 16.5801 28.9983 19.0296 25.9081C20.1974 24.4587 21.0898 23.1352 21.7725 21.9135C23.0601 22.4584 26.5217 24.2312 28.4322 27.1058C28.1567 31.2801 24.9946 38.8801 14.8733 39.994L14.8673 40Z" fill="#1E386B"/>
<path fill-rule="evenodd" clip-rule="evenodd" d="M11.0405 17.4457C2.97945 15.2478 0.997121 8.33658 1.35646 3.68918C9.17799 0.592907 17.5984 3.76704 22.4614 10.3728C25.8691 15.0023 28.0072 20.9433 28.4384 26.1237C26.0967 23.1112 23.1441 21.3685 19.3831 20.003C16.8079 19.0687 14.4303 18.4519 11.0405 17.4457Z" fill="#1E386B"/>
</g>
<defs>
<clipPath id="clip0_67_4248">
<rect width="37.3709" height="40" fill="#1E386B" transform="translate(1.31445)"/>
</clipPath>
</defs>
</svg>
