<svg width="40" height="40" viewBox="0 0 40 40" fill="none" xmlns="http://www.w3.org/2000/svg">
<path d="M22.2386 24.6442H2.50368C1.11929 24.6442 0 25.7635 0 27.1478C0 28.5322 1.11929 29.6515 2.50368 29.6515H25.243C25.243 29.6515 26.4212 28.4733 25.1546 26.5587C23.8586 24.6442 22.2386 24.6442 22.2386 24.6442Z" fill="#1E386B"/>
<path d="M21.2372 3.58377L8.98386 24.7914C8.3064 25.9991 8.68931 27.5308 9.89697 28.2082C11.1046 28.8857 12.6363 28.5028 13.3138 27.2951L25.5671 6.08745C26.2445 4.87979 25.8616 3.34813 24.654 2.67066C23.4463 1.96374 21.9146 2.37611 21.2372 3.58377Z" fill="#1E386B"/>
<path d="M36.2297 33.8931L23.6524 12.0669C23.6524 12.0669 21.8262 13.4807 21.8262 16.279C21.8262 19.0772 22.9749 20.9623 22.9749 20.9623L31.8998 36.4263C32.5773 37.6339 34.1089 38.0463 35.3166 37.3394C36.4948 36.6324 36.9072 35.1008 36.2297 33.8931Z" fill="#1E386B"/>
<path d="M37.4963 24.6442H30.5154C29.131 24.6442 28.0117 25.7635 28.0117 27.1478C28.0117 28.5322 29.131 29.6515 30.5154 29.6515H37.4963C38.8806 29.6515 39.9999 28.5322 39.9999 27.1478C39.9999 25.7929 38.8806 24.6442 37.4963 24.6442Z" fill="#1E386B"/>
<path d="M21.3843 8.17882L18.7334 3.55437C18.0559 2.37616 16.4948 1.96379 15.3166 2.64126C14.1384 3.31873 13.726 4.87985 14.4035 6.05805L17.0544 10.6825C17.7319 11.8607 19.293 12.2731 20.4712 11.5956C21.6494 10.9181 22.0618 9.38647 21.3843 8.17882Z" fill="#1E386B"/>
<path d="M3.74094 33.8637L5.33152 31.1244C5.33152 31.1244 5.71443 30.3585 7.21664 30.3585C8.80722 30.3585 10.3389 31.684 10.4567 32.1847L8.07084 36.3674C7.39337 37.575 5.86171 37.9874 4.65405 37.2805C3.44639 36.603 3.06348 35.0713 3.74094 33.8637Z" fill="#1E386B"/>
</svg>
