<svg width="40" height="40" viewBox="0 0 40 40" fill="none" xmlns="http://www.w3.org/2000/svg">
<path d="M2.88541 39.7394L21.9582 19.9572L2.90138 0.210449C2.39238 0.517885 2.07739 1.22971 2.07739 2.16149V37.8073C2.08422 38.7391 2.38782 39.3989 2.88541 39.7394Z" fill="#1E386B"/>
<path d="M22.6416 19.4109L28.3228 13.5177L5.18708 0.359469C4.7975 0.124691 4.35498 0.000679968 3.9043 0L22.6393 19.4086L22.6416 19.4109Z" fill="#1E386B"/>
<path d="M22.6415 20.5059L3.84717 39.9996C4.31888 40.0078 4.78352 39.88 5.18929 39.6307L28.3706 26.437L22.6415 20.5059Z" fill="#1E386B"/>
<path d="M36.7041 18.2924L29.0051 13.9055L23.1687 19.9596L29.0485 26.0515L36.7018 21.6765C38.3292 20.7471 38.3292 19.217 36.7041 18.2924Z" fill="#1E386B"/>
</svg>
