<svg width="40" height="40" viewBox="0 0 40 40" fill="none" xmlns="http://www.w3.org/2000/svg">
<path d="M17.0795 4.9299C16.5451 4.97717 15.1009 5.30589 15.1009 5.30589C11.8458 6.14725 11.0758 9.10121 11.0758 9.10121C10.9169 9.59793 10.8447 10.107 10.8234 10.5866V11.2394C10.8666 12.2479 11.0909 13.001 11.0909 13.001C12.1782 17.8223 17.5244 25.7445 18.6734 27.4087C18.7549 27.4896 18.8202 27.4604 18.8202 27.4604C18.9442 27.4261 18.9345 27.3072 18.9345 27.3072L18.9369 27.3078C20.7066 9.6187 17.0795 4.9299 17.0795 4.9299ZM22.9271 4.9299C22.9271 4.9299 19.2842 9.62118 21.0553 27.3206H21.0576C21.0713 27.4329 21.1511 27.4563 21.1511 27.4563C21.2696 27.5022 21.3303 27.3884 21.3303 27.3884L21.3309 27.3895C22.5094 25.6828 27.8251 17.8037 28.9076 13.0009C28.9076 13.0009 29.4946 10.6763 28.928 9.10111C28.928 9.10111 28.1232 6.10142 24.864 5.3087C24.864 5.3087 23.9247 5.07035 22.9271 4.9299ZM6.12412 10.2402C6.12412 10.2402 3.02258 13.184 2.86843 16.3048H2.86966V16.7777C2.87202 16.8133 2.87382 16.8493 2.87606 16.8856C3.00966 19.4021 4.90282 20.8915 4.90282 20.8915C7.95309 23.8644 15.339 27.6177 17.0552 28.4694C17.0793 28.4784 17.1679 28.5073 17.22 28.4415C17.22 28.4415 17.2471 28.421 17.2595 28.384V28.3057C17.2582 28.3012 17.2559 28.2967 17.2536 28.2917C12.5535 18.0241 6.12412 10.2402 6.12412 10.2402ZM33.875 10.2402C33.875 10.2402 27.4644 17.9998 22.7664 28.2466L22.7682 28.246C22.7682 28.246 22.7127 28.3648 22.8024 28.4415C22.8024 28.4415 22.8292 28.4618 22.8662 28.4699H22.9312C22.9429 28.4666 22.9554 28.4621 22.9678 28.4537C24.7307 27.5787 32.0594 23.8512 35.0953 20.892C35.0953 20.892 37.0178 19.3481 37.1185 16.8693C37.3405 13.4264 33.875 10.2402 33.875 10.2402ZM39.6448 20.4337C39.6448 20.4337 29.1937 26.0424 23.7899 29.6873L23.7917 29.689C23.7917 29.689 23.6937 29.7533 23.7279 29.8683C23.7279 29.8683 23.7792 29.9612 23.8538 29.9612C25.7894 29.9646 33.1135 29.9734 33.2971 29.9391C33.2971 29.9391 34.2442 29.9013 35.4144 29.4517C35.4144 29.4517 38.0196 28.6235 39.3728 25.6657C39.3728 25.6657 39.9911 24.4289 40 22.6914V22.6177C39.9955 21.9477 39.901 21.2059 39.6448 20.4337ZM0.35137 20.4599C-0.599528 23.4037 0.680619 25.7757 0.682686 25.7795C2.01676 28.5983 4.56329 29.4524 4.56329 29.4524C5.739 29.9354 6.91498 29.9688 6.91498 29.9688C7.0986 30.0024 14.2276 29.9721 16.1378 29.9632C16.2186 29.9626 16.2631 29.8813 16.2631 29.8813C16.2687 29.8723 16.2737 29.8633 16.2759 29.8551V29.7815C16.2601 29.7322 16.2179 29.6974 16.2179 29.6974L16.2191 29.6968C10.8181 26.053 0.35137 20.4599 0.35137 20.4599ZM15.9196 30.8681L3.62505 31.2993C4.95834 33.676 7.20377 35.5232 9.54286 34.9559C11.1571 34.5523 14.8139 32.0016 16.0212 31.1397L16.0171 31.1363C16.111 31.052 16.0775 30.9843 16.0775 30.9843C16.0466 30.8739 15.9196 30.874 15.9196 30.874L15.9196 30.8681ZM24.0626 30.8771L24.0614 30.8816C24.0614 30.8816 23.9535 30.8953 23.9233 30.9761C23.9233 30.9761 23.8971 31.0866 23.9697 31.1415L23.9685 31.1426C25.1456 31.9867 28.7138 34.4814 30.4329 34.9658C30.4329 34.9658 30.6933 35.0544 31.1297 35.0702H31.392C32.5437 35.0298 34.5501 34.4381 36.3733 31.3056L24.0626 30.8771Z" fill="#1E386B"/>
</svg>
