<svg width="40" height="40" viewBox="0 0 40 40" fill="none" xmlns="http://www.w3.org/2000/svg">
<path fill-rule="evenodd" clip-rule="evenodd" d="M19.2 40H19.2H20.8H20.8C29.851 40 34.3764 40 37.1882 37.1882C40 34.3764 40 29.8509 40 20.7999V19.1999C40 10.1489 40 5.62338 37.1882 2.81161C34.3764 0 29.851 0 20.8 0H19.2C10.149 0 5.62356 0 2.81177 2.81161C0 5.62339 0 10.1489 0 19.1999V20.7999C0 29.8509 0 34.3764 2.81178 37.1882C5.62356 40 10.149 40 19.2 40ZM30.8821 26.5875L25.998 25.3674V27.7152C25.998 28.9711 24.8113 29.8921 23.5872 29.5864L18.7025 28.3662V30.7147C18.7025 31.9706 17.5158 32.8917 16.2917 32.5859L8.53991 30.6494C7.4622 30.3802 6.70654 29.4162 6.70654 28.3105V15.2842C6.70654 14.0283 7.89325 13.1072 9.11735 13.413L14.002 14.6333V12.2847C14.002 11.0288 15.1887 10.1077 16.4128 10.4135L21.2969 11.6336V9.28576C21.2969 8.0299 22.4836 7.10882 23.7077 7.41461L31.4595 9.35105C32.5372 9.62027 33.2929 10.5843 33.2929 11.69V24.7163C33.2929 25.9722 32.1062 26.8933 30.8821 26.5875Z" fill="#1E386B"/>
</svg>
