<svg width="40" height="40" viewBox="0 0 40 40" fill="none" xmlns="http://www.w3.org/2000/svg">
<g clip-path="url(#clip0_67_4288)">
<path fill-rule="evenodd" clip-rule="evenodd" d="M20.7567 27.1578C19.9815 27.1086 19.0895 26.9733 18.3882 26.7702C18.259 26.7333 17.7115 26.5303 17.57 26.4688C15.1215 25.3368 13.4174 22.8576 13.4174 19.9908C13.4174 16.0535 16.6226 12.8422 20.5598 12.8422C24.4971 12.8422 27.6469 15.9982 27.7022 19.8862H30.2799C30.2307 14.5709 25.8936 10.2584 20.566 10.2584C15.2384 10.2584 10.8397 14.6201 10.8397 19.9846C10.8397 23.682 12.9191 26.8994 15.9643 28.542C16.5118 28.8311 17.3054 29.1326 17.57 29.2126C18.4374 29.4709 19.5017 29.6432 20.4491 29.717C20.769 29.7416 21.8948 29.7539 22.2209 29.7539H39.9939V27.1824H22.2455C22.0117 27.1824 20.9782 27.1763 20.7444 27.1578H20.7567ZM22.2578 23.1221C22.0732 23.1221 21.0889 23.1221 20.9043 23.1037C20.5967 23.0791 20.1538 23.0299 19.8647 22.9683C19.5386 22.8822 19.2372 22.7653 19.1018 22.6915C18.1421 22.1747 17.49 21.1597 17.49 19.9908C17.49 18.2928 18.868 16.9148 20.566 16.9148C22.2639 16.9148 23.5804 18.2375 23.6358 19.8924H26.115C26.0658 16.8717 23.5989 14.4356 20.566 14.4356C17.5331 14.4356 15.0046 16.921 15.0046 19.9908C15.0046 22.1563 16.2473 24.0265 18.0498 24.9431C18.3267 25.1031 18.8496 25.2753 18.9972 25.3122C19.5078 25.4476 20.1907 25.5399 20.7505 25.5768C20.9536 25.5952 21.9625 25.6014 22.1778 25.6014H39.9939V23.1221H22.2516H22.2578ZM9.24639 29.7416H6.65026V12.8422H2.85451V10.2461H9.24639V29.7416ZM0 14.1403V16.638H2.85451V29.7416H5.3522V14.1403H0Z" fill="#1E386B"/>
<path d="M35.4046 10.4246C34.4695 10.4246 33.6943 11.1689 33.6943 12.1102C33.6943 13.0514 34.4695 13.8204 35.4046 13.8204C36.3397 13.8204 37.1148 13.0453 37.1148 12.1102C37.1148 11.1751 36.3704 10.4246 35.4046 10.4246ZM35.4046 13.5436C34.6294 13.5436 33.965 12.9346 33.965 12.1102C33.965 11.2858 34.6294 10.7014 35.4046 10.7014C36.1797 10.7014 36.838 11.3227 36.838 12.1102C36.838 12.9407 36.1736 13.5436 35.4046 13.5436Z" fill="#1E386B"/>
<path d="M36.0567 12.5715C36.0567 12.3808 36.0321 12.2086 35.8106 12.1409C36.0813 12.0486 36.1059 11.8702 36.1059 11.7595C36.1059 11.3227 35.7122 11.2673 35.5522 11.2673H34.8079V12.953H35.1216V12.264H35.3677C35.7184 12.264 35.7491 12.4239 35.7491 12.5777C35.7491 12.8668 35.7491 12.9161 35.8168 12.9591H36.1305C36.0629 12.8914 36.0875 12.8361 36.0629 12.5777L36.0567 12.5715ZM35.4846 12.0179H35.1155V11.4888H35.4292C35.6445 11.4888 35.7922 11.5565 35.7922 11.7595C35.7922 11.8641 35.7368 12.0179 35.4784 12.0179H35.4846Z" fill="#1E386B"/>
</g>
<defs>
<clipPath id="clip0_67_4288">
<rect width="40" height="19.5078" fill="#1E386B" transform="translate(0 10.2461)"/>
</clipPath>
</defs>
</svg>
