<svg width="40" height="40" viewBox="0 0 40 40" fill="none" xmlns="http://www.w3.org/2000/svg">
<path d="M13.7879 20.0613C14.0561 20.0613 14.1634 20.3688 14.1634 21.0352C14.1355 21.4901 13.9879 21.9308 13.7343 22.3166C13.3985 22.8348 12.9824 23.3015 12.5004 23.7006C12.0015 24.1182 11.4412 24.4636 10.8375 24.7258C10.287 24.9876 9.68197 25.1278 9.0672 25.1359C8.26245 25.1359 7.77971 24.4695 7.51144 23.1368C7.13573 23.7522 6.59984 24.2643 5.95581 24.6233C5.19118 25.0429 4.31456 25.2389 3.43449 25.1871C2.97804 25.1984 2.52335 25.1289 2.09337 24.9821C1.65883 24.8111 1.25931 24.5682 0.913192 24.2645C0.614006 23.9687 0.377237 23.6206 0.215813 23.2393C0.0624001 22.864 -0.0105691 22.4631 0.001234 22.0603C0.001234 19.6513 0.85955 17.7547 2.52253 16.3707C3.08347 15.8526 3.76306 15.4665 4.50738 15.243C5.1322 15.0576 5.78454 14.9711 6.43854 14.9867C7.01502 14.9772 7.58537 15.1002 8.10155 15.3456C8.31619 14.9355 8.53071 14.7305 8.79893 14.7305C9.082 14.7255 9.36072 14.7966 9.60362 14.9355C9.86729 15.041 10.1049 15.1981 10.301 15.3968C10.6939 15.7031 10.9445 16.1452 10.9984 16.627C10.7302 17.1909 10.4083 17.7547 10.0864 18.3186C9.92599 19.2327 9.87201 20.161 9.92546 21.0864C9.92546 22.2654 10.0864 22.8805 10.4083 22.8805C10.7302 22.8805 11.7494 22.1629 13.1978 20.6764C13.466 20.2151 13.6806 20.0613 13.7879 20.0613ZM3.27355 21.3428C3.27355 22.4192 3.70271 22.983 4.56102 22.983C5.03261 22.9692 5.49139 22.8331 5.88828 22.5893C6.28514 22.3456 6.60521 22.0032 6.81407 21.599C7.01496 21.2331 7.19414 20.8566 7.35055 20.4714C7.33114 19.0934 7.4751 17.7178 7.77971 16.3707C6.57689 16.6031 5.47451 17.1744 4.61467 18.011C4.17709 18.458 3.83134 18.9796 3.59542 19.5487C3.38024 20.1244 3.27133 20.7314 3.27355 21.3428Z" fill="#1E386B"/>
<path d="M23.5982 18.6137C23.5982 18.1515 23.3302 17.8948 22.7406 17.8948C22.3832 17.8948 21.9544 18.2542 21.4542 18.973C20.9841 19.6843 20.6399 20.465 20.4358 21.2837V21.3351C20.4508 21.8374 20.5226 22.3366 20.6501 22.8241C20.773 23.1724 20.8451 23.5352 20.8645 23.9024C20.8645 24.3645 20.2213 24.8266 18.9885 25.3401C18.8173 25.4034 18.636 25.4381 18.4525 25.4428C18.2792 25.439 18.1111 25.3854 17.9701 25.2888C17.8329 25.1865 17.7379 25.041 17.7022 24.878C17.5486 24.3957 17.4763 23.893 17.4877 23.3889C17.4877 22.7728 17.4877 22.1566 17.5413 21.5918C17.5949 21.0269 17.5949 20.5135 17.6485 20.0514C17.7022 19.5892 17.7022 19.1785 17.7557 18.7677C17.796 18.4784 17.8139 18.1866 17.8094 17.8948C17.8094 17.4327 17.5949 17.1759 17.1126 17.1759C16.6302 17.1759 16.0941 17.6894 15.5046 18.7163C15.005 19.4589 14.693 20.3028 14.5933 21.181C14.5852 21.7525 14.6573 22.3224 14.8077 22.8755C14.9306 23.2238 15.0028 23.5865 15.0221 23.9537C15.0221 24.4158 14.379 24.878 13.1461 25.3914C12.9748 25.4548 12.7936 25.4894 12.6101 25.4942C12.4368 25.4904 12.2687 25.4367 12.1277 25.3401C11.9904 25.2379 11.8955 25.0923 11.8597 24.9293C11.7093 24.3762 11.6372 23.8064 11.6453 23.2349C11.6009 21.7753 11.6906 20.3148 11.9133 18.8704C12.1387 17.5352 12.6496 16.2591 13.4142 15.122C13.5095 14.9626 13.6371 14.823 13.7893 14.7112C13.9536 14.6124 14.1352 14.5428 14.3253 14.5059C14.8077 14.5059 15.2901 14.8653 15.6653 15.6355C15.7863 15.8084 15.8769 15.9993 15.9333 16.2003C16.1945 15.8032 16.5656 15.4832 17.0053 15.2761C17.435 15.0557 17.9118 14.9327 18.399 14.9166C19.031 14.9096 19.6428 15.1294 20.1141 15.5328C20.3377 15.7186 20.52 15.9456 20.6501 16.2003C20.7818 16.4548 20.8374 16.7391 20.8109 17.0219V17.2786C21.1733 16.767 21.6734 16.3589 22.2582 16.0976C22.846 15.8347 23.4855 15.6947 24.1342 15.6868C24.4595 15.6701 24.7855 15.7049 25.099 15.7895C25.4118 15.8923 25.7025 16.0489 25.9566 16.2516C26.1644 16.4394 26.3286 16.6668 26.439 16.9191C26.5486 17.1802 26.6033 17.4594 26.5998 17.7407C26.5998 18.2542 26.5462 18.819 26.4926 19.3325C26.439 19.846 26.2781 20.2567 26.171 20.6675C26.0638 21.0783 25.9566 21.4377 25.8494 21.7458C25.7874 21.9986 25.7515 22.2565 25.7421 22.516C25.7421 22.67 25.7958 22.7728 25.903 22.7728C26.2095 22.7207 26.491 22.5768 26.7069 22.3619C27.0286 22.1052 27.3502 21.7971 27.6718 21.4891L28.583 20.6162C28.851 20.3594 29.0654 20.2054 29.1726 20.2054C29.387 20.2054 29.4942 20.4621 29.4942 20.9243C29.4942 21.8999 28.9582 22.8755 27.9398 23.851C27.0658 24.7212 25.8759 25.236 24.6165 25.2888C23.5445 25.2888 23.0085 24.3645 23.0085 22.516C23.0185 21.8579 23.1085 21.203 23.2765 20.5648C23.4538 19.9268 23.5616 19.2729 23.5982 18.6137Z" fill="#1E386B"/>
<path d="M35.814 23.2829C35.3302 23.91 34.6837 24.4051 33.9384 24.7193C33.2052 25.0643 32.3976 25.2399 31.5806 25.2322C29.9194 25.2322 28.7405 24.8219 27.8831 24.0011C27.4819 23.6053 27.1716 23.1335 26.972 22.6161C26.7499 22.0965 26.6582 21.5343 26.7042 20.9745C26.648 19.3702 27.2434 17.8073 28.3654 16.6142C28.9032 16.0096 29.5825 15.5351 30.3481 15.2292C31.112 14.9239 31.9317 14.7669 32.7595 14.7675C33.4336 14.7654 34.1034 14.8694 34.7423 15.0753C35.5997 15.4344 36.0283 15.7421 36.0283 16.0499C36.0283 16.3577 35.4389 16.409 34.2064 16.409C33.637 16.407 33.0727 16.5115 32.5452 16.7168C32.0111 16.915 31.5337 17.2314 31.1519 17.6402C30.7349 18.0339 30.4066 18.5053 30.1873 19.0252C29.9991 19.5702 29.9441 20.1494 30.0266 20.7181C30.0253 21.2974 30.2336 21.8593 30.616 22.3083C30.8294 22.5238 31.0841 22.6979 31.3663 22.8212C31.6572 22.9263 31.9662 22.9785 32.2772 22.9751C32.8951 22.998 33.5073 22.8559 34.0457 22.5647C33.5321 22.2545 33.1228 21.8093 32.8667 21.2823C32.5793 20.7626 32.4493 20.1762 32.4916 19.5895C32.4767 18.9032 32.7465 18.2391 33.2418 17.7428C33.4951 17.4765 33.8059 17.2664 34.1528 17.1272C34.5091 16.9852 34.8923 16.9153 35.2782 16.922C35.607 16.8914 35.9387 16.9359 36.2461 17.0518C36.5535 17.1678 36.8278 17.3519 37.0465 17.5889C37.4074 18.0848 37.5949 18.6774 37.5824 19.2817C37.564 20.0444 37.3816 20.7953 37.0465 21.4875H37.1537C37.4628 21.4863 37.7686 21.4268 38.0537 21.3124C38.3387 21.1979 38.5973 21.0308 38.8149 20.8207L39.2972 20.3589L39.458 20.2051C39.5115 20.1538 39.5651 20.1538 39.6723 20.1538C39.8866 20.1538 39.9939 20.4103 39.9939 20.8719C40.0196 21.2379 39.9648 21.6048 39.8331 21.9492C39.6958 22.2855 39.4751 22.5848 39.19 22.8212C38.6977 23.2244 38.0694 23.4431 37.4216 23.4369C36.8819 23.4341 36.3436 23.3826 35.814 23.2829ZM35.6533 20.8207C35.8844 20.3549 36.0121 19.8484 36.0283 19.333C36.0283 18.8713 35.8676 18.6149 35.5461 18.6149C35.4728 18.6247 35.4039 18.6538 35.3471 18.6992C35.2903 18.7445 35.2478 18.8041 35.2245 18.8713C35.1379 19.0289 35.1007 19.207 35.1174 19.3843C35.1187 19.6483 35.1733 19.9095 35.2782 20.1538C35.2907 20.2834 35.3304 20.4091 35.3949 20.5237C35.4593 20.6383 35.5471 20.7393 35.6533 20.8207Z" fill="#1E386B"/>
</svg>
