<svg width="41" height="40" viewBox="0 0 41 40" fill="none" xmlns="http://www.w3.org/2000/svg">
<path d="M0 28.2601H11.4471V25.7236H3.90243C4.94307 21.561 11.317 20.6504 11.317 16.0325C11.317 13.561 9.62599 11.7399 6.04876 11.7399C3.83739 11.7399 1.88617 12.3903 0.58536 13.0407L1.36585 15.3821C2.53658 14.7968 3.90243 14.2764 5.59348 14.2764C6.89429 14.2764 8.13005 14.8618 8.13005 16.3577C8.13005 19.7398 0.650404 20 0 28.2601ZM11.7723 24.2276H19.1219V28.2601H22.0487V24.2276H24.5202V21.7561H22.0487V11.7399H19.9024L11.7723 22.2764V24.2276ZM15.0894 21.8862L19.252 16.2927C19.252 16.748 19.1219 18.1789 19.1219 19.4797V21.8211H17.1707C16.5853 21.8211 15.4796 21.8862 15.0894 21.8862Z" fill="#1E386B"/>
<path d="M34.2115 24.2276C37.3984 24.2276 40.0001 21.626 40.0001 18.439C40.0001 15.252 37.3984 12.6504 34.2115 12.6504C31.0245 12.6504 28.4229 15.252 28.4229 18.439C28.4879 21.626 31.0245 24.2276 34.2115 24.2276Z" stroke="#1E386B" stroke-width="1.769"/>
<path d="M37.8536 18.4391H34.6666V15.2521H33.821V19.2846H37.8536V18.4391Z" fill="#1E386B"/>
</svg>
