<svg width="40" height="40" viewBox="0 0 40 40" fill="none" xmlns="http://www.w3.org/2000/svg">
<path d="M2.57935 14.544V12.058H5.37335V14.544H2.57935ZM2.57935 27.678V16.458H5.37335V27.678H2.57935Z" fill="#1E386B"/>
<path d="M8.35864 14.544V12.058H11.1526V14.544H8.35864ZM8.35864 27.678V16.458H11.1526V27.678H8.35864Z" fill="#1E386B"/>
<path d="M14.1379 27.678V12.058H16.9319V20.418H18.3179L21.0239 16.458H24.1259L20.5839 21.474V21.518L24.5659 27.678H21.3539L18.3839 22.772H16.9319V27.678H14.1379Z" fill="#1E386B"/>
<path d="M26.8825 26.292C25.6945 25.1773 25.1005 23.7693 25.1005 22.068C25.1005 20.3667 25.6945 18.966 26.8825 17.866C28.0705 16.7513 29.5225 16.194 31.2385 16.194C32.9691 16.194 34.4285 16.7513 35.6165 17.866C36.8191 18.966 37.4205 20.3667 37.4205 22.068C37.4205 23.7693 36.8265 25.1773 35.6385 26.292C34.4505 27.392 32.9911 27.942 31.2605 27.942C29.5298 27.942 28.0705 27.392 26.8825 26.292ZM27.9385 22.068C27.9385 23.0947 28.2538 23.938 28.8845 24.598C29.5298 25.2433 30.3218 25.566 31.2605 25.566C32.1991 25.566 32.9911 25.2433 33.6365 24.598C34.2818 23.938 34.6045 23.0947 34.6045 22.068C34.6045 21.056 34.2745 20.22 33.6145 19.56C32.9691 18.9 32.1845 18.57 31.2605 18.57C30.3365 18.57 29.5518 18.9 28.9065 19.56C28.2611 20.22 27.9385 21.056 27.9385 22.068Z" fill="#1E386B"/>
</svg>
