<svg width="42" height="40" viewBox="0 0 42 40" fill="none" xmlns="http://www.w3.org/2000/svg">
<path d="M30.8076 37.3077C26.705 39.4872 20.2948 39.6154 16.1922 35.7692C10.0384 29.8718 14.2691 21.5385 14.2691 21.5385L14.3973 21.6667C15.0384 22.1795 19.0127 25.1282 24.0127 21.7949C26.4486 20.1282 27.4743 15.2564 24.3973 12.0513C22.8589 10.3846 16.3204 8.46154 10.0384 15.8974C6.064 20.5128 6.064 32.1795 15.1666 39.2308C15.1666 39.2308 5.16656 36.0256 3.6281 23.7179C2.47425 12.3077 9.91015 3.46154 21.3204 3.33333C31.4486 3.33333 35.5512 11.6667 34.2691 18.2051C32.8589 25.3846 23.7563 28.2051 18.2435 25.641C17.8589 27.5641 17.2178 31.6667 19.9102 34.1026C24.2691 37.9487 34.1409 37.3077 39.3973 27.8205C40.423 25.3846 41.064 22.6923 41.064 19.8718C40.9358 8.97436 31.9614 0 20.9358 0C9.91015 0 0.935791 8.97436 0.935791 20C0.935791 31.0256 9.91015 40 20.9358 40C25.1666 40 29.0127 38.7179 32.346 36.4103C31.8332 36.7949 31.3204 37.0513 30.8076 37.3077Z" fill="#1E386B"/>
</svg>
