<svg width="40" height="40" viewBox="0 0 40 40" fill="none" xmlns="http://www.w3.org/2000/svg">
<path d="M32.7137 1.33981C34.2903 1.34158 35.8017 1.96866 36.9165 3.08346C38.0314 4.19827 38.6584 5.70975 38.6602 7.28633V32.7137C38.6584 34.2903 38.0314 35.8017 36.9165 36.9165C35.8017 38.0314 34.2903 38.6584 32.7137 38.6602H7.28633C5.70975 38.6584 4.19827 38.0314 3.08346 36.9165C1.96866 35.8017 1.34158 34.2903 1.33981 32.7137V7.28633C1.34158 5.70975 1.96866 4.19827 3.08346 3.08346C4.19827 1.96866 5.70975 1.34158 7.28633 1.33981H32.7137ZM32.7137 0H7.28633C5.35388 0 3.50056 0.767665 2.13411 2.13411C0.767665 3.50056 0 5.35388 0 7.28633V32.7137C0 34.6461 0.767665 36.4994 2.13411 37.8659C3.50056 39.2323 5.35388 40 7.28633 40H32.7137C34.6461 40 36.4994 39.2323 37.8659 37.8659C39.2323 36.4994 40 34.6461 40 32.7137V7.28633C40 5.35388 39.2323 3.50056 37.8659 2.13411C36.4994 0.767665 34.6461 0 32.7137 0Z" fill="#1E386B"/>
<path d="M32.2491 10.9876C32.449 10.6783 32.3117 10.4293 31.9432 10.4293H23.3461C23.1435 10.4404 22.9457 10.4962 22.7672 10.5927C22.5887 10.6893 22.4337 10.8241 22.3133 10.9876L12.698 25.8662C12.5995 26.0378 12.5471 26.2318 12.5459 26.4297C12.5448 26.6275 12.5948 26.8222 12.6913 26.9949L16.9028 33.6638C17.0993 33.9753 17.4242 33.9765 17.624 33.6638L32.2491 10.9876Z" fill="#1E386B"/>
<path d="M18.9 10.4248C19.2685 10.4248 19.4069 10.6783 19.2071 10.9831L14.031 19.0119C13.8322 19.3211 13.5073 19.32 13.3108 19.0119L8.2497 10.9909C8.05319 10.6794 8.19387 10.4248 8.56232 10.4248H18.9Z" fill="#1E386B"/>
</svg>
