<svg width="90" height="91" viewBox="0 0 90 91" fill="none" xmlns="http://www.w3.org/2000/svg">
<g clip-path="url(#clip0_53_904)">
<path d="M71.7616 2.85244H67.5949C67.1914 1.77054 66.1509 0.996704 64.9301 0.996704H59.5878C58.3672 0.996704 57.3267 1.77054 56.9232 2.85244H27.3092C24.4633 2.85244 22.1477 5.1678 22.1477 8.0139V38.7948C21.4649 39.9359 18.7251 44.4464 14.4442 51.4769C12.8444 54.1042 12.6354 57.3512 13.8855 60.1626L19.6625 73.1559V78.6378C18.4382 78.9747 17.5351 80.095 17.5351 81.4249V89.6766C17.5351 90.4057 18.1263 90.9969 18.8554 90.9969C19.5845 90.9969 20.1756 90.4057 20.1756 89.6766V81.4249C20.1756 81.2855 20.289 81.1721 20.4284 81.1721H34.105C34.2444 81.1721 34.3577 81.2855 34.3577 81.4249V89.6766C34.3577 90.4057 34.9489 90.9969 35.678 90.9969C36.4071 90.9969 36.9982 90.4057 36.9982 89.6766V81.4249C36.9982 80.095 36.0952 78.9749 34.8709 78.6378V76.5016H71.7616C74.6077 76.5016 76.923 74.1862 76.923 71.3401V8.0139C76.923 5.1678 74.6077 2.85244 71.7616 2.85244ZM59.3826 3.84263C59.3826 3.72926 59.4746 3.6372 59.588 3.6372H64.9303C65.0436 3.6372 65.1357 3.72926 65.1357 3.84263V13.5019L62.8122 12.4299C62.4614 12.2679 62.0569 12.2679 61.706 12.4299L59.3826 13.5019V3.84263ZM16.2983 59.0897C15.4004 57.0699 15.5504 54.7373 16.6995 52.85C18.1842 50.412 20.1584 47.1682 21.7615 44.5293C21.8934 44.3124 22.0215 44.1013 22.1477 43.8933V52.5367V59.7239V61.3492C22.1477 62.0784 22.7389 62.6695 23.468 62.6695C24.1971 62.6695 24.7882 62.0784 24.7882 61.3492V59.7239V52.5367C24.7882 51.5234 25.6126 50.6991 26.6258 50.6991C27.6391 50.6991 28.4634 51.5234 28.4634 52.5367V59.424C28.4634 59.6933 28.5458 59.9561 28.6993 60.1772L31.0833 63.6086C31.8338 64.6888 32.2304 65.9548 32.2304 67.2699V78.5309H22.303V72.875C22.303 72.6901 22.2643 72.5074 22.1891 72.3386L16.2983 59.0897ZM74.2825 71.3398C74.2825 72.7299 73.1517 73.8608 71.7616 73.8608H34.871V72.1004H71.202C71.9311 72.1004 72.5222 71.5093 72.5222 70.7802V53.7212C72.5222 52.9921 71.9311 52.401 71.202 52.401C70.4728 52.401 69.8817 52.9921 69.8817 53.7212V69.4599H34.871V67.2703C34.871 65.414 34.3113 63.6269 33.2521 62.1023L31.1041 59.0106V52.5368C31.1041 51.0205 30.3458 49.6786 29.1892 48.8681V22.0483C29.1892 21.3192 28.5981 20.7281 27.869 20.7281C27.1399 20.7281 26.5487 21.3192 26.5487 22.0483V48.0607C25.9224 48.0714 25.3274 48.2112 24.7884 48.4548V8.0139C24.7884 6.62377 25.9192 5.49294 27.3094 5.49294H56.7421V7.25326H27.869C27.1399 7.25326 26.5487 7.84438 26.5487 8.57351V16.6914C26.5487 17.4206 27.1399 18.0117 27.869 18.0117C28.5981 18.0117 29.1892 17.4206 29.1892 16.6914V9.89376H56.7421V14.7241C56.7421 15.361 57.0623 15.9461 57.5988 16.2896C58.1354 16.633 58.8008 16.6784 59.3792 16.4117L62.2591 15.0829L65.139 16.4117C65.3885 16.5269 65.6541 16.5839 65.9187 16.5839C66.2674 16.5839 66.6144 16.4848 66.9194 16.2897C67.4558 15.9465 67.7762 15.3612 67.7762 14.7243V9.89393H69.8817V48.3645C69.8817 49.0936 70.4728 49.6848 71.202 49.6848C71.9311 49.6848 72.5222 49.0936 72.5222 48.3645V8.57351C72.5222 7.84438 71.9311 7.25326 71.202 7.25326H67.7762V5.49294H71.7616C73.1517 5.49294 74.2825 6.62377 74.2825 8.0139V71.3398Z" fill="#3F3356"/>
<path d="M66.4558 43.5055H32.9081C32.179 43.5055 31.5879 44.0966 31.5879 44.8257C31.5879 45.5549 32.179 46.146 32.9081 46.146H65.1357V56.0271H35.3726C34.6435 56.0271 34.0524 56.6182 34.0524 57.3473C34.0524 58.0764 34.6435 58.6676 35.3726 58.6676H66.456C67.1851 58.6676 67.7762 58.0764 67.7762 57.3473V44.8257C67.776 44.0966 67.1851 43.5055 66.4558 43.5055Z" fill="#D23C41"/>
<path d="M45.2287 27.5415C46.1275 27.5415 46.8589 26.8101 46.8589 25.9113V13.2406C46.8589 12.3418 46.1277 11.6104 45.2287 11.6104H32.558C31.6592 11.6104 30.9277 12.3418 30.9277 13.2406V25.9113C30.9277 26.8101 31.6592 27.5415 32.558 27.5415H45.2287ZM33.5681 14.2508H44.2182V24.901H33.5681V14.2508Z" fill="#D23C41"/>
<path d="M33.5508 37.8325C32.8217 37.8325 32.2306 38.4236 32.2306 39.1528C32.2306 39.8819 32.8217 40.473 33.5508 40.473H37.5711C38.3002 40.473 38.8913 39.8819 38.8913 39.1528C38.8913 38.4236 38.3002 37.8325 37.5711 37.8325H33.5508Z" fill="#D23C41"/>
<path d="M66.4557 37.5197H42.4159C41.6868 37.5197 41.0957 38.1108 41.0957 38.8399C41.0957 39.569 41.6868 40.1601 42.4159 40.1601H66.4557C67.1848 40.1601 67.776 39.569 67.776 38.8399C67.776 38.1108 67.185 37.5197 66.4557 37.5197Z" fill="#D23C41"/>
<path d="M66.4558 31.0538H62.4357C61.7066 31.0538 61.1155 31.645 61.1155 32.3741C61.1155 33.1032 61.7066 33.6943 62.4357 33.6943H66.4558C67.1849 33.6943 67.776 33.1032 67.776 32.3741C67.776 31.645 67.1851 31.0538 66.4558 31.0538Z" fill="#D23C41"/>
<path d="M58.911 32.6871C58.911 31.9579 58.3199 31.3668 57.5908 31.3668H33.5508C32.8217 31.3668 32.2306 31.9579 32.2306 32.6871C32.2306 33.4162 32.8217 34.0073 33.5508 34.0073H57.5908C58.3199 34.0073 58.911 33.4162 58.911 32.6871Z" fill="#D23C41"/>
<path d="M50.4673 27.5415H53.0323C53.7615 27.5415 54.3526 26.9504 54.3526 26.2212C54.3526 25.4921 53.7615 24.901 53.0323 24.901H50.4673C49.7382 24.901 49.1471 25.4921 49.1471 26.2212C49.1471 26.9504 49.7382 27.5415 50.4673 27.5415Z" fill="#D23C41"/>
<path d="M66.4558 24.901H57.5906C56.8615 24.901 56.2704 25.4921 56.2704 26.2212C56.2704 26.9504 56.8615 27.5415 57.5906 27.5415H66.4558C67.185 27.5415 67.7761 26.9504 67.7761 26.2212C67.7761 25.4921 67.1851 24.901 66.4558 24.901Z" fill="#D23C41"/>
<path d="M66.4558 18.2555H63.8908C63.1617 18.2555 62.5706 18.8466 62.5706 19.5757C62.5706 20.3049 63.1617 20.896 63.8908 20.896H66.4558C67.1849 20.896 67.776 20.3049 67.776 19.5757C67.776 18.8466 67.1851 18.2555 66.4558 18.2555Z" fill="#D23C41"/>
<path d="M50.4673 20.896H59.3325C60.0617 20.896 60.6528 20.3049 60.6528 19.5757C60.6528 18.8466 60.0617 18.2555 59.3325 18.2555H50.4673C49.7382 18.2555 49.1471 18.8466 49.1471 19.5757C49.1471 20.3049 49.7382 20.896 50.4673 20.896Z" fill="#D23C41"/>
</g>
<defs>
<clipPath id="clip0_53_904">
<rect width="90" height="90" fill="white" transform="translate(0 0.996704)"/>
</clipPath>
</defs>
</svg>
