<svg width="90" height="91" viewBox="0 0 90 91" fill="none" xmlns="http://www.w3.org/2000/svg">
<g clip-path="url(#clip0_53_814)">
<path d="M78.8746 21.7157H73.2228C72.4947 21.7157 71.9045 22.306 71.9045 23.034C71.9045 23.7621 72.4947 24.3524 73.2228 24.3524H78.8746C80.1428 24.3524 81.1744 25.3842 81.1744 26.6524V68.208C81.1744 69.4763 80.1426 70.5079 78.8746 70.5079H11.1255C9.85726 70.5079 8.82562 69.4761 8.82562 68.208V26.6524C8.82562 25.3842 9.85743 24.3524 11.1255 24.3524H16.7773C17.5053 24.3524 18.0956 23.7621 18.0956 23.034C18.0956 22.306 17.5053 21.7157 16.7773 21.7157H11.1255C8.40341 21.7157 6.18896 23.9303 6.18896 26.6524V68.208C6.18896 70.9301 8.40358 73.1446 11.1255 73.1446H32.9881V75.9008C32.9881 76.6288 33.5784 77.2191 34.3065 77.2191C35.0345 77.2191 35.6248 76.6288 35.6248 75.9008V73.1446H54.3751V84.6984C54.3751 84.9433 54.4433 85.1832 54.572 85.3913L56.4064 88.36H33.5937L35.0417 86.0167H43.9164C44.6444 86.0167 45.2347 85.4265 45.2347 84.6984C45.2347 83.9703 44.6444 83.3801 43.9164 83.3801H35.625V81.25C35.625 80.5219 35.0347 79.9317 34.3066 79.9317C33.5786 79.9317 32.9883 80.5219 32.9883 81.25V84.324L30.4942 88.36H27.1727C26.4446 88.36 25.8544 88.9503 25.8544 89.6783C25.8544 90.4064 26.4446 90.9967 27.1727 90.9967H31.2293H58.7709H63.4809C64.209 90.9967 64.7992 90.4064 64.7992 89.6783C64.7992 88.9503 64.209 88.36 63.4809 88.36H59.5059L57.0118 84.324V73.1446H78.8744C81.5965 73.1446 83.8109 70.93 83.8109 68.208V26.6524C83.8111 23.9303 81.5967 21.7157 78.8746 21.7157Z" fill="#3F3356"/>
<path d="M79.241 61.0609V28.1045C79.241 27.1017 78.4252 26.2859 77.4224 26.2859H73.2227C72.4947 26.2859 71.9044 26.8761 71.9044 27.6042C71.9044 28.3323 72.4947 28.9225 73.2227 28.9225H76.6042V60.2427H13.3959V28.9225H16.7774C17.5054 28.9225 18.0957 28.3323 18.0957 27.6042C18.0957 26.8761 17.5054 26.2859 16.7774 26.2859H12.5779C11.5751 26.2859 10.7593 27.1017 10.7593 28.1045V61.0609C10.7593 62.0637 11.5751 62.8795 12.5779 62.8795H77.4224C78.4252 62.8793 79.241 62.0636 79.241 61.0609Z" fill="#3F3356"/>
<path d="M45.0879 68.4324C46.0587 68.4324 46.8456 67.6454 46.8456 66.6746C46.8456 65.7038 46.0587 64.9169 45.0879 64.9169C44.1171 64.9169 43.3301 65.7038 43.3301 66.6746C43.3301 67.6454 44.1171 68.4324 45.0879 68.4324Z" fill="#3F3356"/>
<path d="M50.4375 86.0169C51.1655 86.0169 51.7558 85.4267 51.7558 84.6986C51.7558 83.9705 51.1655 83.3802 50.4375 83.3802H48.2049C47.4769 83.3802 46.8866 83.9705 46.8866 84.6986C46.8866 85.4267 47.4769 86.0169 48.2049 86.0169H50.4375Z" fill="#3F3356"/>
<path d="M22.3708 22.7492C22.4432 22.761 22.5151 22.7668 22.5861 22.7668C23.2201 22.7668 23.7793 22.3082 23.8855 21.662C24.0776 20.4926 24.369 19.3319 24.7517 18.2124C24.9871 17.5236 24.6195 16.774 23.9305 16.5387C23.2414 16.3033 22.4921 16.671 22.2567 17.3599C21.8269 18.6176 21.4996 19.9213 21.2838 21.2347C21.1657 21.953 21.6524 22.6311 22.3708 22.7492Z" fill="#3F3356"/>
<path d="M24.3917 15.4847C24.591 15.5925 24.8056 15.6436 25.0174 15.6436C25.4861 15.6436 25.9399 15.3931 26.1783 14.9519C26.7413 13.9105 27.3959 12.9075 28.1238 11.9709C28.5706 11.3961 28.4669 10.5679 27.8919 10.1211C27.3171 9.67406 26.4889 9.77812 26.042 10.3529C25.2252 11.4039 24.4906 12.5294 23.8587 13.6983C23.5126 14.3387 23.7511 15.1386 24.3917 15.4847Z" fill="#3F3356"/>
<path d="M29.6382 9.69872C29.9581 9.69872 30.2789 9.58306 30.5323 9.34875C31.4033 8.5444 32.3467 7.80683 33.3365 7.15664C33.9451 6.75692 34.1143 5.93956 33.7146 5.33102C33.3149 4.72248 32.4975 4.5532 31.889 4.95292C30.7786 5.68222 29.7203 6.5096 28.7433 7.41186C28.2084 7.90597 28.1754 8.73986 28.6695 9.27475C28.9293 9.55617 29.2833 9.69872 29.6382 9.69872Z" fill="#3F3356"/>
<path d="M35.9292 5.5692C36.1069 5.5692 36.2876 5.53299 36.4606 5.4567C37.5443 4.97859 38.6756 4.58836 39.823 4.2964C40.5286 4.11693 40.9552 3.39941 40.7757 2.69384C40.5963 1.98827 39.8796 1.56183 39.1732 1.74113C37.8842 2.06895 36.6135 2.50734 35.3964 3.04434C34.7302 3.33824 34.4286 4.1164 34.7225 4.7826C34.9398 5.27565 35.4228 5.5692 35.9292 5.5692Z" fill="#3F3356"/>
<path d="M28.7812 42.9929C29.0345 43.2258 29.3542 43.3408 29.6732 43.3408C30.0292 43.3408 30.3841 43.1975 30.6439 42.9149C31.1368 42.3789 31.1018 41.5451 30.566 41.052C29.6935 40.2498 28.8815 39.3693 28.1522 38.4352C27.7042 37.8613 26.8759 37.759 26.3018 38.2074C25.7279 38.6555 25.6258 39.4839 26.074 40.0578C26.8919 41.1054 27.8028 42.093 28.7812 42.9929Z" fill="#3F3356"/>
<path d="M22.5917 30.2937C22.6638 30.2937 22.7367 30.2877 22.8102 30.2755C23.5282 30.1557 24.0134 29.4765 23.8937 28.7582C23.6996 27.5942 23.6005 26.4005 23.5991 25.2104C23.5982 24.4826 23.0083 23.8934 22.2807 23.8934C22.2804 23.8934 22.2797 23.8934 22.2793 23.8934C21.5511 23.8943 20.9615 24.4851 20.9624 25.2133C20.964 26.5473 21.0751 27.886 21.2929 29.1919C21.4004 29.8368 21.9589 30.2937 22.5917 30.2937Z" fill="#3F3356"/>
<path d="M64.6419 37.2275C64.8416 37.3358 65.0567 37.3871 65.2689 37.3871C65.737 37.3871 66.1903 37.1373 66.429 36.6968C67.0638 35.526 67.6044 34.2947 68.0358 33.0371C68.2721 32.3485 67.9052 31.5986 67.2165 31.3623C66.5276 31.1261 65.7779 31.4928 65.5417 32.1816C65.1576 33.3012 64.6763 34.3975 64.111 35.4404C63.7642 36.0804 64.0017 36.8805 64.6419 37.2275Z" fill="#3F3356"/>
<path d="M60.6443 43.3259C60.9637 43.3259 61.284 43.2106 61.5373 42.9771C62.5151 42.0761 63.4251 41.0875 64.242 40.0394C64.6895 39.4651 64.5867 38.6367 64.0122 38.1893C63.4378 37.7416 62.6095 37.8446 62.1622 38.4191C61.4339 39.3537 60.6227 40.2348 59.7507 41.0383C59.2152 41.5317 59.1811 42.3658 59.6745 42.9012C59.9345 43.183 60.2889 43.3259 60.6443 43.3259Z" fill="#3F3356"/>
<path d="M43.2208 3.7134C43.2575 3.7134 43.2946 3.71182 43.332 3.70883C44.509 3.61057 45.7177 3.60864 46.8931 3.7025C47.6205 3.76051 48.2543 3.21929 48.3123 2.49351C48.3705 1.76773 47.8291 1.13229 47.1033 1.07429C45.7857 0.968819 44.4319 0.97128 43.1125 1.08132C42.3871 1.14196 41.848 1.77933 41.9084 2.50494C41.9659 3.19293 42.5423 3.7134 43.2208 3.7134Z" fill="#3F3356"/>
<path d="M26.2012 35.4598C25.6353 34.4188 25.1532 33.3241 24.7682 32.2061C24.5311 31.5176 23.7809 31.152 23.0925 31.3889C22.404 31.6261 22.0382 32.3763 22.2754 33.0646C22.7078 34.3204 23.2492 35.5499 23.8846 36.719C24.1237 37.1586 24.5766 37.4081 25.0442 37.4081C25.2567 37.4081 25.4726 37.3566 25.6726 37.2478C26.3121 36.8999 26.5489 36.0994 26.2012 35.4598Z" fill="#3F3356"/>
<path d="M50.4042 4.2774C51.5531 4.56515 52.6864 4.95168 53.7727 5.42628C53.9446 5.50134 54.1235 5.53684 54.2998 5.53684C54.808 5.53684 55.2921 5.24136 55.5085 4.74602C55.8001 4.07895 55.4955 3.30166 54.8282 3.01022C53.6083 2.47709 52.3352 2.04292 51.0446 1.71967C50.3392 1.54301 49.6226 1.97191 49.4455 2.67836C49.2687 3.38463 49.698 4.10057 50.4042 4.2774Z" fill="#3F3356"/>
<path d="M33.3756 43.2384C32.7664 42.8401 31.9494 43.0111 31.5509 43.6205C31.1526 44.23 31.3236 45.047 31.933 45.4453C33.0478 46.1741 34.2301 46.8139 35.4472 47.3474C35.6194 47.423 35.7989 47.4587 35.9757 47.4587C36.4832 47.4587 36.9669 47.1639 37.1838 46.6692C37.4763 46.0025 37.1728 45.2249 36.5059 44.9326C35.4219 44.4578 34.3688 43.8876 33.3756 43.2384Z" fill="#3F3356"/>
<path d="M50.454 46.0794C49.3083 46.3693 48.1276 46.5657 46.9444 46.663C46.2188 46.7228 45.679 47.3595 45.7388 48.0851C45.7955 48.774 46.3721 49.2953 47.0511 49.2953C47.0873 49.2953 47.1241 49.2937 47.1608 49.2907C48.4886 49.1814 49.8142 48.961 51.1007 48.6356C51.8066 48.457 52.2339 47.74 52.0555 47.0343C51.8771 46.3285 51.1601 45.9007 50.454 46.0794Z" fill="#3F3356"/>
<path d="M56.9439 43.2271C55.9518 43.8768 54.9001 44.4477 53.8177 44.9235C53.1512 45.2166 52.8485 45.9946 53.1415 46.6611C53.3587 47.1551 53.842 47.4491 54.3491 47.4491C54.5263 47.4491 54.7064 47.4131 54.879 47.3373C56.0944 46.8028 57.2751 46.1621 58.3884 45.4328C58.9975 45.0338 59.1678 44.2167 58.769 43.6077C58.37 42.9982 57.5526 42.8281 56.9439 43.2271Z" fill="#3F3356"/>
<path d="M39.873 46.0859C39.1664 45.908 38.4504 46.3366 38.2727 47.0425C38.095 47.7486 38.5232 48.4651 39.2293 48.6428C40.5158 48.9667 41.8417 49.1856 43.1701 49.2933C43.2065 49.2963 43.2423 49.2977 43.2782 49.2977C43.9579 49.2977 44.5348 48.7753 44.5907 48.0859C44.6494 47.3601 44.1089 46.7241 43.3833 46.6653C42.1996 46.5691 41.0186 46.3742 39.873 46.0859Z" fill="#3F3356"/>
<path d="M56.9045 7.11697C57.8968 7.76383 58.8428 8.49841 59.7166 9.30013C59.9697 9.5325 60.2891 9.64711 60.6076 9.64711C60.9639 9.64711 61.3193 9.5035 61.5793 9.22015C62.0716 8.68368 62.0358 7.84979 61.4993 7.35744C60.5192 6.45799 59.4577 5.63394 58.3446 4.90816C57.7347 4.51073 56.9179 4.68246 56.5203 5.29258C56.1227 5.90253 56.2947 6.71937 56.9045 7.11697Z" fill="#3F3356"/>
<path d="M68.021 23.8121C67.2929 23.8121 66.7027 24.4024 66.7027 25.1305V25.1848C66.7027 26.3748 66.6049 27.5685 66.4123 28.7327C66.2935 29.4509 66.7793 30.1297 67.4977 30.2486C67.5707 30.2605 67.6431 30.2665 67.7146 30.2665C68.3479 30.2665 68.9067 29.8088 69.0136 29.1633C69.2298 27.8571 69.3395 26.5186 69.3395 25.185V25.1306C69.3393 24.4024 68.7491 23.8121 68.021 23.8121Z" fill="#3F3356"/>
<path d="M62.1337 11.9142C62.8646 12.8481 63.5222 13.8483 64.0886 14.8873C64.3278 15.3264 64.7802 15.5751 65.2473 15.5751C65.4603 15.5751 65.6765 15.5233 65.8769 15.4141C66.5162 15.0657 66.7521 14.2649 66.4037 13.6257C65.7683 12.4598 65.0304 11.3373 64.2102 10.2893C63.7614 9.71592 62.9332 9.61467 62.3594 10.0636C61.786 10.5122 61.685 11.3408 62.1337 11.9142Z" fill="#3F3356"/>
<path d="M65.5252 18.1392C65.9117 19.2573 66.2074 20.4169 66.4039 21.5858C66.5122 22.2299 67.0704 22.6858 67.7023 22.6858C67.7749 22.6858 67.8486 22.6799 67.9224 22.6676C68.6403 22.5468 69.1247 21.8669 69.004 21.1488C68.7834 19.8361 68.4513 18.5338 68.017 17.2777C67.779 16.5895 67.0286 16.225 66.3402 16.4624C65.6522 16.7004 65.2871 17.4512 65.5252 18.1392Z" fill="#3F3356"/>
<path d="M45.1509 6.65369C34.9328 6.65369 26.6196 14.9667 26.6196 25.185C26.6196 35.4033 34.9327 43.7163 45.1509 43.7163C55.3692 43.7163 63.6822 35.4031 63.6822 25.1848C63.6822 14.9665 55.369 6.65369 45.1509 6.65369ZM55.5601 23.8665C55.4873 21.9445 55.2569 20.1119 54.8902 18.4076C57.9969 19.7428 60.2069 21.6839 60.8515 23.8665H55.5601ZM52.9194 23.8665H46.4693V16.5698C48.3931 16.6605 50.2321 16.947 51.9164 17.3919C52.4826 19.3727 52.8243 21.5689 52.9194 23.8665ZM46.4693 13.9323V9.54452C47.9149 10.0917 49.3103 11.5125 50.4322 13.6306C50.5694 13.8897 50.6995 14.159 50.8262 14.4325C49.4248 14.1636 47.9644 13.995 46.4693 13.9323ZM43.8326 9.54452V13.9323C42.3374 13.9948 40.8769 14.1636 39.4756 14.4325C39.6024 14.159 39.7324 13.8897 39.8697 13.6306C40.9913 11.5125 42.387 10.0917 43.8326 9.54452ZM43.8326 16.5698V23.8665H37.3825C37.4776 21.5687 37.8191 19.3727 38.3854 17.3919C40.0696 16.947 41.9085 16.6605 43.8326 16.5698ZM34.7416 23.8665H29.4502C30.0947 21.6839 32.3046 19.7429 35.4113 18.4077C35.0448 20.1119 34.8142 21.9447 34.7416 23.8665ZM34.7416 26.5031C34.8144 28.4249 35.0448 30.2577 35.4115 31.9619C32.3048 30.6267 30.0947 28.6858 29.4503 26.5031H34.7416ZM37.3823 26.5031H43.8324V33.7998C41.9085 33.7091 40.0694 33.4226 38.3851 32.9777C37.8191 30.9969 37.4774 28.8009 37.3823 26.5031ZM43.8326 36.4374V40.8253C42.387 40.2781 40.9913 38.8573 39.8697 36.7392C39.7324 36.4799 39.6024 36.2108 39.4756 35.9371C40.8769 36.206 42.3373 36.3748 43.8326 36.4374ZM46.4693 40.8253V36.4374C47.9644 36.3748 49.425 36.206 50.8262 35.9371C50.6995 36.2108 50.5694 36.4799 50.4322 36.7392C49.3103 38.8573 47.9149 40.2781 46.4693 40.8253ZM46.4693 33.7998V26.5031H52.9194C52.8243 28.8007 52.4828 30.9969 51.9164 32.9777C50.2321 33.4226 48.3931 33.7091 46.4693 33.7998ZM55.5601 26.5031H60.8515C60.2069 28.6858 57.9971 30.6267 54.8902 31.9619C55.2569 30.2579 55.4875 28.4251 55.5601 26.5031ZM59.2129 17.7827C58.826 17.5109 58.4163 17.2487 57.9828 16.9976C56.7807 16.3017 55.4416 15.7176 54.0057 15.2481C53.3989 13.5222 52.6357 11.9956 51.7485 10.7257C54.9458 12.1905 57.5759 14.6851 59.2129 17.7827ZM38.5531 10.7257C37.666 11.9956 36.9028 13.5222 36.296 15.2481C34.8601 15.7175 33.521 16.3017 32.319 16.9976C31.8856 17.2487 31.4758 17.5107 31.0889 17.7827C32.7259 14.6851 35.3561 12.1905 38.5531 10.7257ZM31.0888 32.5871C31.4756 32.8589 31.8854 33.1212 32.319 33.3722C33.5212 34.0681 34.8602 34.6522 36.296 35.1215C36.9028 36.8475 37.666 38.3741 38.5531 39.6441C35.3559 38.1793 32.726 35.6845 31.0888 32.5871ZM51.7485 39.6441C52.6357 38.3743 53.3989 36.8476 54.0057 35.1215C55.4416 34.6522 56.7807 34.0681 57.9828 33.3722C58.4163 33.1212 58.826 32.8589 59.2131 32.5871C57.5759 35.6847 54.9458 38.1793 51.7485 39.6441Z" fill="#D23C41"/>
<path d="M68.4604 37.6454C68.4604 38.3735 69.0507 38.9638 69.7788 38.9638H71.7285V54.031H64.2346C63.5065 54.031 62.9163 54.6213 62.9163 55.3493C62.9163 56.0774 63.5065 56.6676 64.2346 56.6676H72.2697C73.4251 56.6676 74.3652 55.7276 74.3652 54.5722V38.4227C74.3652 37.2673 73.4251 36.3273 72.2697 36.3273H69.7788C69.0507 36.3271 68.4604 36.9174 68.4604 37.6454Z" fill="#3F3356"/>
<path d="M15.9368 38.4228V54.5723C15.9368 55.7277 16.8768 56.6677 18.0322 56.6677H58.8856C59.6137 56.6677 60.204 56.0775 60.204 55.3494C60.204 54.6213 59.6137 54.0311 58.8856 54.0311H18.5734V38.9638H20.3971C21.1252 38.9638 21.7154 38.3735 21.7154 37.6455C21.7154 36.9174 21.1252 36.3271 20.3971 36.3271H18.0322C16.8768 36.3273 15.9368 37.2674 15.9368 38.4228Z" fill="#3F3356"/>
</g>
<defs>
<clipPath id="clip0_53_814">
<rect width="90" height="90" fill="white" transform="translate(0 0.996704)"/>
</clipPath>
</defs>
</svg>
