<svg width="90" height="91" viewBox="0 0 90 91" fill="none" xmlns="http://www.w3.org/2000/svg">
<g clip-path="url(#clip0_53_877)">
<path d="M15.9845 69.8501C15.5222 69.2852 14.6898 69.2017 14.1254 69.6634C13.5605 70.1252 13.477 70.9577 13.9386 71.5225C14.7798 72.5514 15.6834 73.5507 16.6244 74.4927C16.8825 74.751 17.2209 74.8801 17.5592 74.8801C17.8971 74.8801 18.2349 74.7513 18.4928 74.4938C19.0091 73.978 19.0097 73.1415 18.4941 72.6253C17.6147 71.7451 16.7703 70.8114 15.9845 69.8501Z" fill="#3F3356"/>
<path d="M13.7627 66.8396C13.0756 65.8044 12.4328 64.7223 11.8524 63.6237C11.5114 62.9788 10.7123 62.7318 10.0669 63.0727C9.42186 63.4137 9.17508 64.2129 9.51593 64.8581C10.1374 66.0343 10.8256 67.1926 11.561 68.3008C11.8154 68.6841 12.2352 68.8916 12.663 68.8916C12.914 68.8916 13.1677 68.8202 13.3925 68.671C14.0004 68.2675 14.1661 67.4475 13.7627 66.8396Z" fill="#3F3356"/>
<path d="M10.2733 60.233C9.80576 59.0812 9.39163 57.893 9.04303 56.7016C8.83799 56.0014 8.10415 55.5997 7.40377 55.8048C6.70358 56.0098 6.30213 56.7437 6.50699 57.444C6.88061 58.7203 7.32415 59.9931 7.82495 61.227C8.03333 61.7403 8.52761 62.0516 9.04954 62.0516C9.21477 62.0516 9.38335 62.0202 9.54594 61.9542C10.2222 61.6797 10.5477 60.9091 10.2733 60.233Z" fill="#3F3356"/>
<path d="M24.2748 77.3633C23.2403 76.6749 22.2282 75.9263 21.2667 75.138C20.702 74.6756 19.8697 74.7579 19.4073 75.3223C18.9447 75.8866 19.0273 76.7191 19.5917 77.1817C20.6208 78.0251 21.7039 78.8264 22.8112 79.5633C23.0362 79.713 23.2903 79.7847 23.5417 79.7847C23.969 79.7847 24.3885 79.5775 24.6428 79.1951C25.0471 78.5876 24.8824 77.7676 24.2748 77.3633Z" fill="#3F3356"/>
<path d="M7.11696 54.6052C7.83424 54.4713 8.30738 53.7814 8.17351 53.0643C7.9461 51.8457 7.77752 50.5985 7.67236 49.3574C7.61053 48.6302 6.96934 48.0917 6.24431 48.1525C5.51734 48.2143 4.97797 48.8534 5.03944 49.5805C5.15218 50.9089 5.33273 52.2439 5.576 53.5485C5.69455 54.1839 6.24942 54.6276 6.87317 54.6276C6.95367 54.6278 7.03522 54.6205 7.11696 54.6052Z" fill="#3F3356"/>
<path d="M6.20188 46.9196C6.20805 46.9198 6.21421 46.9198 6.22055 46.9198C6.94154 46.9198 7.53111 46.3404 7.54115 45.617C7.55859 44.3704 7.63839 43.1136 7.77807 41.8817C7.86034 41.1567 7.33928 40.5023 6.61443 40.42C5.88904 40.3378 5.235 40.8587 5.15273 41.5837C5.00318 42.902 4.91792 44.2466 4.89943 45.5802C4.88904 46.3098 5.47227 46.9094 6.20188 46.9196Z" fill="#3F3356"/>
<path d="M38.0447 82.9682C36.8233 82.739 35.5999 82.4452 34.4085 82.0948C33.7072 81.8882 32.9739 82.2895 32.7682 82.9895C32.5622 83.6897 32.9628 84.4239 33.6628 84.6298C34.939 85.005 36.2494 85.3198 37.5573 85.5652C37.6398 85.5807 37.7217 85.5881 37.8025 85.5881C38.4256 85.5881 38.9804 85.145 39.0993 84.5104C39.2341 83.7929 38.762 83.1026 38.0447 82.9682Z" fill="#3F3356"/>
<path d="M30.8784 80.8603C29.7287 80.3921 28.5885 79.8596 27.4893 79.2776C26.8444 78.9362 26.045 79.1821 25.7035 79.8268C25.3619 80.4715 25.6078 81.2711 26.2527 81.6126C27.4296 82.2359 28.6505 82.8061 29.8818 83.3076C30.0451 83.374 30.2136 83.4055 30.3796 83.4055C30.901 83.4055 31.3949 83.0948 31.6036 82.5823C31.8789 81.9063 31.5541 81.1354 30.8784 80.8603Z" fill="#3F3356"/>
<path d="M52.9185 82.7722C51.705 83.0334 50.463 83.2363 49.2263 83.3751C48.5012 83.4565 47.9795 84.1104 48.0609 84.8354C48.1368 85.5104 48.7086 86.0093 49.3719 86.0093C49.4213 86.0093 49.4711 86.0064 49.5211 86.0008C50.8453 85.8521 52.1752 85.6349 53.4745 85.3552C54.1879 85.2016 54.6416 84.499 54.488 83.7857C54.3344 83.0723 53.6302 82.6191 52.9185 82.7722Z" fill="#3F3356"/>
<path d="M45.508 83.608C45.5022 83.608 45.4962 83.608 45.4903 83.6081C44.2403 83.6238 42.9859 83.5789 41.7508 83.4727C41.0233 83.4121 40.3838 83.9492 40.3217 84.6761C40.2595 85.4031 40.798 86.0429 41.5251 86.1052C42.672 86.2037 43.8399 86.2536 44.9972 86.2536C45.1735 86.2534 45.3495 86.2523 45.5251 86.2499C46.2548 86.2404 46.8383 85.6411 46.8286 84.9115C46.8191 84.188 46.2296 83.608 45.508 83.608Z" fill="#3F3356"/>
<path d="M59.8389 11.7506C60.9795 12.2435 62.1081 12.8 63.1939 13.4047C63.3973 13.5183 63.6178 13.5719 63.8356 13.5719C64.2994 13.5719 64.7493 13.3272 64.9909 12.8933C65.3461 12.256 65.1172 11.4514 64.4797 11.0964C63.3172 10.4487 62.1084 9.85262 60.887 9.32505C60.2173 9.03582 59.4396 9.34408 59.1503 10.0138C58.8607 10.6837 59.169 11.4612 59.8389 11.7506Z" fill="#3F3356"/>
<path d="M66.3677 15.3861C67.3869 16.0955 68.3831 16.8651 69.3286 17.6738C69.5777 17.8866 69.8828 17.9909 70.1867 17.9909C70.5594 17.9909 70.9302 17.8339 71.1914 17.5285C71.6655 16.9739 71.6005 16.1399 71.0461 15.6657C70.0343 14.8004 68.9681 13.9768 67.8772 13.2174C67.2782 12.8008 66.4549 12.9482 66.0381 13.5471C65.621 14.1459 65.7686 14.9694 66.3677 15.3861Z" fill="#3F3356"/>
<path d="M76.6573 26.1272C77.323 27.1776 77.9429 28.2729 78.4993 29.3823C78.731 29.8443 79.1972 30.1116 79.6813 30.1116C79.8803 30.1116 80.0824 30.0663 80.2724 29.971C80.9246 29.6441 81.1881 28.8501 80.8611 28.1979C80.2652 27.0099 79.6018 25.8373 78.8888 24.7126C78.4983 24.0964 77.6818 23.9134 77.0656 24.3042C76.4495 24.6948 76.2666 25.511 76.6573 26.1272Z" fill="#3F3356"/>
<path d="M74.4993 23.0711C74.7598 23.4036 75.1481 23.5773 75.54 23.5773C75.825 23.5773 76.1123 23.4855 76.354 23.296C76.9284 22.8459 77.029 22.0156 76.579 21.4413C75.7588 20.3946 74.8763 19.3767 73.9559 18.4159C73.4514 17.8894 72.615 17.8709 72.088 18.3758C71.5611 18.8804 71.5432 19.7168 72.0478 20.2437C72.908 21.1417 73.7327 22.0929 74.4993 23.0711Z" fill="#3F3356"/>
<path d="M80.0063 32.8055C80.4492 33.9662 80.8377 35.1628 81.1615 36.362C81.3206 36.9512 81.854 37.3391 82.4361 37.3391C82.5501 37.3391 82.6662 37.3241 82.7814 37.2931C83.4858 37.1029 83.9026 36.3777 83.7125 35.6732C83.3655 34.3886 82.9493 33.1067 82.4749 31.8635C82.2147 31.1818 81.4513 30.8399 80.7696 31.1002C80.0879 31.3604 79.7463 32.1238 80.0063 32.8055Z" fill="#3F3356"/>
<path d="M83.797 46.2023C83.066 46.1722 82.4563 46.7477 82.4309 47.4767C82.3876 48.7228 82.2817 49.9775 82.1161 51.206C82.0186 51.9289 82.5257 52.5942 83.249 52.6918C83.3089 52.6999 83.3684 52.7038 83.4272 52.7038C84.0783 52.7038 84.6453 52.2224 84.7348 51.559C84.9122 50.2442 85.0253 48.9016 85.0716 47.5683C85.0968 46.8391 84.5262 46.2275 83.797 46.2023Z" fill="#3F3356"/>
<path d="M37.5915 9.40088C37.6746 9.40088 37.7588 9.39313 37.8436 9.37674C39.0627 9.14106 40.309 8.96438 41.5478 8.85164C42.2744 8.78558 42.8099 8.14299 42.7437 7.41637C42.6776 6.68957 42.0331 6.15196 41.3084 6.22049C39.982 6.34133 38.6477 6.53033 37.3422 6.78258C36.6258 6.92086 36.1573 7.61401 36.2959 8.33024C36.4178 8.96209 36.9713 9.40088 37.5915 9.40088Z" fill="#3F3356"/>
<path d="M83.043 38.4986C82.323 38.6171 81.8356 39.2969 81.954 40.0168C82.1557 41.2409 82.2978 42.4914 82.3771 43.7336C82.4217 44.4332 83.003 44.9707 83.6944 44.9707C83.7225 44.9707 83.7509 44.9698 83.7794 44.9679C84.5076 44.9215 85.0602 44.2936 85.0139 43.5655C84.9293 42.2361 84.7768 40.8976 84.5612 39.5874C84.4425 38.8676 83.7625 38.3811 83.043 38.4986Z" fill="#3F3356"/>
<path d="M52.7181 9.49178C53.9343 9.7465 55.1513 10.0662 56.3352 10.4419C56.4682 10.484 56.6027 10.5043 56.7352 10.5043C57.2955 10.5043 57.8157 10.1449 57.994 9.5825C58.2147 8.88706 57.8298 8.14441 57.1344 7.9237C55.8663 7.52119 54.5626 7.17876 53.2599 6.9059C52.5462 6.7567 51.8458 7.21399 51.6959 7.9281C51.5464 8.64168 52.0042 9.34205 52.7181 9.49178Z" fill="#3F3356"/>
<path d="M45.2884 8.69618C46.5341 8.7057 47.791 8.77721 49.024 8.90897C49.0718 8.91391 49.119 8.91655 49.1658 8.91655C49.8325 8.91655 50.4056 8.41346 50.478 7.73546C50.5553 7.01008 50.03 6.3592 49.3044 6.28152C47.9856 6.14078 46.6411 6.06415 45.3087 6.05393C44.5747 6.04495 43.9831 6.63541 43.9773 7.36484C43.9719 8.09463 44.5588 8.69055 45.2884 8.69618Z" fill="#3F3356"/>
<path d="M29.2057 27.2196C29.6335 26.6286 29.5012 25.8027 28.9103 25.3746C28.3195 24.9469 27.4933 25.0791 27.0653 25.67C26.9985 25.7623 26.9268 25.8501 26.8572 25.9397C26.1035 24.0532 24.6274 22.559 22.7801 21.771C23.3383 21.0435 23.7089 20.1655 23.8192 19.209H24.9413C26.2994 19.209 27.4042 18.1042 27.4042 16.7463V14.0142C27.4042 13.9097 27.4012 13.8058 27.3971 13.7024C28.4623 15.3593 29.0831 17.3276 29.0831 19.4393C29.0831 19.8927 29.0507 20.3674 28.9867 20.8499C28.8911 21.5731 29.3998 22.2372 30.1231 22.333C30.8456 22.4283 31.5102 21.92 31.6062 21.1967C31.6852 20.5996 31.7253 20.0084 31.7253 19.4393C31.7253 12.1149 25.7665 6.15613 18.4422 6.15613C11.1181 6.15613 5.15942 12.1149 5.15942 19.4393C5.15942 26.7636 11.1181 32.7222 18.4422 32.7222C22.6874 32.7222 26.711 30.6653 29.2057 27.2196ZM24.7042 28.0304C22.903 29.3414 20.7131 30.08 18.4424 30.08C16.1633 30.08 14.0511 29.3574 12.3178 28.1326C12.6382 25.6655 14.7228 23.7997 17.2685 23.7997H19.7684C22.2564 23.7997 24.3351 25.6015 24.7042 28.0304ZM21.2122 18.6096C21.2122 19.9311 20.2063 21.0218 18.9201 21.1574H17.965C16.6788 21.0218 15.6729 19.9312 15.6729 18.6096V15.633H21.2122V18.6096ZM24.7621 16.5669H23.8544V14.3119C23.8544 13.5821 23.2631 12.9907 22.5333 12.9907H14.3518C13.622 12.9907 13.0307 13.5821 13.0307 14.3119V16.5669H12.123V14.0142C12.123 11.7452 13.6169 9.81899 15.6726 9.16636C15.9447 9.0929 16.2213 9.0309 16.5014 8.97911C16.7327 8.94687 16.9683 8.92891 17.2084 8.92891H19.6768C19.9167 8.92891 20.1523 8.94687 20.3834 8.97911C20.6638 9.03107 20.9407 9.09308 21.213 9.16671C23.2685 9.81952 24.7623 11.7455 24.7623 14.0145V16.5669H24.7621ZM7.80185 19.4393C7.80185 17.3267 8.42313 15.3577 9.48902 13.7005C9.48479 13.8047 9.48056 13.9088 9.48056 14.0142V16.7463C9.48056 18.1042 10.5854 19.209 11.9435 19.209H13.0654C13.1781 20.1863 13.5639 21.0806 14.1427 21.8171C12.2979 22.6366 10.8463 24.1629 10.1276 26.0678C8.67397 24.2481 7.80185 21.9443 7.80185 19.4393Z" fill="#D23C41"/>
<path d="M75.3283 54.4998C76.0732 51.7889 76.4516 48.9884 76.4516 46.1533C76.4516 41.9826 75.6226 37.8924 74.0517 34.1038C74.0262 34.0178 73.9917 33.9345 73.9489 33.8549C72.6638 30.8291 70.9027 28.0009 68.7079 25.4849C64.683 20.8717 59.4276 17.5532 53.6174 15.8979C53.5697 15.8819 53.5211 15.8685 53.4719 15.8581C52.5412 15.5978 51.5961 15.3806 50.64 15.2069C50.2454 12.4937 47.9045 10.4029 45.0839 10.4029C42.2739 10.4029 39.9397 12.4773 39.5316 15.1752C38.5226 15.3522 37.5207 15.5782 36.5339 15.8532C34.8599 7.39447 27.3848 0.996704 18.4424 0.996704C8.27324 0.996704 0 9.27012 0 19.4393C0 28.3428 6.34211 35.7927 14.7459 37.5093C13.9462 40.3111 13.5398 43.2114 13.5398 46.1531C13.5398 50.4165 14.3939 54.4836 15.9375 58.1946C15.9648 58.2886 16.0031 58.3795 16.051 58.4658C19.7477 67.1227 27.2178 73.7978 36.3833 76.4102C36.4271 76.4247 36.4713 76.4368 36.5163 76.4467C39.2149 77.2031 42.0586 77.6089 44.9956 77.6089C47.8929 77.6089 50.7506 77.2149 53.513 76.4393C53.5177 76.4381 53.5225 76.4377 53.5272 76.4365C55.3152 84.7476 62.7196 90.9965 71.5573 90.9965C81.7264 90.9965 89.9998 82.7231 89.9998 72.554C90 63.6769 83.6951 56.2451 75.3283 54.4998ZM71.5573 54.1116C67.0448 54.1116 62.9065 55.7415 59.698 58.4422C59.9923 56.4258 60.2116 54.3485 60.3566 52.2268C62.8449 51.8202 64.8356 49.9169 65.3721 47.4743H73.7782C73.6755 49.7413 73.3091 51.9768 72.6832 54.147C72.3107 54.1244 71.9355 54.1116 71.5573 54.1116ZM53.1165 72.421C52.8547 72.9854 52.5855 73.523 52.3125 74.028C50.3565 74.5402 48.3502 74.8441 46.3169 74.9361V66.2474C49.0883 66.1946 51.8204 65.9742 54.4808 65.5918C53.6169 67.7024 53.1336 70.0072 53.1165 72.421ZM37.6803 74.0248C36.8472 72.4877 36.0852 70.7174 35.4069 68.74C36.5386 68.134 37.4162 67.1146 37.8388 65.8851C39.7558 66.0889 41.7097 66.2101 43.6746 66.2478V74.9353C41.6132 74.8418 39.6077 74.5311 37.6803 74.0248ZM16.2136 47.4744H29.4394C29.5006 51.7225 29.8573 55.8454 30.5016 59.7653C29.769 60.1771 29.1481 60.7641 28.695 61.469C24.7089 60.3417 21.1364 58.7914 18.283 56.9497C17.0866 54.0006 16.3649 50.8107 16.2136 47.4744ZM36.8795 19.8796C37.1404 19.3179 37.4076 18.7817 37.6787 18.2804C38.368 18.1 39.0644 17.945 39.765 17.8164C40.3683 19.5964 41.84 20.9792 43.6746 21.4549V26.0593C40.8552 26.1129 38.0794 26.3387 35.3804 26.7322C36.2927 24.6214 36.8222 22.308 36.8795 19.8796ZM50.3923 17.8467C51.0386 17.9693 51.6793 18.1136 52.3129 18.2797C53.6041 20.6628 54.7089 23.5846 55.5882 26.8798C52.6097 26.3986 49.4985 26.1192 46.3169 26.0585V21.496C48.2221 21.0674 49.7631 19.6684 50.3923 17.8467ZM73.7789 44.8322H65.3723C64.8359 42.3899 62.8458 40.4869 60.3582 40.08C60.1232 36.6542 59.6869 33.3461 59.0737 30.2529C63.9254 31.391 68.2541 33.1233 71.7119 35.359C72.9233 38.3581 73.629 41.5591 73.7789 44.8322ZM55.9914 62.6735C52.8681 63.2256 49.6231 63.5397 46.3167 63.6052V47.4744H53.3499C53.839 49.7011 55.5366 51.479 57.718 52.0841C57.4779 55.578 57.0268 58.9404 56.3733 62.0991C56.2428 62.2881 56.1151 62.4794 55.9914 62.6735ZM59.3612 49.6663C57.424 49.6663 55.848 48.0904 55.848 46.1533C55.848 44.2162 57.424 42.6403 59.3612 42.6403C61.2983 42.6403 62.8741 44.2162 62.8741 46.1533C62.8741 48.0904 61.2983 49.6663 59.3612 49.6663ZM57.7193 40.2222C55.5373 40.8271 53.8392 42.6051 53.35 44.8322H46.3169V28.7014C49.7531 28.7691 53.0964 29.0995 56.2606 29.6711C56.9664 32.9433 57.4631 36.5056 57.7193 40.2222ZM33.7068 29.7784C33.731 29.7428 33.7548 29.7071 33.7785 29.6713C36.9663 29.0951 40.2857 28.7685 43.6745 28.7016V44.8322H32.079C32.1594 39.5715 32.7178 34.399 33.7068 29.7784ZM43.6745 47.4744V63.6052C41.7696 63.5673 39.8765 63.4474 38.0208 63.2471C37.5666 60.9161 35.5252 59.1468 33.0713 59.113C32.4729 55.4005 32.141 51.4973 32.0813 47.4744H43.6745ZM32.317 61.8514C32.3274 61.8486 32.338 61.8463 32.3482 61.8433C32.5564 61.7863 32.7743 61.7533 33.0003 61.7533C34.3642 61.7533 35.4736 62.8629 35.4738 64.2267C35.4733 64.2439 35.4719 64.2612 35.4706 64.2784L35.4652 64.3651C35.4646 64.3767 35.4654 64.388 35.465 64.3996C35.3757 65.6831 34.3059 66.7007 33.0003 66.7007C31.6364 66.7007 30.5266 65.5909 30.5266 64.227C30.5266 63.1003 31.2846 62.149 32.317 61.8514ZM66.7168 27.2219C67.7899 28.452 68.7484 29.7643 69.5893 31.1413C66.3017 29.5348 62.5285 28.2767 58.4468 27.4123C57.7293 24.4817 56.8447 21.7937 55.816 19.4456C59.9724 21.1319 63.7175 23.784 66.7168 27.2219ZM45.0837 13.045C46.7233 13.045 48.0571 14.3788 48.0571 16.0184C48.0571 17.658 46.7233 18.9918 45.0837 18.9918C43.4441 18.9918 42.1103 17.658 42.1103 16.0184C42.1103 14.3788 43.4442 13.045 45.0837 13.045ZM2.64225 19.4393C2.64225 10.7269 9.73018 3.63896 18.4424 3.63896C27.1548 3.63896 34.2427 10.7269 34.2427 19.4393C34.2427 19.4724 34.2416 19.5051 34.2415 19.5381C34.2413 19.5425 34.2415 19.5469 34.2413 19.5513C34.1807 28.2121 27.1172 35.2394 18.4424 35.2394C9.73018 35.2396 2.64225 28.1515 2.64225 19.4393ZM18.4424 37.8818C22.9761 37.8818 27.132 36.2364 30.347 33.5128C29.8037 37.1291 29.4939 40.9595 29.4364 44.8322H16.2129C16.3203 42.4561 16.7175 40.117 17.3983 37.8517C17.7441 37.8709 18.092 37.8818 18.4424 37.8818ZM20.4093 61.1625C22.6769 62.2666 25.1983 63.22 27.8905 63.9867C27.8868 64.0664 27.8844 64.1465 27.8844 64.227C27.8844 66.9869 30.0815 69.242 32.8183 69.3383C33.2381 70.5853 33.6919 71.7576 34.1743 72.8561C28.4354 70.5217 23.6124 66.3903 20.4093 61.1625ZM71.5573 88.3545C62.8939 88.3545 55.8376 81.3454 55.7587 72.7003C55.7587 72.6988 55.7589 72.6972 55.7589 72.6958L55.7568 72.5541C55.7568 63.8419 62.8447 56.754 71.5571 56.754C80.2695 56.754 87.3574 63.8419 87.3574 72.5541C87.3577 81.2664 80.2696 88.3545 71.5573 88.3545Z" fill="#3F3356"/>
<path d="M83.4935 74.0776C82.7845 73.9073 82.0708 74.3438 81.8999 75.053C81.6344 76.1559 81.2034 77.1809 80.6394 78.1074V67.1586C80.6394 67.1109 80.6357 67.0642 80.6348 67.0168C81.2432 68.0063 81.6963 69.1046 81.9524 70.2823C82.1074 70.9952 82.8097 71.4463 83.5242 71.2925C84.2372 71.1373 84.6894 70.4338 84.5344 69.7207C83.8999 66.8035 82.2703 64.1526 79.9455 62.2559C77.5862 60.3309 74.6071 59.271 71.5572 59.271C64.2329 59.271 58.2743 65.2296 58.2743 72.5539C58.2743 79.8783 64.2329 85.8369 71.5572 85.8369C77.7188 85.8369 83.0283 81.6567 84.4689 75.6711C84.6396 74.9617 84.2031 74.2485 83.4935 74.0776ZM74.4473 71.754C74.4473 73.0752 73.4421 74.1657 72.1563 74.3019H71.199C69.9132 74.1657 68.9079 73.0753 68.9079 71.754V68.7775H74.4472V71.754H74.4473ZM75.7685 66.1352H67.587C66.8572 66.1352 66.2659 66.7266 66.2659 67.4563V71.754C66.2659 72.964 66.6833 74.0766 67.3786 74.9612C66.6335 75.2922 65.9527 75.738 65.358 76.2781V67.1586C65.358 64.3545 67.6393 62.0732 70.4434 62.0732H72.9118C73.168 62.0732 73.4195 62.0927 73.6654 62.1294C74.002 62.1984 74.3339 62.2821 74.6594 62.3827C76.6052 63.097 77.9971 64.9684 77.9971 67.1586V76.1513C77.4074 75.6429 76.7398 75.2244 76.0142 74.9151C76.6873 74.038 77.0896 72.9425 77.0896 71.754V67.4563C77.0896 66.7266 76.4981 66.1352 75.7685 66.1352ZM60.9165 72.5539C60.9165 70.354 61.5877 68.3078 62.7358 66.6094C62.723 66.7908 62.7156 66.9739 62.7156 67.1586V78.4671C61.5803 76.7749 60.9165 74.7407 60.9165 72.5539ZM65.5474 81.3289C65.845 78.8362 67.9402 76.9441 70.5037 76.9441H73.0036C75.462 76.9441 77.5199 78.7039 77.9244 81.0893C76.1371 82.4217 73.9265 83.1946 71.5572 83.1946C69.3286 83.1948 67.2587 82.5047 65.5474 81.3289Z" fill="#D23C41"/>
</g>
<defs>
<clipPath id="clip0_53_877">
<rect width="90" height="90" fill="white" transform="translate(0 0.996704)"/>
</clipPath>
</defs>
</svg>
