<svg width="90" height="91" viewBox="0 0 90 91" fill="none" xmlns="http://www.w3.org/2000/svg">
<g clip-path="url(#clip0_53_844)">
<path d="M23.5898 50.985H15.182C14.0077 50.985 13.0524 51.9405 13.0524 53.1147V61.5224C13.0524 62.6967 14.0079 63.6521 15.182 63.6521H23.5898C24.7641 63.6521 25.7194 62.6965 25.7194 61.5224V53.1147C25.7194 51.9403 24.7641 50.985 23.5898 50.985ZM23.0813 61.0139H15.6905V53.6231H23.0813V61.0139Z" fill="#3F3356"/>
<path d="M39.6412 50.985H31.2337C30.0594 50.985 29.104 51.9405 29.104 53.1147V61.5224C29.104 62.6967 30.0595 63.6521 31.2337 63.6521H39.6412C40.8155 63.6521 41.7709 62.6965 41.7709 61.5224V53.1147C41.7709 51.9403 40.8154 50.985 39.6412 50.985ZM39.1328 61.0139H31.742V53.6231H39.1326V61.0139H39.1328Z" fill="#3F3356"/>
<path d="M55.6925 50.985H47.285C46.1106 50.985 45.1553 51.9405 45.1553 53.1147V61.5224C45.1553 62.6967 46.1108 63.6521 47.285 63.6521H55.6925C56.8668 63.6521 57.8222 62.6965 57.8222 61.5224V53.1147C57.8224 51.9403 56.8668 50.985 55.6925 50.985ZM55.1842 61.0139H47.7936V53.6231H55.1842V61.0139Z" fill="#3F3356"/>
<path d="M23.5898 66.4547H15.182C14.0077 66.4547 13.0524 67.4102 13.0524 68.5844V76.9919C13.0524 78.1663 14.0079 79.1216 15.182 79.1216H23.5898C24.7641 79.1216 25.7194 78.1661 25.7194 76.9919V68.5844C25.7194 67.4101 24.7641 66.4547 23.5898 66.4547ZM23.0813 76.4835H15.6905V69.0928H23.0813V76.4835Z" fill="#3F3356"/>
<path d="M39.6412 66.4547H31.2337C30.0594 66.4547 29.104 67.4102 29.104 68.5844V76.9919C29.104 78.1663 30.0595 79.1216 31.2337 79.1216H39.6412C40.8155 79.1216 41.7709 78.1661 41.7709 76.9919V68.5844C41.7709 67.4101 40.8154 66.4547 39.6412 66.4547ZM39.1328 76.4835H31.742V69.0928H39.1326V76.4835H39.1328Z" fill="#3F3356"/>
<path d="M55.6925 66.4547H47.285C46.1106 66.4547 45.1553 67.4102 45.1553 68.5844V76.9919C45.1553 78.1663 46.1108 79.1216 47.285 79.1216H55.6925C56.8668 79.1216 57.8222 78.1661 57.8222 76.9919V68.5844C57.8224 67.4101 56.8668 66.4547 55.6925 66.4547ZM55.1842 76.4835H47.7936V69.0928H55.1842V76.4835Z" fill="#3F3356"/>
<path d="M75.832 48.6987H62.5437C61.3694 48.6987 60.4141 49.6543 60.4141 50.8284V56.2925C60.4141 57.0212 61.0045 57.6116 61.7331 57.6116C62.4618 57.6116 63.0522 57.0212 63.0522 56.2925V51.3367H75.3235V79.6377H63.0522V61.6447C63.0522 60.9161 62.4618 60.3257 61.7331 60.3257C61.0045 60.3257 60.4141 60.9161 60.4141 61.6447V80.1461C60.4141 81.3204 61.3696 82.2758 62.5437 82.2758H75.832C77.0063 82.2758 77.9617 81.3203 77.9617 80.1461V50.8284C77.9617 49.6541 77.0063 48.6987 75.832 48.6987Z" fill="#3F3356"/>
<path d="M34.0695 59.657C34.3131 59.8779 34.6293 59.9991 34.9559 59.9991C34.9874 59.9991 35.0188 59.9978 35.0505 59.9955C35.41 59.9699 35.7433 59.7979 35.9728 59.52L38.2089 56.8129C38.6728 56.2513 38.5937 55.4198 38.0319 54.9558C37.4702 54.4919 36.6388 54.571 36.1749 55.1328L34.8187 56.7744L34.4633 56.4517C33.9237 55.9624 33.0895 56.0027 32.5999 56.5422C32.1104 57.0818 32.1508 57.9162 32.6904 58.4056L34.0695 59.657Z" fill="#D23C41"/>
<path d="M17.4929 72.7502L17.0293 73.2157C16.5152 73.7321 16.5169 74.5672 17.0331 75.0811C17.2906 75.3373 17.6272 75.4655 17.9639 75.4655C18.3024 75.4655 18.641 75.3361 18.8985 75.0772L19.3621 74.6115L19.8276 75.0749C20.0851 75.3313 20.4217 75.4594 20.7583 75.4594C21.0969 75.4594 21.4355 75.3299 21.6929 75.071C22.207 74.5547 22.2051 73.7194 21.6891 73.2057L21.2235 72.7421L21.687 72.2767C22.201 71.7604 22.1993 70.9253 21.6831 70.4114C21.1665 69.8973 20.3313 69.8991 19.8178 70.4153L19.3541 70.8808L18.8886 70.4172C18.3722 69.9028 17.537 69.9049 17.0233 70.4211C16.5092 70.9374 16.5111 71.7727 17.0271 72.2864L17.4929 72.7502Z" fill="#D23C41"/>
<path d="M49.6234 72.7503L49.1598 73.2159C48.6457 73.7322 48.6477 74.5675 49.1637 75.0812C49.4212 75.3376 49.7578 75.4657 50.0944 75.4657C50.433 75.4657 50.7715 75.3362 51.029 75.0773L51.4926 74.6116L51.9582 75.075C52.2157 75.3315 52.5523 75.4595 52.8889 75.4595C53.2275 75.4595 53.566 75.3301 53.8235 75.0712C54.3376 74.5548 54.3357 73.7196 53.8196 73.2058L53.3541 72.7422L53.8175 72.2769C54.3316 71.7605 54.3297 70.9253 53.8137 70.4115C53.2971 69.8971 52.4621 69.8992 51.9483 70.4154L51.4849 70.8809L51.0193 70.4175C50.5028 69.9031 49.6676 69.9052 49.154 70.4214C48.6399 70.9378 48.6419 71.773 49.1579 72.2867L49.6234 72.7503Z" fill="#D23C41"/>
<path d="M82.7912 21.5912C86.7662 21.5912 89.9998 18.3572 89.9998 14.3824C89.9998 10.4077 86.766 7.17401 82.7912 7.17401H81.3907C81.3895 7.17401 81.3884 7.17384 81.3874 7.17384C81.3863 7.17384 81.3851 7.17401 81.384 7.17401H76.92C76.9189 7.17401 76.9177 7.17384 76.9166 7.17384C76.9156 7.17384 76.9143 7.17401 76.9133 7.17401H72.7809V7.00043C72.7809 5.68154 71.7079 4.60852 70.389 4.60852H68.1598C66.8409 4.60852 65.7679 5.68154 65.7679 7.00043V7.17401H24.367V7.00043C24.367 5.68154 23.294 4.60852 21.9751 4.60852H19.7459C18.427 4.60852 17.354 5.68154 17.354 7.00043V7.17401H12.2219C12.2209 7.17401 12.2196 7.17384 12.2186 7.17384C12.2175 7.17384 12.2163 7.17401 12.2152 7.17401H9.94557C9.69988 7.17401 9.45875 7.24278 9.25016 7.37223L1.07864 12.4429C0.403106 12.8625 -0.000175818 13.5877 5.7502e-08 14.3828C0.000175933 15.1779 0.403634 15.9029 1.079 16.322L9.24999 21.3928C9.45893 21.5223 9.69988 21.591 9.94557 21.591H17.3541V31.3894H11.3607C8.57656 31.3894 6.31146 33.6545 6.31146 36.4386V82.3354C6.31146 85.1195 8.57656 87.3846 11.3607 87.3846H78.5983C81.3825 87.3846 83.6475 85.1195 83.6475 82.3354V36.4388C83.6475 33.6547 81.3825 31.3896 78.5983 31.3896H72.7807V21.5912H82.7912ZM72.7806 15.7013H75.5974V18.9529H72.7806V15.7013ZM78.2355 9.81197H80.0683V18.9531H78.2355V9.81197ZM87.3619 14.3823C87.3619 16.9026 85.3115 18.9529 82.7914 18.9529H82.7066V9.81197H82.7914C85.3113 9.81197 87.3619 11.8621 87.3619 14.3823ZM75.5974 9.81197V13.0632H72.7806V9.81197H75.5974ZM65.7677 9.81197V13.0632H64.2195C63.4908 13.0632 62.9004 13.6536 62.9004 14.3823C62.9004 15.1109 63.4908 15.7013 64.2195 15.7013H65.7677V18.9529H24.367V15.7013H51.6836C52.4123 15.7013 53.0027 15.1109 53.0027 14.3823C53.0027 13.6536 52.4123 13.0632 51.6836 13.0632H24.367V9.81197H65.7677ZM17.3541 13.0632H13.5377V9.81197H17.3541V13.0632ZM2.95664 14.3823L10.3216 9.81197H10.8995V18.9531H10.3216L2.95664 14.3823ZM13.5377 18.9531V15.7013H17.3541V18.9529H13.5377V18.9531ZM19.9923 7.24648H21.7289V22.9168C21.7289 23.6454 22.3193 24.2359 23.0479 24.2359C23.7766 24.2359 24.367 23.6454 24.367 22.9168V21.5912H65.7677V31.3896H24.367V28.269C24.367 27.5404 23.7766 26.95 23.0479 26.95C22.3193 26.95 21.7289 27.5404 21.7289 28.269V31.3896H19.9923V7.24648ZM78.5982 84.7465H11.3607C10.0311 84.7465 8.94959 83.665 8.94959 82.3354V42.7796H81.0094V82.3354C81.0092 83.665 79.9278 84.7465 78.5982 84.7465ZM81.0092 36.4388V40.1417H8.94959V36.4388C8.94959 35.1092 10.0311 34.0277 11.3607 34.0277H18.6699C18.6709 34.0277 18.6722 34.0279 18.6732 34.0279C18.6743 34.0279 18.6755 34.0277 18.6766 34.0277H23.0444C23.0455 34.0277 23.0467 34.0279 23.0478 34.0279C23.0488 34.0279 23.05 34.0277 23.0511 34.0277H67.0866H71.4613H78.598C79.9278 34.0277 81.0092 35.1092 81.0092 36.4388ZM68.4058 31.3896V7.24648H70.1424V31.3896H68.4058Z" fill="#3F3356"/>
<path d="M56.2275 15.7014H59.6931C60.4218 15.7014 61.0122 15.1109 61.0122 14.3823C61.0122 13.6536 60.4218 13.0632 59.6931 13.0632H56.2275C55.4989 13.0632 54.9084 13.6536 54.9084 14.3823C54.9084 15.1109 55.499 15.7014 56.2275 15.7014Z" fill="#3F3356"/>
</g>
<defs>
<clipPath id="clip0_53_844">
<rect width="90" height="90" fill="white" transform="translate(0 0.996704)"/>
</clipPath>
</defs>
</svg>
