<svg width="90" height="91" viewBox="0 0 90 91" fill="none" xmlns="http://www.w3.org/2000/svg">
<g clip-path="url(#clip0_53_860)">
<path d="M73.1257 55.0832L68.9468 49.8374V41.1849C68.9468 35.276 66.7952 29.6579 62.8735 25.2728C63.4611 23.4775 63.7655 21.5977 63.7655 19.6942C63.7655 14.8172 61.8097 10.2012 58.2587 6.6968C54.5271 3.01469 49.537 0.996704 44.1794 0.996704C44.0852 0.996704 43.9904 0.997407 43.8959 0.998636C33.1474 1.14123 24.4838 9.60744 24.5834 19.8712C24.5992 21.5095 24.8419 23.1168 25.2871 24.6594C22.6179 27.4441 16.4186 34.9778 16.3615 44.8708C16.319 52.253 19.6356 59.4277 26.2215 66.204V88.8751C26.2215 89.6025 26.8111 90.1922 27.5387 90.1922C28.2662 90.1922 28.8558 89.6025 28.8558 88.8751V65.6654C28.8558 65.3178 28.7184 64.9841 28.4734 64.7374C25.5935 61.8363 23.3662 58.8721 21.795 55.8626H23.2779C23.4551 57.0316 24.4638 57.9313 25.6817 57.9313H27.585C28.9274 57.9313 30.0192 56.8393 30.0192 55.4971V53.5938C30.0192 52.2516 28.9272 51.1596 27.585 51.1596H25.6817C24.4638 51.1596 23.4551 52.0594 23.2779 53.2285H20.5919C19.832 51.2873 19.342 49.3295 19.1253 47.3596H25.0739C25.2511 48.5287 26.2598 49.4284 27.4775 49.4284H29.381C30.7234 49.4284 31.8152 48.3364 31.8152 46.9942V45.0907C31.8152 43.7485 30.7232 42.6565 29.381 42.6565H27.4775C26.2598 42.6565 25.2511 43.5562 25.0739 44.7253H18.9999C19.0277 42.6472 19.3561 40.681 19.8768 38.8564H23.2779C23.4551 40.0255 24.4638 40.9253 25.6817 40.9253H27.585C28.9274 40.9253 30.0192 39.8333 30.0192 38.4911V36.5878C30.0192 35.2456 28.9272 34.1536 27.585 34.1536H25.6817C24.464 34.1536 23.4553 35.0535 23.2779 36.2224H20.7914C22.3819 32.3235 24.696 29.2675 26.3318 27.4146C27.8163 30.5382 30.1941 33.2604 33.2711 35.2305C34.3957 35.9507 35.0672 37.1422 35.0672 38.4179V41.707C35.0672 42.8544 35.9107 43.8115 37.0229 44.0202V44.8728C37.0229 46.3392 37.9247 47.5978 39.2023 48.1266V49.3074C39.2023 51.2486 40.7816 52.8281 42.723 52.8281H45.6254C47.5668 52.8281 49.1461 51.2486 49.1461 49.3074V48.1266C50.4237 47.598 51.3255 46.3393 51.3255 44.8728V43.9749C52.3409 43.6977 53.089 42.7872 53.089 41.707V38.5401C53.089 37.2486 53.7707 36.0506 54.9126 35.3351C55.6624 34.8654 56.3925 34.3345 57.0825 33.7572C57.6404 33.2905 57.7143 32.4598 57.2474 31.9019C56.7808 31.344 55.9497 31.27 55.3922 31.7368C54.7942 32.2371 54.1622 32.6967 53.514 33.1029C51.5985 34.3031 50.4548 36.3358 50.4548 38.5401V41.4293H50.0084H48.5406V35.9976C48.5406 35.2702 47.951 34.6805 47.2235 34.6805C46.4959 34.6805 45.9064 35.2702 45.9064 35.9976V41.4293H42.442V25.732L44.0157 24.5888C44.1103 24.5197 44.2378 24.5197 44.3328 24.5888L45.9064 25.732V30.9674C45.9064 31.6948 46.4959 32.2845 47.2235 32.2845C47.951 32.2845 48.5406 31.6948 48.5406 30.9674V27.2455C48.6809 27.2667 48.8223 27.2783 48.9636 27.2783C49.5579 27.2783 50.1522 27.0899 50.6708 26.7132C51.7076 25.9598 52.1219 24.6854 51.7257 23.4664L50.609 20.0289C50.5728 19.9174 50.6121 19.7962 50.707 19.7274L53.6309 17.603C54.6679 16.8496 55.082 15.5752 54.686 14.3562C54.2898 13.1373 53.2058 12.3497 51.924 12.3497H48.3096C48.1925 12.3497 48.0892 12.2747 48.0531 12.1632L46.9363 8.72585C46.5403 7.50709 45.4563 6.71928 44.1744 6.71928C44.1744 6.71928 44.1744 6.71928 44.1743 6.71928C42.8926 6.71928 41.8084 7.50674 41.4122 8.72585L40.2955 12.1632C40.2593 12.2747 40.156 12.3497 40.0389 12.3497H36.4247C35.1429 12.3497 34.0587 13.1373 33.6627 14.3564C33.2665 15.5753 33.6808 16.8498 34.7176 17.6032L37.6414 19.7274C37.7364 19.7964 37.7757 19.9176 37.7396 20.0291L36.6228 23.4664C36.2267 24.6854 36.6409 25.9598 37.6778 26.7132C38.3198 27.1796 39.0776 27.3564 39.808 27.2456V41.4293H38.3402H37.7016V38.4181C37.7016 36.2399 36.5765 34.2189 34.6916 33.0123C30.0631 30.0484 27.2689 25.1263 27.2178 19.8458C27.1321 11.0292 34.6296 3.75614 43.931 3.63285C48.6805 3.57121 53.1169 5.32402 56.4086 8.57236C59.4543 11.5778 61.1316 15.5279 61.1316 19.6947C61.1316 22.638 60.2818 25.5179 58.6742 28.0231C58.2816 28.6353 58.4591 29.4501 59.0715 29.843C59.6835 30.2358 60.4983 30.0579 60.8914 29.4459C61.194 28.9744 61.4711 28.4902 61.7273 27.9974C64.6969 31.741 66.3129 36.3541 66.3129 41.1854V50.2984C66.3129 50.5966 66.4141 50.8858 66.5999 51.119L70.8872 56.5007L66.0699 60.1584C65.7418 60.4075 65.5492 60.7956 65.5492 61.2074V73.5898C65.5492 74.2176 65.1467 74.7654 64.5477 74.9527L52.1821 78.8229C51.6324 78.9949 51.2584 79.504 51.2584 80.08V89.6799C51.2584 90.4073 51.8479 90.997 52.5755 90.997C53.3031 90.997 53.8926 90.4073 53.8926 89.6799V81.0478L65.3344 77.4668C67.0384 76.9335 68.1834 75.3754 68.1834 73.5898V61.861L72.7081 58.4255C73.2172 58.0389 73.5412 57.4768 73.6206 56.8425C73.6996 56.208 73.524 55.5833 73.1257 55.0832ZM25.8817 53.7938H27.3852V55.2972H25.8817V53.7938ZM25.8817 36.7877H27.3852V38.2911H25.8817V36.7877ZM27.6776 45.2907H29.181V46.7942H27.6776V45.2907ZM39.226 24.5819C39.0674 24.4667 39.1115 24.3313 39.1278 24.2802L40.2445 20.8429C40.6346 19.6428 40.2108 18.3379 39.1896 17.596L36.2656 15.4717C36.2223 15.4401 36.1072 15.3565 36.1676 15.17C36.2282 14.9835 36.3707 14.9835 36.4244 14.9835H40.0385C41.3005 14.9835 42.4104 14.1771 42.8004 12.9768L43.9172 9.53965C43.9338 9.48855 43.9778 9.35297 44.1739 9.35315C44.3699 9.35315 44.414 9.48855 44.4307 9.53947L45.5474 12.977C45.9374 14.1771 47.0473 14.9835 48.3093 14.9835H51.9236C51.9773 14.9835 52.1196 14.9835 52.1802 15.17C52.2409 15.3565 52.1256 15.4403 52.0822 15.4717L49.158 17.5961C48.1372 18.3379 47.7133 19.6428 48.1033 20.8429L49.22 24.2804C49.2365 24.3313 49.2806 24.4667 49.1219 24.5819C48.9631 24.6973 48.8481 24.6135 48.8045 24.5819L45.8809 22.4575C45.3702 22.0864 44.7722 21.9012 44.1737 21.9012C43.5756 21.9012 42.9773 22.0866 42.4668 22.4575L39.543 24.5819C39.4999 24.6133 39.3847 24.6973 39.226 24.5819ZM46.5117 49.3072C46.5117 49.7959 46.1139 50.1937 45.6252 50.1937H42.7228C42.2341 50.1937 41.8363 49.7959 41.8363 49.3072V48.3931H46.5117V49.3072ZM48.6911 44.0634V44.8726C48.6911 45.3613 48.2933 45.7589 47.8046 45.7589H40.5433C40.0545 45.7589 39.6568 45.3613 39.6568 44.8726V44.0634H48.6911Z" fill="#3F3356"/>
<path d="M39.2259 24.5819C39.0674 24.4667 39.1114 24.3313 39.1278 24.2802L40.2445 20.8429C40.6345 19.6428 40.2108 18.3379 39.1896 17.596L36.2656 15.4717C36.2222 15.4401 36.1072 15.3565 36.1676 15.17C36.2282 14.9835 36.3706 14.9835 36.4244 14.9835H40.0385C41.3005 14.9835 42.4104 14.1771 42.8004 12.9768L43.9171 9.53965C43.9338 9.48855 43.9777 9.35297 44.1739 9.35315C44.3699 9.35315 44.4139 9.48855 44.4306 9.53947L45.5474 12.977C45.9374 14.1771 47.0473 14.9835 48.3092 14.9835H51.9236C51.9773 14.9835 52.1196 14.9835 52.1801 15.17C52.2409 15.3565 52.1255 15.4403 52.0822 15.4717L49.158 17.5961C48.1371 18.3379 47.7132 19.6428 48.1033 20.8429L49.22 24.2804C49.2365 24.3313 49.2806 24.4667 49.1218 24.5819C48.9631 24.6973 48.848 24.6135 48.8045 24.5819L45.8808 22.4575C45.3702 22.0864 44.7722 21.9012 44.1737 21.9012C43.5756 21.9012 42.9772 22.0866 42.4667 22.4575L39.5429 24.5819C39.4999 24.6133 39.3847 24.6973 39.2259 24.5819ZM46.5117 49.3072C46.5117 49.7959 46.1139 50.1937 45.6252 50.1937H42.7228C42.234 50.1937 41.8363 49.7959 41.8363 49.3072V48.3931H46.5117V49.3072ZM48.691 44.0634V44.8726C48.691 45.3613 48.2933 45.7589 47.8045 45.7589H40.5432C40.0545 45.7589 39.6567 45.3613 39.6567 44.8726V44.0634H48.691Z" fill="#D23C41"/>
</g>
<defs>
<clipPath id="clip0_53_860">
<rect width="90" height="90" fill="white" transform="translate(0 0.996704)"/>
</clipPath>
</defs>
</svg>
