<svg width="90" height="91" viewBox="0 0 90 91" fill="none" xmlns="http://www.w3.org/2000/svg">
<g clip-path="url(#clip0_53_866)">
<path d="M84.671 1.04993H5.32905C2.72594 1.04993 0.608154 3.19672 0.608154 5.83531V60.6057C0.608154 63.2444 2.72594 65.3912 5.32905 65.3912H49.6097L51.8416 68.5058V71.5907C50.0297 72.2315 48.7257 73.98 48.7257 76.0324V89.623C48.7257 90.3525 49.309 90.9436 50.0285 90.9436C50.7479 90.9436 51.3312 90.3525 51.3312 89.623V76.0324C51.3312 74.8951 52.2439 73.97 53.3657 73.97H75.5251C76.6469 73.97 77.5595 74.8951 77.5595 76.0324V89.623C77.5595 90.3525 78.1428 90.9436 78.8623 90.9436C79.5817 90.9436 80.165 90.3525 80.165 89.623V76.0324C80.165 73.98 78.861 72.2315 77.0491 71.5907V69.6618L79.5473 66.3974C79.777 66.0975 79.9448 65.754 80.0478 65.3911H84.6707C87.2738 65.3911 89.3916 63.2444 89.3916 60.6055V5.83531C89.3919 3.19672 87.2741 1.04993 84.671 1.04993ZM29.7581 47.7908C29.7581 45.7537 31.3931 44.0964 33.4027 44.0964C35.4123 44.0964 37.0472 45.7537 37.0472 47.7908C37.0472 49.8279 35.4123 51.4853 33.4027 51.4853C31.3931 51.4853 29.7581 49.8279 29.7581 47.7908ZM39.607 47.0359H46.0753C45.9972 47.3798 45.9545 47.7372 45.9545 48.1047V48.5458H39.607C39.6362 48.2981 39.6529 48.0464 39.6529 47.7908C39.6529 47.5353 39.636 47.2836 39.607 47.0359ZM77.5597 64.5695C77.5597 64.6448 77.5346 64.719 77.4891 64.7785L74.7174 68.4001C74.54 68.6317 74.4439 68.9166 74.4439 69.2098V71.3289H54.4471V68.0768C54.4471 67.7979 54.3601 67.5262 54.1984 67.3007L48.6057 59.4958C48.5761 59.4548 48.56 59.4041 48.56 59.3534V48.1047C48.56 46.9387 49.4959 45.9901 50.6462 45.9901H52.6331V50.2387H51.6524C50.9329 50.2387 50.3496 50.8298 50.3496 51.5593C50.3496 52.2888 50.9329 52.8799 51.6524 52.8799H52.6331V53.942C52.6331 54.6715 53.2164 55.2626 53.9359 55.2626C54.6554 55.2626 55.2387 54.6715 55.2387 53.942V39.6327C55.2387 38.9032 54.6554 38.3121 53.9359 38.3121C53.2164 38.3121 52.6331 38.9032 52.6331 39.6327V43.3487H50.6462C49.5383 43.3487 48.5195 43.7409 47.7158 44.3943H38.6751C37.5646 42.6289 35.6171 41.4548 33.4029 41.4548C31.1887 41.4548 29.2411 42.6291 28.1306 44.3943H24.5956C23.8761 44.3943 23.2929 44.9854 23.2929 45.7149C23.2929 46.4444 23.8761 47.0355 24.5956 47.0355H27.1986C27.1694 47.2833 27.1527 47.5349 27.1527 47.7904C27.1527 48.0461 27.1694 48.2977 27.1986 48.5455H17.6557V47.0355H19.3095C20.029 47.0355 20.6123 46.4444 20.6123 45.7149C20.6123 44.9854 20.029 44.3943 19.3095 44.3943H17.076C15.959 44.3943 15.0501 45.3156 15.0501 46.448V49.133C15.0501 50.2654 15.959 51.1867 17.076 51.1867H28.1306C29.2413 52.9521 31.1887 54.1262 33.4029 54.1262C35.6171 54.1262 37.5644 52.9521 38.6751 51.1867H45.9545V58.1715H13.228V8.2693H74.9077V35.5136C74.0288 35.6856 73.2416 36.1218 72.6308 36.7381C71.8313 35.9311 70.7297 35.4316 69.515 35.4316C68.3003 35.4316 67.1986 35.9311 66.3991 36.7381C65.5995 35.9311 64.4979 35.4316 63.2832 35.4316C62.6372 35.4316 62.0237 35.574 61.4701 35.8277V28.7626C61.4701 26.2929 59.488 24.2834 57.0514 24.2834C54.6149 24.2834 52.6328 26.2929 52.6328 28.7626V34.2745C52.6328 35.004 53.2161 35.5951 53.9356 35.5951C54.655 35.5951 55.2383 35.004 55.2383 34.2745V28.7626C55.2383 27.7491 56.0518 26.9247 57.0514 26.9247C58.0511 26.9247 58.8646 27.7493 58.8646 28.7626V39.9109V41.7068V42.1433C58.8646 42.8728 59.4478 43.4639 60.1673 43.4639C60.8868 43.4639 61.4701 42.8728 61.4701 42.1433V41.7068V39.9109C61.4701 38.8974 62.2835 38.073 63.2832 38.073C64.2829 38.073 65.0963 38.8976 65.0963 39.9109V40.9357V42.0066C65.0963 42.7361 65.6796 43.3273 66.3991 43.3273C67.1186 43.3273 67.7019 42.7361 67.7019 42.0066V40.9357V39.9109C67.7019 38.8974 68.5153 38.073 69.515 38.073C70.5146 38.073 71.3281 38.8976 71.3281 39.9109V40.9357V42.0066C71.3281 42.7361 71.9114 43.3273 72.6308 43.3273C73.3503 43.3273 73.9336 42.7361 73.9336 42.0066V40.9357V39.9109C73.9336 38.8974 74.7471 38.073 75.7467 38.073C76.7464 38.073 77.5598 38.8976 77.5598 39.9109V64.5695H77.5597ZM86.7864 60.6057C86.7864 61.7881 85.8375 62.75 84.671 62.75H80.1654V39.9107C80.1654 38.0775 79.0728 36.4988 77.5135 35.8063V8.05659C77.5135 6.71766 76.4388 5.62806 75.1177 5.62806H13.018C11.6972 5.62806 10.6223 6.71748 10.6223 8.05659V58.3846C10.6223 59.7235 11.697 60.8131 13.018 60.8131H46.3472C46.3937 60.8932 46.4431 60.9723 46.4976 61.0483L47.717 62.75H5.32905C4.16263 62.75 3.21369 61.7881 3.21369 60.6057V5.83531C3.21369 4.65292 4.16263 3.69098 5.32905 3.69098H84.671C85.8375 3.69098 86.7864 4.65292 86.7864 5.83531V60.6057Z" fill="#3F3356"/>
<path d="M61.9185 15.8681V22.5506C61.9185 23.2801 62.5018 23.8712 63.2213 23.8712C63.9407 23.8712 64.524 23.2801 64.524 22.5506V15.8681C64.524 12.7462 62.0184 10.2062 58.9386 10.2062H29.1967C26.117 10.2062 23.6113 12.7462 23.6113 15.8681V33.0032C23.6113 36.1251 26.117 38.6651 29.1967 38.6651H49.7277C50.4472 38.6651 51.0305 38.074 51.0305 37.3445C51.0305 36.615 50.4472 36.0239 49.7277 36.0239H29.1967C27.5537 36.0239 26.2169 34.6687 26.2169 33.0032V15.8681C26.2169 14.2025 27.5537 12.8474 29.1967 12.8474H58.9386C60.5818 12.8474 61.9185 14.2025 61.9185 15.8681Z" fill="#D23C41"/>
<path d="M42.5653 17.2001C41.8246 16.7326 40.8906 16.7092 40.1279 17.1385C39.3652 17.5678 38.8915 18.3841 38.8915 19.2686V29.1732C38.8915 30.0575 39.3652 30.8736 40.1279 31.3033C40.4911 31.5077 40.8934 31.6096 41.295 31.6096C41.7366 31.6096 42.1774 31.4866 42.5653 31.2418L50.414 26.2895C51.1238 25.8417 51.5475 25.0682 51.5475 24.2209C51.5475 23.3734 51.1238 22.6001 50.414 22.1523L42.5653 17.2001ZM41.497 28.8048V19.6375L48.7618 24.2211L41.497 28.8048Z" fill="#D23C41"/>
<path d="M33.4026 50.0726C34.6458 50.0726 35.6536 49.051 35.6536 47.7908C35.6536 46.5305 34.6458 45.5089 33.4026 45.5089C32.1594 45.5089 31.1516 46.5305 31.1516 47.7908C31.1516 49.051 32.1594 50.0726 33.4026 50.0726Z" fill="#3F3356"/>
<path d="M82.228 31.4597C81.2702 31.4597 80.491 32.2496 80.491 33.2205C80.491 34.1915 81.2702 34.9814 82.228 34.9814C83.1858 34.9814 83.965 34.1915 83.965 33.2205C83.965 32.2496 83.1858 31.4597 82.228 31.4597Z" fill="#3F3356"/>
<path d="M7.18949 30.2251C6.47001 30.2251 5.88672 30.8162 5.88672 31.5457V40.4718C5.88672 41.2014 6.47001 41.7925 7.18949 41.7925C7.90897 41.7925 8.49226 41.2014 8.49226 40.4718V31.5457C8.49226 30.8164 7.90897 30.2251 7.18949 30.2251Z" fill="#3F3356"/>
<path d="M7.18949 24.0072C6.47001 24.0072 5.88672 24.5983 5.88672 25.3278V27.4996C5.88672 28.2291 6.47001 28.8202 7.18949 28.8202C7.90897 28.8202 8.49226 28.2291 8.49226 27.4996V25.3278C8.49226 24.5983 7.90897 24.0072 7.18949 24.0072Z" fill="#3F3356"/>
</g>
<defs>
<clipPath id="clip0_53_866">
<rect width="88.7838" height="90" fill="white" transform="translate(0.608154 0.996704)"/>
</clipPath>
</defs>
</svg>
