<svg width="40" height="40" viewBox="0 0 40 40" fill="none" xmlns="http://www.w3.org/2000/svg">
<g clip-path="url(#clip0_68_2135)">
<path d="M25.0693 32.5C25.3818 32.9515 25.5728 32.9168 25.8157 32.8125C26.0587 32.7083 38.5588 28.4896 38.9407 28.3508C39.3226 28.2119 39.2012 28.0904 39.0798 27.8993C38.9582 27.7083 34.7915 22.0486 34.5831 21.7188C34.3748 21.389 34.2706 21.4583 33.9407 21.5625L20.6899 25.0105C20.6899 25.0105 24.7568 32.0485 25.0693 32.5ZM39.9998 26.7368V20.1121C38.509 20.5093 36.6234 21.0115 35.879 21.2094C37.002 22.7119 38.7576 25.0633 39.9998 26.7368ZM35.8662 13.0502C35.662 13.0966 31.1401 13.9138 30.8615 13.9508C30.5831 13.988 30.6759 14.1458 30.7873 14.3036L34.7665 19.7635C34.7665 19.7635 39.632 18.5565 39.9292 18.4915C39.9532 18.4861 39.9768 18.4805 39.9998 18.4747V17.7518C39.1154 16.6304 36.706 13.5771 36.4978 13.2918C36.2471 12.9482 36.0706 13.004 35.8662 13.0502Z" fill="#1E386B"/>
<path d="M7.4148 4.47406C8.39402 4.42953 8.4834 4.65234 8.91355 5.29031L19.7214 23.3594L33.3111 20.1039C32.5581 19.0366 29.14 14.1905 28.8095 13.728C28.4382 13.208 28.8189 12.9666 29.4225 12.8645C30.0259 12.7623 35.2256 11.8895 35.6712 11.8245C36.117 11.7595 36.47 11.6017 37.194 12.4745C37.5646 12.9211 38.8209 14.4855 39.9998 15.9519V7.5C39.9998 5.43406 39.2662 3.6675 37.7993 2.20047C36.3323 0.733594 34.5657 0 32.4998 0H7.4998C5.43387 0 3.6673 0.733594 2.20027 2.20047C1.35887 3.04219 0.759961 3.98234 0.401367 5.02094C2.85105 4.81969 6.72965 4.50531 7.41496 4.47406H7.4148Z" fill="#1E386B"/>
<path d="M26.2952 34.9319C25.1492 35.2791 24.6353 35.4514 23.8889 34.4097C23.3298 33.6295 20.3066 28.1842 18.8242 25.4998C16.0187 26.2345 10.8845 27.5745 9.40391 27.9303C7.95891 28.2775 7.34172 27.4111 7.10437 26.8772C6.93797 26.5025 2.70141 17.3684 0 11.5078V32.5C0 34.5661 0.733594 36.3323 2.20047 37.7995C3.6675 39.2664 5.43406 40 7.5 40H32.5C34.5659 40 36.3325 39.2664 37.7995 37.7995C39.2664 36.3323 40 34.5661 40 32.5V30.0342C36.9313 31.1567 27.0672 34.698 26.2952 34.9319Z" fill="#1E386B"/>
<path d="M9.43934 25.8262C9.84559 25.7332 17.457 23.9117 17.6195 23.8768C17.782 23.842 17.8864 23.7492 17.7123 23.4476C17.5382 23.1461 7.56637 5.93356 7.56637 5.93356C7.47434 5.77559 7.50059 5.72293 7.25043 5.73606C7.02746 5.74793 1.38512 6.25137 0.0788672 6.36043C0.0403083 6.63664 0.0162649 6.91468 0.00683594 7.1934C1.33293 9.90824 8.94418 25.6054 8.98684 25.7332C9.03324 25.8726 9.03324 25.919 9.43934 25.8262Z" fill="#1E386B"/>
</g>
<defs>
<clipPath id="clip0_68_2135">
<rect width="40" height="40" fill="white"/>
</clipPath>
</defs>
</svg>
