<svg width="40" height="40" viewBox="0 0 40 40" fill="none" xmlns="http://www.w3.org/2000/svg">
<path fill-rule="evenodd" clip-rule="evenodd" d="M4.56885 2.5L7.3776 34.0013L19.9813 37.5L32.6188 33.9963L35.4313 2.5H4.56885ZM20 16.7587H14.8875L14.535 12.8025H19.9863H20H29.3063H29.3188L29.3963 11.935L29.5726 9.97622L29.6651 8.93872H20H19.9863H19.9862H10.3125L10.405 9.97622L11.3538 20.6225H19.9863V20.6225H24.7438L24.2963 25.6338L20.0001 26.7926V26.7924L19.9914 26.7949L19.9863 26.7963V26.7964L19.9826 26.7974L15.6801 25.6362L15.4051 22.5549H13.3139H11.5264L12.0676 28.6199L19.9826 30.8174L19.9959 30.8136L27.9076 28.62L27.9651 27.9675L28.8726 17.7963L28.9676 16.7588H27.9263H20V16.7587Z" fill="#1E386B"/>
</svg>
