<svg width="40" height="40" viewBox="0 0 40 40" fill="none" xmlns="http://www.w3.org/2000/svg">
<g clip-path="url(#clip0_68_2146)">
<path d="M32.2652 14.4275C30.811 8.92062 25.7718 5 20.0001 5C14.2639 5 9.23078 8.91915 7.7504 14.4244C6.30325 14.6929 5.20361 15.9649 5.20361 17.4888V21.0005C5.20361 22.3673 6.08828 23.5314 7.31497 23.9504V25.4192C7.31497 29.8287 10.9028 33.4162 15.3129 33.4162H16.297C16.6901 34.3458 17.6112 34.9999 18.6823 34.9999H21.316C22.7434 34.9999 23.9046 33.8387 23.9046 32.4115C23.9046 30.984 22.7434 29.8227 21.316 29.8227H18.6823C17.6115 29.8227 16.6905 30.4764 16.2973 31.4059H15.3129C12.0113 31.4059 9.32527 28.7202 9.32527 25.4192V23.1115C9.32527 22.5564 8.87523 22.1063 8.32012 22.1063C7.71019 22.1063 7.21391 21.6102 7.21391 21.0004V17.4888C7.21391 16.8789 7.71019 16.3826 8.31543 16.3826L8.55251 16.3837C8.55412 16.3837 8.55572 16.3837 8.55733 16.3837C9.03444 16.3837 9.44629 16.0479 9.54198 15.5801C10.5583 10.6144 14.9565 7.0103 20.0001 7.0103C25.0762 7.0103 29.4787 10.6118 30.4681 15.5739C30.5618 16.0439 30.9745 16.3825 31.4539 16.3825H31.6794C32.2893 16.3825 32.7856 16.8787 32.7856 17.4887V21.0004C32.7856 21.6102 32.2893 22.1063 31.6794 22.1063C31.1243 22.1063 30.6743 22.5564 30.6743 23.1115C30.6743 23.6666 31.1243 24.1166 31.6794 24.1166C33.3978 24.1166 34.7959 22.7187 34.7959 21.0004V17.4888C34.7958 15.9705 33.7045 14.7024 32.2652 14.4275ZM18.6824 31.833H21.3162C21.635 31.833 21.8945 32.0924 21.8945 32.4115C21.8945 32.7302 21.635 32.9896 21.3162 32.9896H18.6824C18.3637 32.9896 18.1044 32.7302 18.1044 32.4115C18.1043 32.0924 18.3636 31.833 18.6824 31.833Z" fill="#1E386B"/>
<path d="M19.9992 9.83032C14.8082 9.83032 10.585 14.0532 10.585 19.2436C10.585 24.4349 14.8082 28.6584 19.9992 28.6584C25.1902 28.6584 29.4133 24.4349 29.4133 19.2436C29.4133 14.0532 25.1902 9.83032 19.9992 9.83032ZM19.9992 26.6481C15.9167 26.6481 12.5953 23.3264 12.5953 19.2436C12.5953 15.1616 15.9167 11.8406 19.9992 11.8406C24.0817 11.8406 27.403 15.1616 27.403 19.2436C27.403 23.3265 24.0817 26.6481 19.9992 26.6481Z" fill="#1E386B"/>
</g>
<defs>
<clipPath id="clip0_68_2146">
<rect width="30" height="30" fill="white" transform="translate(5 5)"/>
</clipPath>
</defs>
</svg>
