<svg width="37" height="37" viewBox="0 0 37 37" fill="none" xmlns="http://www.w3.org/2000/svg">
<rect x="1" y="1.40552" width="35" height="35" rx="17.5" stroke="#E0E0E0"/>
<mask id="path-2-inside-1_53_1149" fill="white">
<path fill-rule="evenodd" clip-rule="evenodd" d="M28.1375 19.0327C27.9057 18.1716 27.2268 17.4927 26.3657 17.2609C24.7926 16.8303 18.5001 16.8303 18.5001 16.8303C18.5001 16.8303 12.2076 16.8303 10.6345 17.2443C9.79002 17.4761 9.09454 18.1716 8.86271 19.0327C8.44873 20.6058 8.44873 23.8679 8.44873 23.8679C8.44873 23.8679 8.44873 27.1466 8.86271 28.7032C9.09454 29.5643 9.77346 30.2432 10.6345 30.475C12.2242 30.9056 18.5001 30.9056 18.5001 30.9056C18.5001 30.9056 24.7926 30.9056 26.3657 30.4916C27.2268 30.2598 27.9057 29.5808 28.1375 28.7198C28.5515 27.1466 28.5515 23.8845 28.5515 23.8845C28.5515 23.8845 28.568 20.6058 28.1375 19.0327ZM24.0326 25.4617V25.7543C24.0326 26.1227 24.0435 26.4045 24.0652 26.5887C24.0868 26.773 24.1302 26.9139 24.206 26.9897C24.2711 27.0764 24.3794 27.1198 24.5312 27.1198C24.7262 27.1198 24.8563 27.0439 24.9321 26.8922C25.008 26.7405 25.0405 26.4912 25.0514 26.1336L26.1676 26.1986C26.1784 26.2528 26.1784 26.3178 26.1784 26.4045C26.1784 26.9355 26.0376 27.3365 25.745 27.5966C25.4523 27.8567 25.0405 27.9868 24.5095 27.9868C23.8701 27.9868 23.4258 27.7809 23.1657 27.3799C22.9056 26.9789 22.7755 26.3612 22.7755 25.5158V24.508C22.7755 23.641 22.9056 23.0124 23.1765 22.6114C23.4474 22.2105 23.9026 22.0154 24.542 22.0154C24.9863 22.0154 25.3331 22.1021 25.5716 22.2646C25.81 22.4272 25.9725 22.6873 26.0701 23.0233C26.1676 23.3701 26.211 23.8469 26.211 24.4538V25.44H24.0326V25.4617ZM24.1952 23.0341C24.1302 23.1208 24.0868 23.2508 24.0652 23.4351C24.0435 23.6193 24.0326 23.9011 24.0326 24.2804V24.6922H24.9863V24.2804C24.9863 23.9119 24.9755 23.6301 24.9538 23.4351C24.9321 23.24 24.878 23.11 24.8129 23.0341C24.7479 22.9582 24.6395 22.9149 24.5095 22.9149C24.3578 22.904 24.2602 22.9474 24.1952 23.0341ZM17.7686 27.9206V22.1443H16.4681V26.7285C16.4248 26.8369 16.3489 26.9236 16.2405 26.9886C16.1322 27.0645 16.0238 27.097 15.9154 27.097C15.7854 27.097 15.6878 27.0428 15.6336 26.9344C15.5795 26.826 15.5469 26.6418 15.5469 26.3817V22.1443H14.2465V26.4576C14.2465 26.9994 14.3332 27.3896 14.5174 27.6388C14.7016 27.8881 14.9834 28.0181 15.3627 28.0181C15.9154 28.0181 16.3381 27.7472 16.609 27.2162H16.6415L16.7499 27.9206H17.7686ZM14.6367 21.0617H13.347V27.9109H12.0791V21.0617H10.7894V20.0105H14.6367V21.0617ZM21.6918 22.2751C21.8652 22.4377 21.9952 22.6978 22.0711 23.0663C22.147 23.4239 22.1795 23.9333 22.1903 24.5943V25.5047C22.1903 26.3608 22.0819 27.0002 21.876 27.4012C21.6701 27.8022 21.3558 28.0081 20.9115 28.0081C20.6622 28.0081 20.4455 27.9431 20.2396 27.8347C20.0337 27.7155 19.8819 27.5638 19.7844 27.3687H19.7519L19.6219 27.9106H18.549V19.7175H19.8061V22.7628H19.8169C19.9253 22.5461 20.0879 22.3618 20.2938 22.2318C20.4997 22.0909 20.7273 22.0259 20.9657 22.0259C21.2691 22.0259 21.5184 22.1126 21.6918 22.2751ZM20.8248 26.4042C20.8573 26.1658 20.879 25.8406 20.879 25.418H20.8898V24.6594C20.8898 24.215 20.879 23.8682 20.8465 23.619C20.814 23.3806 20.7706 23.2072 20.6947 23.0988C20.6297 23.0013 20.5213 22.9471 20.3913 22.9471C20.2721 22.9471 20.1529 23.0013 20.0445 23.0988C19.9361 23.2072 19.8603 23.3372 19.8169 23.4889V26.7618C19.8711 26.8594 19.947 26.9352 20.0337 26.9894C20.1204 27.0436 20.2179 27.0653 20.3263 27.0653C20.4563 27.0653 20.5647 27.0111 20.6514 26.9135C20.7273 26.816 20.7923 26.6426 20.8248 26.4042Z"/>
</mask>
<path d="M26.3657 17.2609L26.1017 18.2254L26.1057 18.2265L26.3657 17.2609ZM28.1375 19.0327L27.1719 19.2927L27.173 19.2967L28.1375 19.0327ZM10.6345 17.2443L10.38 16.2772L10.3698 16.28L10.6345 17.2443ZM8.86271 19.0327L7.89708 18.7727L7.89563 18.7782L8.86271 19.0327ZM8.86271 28.7032L7.8963 28.9602L7.89709 28.9632L8.86271 28.7032ZM10.6345 30.475L10.8959 29.5098L10.8945 29.5094L10.6345 30.475ZM18.5001 30.9056V29.9056V30.9056ZM26.3657 30.4916L26.6202 31.4587L26.6257 31.4572L26.3657 30.4916ZM28.1375 28.7198L29.1031 28.9797L29.1046 28.9743L28.1375 28.7198ZM28.5515 23.8845L27.5515 23.8795V23.8845H28.5515ZM24.0652 26.5887L25.0583 26.4719L25.0583 26.4719L24.0652 26.5887ZM24.206 26.9897L25.006 26.3897L24.9634 26.3329L24.9131 26.2826L24.206 26.9897ZM24.9321 26.8922L24.0377 26.445L24.0377 26.445L24.9321 26.8922ZM25.0514 26.1336L25.1095 25.1353L24.083 25.0755L24.0518 26.1033L25.0514 26.1336ZM26.1676 26.1986L27.1482 26.0025L26.9967 25.2452L26.2258 25.2003L26.1676 26.1986ZM23.1657 27.3799L22.3267 27.9241L22.3267 27.9241L23.1657 27.3799ZM26.0701 23.0233L27.0328 22.7525L27.0304 22.7444L26.0701 23.0233ZM26.211 25.44V26.44H27.211V25.44H26.211ZM24.0326 25.44V24.44H23.0326V25.44H24.0326ZM24.0652 23.4351L25.0583 23.5519L25.0583 23.5519L24.0652 23.4351ZM24.1952 23.0341L23.3952 22.4341L23.3952 22.4341L24.1952 23.0341ZM24.0326 24.6922H23.0326V25.6922H24.0326V24.6922ZM24.9863 24.6922V25.6922H25.9863V24.6922H24.9863ZM24.8129 23.0341L24.0537 23.6849L24.0537 23.6849L24.8129 23.0341ZM24.5095 22.9149L24.4382 23.9123L24.4738 23.9149H24.5095V22.9149ZM17.7686 22.1443H18.7686V21.1443H17.7686V22.1443ZM17.7686 27.9206V28.9206H18.7686V27.9206H17.7686ZM16.4681 22.1443V21.1443H15.4681V22.1443H16.4681ZM16.4681 26.7285L17.3966 27.0999L17.4681 26.9211V26.7285H16.4681ZM16.2405 26.9886L15.726 26.1311L15.6959 26.1492L15.6671 26.1694L16.2405 26.9886ZM15.5469 22.1443H16.5469V21.1443H15.5469V22.1443ZM14.2465 22.1443V21.1443H13.2465V22.1443H14.2465ZM16.609 27.2162V26.2162H15.9966L15.7182 26.7617L16.609 27.2162ZM16.6415 27.2162L17.6299 27.0641L17.4994 26.2162H16.6415V27.2162ZM16.7499 27.9206L15.7615 28.0727L15.892 28.9206H16.7499V27.9206ZM13.347 21.0617V20.0617H12.347V21.0617H13.347ZM14.6367 21.0617V22.0617H15.6367V21.0617H14.6367ZM13.347 27.9109V28.9109H14.347V27.9109H13.347ZM12.0791 27.9109H11.0791V28.9109H12.0791V27.9109ZM12.0791 21.0617H13.0791V20.0617H12.0791V21.0617ZM10.7894 21.0617H9.78943V22.0617H10.7894V21.0617ZM10.7894 20.0105V19.0105H9.78943V20.0105H10.7894ZM14.6367 20.0105H15.6367V19.0105H14.6367V20.0105ZM22.0711 23.0663L21.0916 23.2679L21.0929 23.2738L22.0711 23.0663ZM22.1903 24.5943H23.1903V24.5861L23.1902 24.578L22.1903 24.5943ZM21.876 27.4012L20.9865 26.9444V26.9444L21.876 27.4012ZM20.2396 27.8347L19.7385 28.7001L19.756 28.7102L19.7738 28.7196L20.2396 27.8347ZM19.7844 27.3687L20.6788 26.9215L20.4024 26.3687H19.7844V27.3687ZM19.7519 27.3687V26.3687H18.9635L18.7795 27.1353L19.7519 27.3687ZM19.6219 27.9106V28.9106H20.4103L20.5942 28.1439L19.6219 27.9106ZM18.549 27.9106H17.549V28.9106H18.549V27.9106ZM18.549 19.7175V18.7175H17.549V19.7175H18.549ZM19.8061 19.7175H20.8061V18.7175H19.8061V19.7175ZM19.8061 22.7628H18.8061V23.7628H19.8061V22.7628ZM19.8169 22.7628V23.7628H20.435L20.7114 23.21L19.8169 22.7628ZM20.2938 22.2318L20.8278 23.0773L20.8433 23.0675L20.8584 23.0571L20.2938 22.2318ZM20.879 25.418V24.418H19.879V25.418H20.879ZM20.8248 26.4042L21.8156 26.5393L21.8156 26.5393L20.8248 26.4042ZM20.8898 25.418V26.418H21.8898V25.418H20.8898ZM20.8465 23.619L21.8381 23.4896L21.8373 23.4839L20.8465 23.619ZM20.6947 23.0988L19.8627 23.6535L19.869 23.6629L19.8755 23.6723L20.6947 23.0988ZM20.0445 23.0988L19.3755 22.3555L19.356 22.3731L19.3374 22.3917L20.0445 23.0988ZM19.8169 23.4889L18.8554 23.2142L18.8169 23.3489V23.4889H19.8169ZM19.8169 26.7618H18.8169V27.0209L18.9428 27.2475L19.8169 26.7618ZM20.0337 26.9894L20.5637 26.1414L20.5637 26.1414L20.0337 26.9894ZM20.6514 26.9135L21.3988 27.5779L21.4206 27.5534L21.4408 27.5275L20.6514 26.9135ZM26.1057 18.2265C26.6226 18.3656 27.0327 18.7757 27.1719 19.2927L29.1031 18.7727C28.7786 17.5675 27.8309 16.6197 26.6257 16.2952L26.1057 18.2265ZM18.5001 16.8303C18.5001 17.8303 18.5001 17.8303 18.5001 17.8303C18.5002 17.8303 18.5002 17.8303 18.5003 17.8303C18.5004 17.8303 18.5007 17.8303 18.501 17.8303C18.5017 17.8303 18.5027 17.8303 18.5041 17.8303C18.507 17.8303 18.5113 17.8303 18.5171 17.8303C18.5287 17.8303 18.5461 17.8304 18.5689 17.8304C18.6146 17.8305 18.6821 17.8307 18.7688 17.8312C18.9421 17.832 19.192 17.8337 19.4969 17.837C20.1072 17.8437 20.9361 17.857 21.8126 17.8837C22.6907 17.9104 23.6083 17.9502 24.3986 18.0092C25.2174 18.0703 25.8142 18.1467 26.1017 18.2254L26.6297 16.2963C26.1307 16.1598 25.351 16.0747 24.5475 16.0147C23.7155 15.9526 22.765 15.9117 21.8734 15.8846C20.9801 15.8574 20.1375 15.8439 19.5188 15.8371C19.2093 15.8337 18.9553 15.832 18.7784 15.8312C18.6899 15.8307 18.6207 15.8305 18.5734 15.8304C18.5498 15.8304 18.5316 15.8303 18.5193 15.8303C18.5131 15.8303 18.5084 15.8303 18.5052 15.8303C18.5036 15.8303 18.5024 15.8303 18.5015 15.8303C18.5011 15.8303 18.5008 15.8303 18.5005 15.8303C18.5004 15.8303 18.5003 15.8303 18.5002 15.8303C18.5002 15.8303 18.5001 15.8303 18.5001 16.8303ZM10.889 18.2114C11.1801 18.1348 11.7801 18.0612 12.5988 18.0024C13.3898 17.9456 14.3081 17.9073 15.1865 17.8816C16.0632 17.856 16.8924 17.8432 17.5029 17.8367C17.8079 17.8335 18.0578 17.8319 18.2313 17.8311C18.318 17.8307 18.3855 17.8305 18.4312 17.8304C18.4541 17.8304 18.4715 17.8303 18.4831 17.8303C18.4889 17.8303 18.4932 17.8303 18.4961 17.8303C18.4975 17.8303 18.4985 17.8303 18.4992 17.8303C18.4996 17.8303 18.4998 17.8303 18.5 17.8303C18.5 17.8303 18.5001 17.8303 18.5001 17.8303C18.5001 17.8303 18.5001 17.8303 18.5001 16.8303C18.5001 15.8303 18.5001 15.8303 18.5 15.8303C18.4999 15.8303 18.4998 15.8303 18.4997 15.8303C18.4995 15.8303 18.4991 15.8303 18.4987 15.8303C18.4979 15.8303 18.4966 15.8303 18.495 15.8303C18.4918 15.8303 18.4871 15.8303 18.481 15.8303C18.4686 15.8303 18.4505 15.8304 18.4269 15.8304C18.3796 15.8305 18.3105 15.8307 18.222 15.8311C18.0452 15.832 17.7913 15.8336 17.4818 15.8368C16.8633 15.8434 16.021 15.8564 15.128 15.8825C14.2366 15.9086 13.2868 15.9479 12.4556 16.0075C11.652 16.0652 10.8755 16.1468 10.38 16.2772L10.889 18.2114ZM9.82832 19.2927C9.9683 18.7727 10.3981 18.3462 10.8993 18.2086L10.3698 16.28C9.18198 16.606 8.22077 17.5705 7.89709 18.7727L9.82832 19.2927ZM8.44873 23.8679C9.44873 23.8679 9.44873 23.868 9.44873 23.868C9.44873 23.868 9.44873 23.8681 9.44873 23.868C9.44873 23.868 9.44873 23.868 9.44873 23.8678C9.44873 23.8676 9.44873 23.8672 9.44873 23.8666C9.44873 23.8653 9.44874 23.8633 9.44874 23.8606C9.44875 23.855 9.44878 23.8465 9.44882 23.8351C9.44892 23.8123 9.44911 23.778 9.4495 23.7335C9.45028 23.6444 9.45185 23.5144 9.45501 23.3532C9.46133 23.0304 9.47397 22.5843 9.49917 22.0913C9.55108 21.0761 9.65216 19.9622 9.82978 19.2872L7.89563 18.7782C7.65928 19.6763 7.55337 20.98 7.50178 21.9892C7.47524 22.5083 7.46201 22.9761 7.45539 23.3141C7.45208 23.4833 7.45041 23.6205 7.44958 23.7159C7.44916 23.7637 7.44895 23.801 7.44884 23.8268C7.44879 23.8396 7.44876 23.8496 7.44875 23.8565C7.44874 23.86 7.44873 23.8627 7.44873 23.8646C7.44873 23.8655 7.44873 23.8663 7.44873 23.8669C7.44873 23.8671 7.44873 23.8674 7.44873 23.8675C7.44873 23.8676 7.44873 23.8677 7.44873 23.8678C7.44873 23.8679 7.44873 23.8679 8.44873 23.8679ZM9.82911 28.4462C9.65227 27.7813 9.55113 26.6692 9.49918 25.6509C9.47397 25.1569 9.46133 24.7093 9.45501 24.3851C9.45185 24.2232 9.45028 24.0927 9.4495 24.0031C9.44911 23.9584 9.44892 23.9239 9.44882 23.901C9.44878 23.8895 9.44875 23.8809 9.44874 23.8754C9.44874 23.8726 9.44873 23.8706 9.44873 23.8693C9.44873 23.8687 9.44873 23.8683 9.44873 23.868C9.44873 23.8679 9.44873 23.8679 9.44873 23.8678C9.44873 23.8678 9.44873 23.8679 9.44873 23.8679C9.44873 23.8679 9.44873 23.8679 8.44873 23.8679C7.44873 23.8679 7.44873 23.868 7.44873 23.8681C7.44873 23.8682 7.44873 23.8683 7.44873 23.8683C7.44873 23.8685 7.44873 23.8688 7.44873 23.869C7.44873 23.8696 7.44873 23.8704 7.44873 23.8713C7.44873 23.8732 7.44874 23.8759 7.44875 23.8794C7.44876 23.8864 7.44879 23.8964 7.44884 23.9093C7.44895 23.9351 7.44916 23.9726 7.44958 24.0206C7.45041 24.1165 7.45208 24.2542 7.45539 24.4241C7.462 24.7633 7.47524 25.2326 7.50178 25.7528C7.55332 26.763 7.65916 28.0686 7.8963 28.9602L9.82911 28.4462ZM10.8945 29.5094C10.3776 29.3702 9.96749 28.9601 9.82832 28.4432L7.89709 28.9632C8.22158 30.1684 9.16933 31.1162 10.3746 31.4406L10.8945 29.5094ZM18.5001 30.9056C18.5001 29.9056 18.5001 29.9056 18.5001 29.9056C18.5001 29.9056 18.5 29.9056 18.5 29.9056C18.4998 29.9056 18.4996 29.9056 18.4992 29.9056C18.4986 29.9056 18.4975 29.9056 18.4961 29.9056C18.4933 29.9056 18.4889 29.9056 18.4832 29.9056C18.4716 29.9055 18.4543 29.9055 18.4315 29.9055C18.386 29.9054 18.3186 29.9052 18.2322 29.9047C18.0592 29.9039 17.8099 29.9022 17.5056 29.8989C16.8966 29.8922 16.0693 29.8789 15.1939 29.8522C14.3168 29.8255 13.3997 29.7857 12.6085 29.7267C11.7897 29.6656 11.1892 29.5892 10.8959 29.5098L10.3731 31.4403C10.8747 31.5761 11.6548 31.6611 12.4598 31.7212C13.2925 31.7833 14.2424 31.8242 15.133 31.8513C16.0253 31.8785 16.8663 31.892 17.4837 31.8988C17.7926 31.9022 18.046 31.9039 18.2225 31.9047C18.3108 31.9051 18.3798 31.9054 18.427 31.9055C18.4505 31.9055 18.4687 31.9055 18.481 31.9056C18.4871 31.9056 18.4918 31.9056 18.495 31.9056C18.4966 31.9056 18.4978 31.9056 18.4987 31.9056C18.4991 31.9056 18.4995 31.9056 18.4997 31.9056C18.4998 31.9056 18.4999 31.9056 18.5 31.9056C18.5001 31.9056 18.5001 31.9056 18.5001 30.9056ZM26.1112 29.5245C25.8201 29.6011 25.2201 29.6747 24.4014 29.7335C23.6104 29.7903 22.6921 29.8286 21.8138 29.8542C20.937 29.8799 20.1078 29.8927 19.4974 29.8992C19.1923 29.9024 18.9424 29.904 18.7689 29.9048C18.6822 29.9052 18.6147 29.9054 18.569 29.9055C18.5461 29.9055 18.5287 29.9055 18.5172 29.9056C18.5114 29.9056 18.507 29.9056 18.5042 29.9056C18.5027 29.9056 18.5017 29.9056 18.501 29.9056C18.5007 29.9056 18.5004 29.9056 18.5003 29.9056C18.5002 29.9056 18.5002 29.9056 18.5001 29.9056C18.5001 29.9056 18.5001 29.9056 18.5001 30.9056C18.5001 31.9056 18.5002 31.9056 18.5002 31.9056C18.5003 31.9056 18.5004 31.9056 18.5005 31.9056C18.5008 31.9056 18.5011 31.9056 18.5015 31.9056C18.5024 31.9056 18.5036 31.9056 18.5052 31.9056C18.5084 31.9056 18.5131 31.9056 18.5193 31.9056C18.5316 31.9055 18.5497 31.9055 18.5733 31.9055C18.6206 31.9054 18.6898 31.9052 18.7782 31.9047C18.955 31.9039 19.2089 31.9023 19.5184 31.899C20.137 31.8925 20.9792 31.8795 21.8722 31.8534C22.7636 31.8273 23.7134 31.788 24.5446 31.7284C25.3482 31.6707 26.1247 31.5891 26.6202 31.4587L26.1112 29.5245ZM27.1719 28.4598C27.0327 28.9767 26.6226 29.3868 26.1057 29.526L26.6257 31.4572C27.8309 31.1327 28.7786 30.185 29.1031 28.9797L27.1719 28.4598ZM28.5515 23.8845C27.5515 23.8845 27.5515 23.8845 27.5515 23.8844C27.5515 23.8844 27.5515 23.8844 27.5515 23.8844C27.5515 23.8844 27.5515 23.8845 27.5515 23.8846C27.5515 23.8848 27.5515 23.8853 27.5515 23.8859C27.5515 23.8871 27.5515 23.8891 27.5515 23.8919C27.5515 23.8974 27.5514 23.906 27.5514 23.9174C27.5513 23.9402 27.5511 23.9745 27.5507 24.019C27.5499 24.1081 27.5484 24.238 27.5452 24.3992C27.5389 24.7221 27.5263 25.1681 27.501 25.6612C27.4491 26.6764 27.3481 27.7903 27.1704 28.4653L29.1046 28.9743C29.3409 28.0761 29.4468 26.7724 29.4984 25.7633C29.525 25.2441 29.5382 24.7763 29.5448 24.4384C29.5481 24.2692 29.5498 24.132 29.5506 24.0365C29.5511 23.9888 29.5513 23.9514 29.5514 23.9257C29.5514 23.9128 29.5515 23.9029 29.5515 23.8959C29.5515 23.8925 29.5515 23.8898 29.5515 23.8879C29.5515 23.8869 29.5515 23.8862 29.5515 23.8856C29.5515 23.8853 29.5515 23.8851 29.5515 23.8849C29.5515 23.8848 29.5515 23.8847 29.5515 23.8847C29.5515 23.8846 29.5515 23.8845 28.5515 23.8845ZM27.173 19.2967C27.356 19.9653 27.4573 21.0776 27.5071 22.0973C27.5313 22.5917 27.5424 23.0392 27.5475 23.3632C27.55 23.525 27.551 23.6554 27.5514 23.7447C27.5516 23.7894 27.5516 23.8238 27.5516 23.8466C27.5516 23.8581 27.5515 23.8666 27.5515 23.8721C27.5515 23.8749 27.5515 23.8769 27.5515 23.8781C27.5515 23.8787 27.5515 23.8792 27.5515 23.8794C27.5515 23.8795 27.5515 23.8796 27.5515 23.8796C27.5515 23.8796 27.5515 23.8795 27.5515 23.8795C27.5515 23.8795 27.5515 23.8795 28.5515 23.8845C29.5515 23.8896 29.5515 23.8895 29.5515 23.8894C29.5515 23.8893 29.5515 23.8892 29.5515 23.8891C29.5515 23.889 29.5515 23.8887 29.5515 23.8884C29.5515 23.8879 29.5515 23.8871 29.5515 23.8861C29.5515 23.8842 29.5515 23.8815 29.5515 23.878C29.5515 23.871 29.5516 23.8609 29.5516 23.848C29.5516 23.822 29.5516 23.7844 29.5514 23.7364C29.5509 23.6403 29.5499 23.5022 29.5472 23.332C29.5419 22.9921 29.5303 22.5217 29.5048 21.9997C29.4552 20.9868 29.3496 19.6732 29.102 18.7687L27.173 19.2967ZM25.0326 25.7543V25.4617H23.0326V25.7543H25.0326ZM25.0583 26.4719C25.0438 26.3482 25.0326 26.1145 25.0326 25.7543H23.0326C23.0326 26.131 23.0432 26.4608 23.072 26.7056L25.0583 26.4719ZM24.9131 26.2826C24.9696 26.3391 25.0052 26.3927 25.0264 26.4302C25.0474 26.4676 25.0579 26.4957 25.0621 26.508C25.0692 26.5291 25.0643 26.5224 25.0583 26.4719L23.072 26.7056C23.096 26.9097 23.163 27.3609 23.4989 27.6968L24.9131 26.2826ZM24.5312 26.1198C24.5462 26.1198 24.614 26.1214 24.7075 26.1588C24.81 26.1998 24.92 26.275 25.006 26.3897L23.406 27.5897C23.728 28.019 24.1988 28.1198 24.5312 28.1198V26.1198ZM24.0377 26.445C24.0759 26.3686 24.153 26.2673 24.2802 26.1946C24.4002 26.1261 24.5003 26.1198 24.5312 26.1198V28.1198C24.7571 28.1198 25.0198 28.0755 25.2725 27.9311C25.5325 27.7826 25.7125 27.5675 25.8266 27.3394L24.0377 26.445ZM24.0518 26.1033C24.047 26.2637 24.0378 26.3711 24.0273 26.4412C24.0156 26.5188 24.0089 26.5026 24.0377 26.445L25.8266 27.3394C26.0136 26.9654 26.0406 26.504 26.0509 26.1639L24.0518 26.1033ZM26.2258 25.2003L25.1095 25.1353L24.9932 27.1319L26.1095 27.1969L26.2258 25.2003ZM27.1784 26.4045C27.1784 26.3539 27.1828 26.1755 27.1482 26.0025L25.187 26.3947C25.1823 26.3708 25.18 26.3525 25.1789 26.3421C25.1779 26.3318 25.1778 26.3267 25.1779 26.3293C25.178 26.332 25.1782 26.3387 25.1783 26.3522C25.1784 26.3588 25.1784 26.3662 25.1784 26.3751C25.1784 26.384 25.1784 26.3935 25.1784 26.4045H27.1784ZM26.4093 28.344C26.9914 27.8267 27.1784 27.1007 27.1784 26.4045H25.1784C25.1784 26.7703 25.0838 26.8464 25.0806 26.8492L26.4093 28.344ZM24.5095 28.9868C25.1974 28.9868 25.8771 28.8171 26.4093 28.344L25.0806 26.8492C25.0276 26.8963 24.8837 26.9868 24.5095 26.9868V28.9868ZM22.3267 27.9241C22.826 28.6938 23.6461 28.9868 24.5095 28.9868V26.9868C24.0941 26.9868 24.0255 26.8679 24.0046 26.8357L22.3267 27.9241ZM21.7755 25.5158C21.7755 26.4262 21.9086 27.2795 22.3267 27.9241L24.0046 26.8357C23.9025 26.6783 23.7755 26.2961 23.7755 25.5158H21.7755ZM21.7755 24.508V25.5158H23.7755V24.508H21.7755ZM22.3479 22.0516C21.9055 22.7063 21.7755 23.5849 21.7755 24.508H23.7755C23.7755 23.6971 23.9056 23.3185 24.0051 23.1713L22.3479 22.0516ZM24.542 21.0154C23.6974 21.0154 22.8661 21.2847 22.3479 22.0516L24.0051 23.1713C24.0288 23.1363 24.1078 23.0154 24.542 23.0154V21.0154ZM26.1349 21.4384C25.6682 21.1202 25.0958 21.0154 24.542 21.0154V23.0154C24.8768 23.0154 24.9981 23.0839 25.0082 23.0909L26.1349 21.4384ZM27.0304 22.7444C26.8901 22.261 26.6215 21.7702 26.1349 21.4384L25.0082 23.0909C25.0085 23.0911 25.0105 23.0924 25.0142 23.0963C25.0181 23.1004 25.0253 23.1087 25.0348 23.1233C25.0543 23.1534 25.0827 23.209 25.1097 23.3021L27.0304 22.7444ZM27.211 24.4538C27.211 23.8184 27.1677 23.2324 27.0327 22.7525L25.1074 23.294C25.1675 23.5077 25.211 23.8754 25.211 24.4538H27.211ZM27.211 25.44V24.4538H25.211V25.44H27.211ZM24.0326 26.44H26.211V24.44H24.0326V26.44ZM25.0326 25.4617V25.44H23.0326V25.4617H25.0326ZM25.0583 23.5519C25.0636 23.5068 25.0685 23.4961 25.0645 23.5084C25.0604 23.5212 25.0425 23.571 24.9952 23.6341L23.3952 22.4341C23.1772 22.7248 23.1026 23.058 23.072 23.3182L25.0583 23.5519ZM25.0326 24.2804C25.0326 23.9087 25.0438 23.6753 25.0583 23.5519L23.072 23.3182C23.0432 23.5633 23.0326 23.8935 23.0326 24.2804H25.0326ZM25.0326 24.6922V24.2804H23.0326V24.6922H25.0326ZM24.9863 23.6922H24.0326V25.6922H24.9863V23.6922ZM23.9863 24.2804V24.6922H25.9863V24.2804H23.9863ZM23.9599 23.5455C23.9754 23.6849 23.9863 23.9228 23.9863 24.2804H25.9863C25.9863 23.901 25.9756 23.5754 25.9477 23.3246L23.9599 23.5455ZM24.0537 23.6849C23.9934 23.6145 23.9687 23.5558 23.961 23.5347C23.9527 23.5123 23.9563 23.5128 23.9599 23.5455L25.9477 23.3246C25.9136 23.0173 25.8153 22.6669 25.5722 22.3833L24.0537 23.6849ZM24.5095 23.9149C24.4333 23.9149 24.2281 23.8884 24.0537 23.6849L25.5722 22.3833C25.2677 22.0281 24.8458 21.9149 24.5095 21.9149V23.9149ZM24.9952 23.6341C24.9252 23.7274 24.8202 23.8155 24.687 23.8681C24.5644 23.9165 24.4692 23.9146 24.4382 23.9123L24.5807 21.9174C24.1725 21.8883 23.7093 22.0153 23.3952 22.4341L24.9952 23.6341ZM16.7686 22.1443V27.9206H18.7686V22.1443H16.7686ZM16.4681 23.1443H17.7686V21.1443H16.4681V23.1443ZM17.4681 26.7285V22.1443H15.4681V26.7285H17.4681ZM16.755 27.8461C17.0343 27.6785 17.2652 27.4283 17.3966 27.0999L15.5396 26.3571C15.5594 26.3077 15.5886 26.2591 15.6261 26.2163C15.663 26.1741 15.6996 26.147 15.726 26.1311L16.755 27.8461ZM15.9154 28.097C16.2412 28.097 16.5478 27.9941 16.814 27.8078L15.6671 26.1694C15.6871 26.1554 15.7212 26.1357 15.7689 26.1202C15.8172 26.1045 15.8675 26.097 15.9154 26.097V28.097ZM14.7392 27.3816C14.9863 27.8757 15.4621 28.097 15.9154 28.097V26.097C15.9891 26.097 16.1106 26.1128 16.2422 26.1881C16.3795 26.2665 16.474 26.379 16.5281 26.4872L14.7392 27.3816ZM14.5469 26.3817C14.5469 26.6844 14.5785 27.0602 14.7392 27.3816L16.5281 26.4872C16.5465 26.5241 16.5547 26.5502 16.5572 26.5589C16.56 26.5683 16.5592 26.5679 16.5571 26.5553C16.5528 26.5285 16.5469 26.4727 16.5469 26.3817H14.5469ZM14.5469 22.1443V26.3817H16.5469V22.1443H14.5469ZM14.2465 23.1443H15.5469V21.1443H14.2465V23.1443ZM15.2465 26.4576V22.1443H13.2465V26.4576H15.2465ZM15.3216 27.0444C15.3329 27.0598 15.3111 27.038 15.2879 26.936C15.2647 26.8339 15.2465 26.6796 15.2465 26.4576H13.2465C13.2465 27.062 13.3344 27.7207 13.7132 28.2332L15.3216 27.0444ZM15.3627 27.0181C15.2866 27.0181 15.2665 27.0052 15.2787 27.0107C15.2846 27.0134 15.2939 27.0186 15.3038 27.0266C15.3136 27.0346 15.3194 27.0416 15.3216 27.0444L13.7132 28.2332C14.1223 28.7867 14.7326 29.0181 15.3627 29.0181V27.0181ZM15.7182 26.7617C15.6023 26.9889 15.5061 27.0181 15.3627 27.0181V29.0181C16.3248 29.0181 17.0738 28.5055 17.4998 27.6706L15.7182 26.7617ZM16.6415 26.2162H16.609V28.2162H16.6415V26.2162ZM17.7383 27.7685L17.6299 27.0641L15.6531 27.3682L15.7615 28.0727L17.7383 27.7685ZM17.7686 26.9206H16.7499V28.9206H17.7686V26.9206ZM13.347 22.0617H14.6367V20.0617H13.347V22.0617ZM14.347 27.9109V21.0617H12.347V27.9109H14.347ZM12.0791 28.9109H13.347V26.9109H12.0791V28.9109ZM11.0791 21.0617V27.9109H13.0791V21.0617H11.0791ZM10.7894 22.0617H12.0791V20.0617H10.7894V22.0617ZM9.78943 20.0105V21.0617H11.7894V20.0105H9.78943ZM14.6367 19.0105H10.7894V21.0105H14.6367V19.0105ZM15.6367 21.0617V20.0105H13.6367V21.0617H15.6367ZM23.0506 22.8646C22.9513 22.3824 22.7545 21.9007 22.3757 21.5456L21.0078 23.0047C20.9906 22.9885 20.9984 22.9888 21.0181 23.0295C21.0384 23.0714 21.0667 23.1466 21.0916 23.2679L23.0506 22.8646ZM23.1902 24.578C23.1793 23.9142 23.1471 23.3196 23.0493 22.8588L21.0929 23.2738C21.1468 23.5283 21.1796 23.9523 21.1904 24.6107L23.1902 24.578ZM23.1903 25.5047V24.5943H21.1903V25.5047H23.1903ZM22.7656 27.858C23.0825 27.241 23.1903 26.4062 23.1903 25.5047H21.1903C21.1903 26.3154 21.0814 26.7595 20.9865 26.9444L22.7656 27.858ZM20.9115 29.0081C21.294 29.0081 21.6761 28.9173 22.0196 28.699C22.3596 28.4829 22.5995 28.1816 22.7656 27.858L20.9865 26.9444C20.9662 26.9839 20.9507 27.0039 20.9441 27.0116C20.9381 27.0185 20.9388 27.0161 20.9468 27.0111C20.955 27.0058 20.9614 27.0039 20.9612 27.0039C20.96 27.0043 20.9452 27.0081 20.9115 27.0081V29.0081ZM19.7738 28.7196C20.0982 28.8904 20.4737 29.0081 20.9115 29.0081V27.0081C20.8507 27.0081 20.7928 26.9958 20.7053 26.9498L19.7738 28.7196ZM18.89 27.8159C19.088 28.2119 19.3906 28.4987 19.7385 28.7001L20.7406 26.9693C20.7049 26.9486 20.6895 26.9342 20.6847 26.9293C20.6809 26.9255 20.6801 26.924 20.6788 26.9215L18.89 27.8159ZM19.7519 28.3687H19.7844V26.3687H19.7519V28.3687ZM20.5942 28.1439L20.7243 27.6021L18.7795 27.1353L18.6495 27.6772L20.5942 28.1439ZM18.549 28.9106H19.6219V26.9106H18.549V28.9106ZM17.549 19.7175V27.9106H19.549V19.7175H17.549ZM19.8061 18.7175H18.549V20.7175H19.8061V18.7175ZM20.8061 22.7628V19.7175H18.8061V22.7628H20.8061ZM19.8169 21.7628H19.8061V23.7628H19.8169V21.7628ZM19.7598 21.3863C19.3926 21.6182 19.1086 21.9434 18.9225 22.3156L20.7114 23.21C20.742 23.1488 20.7831 23.1055 20.8278 23.0773L19.7598 21.3863ZM20.9657 21.0259C20.5363 21.0259 20.1098 21.146 19.7291 21.4065L20.8584 23.0571C20.8777 23.044 20.893 23.0374 20.9059 23.0335C20.9193 23.0295 20.9382 23.0259 20.9657 23.0259V21.0259ZM22.3757 21.5456C21.9727 21.1678 21.4552 21.0259 20.9657 21.0259V23.0259C21.0233 23.0259 21.0494 23.0342 21.0518 23.035C21.0528 23.0354 21.0481 23.0338 21.0395 23.0288C21.0308 23.0236 21.0197 23.0158 21.0078 23.0047L22.3757 21.5456ZM19.879 25.418C19.879 25.8098 19.8587 26.0877 19.834 26.2691L21.8156 26.5393C21.8559 26.2439 21.879 25.8715 21.879 25.418H19.879ZM20.8898 24.418H20.879V26.418H20.8898V24.418ZM19.8898 24.6594V25.418H21.8898V24.6594H19.8898ZM19.8549 23.7483C19.8782 23.9273 19.8898 24.217 19.8898 24.6594H21.8898C21.8898 24.2131 21.8798 23.8092 21.8381 23.4896L19.8549 23.7483ZM19.8755 23.6723C19.8487 23.634 19.8343 23.6037 19.8281 23.5894C19.8219 23.5751 19.8214 23.5707 19.8242 23.5809C19.827 23.5907 19.8317 23.6095 19.8374 23.6398C19.8432 23.6698 19.8493 23.7073 19.8556 23.7541L21.8373 23.4839C21.8053 23.2495 21.7429 22.8524 21.514 22.5253L19.8755 23.6723ZM20.3913 23.9471C20.317 23.9471 20.2211 23.9312 20.1202 23.8808C20.0173 23.8293 19.9275 23.7507 19.8627 23.6535L21.5268 22.5441C21.2536 22.1343 20.8126 21.9471 20.3913 21.9471V23.9471ZM20.7135 23.8421C20.6943 23.8593 20.5854 23.9471 20.3913 23.9471V21.9471C19.9587 21.9471 19.6114 22.1432 19.3755 22.3555L20.7135 23.8421ZM20.7784 23.7637C20.7785 23.7636 20.7779 23.7655 20.7765 23.7688C20.7751 23.7722 20.773 23.7766 20.7701 23.7815C20.764 23.792 20.7571 23.8004 20.7516 23.8059L19.3374 22.3917C19.1052 22.6239 18.944 22.9041 18.8554 23.2142L20.7784 23.7637ZM20.8169 26.7618V23.4889H18.8169V26.7618H20.8169ZM20.5637 26.1414C20.6115 26.1713 20.6581 26.2168 20.6911 26.2762L18.9428 27.2475C19.0841 27.5019 19.2824 27.6991 19.5037 27.8374L20.5637 26.1414ZM20.3263 26.0653C20.3549 26.0653 20.4535 26.0725 20.5637 26.1414L19.5037 27.8374C19.7873 28.0146 20.0809 28.0653 20.3263 28.0653V26.0653ZM19.904 26.2492C19.9376 26.2113 19.9938 26.1618 20.076 26.1227C20.1604 26.0826 20.2479 26.0653 20.3263 26.0653V28.0653C20.7725 28.0653 21.1436 27.865 21.3988 27.5779L19.904 26.2492ZM19.834 26.2691C19.8296 26.3007 19.8248 26.3261 19.8203 26.3455C19.8158 26.3651 19.812 26.377 19.8103 26.382C19.8084 26.3873 19.8096 26.3827 19.816 26.3702C19.8221 26.3583 19.8363 26.3327 19.862 26.2996L21.4408 27.5275C21.6715 27.2309 21.7723 26.8572 21.8156 26.5393L19.834 26.2691Z" fill="#E0E0E0" mask="url(#path-2-inside-1_53_1149)"/>
<path d="M17.2088 13.6832L17.2088 13.6831L17.2077 13.6794C17.1184 13.3759 17.0654 12.931 17.0654 12.3466V11.5122C17.0654 10.9286 17.127 10.4868 17.2247 10.1727C17.327 9.87741 17.4627 9.71004 17.6084 9.61155C17.6665 9.57483 17.7337 9.54211 17.812 9.51504C17.6734 9.62879 17.5824 9.77646 17.5272 9.92925C17.4172 10.2172 17.3876 10.5995 17.3876 11.0136V12.8126C17.3876 13.2278 17.4154 13.6277 17.5288 13.9123C17.5876 14.0728 17.6867 14.229 17.8423 14.3448C17.8447 14.3466 17.8471 14.3484 17.8495 14.3502C17.7244 14.3176 17.6286 14.2752 17.558 14.2281C17.418 14.1347 17.2923 13.9757 17.2088 13.6832ZM19.2097 9.92207C19.1525 9.77492 19.0622 9.62133 18.9137 9.50385C19.0036 9.53264 19.0778 9.56865 19.1383 9.60898C19.2758 9.70067 19.4065 9.87091 19.5035 10.1705C19.6006 10.4707 19.6634 10.912 19.6634 11.5122V12.3466C19.6634 12.9405 19.6106 13.3699 19.5137 13.6794C19.4168 13.9778 19.2864 14.1475 19.1491 14.239C19.0831 14.283 18.9975 14.3226 18.8892 14.353C18.892 14.3509 18.8947 14.3489 18.8975 14.3468C19.0529 14.2294 19.148 14.0722 19.208 13.9195C19.3239 13.6344 19.3521 13.2313 19.3521 12.8126V11.0136C19.3521 10.596 19.322 10.2108 19.2097 9.92207Z" stroke="#E0E0E0"/>
<path d="M15.2894 10.8114C15.3364 10.5192 15.4251 10.0703 15.5587 9.4404L16.0127 7.40649H16.2425L15.2894 10.8114ZM14.9061 12.2493V14.3069H14.6273V12.2493V11.7493H14.4972L14.3874 11.3513H14.745H14.7775H15.1383L14.9246 12.1145L14.9061 12.1807V12.2493ZM14.2239 10.7584L13.2992 7.40649H13.5284L13.9636 9.42844L13.9636 9.42844L13.9639 9.42981C14.0754 9.94076 14.1618 10.3832 14.2239 10.7584Z" stroke="#E0E0E0"/>
<path d="M23.8576 14.3176H23.7678L23.7247 14.0371L23.6595 13.6131H23.5571V9.54126H23.8576V14.3176ZM21.7754 14.055C21.8563 14.2167 21.9763 14.3313 22.1153 14.4027C22.0631 14.4111 22.0086 14.4151 21.9517 14.4151C21.6978 14.4151 21.5803 14.3358 21.5085 14.2386C21.4215 14.121 21.3354 13.8651 21.3354 13.3545V9.54126H21.6359V13.2787C21.6359 13.5601 21.668 13.8401 21.7754 14.055Z" stroke="#E0E0E0"/>
</svg>
