<svg width="37" height="37" viewBox="0 0 37 37" fill="none" xmlns="http://www.w3.org/2000/svg">
<rect x="1" y="1.40552" width="35" height="35" rx="17.5" stroke="#E0E0E0"/>
<mask id="path-2-inside-1_53_1146" fill="white">
<path d="M18.5002 10.5356C19.9144 10.5356 21.0647 11.686 21.0647 13.1002C21.0647 14.5132 19.9141 15.6636 18.5002 15.6636C17.0868 15.6636 15.9362 14.5132 15.9362 13.1002C15.9359 11.6857 17.0871 10.5356 18.5002 10.5356ZM18.5002 19.2919C21.9162 19.2919 24.6943 16.5148 24.6943 13.1002C24.6943 9.68385 21.9165 6.90552 18.5002 6.90552C15.0844 6.90552 12.3061 9.68414 12.3061 13.1002C12.3061 16.5148 15.0844 19.2919 18.5002 19.2919ZM21.006 24.3443C22.2802 24.0541 23.4963 23.5506 24.6026 22.8551C25.01 22.5988 25.2988 22.1912 25.4056 21.722C25.5124 21.2528 25.4284 20.7604 25.1722 20.353C25.0454 20.1512 24.8802 19.9762 24.6858 19.8383C24.4914 19.7003 24.2717 19.6021 24.0393 19.5491C23.8069 19.4961 23.5663 19.4895 23.3313 19.5295C23.0964 19.5696 22.8716 19.6556 22.6699 19.7826C20.1323 21.378 16.8662 21.3768 14.3307 19.7826C14.1291 19.6556 13.9043 19.5695 13.6693 19.5295C13.4344 19.4894 13.1938 19.496 12.9614 19.549C12.7291 19.602 12.5094 19.7003 12.315 19.8382C12.1207 19.9762 11.9554 20.1511 11.8287 20.353C11.5724 20.7602 11.4883 21.2526 11.5949 21.7218C11.7016 22.191 11.9902 22.5986 12.3974 22.8551C13.5037 23.5503 14.7195 24.0538 15.9934 24.3443L12.5308 27.8075C12.1905 28.1479 11.9994 28.6095 11.9995 29.0908C11.9996 29.5721 12.1908 30.0337 12.5312 30.374C12.8716 30.7143 13.3333 30.9054 13.8146 30.9053C14.2959 30.9052 14.7575 30.7139 15.0977 30.3735L18.4996 26.9711L21.9035 30.3738C22.0718 30.5424 22.2717 30.6761 22.4917 30.7673C22.7117 30.8586 22.9476 30.9055 23.1858 30.9055C23.4239 30.9055 23.6598 30.8586 23.8798 30.7673C24.0999 30.6761 24.2997 30.5424 24.468 30.3738C24.6368 30.2055 24.7708 30.0056 24.8622 29.7855C24.9535 29.5653 25.0006 29.3293 25.0006 29.091C25.0006 28.8526 24.9535 28.6166 24.8622 28.3964C24.7708 28.1763 24.6368 27.9764 24.468 27.8081L21.006 24.3443Z"/>
</mask>
<path d="M15.9362 13.1002H21.4749V13.099L15.9362 13.1002ZM21.006 24.3443L19.7761 18.9439L10.0023 21.1698L17.0886 28.2597L21.006 24.3443ZM24.6026 22.8551L27.5504 27.5442L27.5522 27.5431L24.6026 22.8551ZM25.1722 20.353L20.4813 23.2979L20.4841 23.3025L25.1722 20.353ZM22.6699 19.7826L25.6178 24.4716L25.621 24.4696L22.6699 19.7826ZM14.3307 19.7826L11.3787 24.469L11.3826 24.4715L14.3307 19.7826ZM11.8287 20.353L16.516 23.3037L16.5204 23.2968L11.8287 20.353ZM12.3974 22.8551L9.44589 27.5418L9.4502 27.5445L12.3974 22.8551ZM15.9934 24.3443L19.9102 28.2604L26.9971 21.1723L17.2246 18.9442L15.9934 24.3443ZM12.5308 27.8075L8.61401 23.8914L8.61367 23.8917L12.5308 27.8075ZM15.0977 30.3735L11.1809 26.4574L11.1806 26.4578L15.0977 30.3735ZM18.4996 26.9711L22.4153 23.054L18.4985 19.1386L14.5828 23.055L18.4996 26.9711ZM21.9035 30.3738L25.8228 26.4602L25.8192 26.4567L21.9035 30.3738ZM24.468 30.3738L20.5576 26.4514L20.5487 26.4603L24.468 30.3738ZM25.0006 29.091H19.4619H25.0006ZM24.468 27.8081L20.5506 31.7235L20.5576 31.7305L24.468 27.8081ZM18.5002 16.0743C16.8554 16.0743 15.526 14.7449 15.526 13.1002H26.6034C26.6034 8.62705 22.9733 4.99695 18.5002 4.99695V16.0743ZM15.526 13.1002C15.526 11.4522 16.8572 10.1249 18.5002 10.1249V21.2023C22.9709 21.2023 26.6034 17.5743 26.6034 13.1002H15.526ZM18.5002 10.1249C20.1445 10.1249 21.4749 11.4531 21.4749 13.1002H10.3975C10.3975 17.5734 14.0291 21.2023 18.5002 21.2023V10.1249ZM21.4749 13.099C21.4752 14.7458 20.1446 16.0743 18.5002 16.0743V4.99695C14.0297 4.99695 10.3966 8.62554 10.3975 13.1014L21.4749 13.099ZM18.5002 24.8306C24.9733 24.8306 30.2329 19.5756 30.2329 13.1002H19.1556C19.1556 13.454 18.8592 13.7532 18.5002 13.7532V24.8306ZM30.2329 13.1002C30.2329 6.6256 24.9761 1.36682 18.5002 1.36682V12.4442C18.8569 12.4442 19.1556 12.7421 19.1556 13.1002H30.2329ZM18.5002 1.36682C12.0249 1.36682 6.76737 6.62573 6.76737 13.1002H17.8448C17.8448 12.7426 18.1438 12.4442 18.5002 12.4442V1.36682ZM6.76737 13.1002C6.76737 19.5758 12.0275 24.8306 18.5002 24.8306V13.7532C18.1413 13.7532 17.8448 13.4538 17.8448 13.1002H6.76737ZM22.2359 29.7447C24.1188 29.3159 25.9156 28.5719 27.5504 27.5442L21.6549 18.166C21.0769 18.5293 20.4417 18.7923 19.7761 18.9439L22.2359 29.7447ZM27.5522 27.5431C29.2028 26.5045 30.3733 24.8529 30.8061 22.9513L20.005 20.4927C20.2243 19.5296 20.8171 18.693 21.6531 18.1671L27.5522 27.5431ZM30.8061 22.9513C31.239 21.0499 30.8987 19.0543 29.8603 17.4036L20.4841 23.3025C19.9581 22.4664 19.7858 21.4557 20.005 20.4927L30.8061 22.9513ZM29.8631 17.4082C29.3493 16.5897 28.6792 15.8806 27.8911 15.3214L21.4804 24.3552C21.0811 24.0719 20.7416 23.7126 20.4813 23.2979L29.8631 17.4082ZM27.8911 15.3214C27.1031 14.7621 26.2125 14.3637 25.2703 14.1489L22.8083 24.9492C22.3309 24.8404 21.8797 24.6386 21.4804 24.3552L27.8911 15.3214ZM25.2703 14.1489C24.3281 13.9342 23.3529 13.9072 22.4003 14.0697L24.2624 24.9894C23.7798 25.0717 23.2856 25.0581 22.8083 24.9492L25.2703 14.1489ZM22.4003 14.0697C21.4477 14.2321 20.5365 14.5807 19.7187 15.0956L25.621 24.4696C25.2067 24.7305 24.745 24.9071 24.2624 24.9894L22.4003 14.0697ZM19.7219 15.0936C18.9871 15.5556 18.0129 15.5553 17.2788 15.0937L11.3826 24.4715C15.7196 27.1983 21.2775 27.2003 25.6178 24.4716L19.7219 15.0936ZM17.2828 15.0962C16.465 14.581 15.5536 14.2322 14.6008 14.0697L12.7379 24.9893C12.255 24.9069 11.7932 24.7301 11.3787 24.469L17.2828 15.0962ZM14.6008 14.0697C13.6481 13.9071 12.6726 13.934 11.7303 14.1489L14.1926 24.9491C13.715 25.058 13.2207 25.0716 12.7379 24.9893L14.6008 14.0697ZM11.7303 14.1489C10.7879 14.3637 9.89719 14.7623 9.10904 15.3217L15.521 24.3547C15.1216 24.6383 14.6702 24.8402 14.1926 24.9491L11.7303 14.1489ZM9.10904 15.3217C8.3209 15.8812 7.6508 16.5906 7.13709 17.4093L16.5204 23.2968C16.26 23.7117 15.9204 24.0712 15.521 24.3547L9.10904 15.3217ZM7.14142 17.4024C6.10261 19.0526 5.76182 21.0479 6.19398 22.9493L16.9959 20.4943C17.2148 21.4573 17.0422 22.4679 16.516 23.3037L7.14142 17.4024ZM6.19398 22.9493C6.62614 24.8508 7.79586 26.5027 9.44589 27.5418L15.3489 18.1683C16.1846 18.6946 16.777 19.5312 16.9959 20.4943L6.19398 22.9493ZM9.4502 27.5445C11.0844 28.5716 12.8803 29.3153 14.7622 29.7444L17.2246 18.9442C16.5586 18.7923 15.923 18.5291 15.3446 18.1656L9.4502 27.5445ZM12.0766 20.4282L8.61401 23.8914L16.4476 31.7236L19.9102 28.2604L12.0766 20.4282ZM8.61367 23.8917C7.23486 25.271 6.46045 27.1415 6.46078 29.0918L17.5382 29.0899C17.5383 30.0775 17.1462 31.0248 16.4479 31.7233L8.61367 23.8917ZM6.46078 29.0918C6.46112 31.042 7.23618 32.9123 8.61547 34.2911L16.447 26.4569C17.1455 27.1551 17.538 28.1022 17.5382 29.0899L6.46078 29.0918ZM8.61547 34.2911C9.99476 35.6699 11.8653 36.4443 13.8155 36.444L13.8136 25.3666C14.8013 25.3664 15.7485 25.7586 16.447 26.4569L8.61547 34.2911ZM13.8155 36.444C15.7658 36.4436 17.6361 35.6686 19.0149 34.2893L11.1806 26.4578C11.8789 25.7593 12.826 25.3668 13.8136 25.3666L13.8155 36.444ZM19.0145 34.2896L22.4164 30.8872L14.5828 23.055L11.1809 26.4574L19.0145 34.2896ZM14.5838 30.8882L17.9877 34.291L25.8192 26.4567L22.4153 23.054L14.5838 30.8882ZM17.9842 34.2874C18.6669 34.9711 19.4777 35.5135 20.3702 35.8836L24.6131 25.651C25.0656 25.8386 25.4767 26.1136 25.8228 26.4603L17.9842 34.2874ZM20.3702 35.8836C21.2628 36.2537 22.2196 36.4442 23.1858 36.4442V25.3668C23.6756 25.3668 24.1606 25.4634 24.6131 25.651L20.3702 35.8836ZM23.1858 36.4442C24.152 36.4442 25.1087 36.2537 26.0013 35.8836L21.7584 25.651C22.2109 25.4634 22.6959 25.3668 23.1858 25.3668V36.4442ZM26.0013 35.8836C26.8938 35.5136 27.7046 34.9711 28.3874 34.2874L20.5487 26.4603C20.8948 26.1136 21.3059 25.8386 21.7584 25.651L26.0013 35.8836ZM28.3785 34.2962C29.0634 33.6134 29.6068 32.8021 29.9776 31.9089L19.7467 27.662C19.9347 27.2091 20.2103 26.7977 20.5576 26.4514L28.3785 34.2962ZM29.9776 31.9089C30.3484 31.0157 30.5393 30.0581 30.5393 29.091H19.4619C19.4619 28.6005 19.5587 28.115 19.7467 27.662L29.9776 31.9089ZM30.5393 29.091C30.5393 28.1238 30.3484 27.1662 29.9776 26.273L19.7467 30.5199C19.5587 30.0669 19.4619 29.5814 19.4619 29.091H30.5393ZM29.9776 26.273C29.6068 25.3798 29.0634 24.5685 28.3785 23.8857L20.5576 31.7305C20.2103 31.3842 19.9347 30.9728 19.7467 30.5199L29.9776 26.273ZM28.3855 23.8926L24.9235 20.4288L17.0886 28.2597L20.5506 31.7235L28.3855 23.8926Z" fill="#E0E0E0" mask="url(#path-2-inside-1_53_1146)"/>
</svg>
