<svg width="37" height="37" viewBox="0 0 37 37" fill="none" xmlns="http://www.w3.org/2000/svg">
<rect x="1" y="1.40552" width="35" height="35" rx="17.5" stroke="#E0E0E0"/>
<mask id="path-2-inside-1_53_1137" fill="white">
<path d="M19.7017 30.9054V19.9578H23.3764L23.9265 15.6914H19.7017V12.9674C19.7017 11.7322 20.0448 10.8903 21.8162 10.8903L24.0755 10.8893V7.07345C23.6846 7.02164 22.3435 6.90552 20.7834 6.90552C17.526 6.90552 15.296 8.8937 15.296 12.5451V15.6915H11.6118V19.958H15.2959V30.9055L19.7017 30.9054Z"/>
</mask>
<path d="M19.7017 30.9054L19.702 42.975L31.7713 42.9747V30.9054H19.7017ZM19.7017 19.9578V7.88825H7.63213V19.9578H19.7017ZM23.3764 19.9578V32.0274H33.9896L35.3469 21.5014L23.3764 19.9578ZM23.9265 15.6914L35.897 17.235L37.6524 3.62181H23.9265V15.6914ZM19.7017 15.6914H7.63213V27.761H19.7017V15.6914ZM21.8162 10.8903V22.9599L21.8218 22.9599L21.8162 10.8903ZM24.0755 10.8893L24.081 22.9589L36.1451 22.9533V10.8893H24.0755ZM24.0755 7.07345H36.1451V-3.50216L25.6611 -4.89153L24.0755 7.07345ZM15.296 15.6915V27.7611H27.3656V15.6915H15.296ZM11.6118 15.6915V3.62193H-0.457774V15.6915H11.6118ZM11.6118 19.958H-0.457774V32.0275H11.6118V19.958ZM15.2959 19.958H27.3655V7.88837H15.2959V19.958ZM15.2959 30.9055H3.22628V42.9754L15.2962 42.9751L15.2959 30.9055ZM31.7713 30.9054V19.9578H7.63213V30.9054H31.7713ZM19.7017 32.0274H23.3764V7.88825H19.7017V32.0274ZM35.3469 21.5014L35.897 17.235L11.9561 14.1478L11.4059 18.4143L35.3469 21.5014ZM23.9265 3.62181H19.7017V27.761H23.9265V3.62181ZM31.7713 15.6914V12.9674H7.63213V15.6914H31.7713ZM31.7713 12.9674C31.7713 13.1347 31.7689 13.8851 31.5276 14.9037C31.2696 15.9931 30.6804 17.6325 29.3276 19.2392C26.3272 22.8029 22.5388 22.9599 21.8162 22.9599V-1.17925C19.3222 -1.17925 14.4765 -0.601268 10.8617 3.69214C7.63897 7.51994 7.63213 11.833 7.63213 12.9674H31.7713ZM21.8218 22.9599L24.081 22.9589L24.0699 -1.1803L21.8106 -1.17925L21.8218 22.9599ZM36.1451 10.8893V7.07345H12.0059V10.8893H36.1451ZM25.6611 -4.89153C24.6729 -5.02249 22.7963 -5.16407 20.7834 -5.16407V18.9751C21.2759 18.9751 21.7512 18.9938 22.1293 19.017C22.3152 19.0284 22.4591 19.0398 22.5502 19.0478C22.671 19.0585 22.6357 19.0578 22.4898 19.0384L25.6611 -4.89153ZM20.7834 -5.16407C16.7054 -5.16407 12.027 -3.87861 8.33371 -0.228185C4.60303 3.45914 3.2264 8.22414 3.2264 12.5451H27.3656C27.3656 13.2146 27.104 15.1599 25.3026 16.9402C23.5387 18.6837 21.604 18.9751 20.7834 18.9751V-5.16407ZM3.2264 12.5451V15.6915H27.3656V12.5451H3.2264ZM15.296 3.62193H11.6118V27.7611H15.296V3.62193ZM-0.457774 15.6915V19.958H23.6814V15.6915H-0.457774ZM11.6118 32.0275H15.2959V7.88837H11.6118V32.0275ZM3.22628 19.958V30.9055H27.3655V19.958H3.22628ZM15.2962 42.9751L19.702 42.975L19.7014 18.8358L15.2956 18.8359L15.2962 42.9751Z" fill="#E0E0E0" mask="url(#path-2-inside-1_53_1137)"/>
</svg>
