<svg width="37" height="37" viewBox="0 0 37 37" fill="none" xmlns="http://www.w3.org/2000/svg">
<rect x="1" y="1.3999" width="35" height="35" rx="17.5" stroke="#E0E0E0"/>
<mask id="path-2-inside-1_125_447" fill="white">
<path d="M14.7511 18.8999C14.7511 16.8289 16.4295 15.1496 18.5005 15.1496C20.5715 15.1496 22.2508 16.8289 22.2508 18.8999C22.2508 20.9709 20.5715 22.6502 18.5005 22.6502C16.4295 22.6502 14.7511 20.9709 14.7511 18.8999ZM12.7237 18.8999C12.7237 22.0904 15.31 24.6766 18.5005 24.6766C21.691 24.6766 24.2772 22.0904 24.2772 18.8999C24.2772 15.7094 21.691 13.1232 18.5005 13.1232C15.31 13.1232 12.7237 15.7094 12.7237 18.8999ZM23.1559 12.8941C23.1558 13.1611 23.2349 13.4222 23.3831 13.6442C23.5314 13.8663 23.7422 14.0394 23.9888 14.1417C24.2354 14.244 24.5069 14.2708 24.7688 14.2188C25.0307 14.1668 25.2713 14.0384 25.4601 13.8496C25.649 13.6609 25.7777 13.4204 25.8299 13.1586C25.8821 12.8967 25.8554 12.6252 25.7534 12.3785C25.6513 12.1318 25.4783 11.9209 25.2564 11.7725C25.0344 11.624 24.7735 11.5448 24.5065 11.5447H24.5059C24.148 11.5448 23.8048 11.687 23.5517 11.9401C23.2986 12.1931 23.1562 12.5362 23.1559 12.8941ZM13.9555 28.0571C12.8587 28.0072 12.2625 27.8245 11.8663 27.6701C11.3411 27.4657 10.9663 27.2221 10.5723 26.8286C10.1783 26.4352 9.93438 26.0608 9.7308 25.5355C9.57636 25.1395 9.39366 24.5432 9.3438 23.4463C9.28926 22.2605 9.27837 21.9043 9.27837 18.9C9.27837 15.8957 9.29016 15.5405 9.3438 14.3536C9.39375 13.2568 9.5778 12.6616 9.7308 12.2645C9.93528 11.7392 10.1788 11.3645 10.5723 10.9705C10.9658 10.5764 11.3402 10.3325 11.8663 10.129C12.2623 9.97451 12.8587 9.79181 13.9555 9.74195C15.1413 9.68741 15.4975 9.67652 18.5005 9.67652C21.5034 9.67652 21.86 9.68831 23.0468 9.74195C24.1437 9.7919 24.7388 9.97595 25.136 10.129C25.6612 10.3325 26.036 10.577 26.43 10.9705C26.824 11.3639 27.067 11.7392 27.2715 12.2645C27.426 12.6605 27.6087 13.2568 27.6585 14.3536C27.7131 15.5405 27.724 15.8957 27.724 18.9C27.724 21.9043 27.7131 22.2595 27.6585 23.4463C27.6086 24.5432 27.425 25.1393 27.2715 25.5355C27.067 26.0608 26.8235 26.4355 26.43 26.8286C26.0365 27.2218 25.6612 27.4657 25.136 27.6701C24.74 27.8246 24.1437 28.0073 23.0468 28.0571C21.861 28.1117 21.5048 28.1226 18.5005 28.1226C15.4962 28.1226 15.141 28.1117 13.9555 28.0571ZM13.8623 7.71803C12.6647 7.77257 11.8463 7.96247 11.1316 8.24057C10.3915 8.52776 9.76491 8.91305 9.13878 9.53819C8.51265 10.1633 8.12835 10.7909 7.84116 11.5311C7.56306 12.2462 7.37316 13.0641 7.31862 14.2618C7.26318 15.4613 7.25049 15.8448 7.25049 18.8999C7.25049 21.955 7.26318 22.3385 7.31862 23.5381C7.37316 24.7358 7.56306 25.5536 7.84116 26.2687C8.12835 27.0085 8.51274 27.6367 9.13878 28.2616C9.76482 28.8865 10.3915 29.2712 11.1316 29.5592C11.8477 29.8373 12.6647 30.0272 13.8623 30.0818C15.0625 30.1363 15.4453 30.1499 18.5005 30.1499C21.5556 30.1499 21.9391 30.1372 23.1386 30.0818C24.3364 30.0272 25.1542 29.8373 25.8693 29.5592C26.609 29.2712 27.2361 28.8868 27.8622 28.2616C28.4883 27.6365 28.8718 27.0085 29.1598 26.2687C29.4379 25.5536 29.6287 24.7357 29.6824 23.5381C29.7369 22.3376 29.7496 21.955 29.7496 18.8999C29.7496 15.8448 29.7369 15.4613 29.6824 14.2618C29.6278 13.064 29.4379 12.2458 29.1598 11.5311C28.8718 10.7914 28.4873 10.1643 27.8622 9.53819C27.2371 8.91206 26.609 8.52776 25.8702 8.24057C25.1542 7.96247 24.3363 7.77167 23.1395 7.71803C21.94 7.66349 21.5565 7.6499 18.5014 7.6499C15.4462 7.6499 15.0625 7.66259 13.8623 7.71803Z"/>
</mask>
<path d="M14.7511 18.8999C14.7511 16.8289 16.4295 15.1496 18.5005 15.1496C20.5715 15.1496 22.2508 16.8289 22.2508 18.8999C22.2508 20.9709 20.5715 22.6502 18.5005 22.6502C16.4295 22.6502 14.7511 20.9709 14.7511 18.8999ZM12.7237 18.8999C12.7237 22.0904 15.31 24.6766 18.5005 24.6766C21.691 24.6766 24.2772 22.0904 24.2772 18.8999C24.2772 15.7094 21.691 13.1232 18.5005 13.1232C15.31 13.1232 12.7237 15.7094 12.7237 18.8999ZM23.1559 12.8941C23.1558 13.1611 23.2349 13.4222 23.3831 13.6442C23.5314 13.8663 23.7422 14.0394 23.9888 14.1417C24.2354 14.244 24.5069 14.2708 24.7688 14.2188C25.0307 14.1668 25.2713 14.0384 25.4601 13.8496C25.649 13.6609 25.7777 13.4204 25.8299 13.1586C25.8821 12.8967 25.8554 12.6252 25.7534 12.3785C25.6513 12.1318 25.4783 11.9209 25.2564 11.7725C25.0344 11.624 24.7735 11.5448 24.5065 11.5447H24.5059C24.148 11.5448 23.8048 11.687 23.5517 11.9401C23.2986 12.1931 23.1562 12.5362 23.1559 12.8941ZM13.9555 28.0571C12.8587 28.0072 12.2625 27.8245 11.8663 27.6701C11.3411 27.4657 10.9663 27.2221 10.5723 26.8286C10.1783 26.4352 9.93438 26.0608 9.7308 25.5355C9.57636 25.1395 9.39366 24.5432 9.3438 23.4463C9.28926 22.2605 9.27837 21.9043 9.27837 18.9C9.27837 15.8957 9.29016 15.5405 9.3438 14.3536C9.39375 13.2568 9.5778 12.6616 9.7308 12.2645C9.93528 11.7392 10.1788 11.3645 10.5723 10.9705C10.9658 10.5764 11.3402 10.3325 11.8663 10.129C12.2623 9.97451 12.8587 9.79181 13.9555 9.74195C15.1413 9.68741 15.4975 9.67652 18.5005 9.67652C21.5034 9.67652 21.86 9.68831 23.0468 9.74195C24.1437 9.7919 24.7388 9.97595 25.136 10.129C25.6612 10.3325 26.036 10.577 26.43 10.9705C26.824 11.3639 27.067 11.7392 27.2715 12.2645C27.426 12.6605 27.6087 13.2568 27.6585 14.3536C27.7131 15.5405 27.724 15.8957 27.724 18.9C27.724 21.9043 27.7131 22.2595 27.6585 23.4463C27.6086 24.5432 27.425 25.1393 27.2715 25.5355C27.067 26.0608 26.8235 26.4355 26.43 26.8286C26.0365 27.2218 25.6612 27.4657 25.136 27.6701C24.74 27.8246 24.1437 28.0073 23.0468 28.0571C21.861 28.1117 21.5048 28.1226 18.5005 28.1226C15.4962 28.1226 15.141 28.1117 13.9555 28.0571ZM13.8623 7.71803C12.6647 7.77257 11.8463 7.96247 11.1316 8.24057C10.3915 8.52776 9.76491 8.91305 9.13878 9.53819C8.51265 10.1633 8.12835 10.7909 7.84116 11.5311C7.56306 12.2462 7.37316 13.0641 7.31862 14.2618C7.26318 15.4613 7.25049 15.8448 7.25049 18.8999C7.25049 21.955 7.26318 22.3385 7.31862 23.5381C7.37316 24.7358 7.56306 25.5536 7.84116 26.2687C8.12835 27.0085 8.51274 27.6367 9.13878 28.2616C9.76482 28.8865 10.3915 29.2712 11.1316 29.5592C11.8477 29.8373 12.6647 30.0272 13.8623 30.0818C15.0625 30.1363 15.4453 30.1499 18.5005 30.1499C21.5556 30.1499 21.9391 30.1372 23.1386 30.0818C24.3364 30.0272 25.1542 29.8373 25.8693 29.5592C26.609 29.2712 27.2361 28.8868 27.8622 28.2616C28.4883 27.6365 28.8718 27.0085 29.1598 26.2687C29.4379 25.5536 29.6287 24.7357 29.6824 23.5381C29.7369 22.3376 29.7496 21.955 29.7496 18.8999C29.7496 15.8448 29.7369 15.4613 29.6824 14.2618C29.6278 13.064 29.4379 12.2458 29.1598 11.5311C28.8718 10.7914 28.4873 10.1643 27.8622 9.53819C27.2371 8.91206 26.609 8.52776 25.8702 8.24057C25.1542 7.96247 24.3363 7.77167 23.1395 7.71803C21.94 7.66349 21.5565 7.6499 18.5014 7.6499C15.4462 7.6499 15.0625 7.66259 13.8623 7.71803Z" fill="#E0E0E0" stroke="#E0E0E0" stroke-width="2" mask="url(#path-2-inside-1_125_447)"/>
</svg>
