<svg width="37" height="37" viewBox="0 0 37 37" fill="none" xmlns="http://www.w3.org/2000/svg">
<rect x="1" y="1.40552" width="35" height="35" rx="17.5" stroke="#E0E0E0"/>
<path d="M29.4704 13.1625L29.4493 13.2328V13.2482C29.3705 13.5575 29.1473 14.0495 28.8173 14.6561C28.4784 15.2792 28.0542 15.9749 27.6365 16.6292C27.2194 17.2824 26.8122 17.8889 26.509 18.3325C26.3575 18.5541 26.2322 18.7348 26.1449 18.8598C26.1013 18.9223 26.0671 18.9709 26.044 19.0037L26.0177 19.041L26.0111 19.0503L26.0095 19.0526L26.0091 19.0531L26.0091 19.0532L26.4168 19.3426L26.0091 19.0532L26.0006 19.0651L25.9929 19.0774L25.9829 19.0934C25.8592 19.291 25.6926 19.5569 25.6679 19.8658C25.6395 20.2209 25.7952 20.5241 26.0162 20.81C26.1814 21.038 26.4954 21.3455 26.7996 21.6433C26.8149 21.6583 26.8303 21.6734 26.8456 21.6884C27.1898 22.0255 27.5548 22.3845 27.843 22.7252L27.8429 22.7253L27.851 22.7344C28.4118 23.3653 28.8944 23.9368 29.264 24.437C29.6376 24.9425 29.8675 25.3384 29.9611 25.6257C30.0411 25.9038 29.9751 25.9802 29.9685 25.988C29.9462 26.0139 29.8427 26.0944 29.5304 26.0944H26.9048C26.7285 26.0944 26.603 26.0611 26.4841 25.9988C26.3544 25.9309 26.2103 25.8169 26.0133 25.6194C25.8531 25.4587 25.6781 25.2641 25.4589 25.0202C25.4059 24.9612 25.3503 24.8993 25.2916 24.8344C24.9955 24.5063 24.637 24.1155 24.1833 23.6619L24.1834 23.6618L24.1768 23.6555C22.6099 22.1448 21.8163 21.8188 21.2147 21.8188C20.9418 21.8188 20.5474 21.8464 20.2838 22.1739C20.1619 22.3255 20.1023 22.5012 20.0703 22.6667C20.0384 22.8317 20.0283 23.0181 20.0283 23.2186V25.5732C20.0283 25.8503 19.9827 25.8809 19.9391 25.9101L19.938 25.9108C19.8154 25.993 19.4872 26.0944 18.6528 26.0944C16.0702 26.0944 13.1537 24.5174 11.055 21.5045L11.055 21.5045L11.0518 21.4999C9.44646 19.2497 8.42872 17.2802 7.81388 15.7958C7.50635 15.0533 7.30051 14.4344 7.17233 13.9644C7.04024 13.4801 7 13.1876 7 13.0837C7 13.016 7.00684 12.9717 7.01494 12.9441C7.02188 12.9205 7.02814 12.914 7.02968 12.9124C7.02971 12.9124 7.02974 12.9123 7.02977 12.9123L7.02982 12.9122C7.03138 12.9106 7.04669 12.8945 7.09883 12.8775C7.15498 12.859 7.24971 12.8411 7.40021 12.8411H10.0258C10.2849 12.8411 10.3765 12.8955 10.432 12.9466C10.5129 13.0211 10.6063 13.1727 10.7283 13.5249C11.3826 15.4305 12.2615 17.2181 13.096 18.5368C13.5124 19.1949 13.9265 19.7501 14.3057 20.1476C14.4948 20.3458 14.6865 20.5167 14.8761 20.6415C15.0564 20.7603 15.2864 20.8717 15.5404 20.8717C15.6557 20.8717 15.809 20.8596 15.963 20.7901C16.1309 20.7144 16.2588 20.5892 16.3464 20.4311C16.4958 20.1614 16.5272 19.7895 16.5272 19.3702V15.5036V15.4899L16.5265 15.4763C16.4719 14.4801 16.1725 13.9065 15.8719 13.4977C15.8062 13.4083 15.7416 13.3283 15.688 13.262L15.6775 13.249C15.6187 13.1762 15.5775 13.1244 15.5447 13.0769C15.4846 12.9899 15.4841 12.9616 15.4841 12.9446C15.4841 12.9376 15.4889 12.9125 15.5142 12.8873C15.534 12.8676 15.5737 12.8411 15.6521 12.8411H19.7781C19.8754 12.8411 19.9248 12.8544 19.9454 12.8626C19.9581 12.8677 19.9597 12.8701 19.9609 12.872C19.9611 12.8722 19.9612 12.8724 19.9614 12.8726C19.978 12.8948 20.0283 12.996 20.0283 13.3062V18.5079C20.0283 19.153 20.3379 19.7586 20.9367 19.7586C21.51 19.7586 21.9308 19.3892 22.5142 18.8057L22.524 18.7959L22.5333 18.7856C23.5187 17.6843 24.3476 16.3011 24.9254 15.209C25.2158 14.66 25.4461 14.1784 25.604 13.8333C25.683 13.6607 25.744 13.522 25.7855 13.4259C25.8063 13.3778 25.8221 13.3404 25.833 13.3146L25.8454 13.2849L25.8484 13.2778C25.9103 13.1341 25.9834 13.0325 26.0723 12.9652C26.1556 12.9023 26.2898 12.8411 26.5297 12.8411H29.1553C29.3994 12.8411 29.4825 12.8879 29.5022 12.9025C29.5072 12.9191 29.5222 12.99 29.4704 13.1625Z" fill="#E0E0E0" stroke="#E0E0E0"/>
</svg>
