<svg width="35" height="35" viewBox="0 0 35 35" fill="none" xmlns="http://www.w3.org/2000/svg">
<path fill-rule="evenodd" clip-rule="evenodd" d="M5.375 7.29175C4.82272 7.29175 4.375 7.73946 4.375 8.29175V9.20841C4.375 9.7607 4.82272 10.2084 5.375 10.2084H29.625C30.1773 10.2084 30.625 9.7607 30.625 9.20841V8.29175C30.625 7.73946 30.1773 7.29175 29.625 7.29175H5.375ZM5.375 18.9584C4.82272 18.9584 4.375 19.4061 4.375 19.9584V20.8751C4.375 21.4274 4.82272 21.8751 5.375 21.8751H29.625C30.1773 21.8751 30.625 21.4274 30.625 20.8751V19.9584C30.625 19.4061 30.1773 18.9584 29.625 18.9584H5.375ZM4.375 14.1251C4.375 13.5728 4.82272 13.1251 5.375 13.1251H29.625C30.1773 13.1251 30.625 13.5728 30.625 14.1251V15.0417C30.625 15.594 30.1773 16.0417 29.625 16.0417H5.375C4.82272 16.0417 4.375 15.594 4.375 15.0417V14.1251ZM5.375 24.7917C4.82272 24.7917 4.375 25.2395 4.375 25.7917V26.7084C4.375 27.2607 4.82272 27.7084 5.375 27.7084H29.625C30.1773 27.7084 30.625 27.2607 30.625 26.7084V25.7917C30.625 25.2395 30.1773 24.7917 29.625 24.7917H5.375Z" fill="#333333"/>
</svg>
