<svg width="36" height="36" viewBox="0 0 36 36" fill="none" xmlns="http://www.w3.org/2000/svg">
<path d="M8.09093 8.09093C8.59304 7.58883 9.4071 7.58883 9.90921 8.09093L18.0001 16.1808L26.0909 8.09093C26.5544 7.62745 27.2837 7.5918 27.7881 7.98398L27.9092 8.09093C28.4113 8.59304 28.4113 9.4071 27.9092 9.90921L19.8194 18.0001L27.9092 26.0909C28.3727 26.5544 28.4083 27.2837 28.0162 27.7881L27.9092 27.9092C27.4071 28.4113 26.593 28.4113 26.0909 27.9092L18.0001 19.8194L9.90921 27.9092C9.44573 28.3727 8.71643 28.4083 8.21206 28.0162L8.09093 27.9092C7.58883 27.4071 7.58883 26.593 8.09093 26.0909L16.1808 18.0001L8.09093 9.90921C7.62745 9.44573 7.5918 8.71643 7.98398 8.21206L8.09093 8.09093Z" fill="#1E386B"/>
</svg>
