<svg width="53" height="39" viewBox="0 0 53 39" fill="none" xmlns="http://www.w3.org/2000/svg">
<path d="M46.5284 20.7952C48.1284 22.7952 49.5784 24.4452 50.8784 25.7452C52.1784 27.0452 52.8284 28.7952 52.8284 30.9952C52.8284 33.2952 52.2784 35.1952 51.1784 36.6952C50.0784 38.1952 48.0284 38.9452 45.0284 38.9452C43.4284 38.9452 42.1284 38.4452 41.1284 37.4452C40.2284 36.4452 39.7784 35.0952 39.7784 33.3952C38.2784 33.2952 36.8284 32.6952 35.4284 31.5952C34.0284 30.3952 33.3284 28.8952 33.3284 27.0952C33.3284 24.5952 33.9784 21.8452 35.2784 18.8452C36.6784 15.7452 38.2284 12.8952 39.9284 10.2952C41.7284 7.59521 43.4784 5.34521 45.1784 3.54521C46.8784 1.74521 48.1284 0.845215 48.9284 0.845215C49.4284 0.845215 50.0784 1.04521 50.8784 1.44521C51.6784 1.74521 52.0784 2.19521 52.0784 2.79521C52.0784 3.09521 51.9284 3.39521 51.6284 3.69522C51.2284 4.09522 50.6784 4.79521 49.9784 5.79521C49.2784 6.79521 48.5784 7.94521 47.8784 9.24521C47.1784 10.4452 46.5784 11.7452 46.0784 13.1452C45.5784 14.5452 45.3284 15.8452 45.3284 17.0452C45.3284 18.6452 45.7284 19.8952 46.5284 20.7952ZM13.5284 20.7952C15.1284 22.7952 16.5784 24.4452 17.8784 25.7452C19.1784 27.0452 19.8284 28.7952 19.8284 30.9952C19.8284 33.2952 19.2784 35.1952 18.1784 36.6952C17.0784 38.1952 15.0284 38.9452 12.0284 38.9452C10.4284 38.9452 9.12837 38.4452 8.12837 37.4452C7.22837 36.4452 6.77837 35.0952 6.77837 33.3952C5.27837 33.2952 3.82837 32.6952 2.42837 31.5952C1.02837 30.3952 0.328369 28.8952 0.328369 27.0952C0.328369 24.5952 0.978369 21.8452 2.27837 18.8452C3.67837 15.7452 5.22837 12.8952 6.92837 10.2952C8.72837 7.59521 10.4784 5.34521 12.1784 3.54521C13.8784 1.74521 15.1284 0.845215 15.9284 0.845215C16.4284 0.845215 17.0784 1.04521 17.8784 1.44521C18.6784 1.74521 19.0784 2.19521 19.0784 2.79521C19.0784 3.09521 18.9284 3.39521 18.6284 3.69522C18.2284 4.09522 17.6784 4.79521 16.9784 5.79521C16.2784 6.79521 15.5784 7.94521 14.8784 9.24521C14.1784 10.4452 13.5784 11.7452 13.0784 13.1452C12.5784 14.5452 12.3284 15.8452 12.3284 17.0452C12.3284 18.6452 12.7284 19.8952 13.5284 20.7952Z" fill="#1E386B"/>
</svg>
