<svg width="53" height="39" viewBox="0 0 53 39" fill="none" xmlns="http://www.w3.org/2000/svg">
<path d="M46.5281 20.7952C48.1281 22.7952 49.5781 24.4452 50.8781 25.7452C52.1781 27.0452 52.8281 28.7952 52.8281 30.9952C52.8281 33.2952 52.2781 35.1952 51.1781 36.6952C50.0781 38.1952 48.0281 38.9452 45.0281 38.9452C43.4281 38.9452 42.1281 38.4452 41.1281 37.4452C40.2281 36.4452 39.7781 35.0952 39.7781 33.3952C38.2781 33.2952 36.8281 32.6952 35.4281 31.5952C34.0281 30.3952 33.3281 28.8952 33.3281 27.0952C33.3281 24.5952 33.9781 21.8452 35.2781 18.8452C36.6781 15.7452 38.2281 12.8952 39.9281 10.2952C41.7281 7.59521 43.4781 5.34521 45.1781 3.54521C46.8781 1.74521 48.1281 0.845215 48.9281 0.845215C49.4281 0.845215 50.0781 1.04521 50.8781 1.44521C51.6781 1.74521 52.0781 2.19521 52.0781 2.79521C52.0781 3.09521 51.9281 3.39521 51.6281 3.69522C51.2281 4.09522 50.6781 4.79521 49.9781 5.79521C49.2781 6.79521 48.5781 7.94521 47.8781 9.24521C47.1781 10.4452 46.5781 11.7452 46.0781 13.1452C45.5781 14.5452 45.3281 15.8452 45.3281 17.0452C45.3281 18.6452 45.7281 19.8952 46.5281 20.7952ZM13.5281 20.7952C15.1281 22.7952 16.5781 24.4452 17.8781 25.7452C19.1781 27.0452 19.8281 28.7952 19.8281 30.9952C19.8281 33.2952 19.2781 35.1952 18.1781 36.6952C17.0781 38.1952 15.0281 38.9452 12.0281 38.9452C10.4281 38.9452 9.12812 38.4452 8.12812 37.4452C7.22812 36.4452 6.77812 35.0952 6.77812 33.3952C5.27812 33.2952 3.82812 32.6952 2.42812 31.5952C1.02813 30.3952 0.328125 28.8952 0.328125 27.0952C0.328125 24.5952 0.978125 21.8452 2.27813 18.8452C3.67813 15.7452 5.22813 12.8952 6.92812 10.2952C8.72812 7.59521 10.4781 5.34521 12.1781 3.54521C13.8781 1.74521 15.1281 0.845215 15.9281 0.845215C16.4281 0.845215 17.0781 1.04521 17.8781 1.44521C18.6781 1.74521 19.0781 2.19521 19.0781 2.79521C19.0781 3.09521 18.9281 3.39521 18.6281 3.69522C18.2281 4.09522 17.6781 4.79521 16.9781 5.79521C16.2781 6.79521 15.5781 7.94521 14.8781 9.24521C14.1781 10.4452 13.5781 11.7452 13.0781 13.1452C12.5781 14.5452 12.3281 15.8452 12.3281 17.0452C12.3281 18.6452 12.7281 19.8952 13.5281 20.7952Z" fill="#1E386B"/>
</svg>
