<svg width="24" height="25" viewBox="0 0 24 25" fill="none" xmlns="http://www.w3.org/2000/svg">
<g id="24 / basic / search">
<path id="icon" fill-rule="evenodd" clip-rule="evenodd" d="M10 18.9589C5.58172 18.9589 2 15.3525 2 10.9038C2 6.45503 5.58172 2.84863 10 2.84863C14.4183 2.84863 18 6.45503 18 10.9038C18 12.7652 17.3729 14.4792 16.3199 15.8432L21.7071 21.2676L20.2929 22.6915L14.9056 17.2672C13.551 18.3275 11.8487 18.9589 10 18.9589ZM16 10.9038C16 14.2403 13.3137 16.9451 10 16.9451C6.68629 16.9451 4 14.2403 4 10.9038C4 7.56721 6.68629 4.86241 10 4.86241C13.3137 4.86241 16 7.56721 16 10.9038Z" fill="black"/>
</g>
</svg>
