<svg width="81" height="81" viewBox="0 0 81 81" fill="none" xmlns="http://www.w3.org/2000/svg">
<rect x="0.5" y="0.800781" width="80" height="80" rx="40" fill=""/>
<g clip-path="url(#clip0_67_1363)">
<path d="M39.7188 40.0195H57.6875V43.9258H39.7188V40.0195Z" fill="#D23C41"/>
<path d="M19.4062 29.8633H28.7812V32.9883H19.4062V29.8633Z" fill="#D23C41"/>
<path d="M27.2188 20.4883H32.6875V26.7383H27.2188V20.4883Z" fill="#D23C41"/>
<path d="M19.4062 48.6133H24.0938V51.7383H19.4062V48.6133Z" fill="#D23C41"/>
<path d="M60.8125 54.3141V22.832H42.8438V16.582H24.5516L16.2812 24.8523V57.207H24.1562C24.5375 59.8523 26.8133 61.8945 29.5625 61.8945H35.5664C36.4461 63.7391 38.3242 65.0195 40.5 65.0195H59.25C62.2648 65.0195 64.7188 62.5656 64.7188 59.5508C64.7188 57.0789 63.068 54.9891 60.8125 54.3141ZM59.25 51.6453C58.0797 49.3828 55.718 47.832 53 47.832C51.2062 47.832 49.5422 48.5055 48.2672 49.6789C47.2914 48.0758 45.5562 47.0508 43.625 47.0508C42.8672 47.0508 42.1195 47.2102 41.4273 47.5156C40.5852 46.3891 39.4477 45.5625 38.1555 45.1086V38.457H57.6867V25.957H37.375V29.6266L35.8125 27.2828V24.3945H59.25V51.6453ZM35.0312 28.9281L38.2594 33.7695H36.5938V44.7523C36.3367 44.7242 36.0758 44.707 35.8125 44.707C34.9898 44.707 34.2031 44.8555 33.4688 45.1164V33.7695H31.8031L35.0312 28.9281ZM38.9375 31.9711V27.5195H56.125V36.8945H38.1562V35.332H41.1781L38.9375 31.9711ZM24.0938 19.2492V24.3945H18.9484L24.0938 19.2492ZM17.8438 25.957H25.6562V18.1445H41.2812V22.832H34.25V27.2828L28.8844 35.332H31.9062V45.9023C30.2164 47.0375 29.0398 48.8805 28.8188 51.007C26.4102 51.3359 24.5016 53.2406 24.1555 55.6445H17.8438V25.957ZM29.5625 60.332C27.4086 60.332 25.6562 58.5797 25.6562 56.4258C25.6562 54.2719 27.4086 52.5195 29.5625 52.5195H30.3438V51.7383C30.3438 48.7234 32.7977 46.2695 35.8125 46.2695C37.7477 46.2695 39.5 47.2648 40.5 48.9336L40.907 49.6117L41.5805 49.1969C42.1984 48.8148 42.9055 48.6133 43.625 48.6133C44.9914 48.6133 46.2203 49.3344 46.9203 50.4633C46.3625 50.2758 45.7789 50.1758 45.1875 50.1758C42.7258 50.1758 40.6125 51.7961 39.9414 54.1102C37.1875 54.3914 35.0312 56.7242 35.0312 59.5508C35.0312 59.8164 35.057 60.0758 35.0938 60.332H29.5625ZM59.25 63.457H40.5C38.3461 63.457 36.5938 61.7047 36.5938 59.5508C36.5938 57.3984 38.3422 55.6477 40.5375 55.6477H40.5438L41.2273 55.6703L41.3406 54.9961C41.6555 53.1086 43.2742 51.7383 45.1875 51.7383C45.907 51.7383 46.6141 51.9398 47.232 52.3219L47.9055 52.7367L48.3125 52.0586C49.3125 50.3898 51.0648 49.3945 53 49.3945C56.0148 49.3945 58.4688 51.8484 58.4688 54.8633V55.6445H59.25C61.4039 55.6445 63.1562 57.3969 63.1562 59.5508C63.1562 61.7047 61.4039 63.457 59.25 63.457Z" fill="white"/>
<path d="M27.2188 19.707H39.7188V21.2695H27.2188V19.707Z" fill="white"/>
<path d="M27.2188 22.832H32.6875V24.3945H27.2188V22.832Z" fill="white"/>
<path d="M27.2188 25.957H32.6875V27.5195H27.2188V25.957Z" fill="white"/>
<path d="M19.4062 29.082H28.7812V30.6445H19.4062V29.082Z" fill="white"/>
<path d="M30.3438 36.8945H19.4062V46.2695H30.3438V36.8945ZM28.7812 44.707H20.9688V38.457H28.7812V44.707Z" fill="white"/>
<path d="M19.4062 32.207H28.7812V33.7695H19.4062V32.207Z" fill="white"/>
<path d="M19.4062 47.832H28V49.3945H19.4062V47.832Z" fill="white"/>
<path d="M19.4062 50.957H24.0938V52.5195H19.4062V50.957Z" fill="white"/>
<path d="M39.7188 40.0195H41.2812V41.582H39.7188V40.0195Z" fill="white"/>
<path d="M42.8438 40.0195H57.6875V41.582H42.8438V40.0195Z" fill="white"/>
<path d="M39.7188 43.1445H57.6875V44.707H39.7188V43.1445Z" fill="white"/>
<path d="M43.625 61.8945C42.3328 61.8945 41.2812 60.843 41.2812 59.5508C41.2812 58.2586 42.3328 57.207 43.625 57.207C44.9172 57.207 45.9688 58.2586 45.9688 59.5508C45.9688 60.843 44.9172 61.8945 43.625 61.8945Z" fill="#D23C41"/>
<path d="M49.875 61.8945C48.5828 61.8945 47.5312 60.843 47.5312 59.5508C47.5312 58.2586 48.5828 57.207 49.875 57.207C51.1672 57.207 52.2188 58.2586 52.2188 59.5508C52.2188 60.843 51.1672 61.8945 49.875 61.8945Z" fill="#D23C41"/>
<path d="M56.125 61.8945C54.8328 61.8945 53.7812 60.843 53.7812 59.5508C53.7812 58.2586 54.8328 57.207 56.125 57.207C57.4172 57.207 58.4688 58.2586 58.4688 59.5508C58.4688 60.843 57.4172 61.8945 56.125 61.8945Z" fill="#D23C41"/>
</g>
<defs>
<clipPath id="clip0_67_1363">
<rect width="50" height="50" fill="white" transform="translate(15.5 15.8008)"/>
</clipPath>
</defs>
</svg>
