<svg width="81" height="81" viewBox="0 0 81 81" fill="none" xmlns="http://www.w3.org/2000/svg">
<rect x="0.25" y="0.800781" width="80" height="80" rx="40" fill=""/>
<g clip-path="url(#clip0_67_1400)">
<path d="M58.614 48.499C58.2327 48.5717 57.8398 48.6131 57.4374 48.6131H52.9515C51.2898 54.0529 46.2335 58.0107 40.2499 58.0107C34.2663 58.0107 29.2101 54.0529 27.5484 48.6131H23.0624C22.6601 48.6131 22.2671 48.5717 21.8859 48.499L21.9437 48.7631C22.3952 50.8209 23.1804 52.7654 24.2788 54.549L23.2718 56.4779L28.5023 61.7084L30.4312 60.7006C32.1312 61.749 33.9671 62.5107 35.9007 62.9701L36.5515 65.042H43.9491L44.5999 62.9701C46.5335 62.5107 48.3695 61.749 50.0695 60.7006L51.9984 61.7084L57.2288 56.4779L56.2218 54.549C57.321 52.7654 58.1062 50.8209 58.557 48.7631L58.614 48.499Z" fill="#D23C41"/>
<path d="M36.3438 27.5195V29.082C40.6516 29.082 44.1562 32.5867 44.1562 36.8945H45.7188C45.7188 31.725 41.5133 27.5195 36.3438 27.5195Z" fill="white"/>
<path d="M32.9344 28.1593L33.504 29.614C33.9602 29.4358 34.4376 29.2999 34.9235 29.2101L34.6407 27.6733C34.0571 27.7812 33.4829 27.9444 32.9344 28.1593Z" fill="white"/>
<path d="M20.7188 42.3633C20.7188 41.0711 21.7703 40.0195 23.0625 40.0195V38.457C20.9086 38.457 19.1562 40.2094 19.1562 42.3633C19.1562 44.5172 20.9086 46.2695 23.0625 46.2695H25.4062V44.707H23.0625C21.7703 44.707 20.7188 43.6555 20.7188 42.3633Z" fill="white"/>
<path d="M30.0938 44.707H31.6562V46.2695H30.0938V44.707Z" fill="white"/>
<path d="M26.9688 44.707H28.5312V46.2695H26.9688V44.707Z" fill="white"/>
<path d="M57.4375 35.3319C56.9219 35.3319 56.4172 35.4077 55.9188 35.5179C54.982 33.7687 53.2375 32.5187 51.1875 32.2616V29.0819C51.1875 28.6515 51.5383 28.3007 51.9688 28.3007H57.4375V31.1272L64.6531 27.5194L57.4375 23.9116V26.7382H51.9688C50.6766 26.7382 49.625 27.7897 49.625 29.0819V32.2593C49.0969 32.3257 48.5812 32.4624 48.0891 32.6585C47.6961 31.5733 47.1617 30.5577 46.5 29.6351V22.0507C46.5 21.6202 46.8508 21.2694 47.2812 21.2694H53.5312V24.096L60.7469 20.4882L53.5312 16.8804V19.7069H47.2812C45.9891 19.7069 44.9375 20.7585 44.9375 22.0507V27.8405C42.6953 25.7108 39.6734 24.3944 36.3438 24.3944C34.9789 24.3944 33.6688 24.6226 32.4375 25.0265V22.0507C32.4375 20.7585 31.3859 19.7069 30.0938 19.7069H23.8438V16.8804L16.6281 20.4882L23.8438 24.096V21.2694H30.0938C30.5242 21.2694 30.875 21.6202 30.875 22.0507V25.6601C27.1484 27.4726 24.4602 31.0772 23.9453 35.3937C23.6555 35.3569 23.3617 35.3319 23.0625 35.3319C19.1859 35.3319 16.0312 38.4866 16.0312 42.3632C16.0312 46.2397 19.1859 49.3944 23.0625 49.3944H26.9953C28.9727 55.0366 34.2211 58.7921 40.25 58.7921C46.2789 58.7921 51.5273 55.0366 53.5047 49.3944H57.4375C61.3141 49.3944 64.4688 46.2397 64.4688 42.3632C64.4688 38.4866 61.3141 35.3319 57.4375 35.3319ZM59 26.4397L61.1594 27.5194L59 28.5991V26.4397ZM55.0938 19.4085L57.2531 20.4882L55.0938 21.5679V19.4085ZM22.2812 21.5679L20.1219 20.4882L22.2812 19.4085V21.5679ZM40.25 57.2296C35.0758 57.2296 30.5414 54.1218 28.6531 49.3944H32.1305C33.8039 52.3101 36.8703 54.1046 40.25 54.1046C43.6297 54.1046 46.6961 52.3101 48.3695 49.3944H51.8469C49.9586 54.1218 45.4242 57.2296 40.25 57.2296ZM34.0055 49.3944H46.4945C45.0344 51.3577 42.7484 52.5421 40.25 52.5421C37.7516 52.5421 35.4656 51.3577 34.0055 49.3944ZM57.4375 47.8319H23.0625C20.0469 47.8319 17.5938 45.3788 17.5938 42.3632C17.5938 39.3476 20.0469 36.8944 23.0625 36.8944C26.0781 36.8944 28.5312 39.3476 28.5312 42.3632H30.0938C30.0938 39.3358 28.1664 36.7562 25.4766 35.7679C26.043 30.2226 30.6992 25.9569 36.3438 25.9569C42.375 25.9569 47.2812 30.8632 47.2812 36.8944H48.8438C48.8438 35.9554 48.7313 35.0429 48.5336 34.1624C49.1211 33.9062 49.7578 33.7694 50.4062 33.7694C52.9914 33.7694 55.0938 35.8718 55.0938 38.4569H56.6562C56.6562 37.9491 56.5891 37.4585 56.4742 36.9858C56.7906 36.9296 57.1117 36.8944 57.4375 36.8944C60.4531 36.8944 62.9062 39.3476 62.9062 42.3632C62.9062 45.3788 60.4531 47.8319 57.4375 47.8319Z" fill="white"/>
<path d="M35.5625 44.707C34.2703 44.707 33.2188 43.6555 33.2188 42.3633C33.2188 41.0711 34.2703 40.0195 35.5625 40.0195C36.8547 40.0195 37.9062 41.0711 37.9062 42.3633C37.9062 43.6555 36.8547 44.707 35.5625 44.707Z" fill="#D23C41"/>
<path d="M41.8125 44.707C40.5203 44.707 39.4688 43.6555 39.4688 42.3633C39.4688 41.0711 40.5203 40.0195 41.8125 40.0195C43.1047 40.0195 44.1562 41.0711 44.1562 42.3633C44.1562 43.6555 43.1047 44.707 41.8125 44.707Z" fill="#D23C41"/>
<path d="M48.0625 44.707C46.7703 44.707 45.7188 43.6555 45.7188 42.3633C45.7188 41.0711 46.7703 40.0195 48.0625 40.0195C49.3547 40.0195 50.4062 41.0711 50.4062 42.3633C50.4062 43.6555 49.3547 44.707 48.0625 44.707Z" fill="#D23C41"/>
</g>
<defs>
<clipPath id="clip0_67_1400">
<rect width="50" height="50" fill="white" transform="translate(15.25 15.8008)"/>
</clipPath>
</defs>
</svg>
