<svg width="81" height="81" viewBox="0 0 81 81" fill="none" xmlns="http://www.w3.org/2000/svg">
<rect x="0.75" y="0.800781" width="80" height="80" rx="40" fill=""/>
<g clip-path="url(#clip0_67_1468)">
<path d="M38.4062 26.5563V19.1079L44.6125 22.8321L38.4062 26.5563Z" fill="#D23C41"/>
<path d="M50.9062 37.6758H57.1562V43.9258H50.9062V37.6758Z" fill="#D23C41"/>
<path d="M56.375 55.8781L55.343 55.5039L55.8078 54.5094L52.8234 51.525L51.8289 51.9906L51.4539 50.957H47.2344L46.8594 51.9891L45.8648 51.5234L42.8805 54.5078L43.3453 55.5023L42.3125 55.8781V60.0984L43.3445 60.4727L42.8797 61.4672L45.8641 64.4516L46.8586 63.9859L47.2336 65.0195H51.4531L51.8281 63.9875L52.8227 64.4531L55.807 61.4688L55.3422 60.4742L56.375 60.0984V55.8781ZM49.3438 61.1133C47.618 61.1133 46.2188 59.7141 46.2188 57.9883C46.2188 56.2625 47.618 54.8633 49.3438 54.8633C51.0695 54.8633 52.4688 56.2625 52.4688 57.9883C52.4688 59.7141 51.0695 61.1133 49.3438 61.1133Z" fill="#D23C41"/>
<path d="M28.25 40.8C28.6815 40.8 29.0312 40.4503 29.0312 40.0188C29.0312 39.5873 28.6815 39.2375 28.25 39.2375C27.8185 39.2375 27.4688 39.5873 27.4688 40.0188C27.4688 40.4503 27.8185 40.8 28.25 40.8Z" fill="white"/>
<path d="M50.9062 36.8945H57.1562V38.457H50.9062V36.8945Z" fill="white"/>
<path d="M50.9062 40.0195H57.1562V41.582H50.9062V40.0195Z" fill="white"/>
<path d="M50.9062 43.1445H57.1562V44.707H50.9062V43.1445Z" fill="white"/>
<path d="M49.3438 54.082C47.1898 54.082 45.4375 55.8344 45.4375 57.9883C45.4375 60.1422 47.1898 61.8945 49.3438 61.8945C51.4977 61.8945 53.25 60.1422 53.25 57.9883C53.25 55.8344 51.4977 54.082 49.3438 54.082ZM49.3438 60.332C48.0516 60.332 47 59.2805 47 57.9883C47 56.6961 48.0516 55.6445 49.3438 55.6445C50.6359 55.6445 51.6875 56.6961 51.6875 57.9883C51.6875 59.2805 50.6359 60.332 49.3438 60.332Z" fill="white"/>
<path d="M55.3734 29.082C53.1687 26.332 50.2875 24.2906 46.9844 23.1273C46.9898 23.0289 47 22.932 47 22.832C47 19.3859 44.1961 16.582 40.75 16.582C37.3039 16.582 34.5 19.3859 34.5 22.832C34.5 22.9328 34.5102 23.0313 34.5148 23.1313C30.607 24.5102 27.2641 27.1477 25.0031 30.6445H24.5328C20.1211 30.6445 16.5312 34.2344 16.5312 38.6469C16.5312 41.2258 17.7844 43.6602 19.8828 45.1578L22 46.6703V47.2422L20.4977 47.6719C18.1617 48.3383 16.5312 50.5008 16.5312 52.9297V65.0195H30.5938V59.0594C30.7164 58.9562 30.8367 58.85 30.9516 58.7352L32.2039 57.4828C34.8344 58.832 37.7742 59.5508 40.75 59.5508C41.2703 59.5508 41.7922 59.5211 42.3125 59.4781V57.9062C39.257 58.1773 36.1352 57.6266 33.3703 56.3156L37.1672 52.5195H40.75C42.0422 52.5195 43.0938 51.468 43.0938 50.1758V48.6133C43.0938 47.3211 42.0422 46.2695 40.75 46.2695H40.4477C39.9086 45.3023 38.9008 44.707 37.7836 44.707C36.9688 44.707 36.2023 45.0242 35.6258 45.6016L33.7188 47.5086L30.0938 51.1336C29.918 50.8188 29.7047 50.525 29.45 50.2711L28.25 49.0703V47.8313H28.5734L30.5938 45.8109V44.4883L32.9375 43.707V43.1438C32.9375 40.3797 31.8594 38.0148 31.118 36.7133C31.2906 36.6695 31.4688 36.6187 31.6492 36.5508C32.9836 36.0516 33.7188 35.0633 33.7188 33.7695C33.7188 32.0461 32.3172 30.6445 30.5938 30.6445H26.8883C28.8813 27.9266 31.6281 25.8641 34.7844 24.6953C35.5789 27.2344 37.9523 29.082 40.75 29.082C43.55 29.082 45.9258 27.2312 46.718 24.6891C49.2375 25.6203 51.4813 27.1148 53.3117 29.082H50.9062V33.7695H47.7812V47.832H56.4148C55.6922 49.4445 54.7297 50.9219 53.5469 52.2477L54.6508 53.3516C56.1289 51.7164 57.3055 49.8719 58.1297 47.832H60.2812V44.707H64.9688V29.082H55.3734ZM29.0312 63.457H18.0938V56.168C18.1352 56.193 18.1734 56.2227 18.2156 56.2453L24.4867 59.6664C25.2859 60.1023 26.1875 60.332 27.0969 60.332C27.7695 60.332 28.4211 60.2062 29.0312 59.9742V63.457ZM36.7313 46.7062C37.0086 46.4289 37.3922 46.2695 37.7844 46.2695C38.3523 46.2695 38.8625 46.5844 39.1164 47.093L39.4859 47.832H40.75C41.1805 47.832 41.5312 48.182 41.5312 48.6133V50.1758C41.5312 50.607 41.1805 50.957 40.75 50.957H37.1672L34.8234 48.6133L36.7313 46.7062ZM33.7188 49.718L35.7391 51.7383L29.8469 57.6305C29.1125 58.3648 28.1359 58.7695 27.0969 58.7695C26.4484 58.7695 25.8047 58.6055 25.2352 58.2953L18.9641 54.8742C18.4273 54.5812 18.0938 54.0195 18.0938 53.4086C18.0938 52.4875 18.843 51.7383 19.8023 51.7383C20.0852 51.7383 20.3656 51.8109 20.6133 51.9484L26.5148 55.2266C26.8344 55.4047 27.1258 55.6242 27.3812 55.8797L28.4789 56.9781L29.5844 55.8734L28.5742 54.8625L33.7188 49.718ZM28.3445 51.375C28.5672 51.5977 28.7453 51.868 28.8625 52.1602L28.8797 52.3469L27.3328 53.8937C27.3133 53.8828 27.2938 53.8719 27.2742 53.8609L21.3727 50.5828C20.893 50.3164 20.3508 50.1758 19.7641 50.1758C19.568 50.1758 19.3781 50.2 19.1922 50.2336C19.6594 49.7453 20.2484 49.3688 20.9266 49.175L22.5539 48.7094L25.9062 52.0617L27.4688 50.4992L28.3445 51.375ZM31.3578 42.5859L29.0312 43.3617V45.1641L27.9266 46.2688H25.125V47.8313H26.6875V49.0703L25.9062 49.8523L23.5625 47.5078V42.8203L22.2289 41.4867C22.0836 41.3406 22 41.1398 22 40.9344V40.8C22 40.3687 22.3508 40.0188 22.7812 40.0188H23.5625V37.675C23.5625 37.2437 23.9133 36.8938 24.3438 36.8938H29.4008C29.9156 37.6883 31.1961 39.9086 31.3578 42.5859ZM30.5938 32.207C31.4555 32.207 32.1562 32.9078 32.1562 33.7695C32.1562 35.2992 29.9062 35.3305 29.8102 35.3313H24.3438C23.0516 35.3313 22 36.3828 22 37.675V38.5898C21.0906 38.9125 20.4375 39.7812 20.4375 40.8V40.9344C20.4375 41.5602 20.6813 42.1492 21.1242 42.5914L22 43.4672V44.7508L20.7906 43.8867C19.1023 42.6805 18.0938 40.7219 18.0938 38.6469C18.0938 35.0961 20.9828 32.207 24.5336 32.207H30.5938ZM40.75 27.5195C38.1648 27.5195 36.0625 25.4172 36.0625 22.832C36.0625 20.2469 38.1648 18.1445 40.75 18.1445C43.3352 18.1445 45.4375 20.2469 45.4375 22.832C45.4375 25.4172 43.3352 27.5195 40.75 27.5195ZM58.7188 46.2695H49.3438V35.332H58.7188V46.2695ZM63.4062 43.1445H60.2812V33.7695H52.4688V30.6445H63.4062V43.1445Z" fill="white"/>
</g>
<defs>
<clipPath id="clip0_67_1468">
<rect width="50" height="50" fill="white" transform="translate(15.75 15.8008)"/>
</clipPath>
</defs>
</svg>
