<svg width="80" height="81" viewBox="0 0 80 81" fill="none" xmlns="http://www.w3.org/2000/svg">
<rect y="0.800781" width="80" height="80" rx="40" fill=""/>
<g clip-path="url(#clip0_67_1425)">
<path d="M35.3125 62.6758C34.0203 62.6758 32.9688 61.6242 32.9688 60.332C32.9688 59.0398 34.0203 57.9883 35.3125 57.9883C36.6047 57.9883 37.6562 59.0398 37.6562 60.332C37.6562 61.6242 36.6047 62.6758 35.3125 62.6758Z" fill="#D23C41"/>
<path d="M29.0625 62.6758C27.7703 62.6758 26.7188 61.6242 26.7188 60.332C26.7188 59.0398 27.7703 57.9883 29.0625 57.9883C30.3547 57.9883 31.4062 59.0398 31.4062 60.332C31.4062 61.6242 30.3547 62.6758 29.0625 62.6758Z" fill="#D23C41"/>
<path d="M44.6875 23.6133C43.3953 23.6133 42.3438 22.5617 42.3438 21.2695C42.3438 19.9773 43.3953 18.9258 44.6875 18.9258C45.9797 18.9258 47.0312 19.9773 47.0312 21.2695C47.0312 22.5617 45.9797 23.6133 44.6875 23.6133Z" fill="#D23C41"/>
<path d="M50.9375 23.6133C49.6453 23.6133 48.5938 22.5617 48.5938 21.2695C48.5938 19.9773 49.6453 18.9258 50.9375 18.9258C52.2297 18.9258 53.2812 19.9773 53.2812 21.2695C53.2812 22.5617 52.2297 23.6133 50.9375 23.6133Z" fill="#D23C41"/>
<path d="M34.5312 36.8945H36.0938V38.457H34.5312V36.8945Z" fill="white"/>
<path d="M37.6562 36.8945H39.2188V38.457H37.6562V36.8945Z" fill="white"/>
<path d="M31.4062 36.8945H32.9688V38.457H31.4062V36.8945Z" fill="white"/>
<path d="M37.6562 49.3945H39.2188V50.957H37.6562V49.3945Z" fill="white"/>
<path d="M31.4062 49.3945H32.9688V50.957H31.4062V49.3945Z" fill="white"/>
<path d="M34.5312 49.3945H36.0938V50.957H34.5312V49.3945Z" fill="white"/>
<path d="M47.0312 30.6445H48.5938V32.207H47.0312V30.6445Z" fill="white"/>
<path d="M43.9062 30.6445H45.4688V32.207H43.9062V30.6445Z" fill="white"/>
<path d="M40.7812 30.6445H42.3438V32.207H40.7812V30.6445Z" fill="white"/>
<path d="M40.7812 43.1445H42.3438V44.707H40.7812V43.1445Z" fill="white"/>
<path d="M47.0312 43.1445H48.5938V44.707H47.0312V43.1445Z" fill="white"/>
<path d="M43.9062 43.1445H45.4688V44.707H43.9062V43.1445Z" fill="white"/>
<path d="M22.8122 58.7695V37.2179L26.1661 40.5718L27.2708 39.4671L22.031 34.2273L16.7911 39.4671L17.8958 40.5718L21.2497 37.2179V58.7695C21.2497 60.0617 22.3013 61.1132 23.5935 61.1132H27.4997V59.5507H23.5935C23.1622 59.5507 22.8122 59.2007 22.8122 58.7695Z" fill="white"/>
<path d="M53.8338 41.0297L52.7291 42.1344L57.969 47.3742L63.2088 42.1344L62.1041 41.0297L58.7502 44.3836V22.832C58.7502 21.5398 57.6987 20.4883 56.4065 20.4883H53.1377C53.2252 20.7336 53.2815 20.9945 53.2815 21.2695C53.2815 21.5445 53.2252 21.8055 53.1377 22.0508H56.4065C56.8377 22.0508 57.1877 22.4008 57.1877 22.832V44.3836L53.8338 41.0297Z" fill="white"/>
<path d="M59.5312 55.6445C59.3312 55.6445 59.1305 55.6602 58.9211 55.6922C58.1 54.2203 56.5625 53.3008 54.8438 53.3008C54.3055 53.3008 53.7781 53.3961 53.2672 53.5844C52.868 52.9258 52.3344 52.375 51.7188 51.9453V41.582V40.0195V29.8633C51.7188 28.5711 50.6672 27.5195 49.375 27.5195H40.5078C40.682 27.0297 40.7812 26.5055 40.7812 25.957C40.7812 23.3719 38.6789 21.2695 36.0938 21.2695C35.8937 21.2695 35.693 21.2852 35.4836 21.3172C34.6625 19.8453 33.125 18.9258 31.4062 18.9258C30.868 18.9258 30.3406 19.0211 29.8297 19.2094C28.8484 17.5914 27.0898 16.582 25.1562 16.582C22.3859 16.582 20.0906 18.6516 19.7359 21.3266C17.4977 21.6797 15.7812 23.6219 15.7812 25.957C15.7812 28.5422 17.8836 30.6445 20.4688 30.6445H28.2812V51.7383C28.2812 53.0305 29.3328 54.082 30.625 54.082H43.6594C43.4195 54.5852 43.2492 55.1281 43.1734 55.7016C40.9352 56.0547 39.2188 57.9969 39.2188 60.332C39.2188 62.9172 41.3211 65.0195 43.9062 65.0195H59.5312C62.1164 65.0195 64.2188 62.9172 64.2188 60.332C64.2188 57.7469 62.1164 55.6445 59.5312 55.6445ZM50.1562 46.2695H29.8438V41.582H50.1562V46.2695ZM29.8438 40.0195V35.332H50.1562V40.0195H29.8438ZM17.3438 25.957C17.3438 24.2336 18.7453 22.832 20.4688 22.832H21.25V22.0508C21.25 19.8969 23.0023 18.1445 25.1562 18.1445C26.7328 18.1445 28.1469 19.0836 28.7578 20.5375L29.1 21.3508L29.8656 20.9125C30.3594 20.6313 30.8773 20.4883 31.4062 20.4883C32.7023 20.4883 33.8438 21.275 34.3141 22.493L34.5695 23.1547L35.2523 22.9641C35.5758 22.8742 35.8438 22.832 36.0938 22.832C37.8172 22.832 39.2188 24.2336 39.2188 25.957C39.2188 27.6805 37.8172 29.082 36.0938 29.082H20.4688C18.7453 29.082 17.3438 27.6805 17.3438 25.957ZM36.0938 30.6445C37.4773 30.6445 38.7188 30.0383 39.5781 29.082H49.375C49.8063 29.082 50.1562 29.432 50.1562 29.8633V33.7695H29.8438V30.6445H36.0938ZM29.8438 51.7383V47.832H50.1562V51.1922C49.657 51.043 49.1336 50.957 48.5938 50.957C47.1086 50.957 45.7633 51.5555 44.7773 52.5195H30.625C30.1938 52.5195 29.8438 52.1695 29.8438 51.7383ZM59.5312 63.457H43.9062C42.1828 63.457 40.7812 62.0555 40.7812 60.332C40.7812 58.6086 42.1828 57.207 43.9062 57.207H44.6875V56.4258C44.6875 54.2719 46.4398 52.5195 48.5938 52.5195C50.1703 52.5195 51.5844 53.4586 52.1953 54.9125L52.5375 55.7258L53.3031 55.2875C53.7969 55.0062 54.3148 54.8633 54.8438 54.8633C56.1398 54.8633 57.2812 55.65 57.7516 56.868L58.007 57.5297L58.6898 57.3391C59.0133 57.2492 59.2812 57.207 59.5312 57.207C61.2547 57.207 62.6562 58.6086 62.6562 60.332C62.6562 62.0555 61.2547 63.457 59.5312 63.457Z" fill="white"/>
<path d="M55.625 58.7695H57.1875V60.332H55.625V58.7695Z" fill="white"/>
<path d="M52.5 58.7695H54.0625V60.332H52.5V58.7695Z" fill="white"/>
<path d="M49.375 58.7695H50.9375V60.332H49.375V58.7695Z" fill="white"/>
<path d="M46.25 58.7695H47.8125V60.332H46.25V58.7695Z" fill="white"/>
<path d="M29.0625 24.3945H30.625V25.957H29.0625V24.3945Z" fill="white"/>
<path d="M25.9375 24.3945H27.5V25.957H25.9375V24.3945Z" fill="white"/>
<path d="M22.8125 24.3945H24.375V25.957H22.8125V24.3945Z" fill="white"/>
<path d="M32.1875 24.3945H33.75V25.957H32.1875V24.3945Z" fill="white"/>
</g>
<defs>
<clipPath id="clip0_67_1425">
<rect width="50" height="50" fill="white" transform="translate(15 15.8008)"/>
</clipPath>
</defs>
</svg>
