<svg width="24" height="24" viewBox="0 0 24 24" fill="none" xmlns="http://www.w3.org/2000/svg">
<path d="M20.7083 2.34153C20.1129 1.79413 17.7024 0.0414914 12.3292 0.0174826C12.3292 0.0174826 5.99573 -0.366658 2.9082 2.46638C1.18918 4.18541 0.584154 6.69672 0.521732 9.81786C0.459309 12.9342 0.377679 18.7779 6.01014 20.3625H6.01494L6.01014 22.7778C6.01014 22.7778 5.97653 23.7574 6.61996 23.9542C7.39785 24.1943 7.85881 23.45 8.60308 22.6482C9.01123 22.2064 9.57304 21.563 10.0004 21.0684C13.8514 21.3901 16.8141 20.6506 17.1502 20.5402C17.9281 20.2857 22.3313 19.7239 23.0468 13.8801C23.7862 7.86835 22.6866 4.06056 20.7083 2.34153ZM21.3613 13.4576C20.7563 18.3362 17.1886 18.6435 16.5308 18.8548C16.2523 18.946 13.6497 19.5942 10.3749 19.3782C10.3749 19.3782 7.93564 22.3216 7.17696 23.0851C7.05692 23.2052 6.91767 23.2532 6.82644 23.2292C6.69679 23.1956 6.65837 23.0419 6.66318 22.8162C6.66318 22.4897 6.68238 18.7971 6.68238 18.7971C6.67758 18.7971 6.67758 18.7971 6.68238 18.7971C1.91424 17.4767 2.19274 12.502 2.24556 9.89949C2.29838 7.29694 2.78816 5.16016 4.24309 3.72444C6.85044 1.36197 12.2332 1.7125 12.2332 1.7125C16.7757 1.73171 18.9509 3.10021 19.4551 3.55638C21.1309 4.9969 21.9856 8.43016 21.3613 13.4576Z" fill="#4F4F4F"/>
<path d="M14.5426 9.99074C14.3842 9.99074 14.2497 9.86589 14.2401 9.70263C14.1873 8.67026 13.7023 8.16607 12.7132 8.11325C12.5451 8.10365 12.4155 7.9596 12.4251 7.79154C12.4347 7.62347 12.5787 7.49383 12.7468 7.50343C14.0529 7.57546 14.7827 8.32453 14.8499 9.66902C14.8596 9.83708 14.7299 9.98114 14.5618 9.98594C14.5522 9.99074 14.5474 9.99074 14.5426 9.99074Z" fill="#4F4F4F"/>
<path d="M16.0986 10.5093H16.0938C15.9257 10.5045 15.7913 10.3653 15.7961 10.1972C15.8201 9.16004 15.5224 8.31974 14.8885 7.62828C14.2595 6.93683 13.3904 6.56229 12.2428 6.48066C12.0747 6.46626 11.9499 6.32221 11.9643 6.15414C11.9787 5.98608 12.1227 5.86124 12.2908 5.87564C13.5873 5.97168 14.61 6.42304 15.3399 7.22013C16.0746 8.02203 16.4299 9.02559 16.4059 10.2116C16.4011 10.3797 16.2618 10.5093 16.0986 10.5093Z" fill="#4F4F4F"/>
<path d="M17.6928 11.1335C17.5247 11.1335 17.3903 10.9991 17.3903 10.831C17.3759 8.97273 16.8429 7.55621 15.7577 6.49502C14.6869 5.44824 13.328 4.91524 11.729 4.90084C11.561 4.90084 11.4265 4.76159 11.4265 4.59353C11.4265 4.42546 11.5658 4.29102 11.729 4.29102C13.4913 4.30542 14.9894 4.89604 16.1755 6.05806C17.3663 7.22009 17.9761 8.82387 17.9953 10.8214C18.0001 10.9943 17.8657 11.1335 17.6928 11.1335C17.6976 11.1335 17.6976 11.1335 17.6928 11.1335Z" fill="#4F4F4F"/>
<path d="M12.7853 13.7504C12.7853 13.7504 13.2127 13.7888 13.4432 13.5055L13.8897 12.9437C14.1058 12.6652 14.6292 12.4875 15.1382 12.7708C15.4215 12.9293 15.9353 13.2462 16.2522 13.4815C16.5931 13.7312 17.2846 14.3074 17.2894 14.3122C17.6207 14.5907 17.6975 14.9988 17.4718 15.4358C17.4718 15.4358 17.4718 15.4406 17.4718 15.4454C17.2414 15.8536 16.9292 16.2377 16.5403 16.593C16.5355 16.593 16.5355 16.5978 16.5307 16.5978C16.209 16.8667 15.8921 17.0204 15.5847 17.054C15.5463 17.0636 15.5031 17.0636 15.4455 17.0636C15.311 17.0636 15.1766 17.0444 15.0421 17.0012L15.0325 16.9868C14.5524 16.8523 13.7553 16.5162 12.43 15.7815C11.5657 15.3062 10.8502 14.8212 10.2404 14.3362C9.91867 14.0817 9.59215 13.7984 9.25603 13.4623C9.24643 13.4527 9.23202 13.4383 9.22242 13.4287C9.21281 13.4191 9.19841 13.4047 9.18881 13.3951C9.1792 13.3855 9.1648 13.3711 9.15519 13.3615C9.14559 13.3518 9.13118 13.3374 9.12158 13.3278C8.79026 12.9917 8.50215 12.6652 8.24766 12.3435C7.76268 11.7385 7.27771 11.0182 6.80233 10.1539C6.06766 8.8238 5.73154 8.0267 5.59709 7.55133L5.58269 7.54173C5.53947 7.40728 5.52026 7.27283 5.52026 7.13838C5.52026 7.08076 5.52026 7.03754 5.52987 6.99913C5.56828 6.68701 5.72194 6.3749 5.98603 6.05318C5.98603 6.04838 5.99084 6.04838 5.99084 6.04358C6.34617 5.64984 6.73031 5.34252 7.13846 5.11204C7.13846 5.11204 7.14326 5.11204 7.14806 5.11204C7.58022 4.88636 7.98837 4.96318 8.27167 5.29451C8.27167 5.29451 8.85268 5.99076 9.10237 6.33168C9.33766 6.6534 9.65458 7.16239 9.81303 7.44569C10.0963 7.95468 9.91867 8.47807 9.64017 8.69415L9.07837 9.14071C8.79506 9.37119 8.83348 9.79855 8.83348 9.79855C8.83348 9.79855 9.66418 12.9581 12.7853 13.7504Z" fill="#4F4F4F"/>
</svg>
