<svg width="127" height="127" viewBox="0 0 127 127" fill="none" xmlns="http://www.w3.org/2000/svg">
<rect width="126" height="126" transform="translate(0.5 0.479004)" fill="#F5E200"/>
<g clip-path="url(#clip0_20_81)">
<path d="M87.5117 38.4702H86.0491C85.5178 38.4702 85.0872 38.8935 85.0872 39.4159C85.0872 39.9382 85.5179 40.3616 86.0491 40.3616H87.5117C88.043 40.3616 88.4737 39.9382 88.4737 39.4159C88.4737 38.8935 88.043 38.4702 87.5117 38.4702Z" fill="#CD001F" stroke="#CD001F"/>
<path d="M82.317 38.4702H80.8545C80.3231 38.4702 79.8925 38.8935 79.8925 39.4159C79.8925 39.9382 80.3232 40.3616 80.8545 40.3616H82.317C82.8484 40.3616 83.279 39.9382 83.279 39.4159C83.279 38.8935 82.8485 38.4702 82.317 38.4702Z" fill="#CD001F" stroke="#CD001F"/>
<path d="M76.9943 38.4702H75.5317C75.0004 38.4702 74.5697 38.8935 74.5697 39.4159C74.5697 39.9382 75.0005 40.3616 75.5317 40.3616H76.9943C77.5256 40.3616 77.9562 39.9382 77.9562 39.4159C77.9562 38.8935 77.5257 38.4702 76.9943 38.4702Z" fill="#CD001F" stroke="#CD001F"/>
<path d="M76.5844 81.1931H40.5881C40.0569 81.1931 39.6262 81.6165 39.6262 82.1388C39.6262 82.6611 40.0569 83.0845 40.5881 83.0845H76.5842C77.1156 83.0845 77.5462 82.6611 77.5462 82.1388C77.5462 81.6165 77.1157 81.1931 76.5844 81.1931Z" fill="#CD001F" stroke="#CD001F"/>
<path d="M63.7018 85.0706H40.5881C40.0569 85.0706 39.6262 85.4939 39.6262 86.0162C39.6262 86.5386 40.0569 86.9619 40.5881 86.9619H63.7017C64.2331 86.9619 64.6637 86.5386 64.6637 86.0162C64.6637 85.4939 64.2332 85.0706 63.7018 85.0706Z" fill="#CD001F" stroke="#CD001F"/>
<path d="M92.038 34.7656H65.0229H34.962C34.4307 34.7656 34 35.1888 34 35.7113V43.1207V91.2466C34 91.769 34.4307 92.1923 34.962 92.1923H77.6319C78.1632 92.1923 78.5939 91.7691 78.5939 91.2466C78.5939 90.7243 78.1632 90.301 77.6319 90.301H35.924V78.1051H91.0762V90.3011H83.4369C82.9056 90.3011 82.475 90.7244 82.475 91.2468C82.475 91.7691 82.9056 92.1924 83.4369 92.1924H92.0381C92.5695 92.1924 93.0001 91.7692 93.0001 91.2468V43.1207V35.7113C93 35.1891 92.5693 34.7656 92.038 34.7656ZM35.924 36.657H64.0611V42.175H35.924V36.657ZM91.076 76.2138H35.924V44.0664H65.0231H91.0762V76.2138H91.076ZM91.076 42.175H65.9849V36.657H91.076V42.175Z" fill="#CD001F" stroke="#CD001F"/>
<path d="M54.2677 38.4702H39.4764C38.9452 38.4702 38.5145 38.8935 38.5145 39.4159C38.5145 39.9382 38.9452 40.3616 39.4764 40.3616H54.2677C54.7989 40.3616 55.2297 39.9382 55.2297 39.4159C55.2297 38.8935 54.7989 38.4702 54.2677 38.4702Z" fill="#CD001F" stroke="#CD001F"/>
<path d="M49.5217 60.9572L53.9719 56.5825C54.3476 56.2131 54.3476 55.6144 53.9718 55.245C53.5961 54.8758 52.987 54.8758 52.6114 55.245L47.481 60.2885C47.1053 60.6579 47.1053 61.2566 47.481 61.6259L52.6114 66.6694C52.7993 66.8541 53.0455 66.9463 53.2915 66.9463C53.5376 66.9463 53.7839 66.854 53.9717 66.6694C54.3473 66.3 54.3473 65.7013 53.9717 65.332L49.5217 60.9572Z" fill="#CD001F" stroke="#CD001F"/>
<path d="M79.5071 60.2885L74.3767 55.245C74.0009 54.8758 73.3919 54.8758 73.0162 55.245C72.6405 55.6144 72.6405 56.2131 73.0162 56.5824L77.4663 60.9572L73.0161 65.3319C72.6404 65.7013 72.6404 66.3 73.0161 66.6693C73.204 66.854 73.4503 66.9462 73.6964 66.9462C73.9426 66.9462 74.1888 66.8539 74.3768 66.6693L79.5072 61.6258C79.8828 61.2564 79.8828 60.6578 79.5071 60.2885Z" fill="#CD001F" stroke="#CD001F"/>
<path d="M66.2812 52.4939C65.7757 52.3333 65.2333 52.6053 65.0698 53.1024L60.0882 68.2296C59.9244 68.7264 60.2015 69.2595 60.7069 69.4206C60.8054 69.4518 60.9052 69.4667 61.0034 69.4667C61.4094 69.4667 61.7866 69.2121 61.9183 68.812L66.9 53.6848C67.0638 53.188 66.7868 52.6548 66.2812 52.4939Z" fill="#CD001F" stroke="#CD001F"/>
</g>
<defs>
<clipPath id="clip0_20_81">
<rect width="59" height="58" fill="white" transform="translate(34 34.479)"/>
</clipPath>
</defs>
</svg>
