<svg width="127" height="127" viewBox="0 0 127 127" fill="none" xmlns="http://www.w3.org/2000/svg">
<rect width="126" height="126" transform="translate(0.5 0.479004)" fill="#F5E200"/>
<g clip-path="url(#clip0_18_335)">
<path d="M82.6936 56.296C82.4585 56.1735 82.1833 56.1533 81.9331 56.2402C81.6827 56.3273 81.4794 56.5137 81.371 56.7557L79.0216 61.9988C78.8136 62.4632 79.0032 63.0097 79.4546 63.245C82.5582 64.8639 84.4863 68.0441 84.4863 71.5446C84.4863 76.3759 80.8083 80.3633 76.1086 80.8469V77.0264C76.1086 76.6572 75.8973 76.3205 75.5648 76.16C75.2324 75.9997 74.8372 76.0438 74.5481 76.2734L65.886 83.1585C65.6693 83.3309 65.5371 83.5885 65.5238 83.8651C65.5105 84.1418 65.6171 84.4109 65.8162 84.6034L74.2036 92.7089C74.3865 92.8857 74.6276 92.979 74.8723 92.979C74.9969 92.979 75.1226 92.9549 75.2421 92.905C75.5963 92.7575 75.829 92.4133 75.834 92.0295L75.8857 88.037C84.7167 87.5426 91.749 80.1942 91.749 71.2321C91.7486 64.9321 88.2789 59.209 82.6936 56.296ZM74.9355 86.1396C74.4091 86.1396 73.9804 86.5628 73.9736 87.0892L73.9388 89.7777L67.9416 83.9821L74.1845 79.02V81.8582C74.1845 82.3896 74.615 82.8202 75.1465 82.8202C81.3573 82.8202 86.41 77.762 86.41 71.5447C86.41 67.6299 84.4097 64.0472 81.1329 61.9915L82.695 58.5057C87.1177 61.2074 89.8247 65.9948 89.8247 71.2323C89.8248 79.4521 83.1455 86.1396 74.9355 86.1396Z" fill="#CD001F" stroke="#CD001F"/>
<path d="M61.184 42.3545L52.7967 34.2491C52.5209 33.9827 52.1128 33.9052 51.7582 34.053C51.404 34.2005 51.1713 34.5447 51.1664 34.9285L51.1146 38.921C42.2836 39.4154 35.2513 46.7638 35.2513 55.7258C35.2513 62.0259 38.721 67.749 44.3063 70.6619C44.4449 70.7343 44.5978 70.7709 44.751 70.7709C44.8575 70.7709 44.9642 70.7532 45.0668 70.7177C45.3171 70.6306 45.5205 70.4442 45.6288 70.2023L47.9783 64.9592C48.1865 64.4947 47.9967 63.9482 47.5455 63.7129C44.4419 62.094 42.5138 58.9138 42.5138 55.4133C42.5138 50.582 46.1918 46.5946 50.8915 46.111V49.9315C50.8915 50.3007 51.1028 50.6374 51.4353 50.7979C51.7678 50.9585 52.163 50.9144 52.452 50.6845L61.1141 43.7994C61.3308 43.627 61.4629 43.3694 61.4763 43.0928C61.4896 42.8161 61.383 42.547 61.184 42.3545ZM52.8154 47.938V45.0999C52.8154 44.5686 52.3849 44.1379 51.8534 44.1379C45.6426 44.1379 40.5898 49.1962 40.5898 55.4134C40.5898 59.3283 42.5902 62.9109 45.8668 64.9666L44.3048 68.4524C39.8819 65.7507 37.1752 60.9633 37.1752 55.7258C37.1752 47.5058 43.8545 40.8183 52.0645 40.8183C52.5909 40.8183 53.0196 40.3951 53.0264 39.8687L53.0612 37.1802L59.0584 42.9758L52.8154 47.938Z" fill="#CD001F" stroke="#CD001F"/>
<path d="M76.4881 67.9679C76.4881 66.0712 75.139 64.4833 73.3486 64.1106C73.1777 60.878 71.0529 58.0634 67.9529 57.0262C67.1426 56.7548 66.294 56.6172 65.4313 56.6172C63.943 56.6172 62.516 57.0228 61.2667 57.7959C60.7758 57.5531 60.2393 57.4158 59.6854 57.3938C59.6329 57.3916 59.5787 57.3904 59.5255 57.3904C57.4612 57.3904 55.7632 58.986 55.6036 61.0073C52.8752 61.4609 50.7885 63.8343 50.7885 66.6849V71.4607C50.7885 72.4413 52.5288 72.441 52.5288 72.441H54.9547C55.486 72.441 55.9167 72.0104 55.9167 71.479C55.9167 70.9477 55.4862 70.517 54.9547 70.517H52.7126V66.6847C52.7126 64.5719 54.4357 62.853 56.5533 62.853L56.5839 62.8537C56.8814 62.8642 57.1557 62.7361 57.3442 62.5132C57.5328 62.2901 57.6098 61.9934 57.5535 61.7067C57.5282 61.5777 57.5152 61.4473 57.5152 61.319C57.5152 60.2136 58.417 59.3142 59.5255 59.3142C59.5524 59.3142 59.5797 59.3151 59.6077 59.3163C60.011 59.3323 60.3958 59.4679 60.7208 59.7081C61.2051 60.0863 61.4832 60.6534 61.4832 61.2678C61.4832 61.7991 61.9137 62.2297 62.4452 62.2297C62.9765 62.2297 63.4071 61.7992 63.4071 61.2678C63.4071 60.5021 63.1887 59.7734 62.787 59.1525C63.6037 58.7512 64.5013 58.5412 65.4313 58.5412C66.086 58.5412 66.7289 58.6454 67.3422 58.8507C69.7908 59.67 71.4359 61.9533 71.4359 64.5325C71.4359 64.6573 71.4314 64.7885 71.4223 64.9339C71.4051 65.2073 71.5051 65.4751 71.6976 65.6701C71.89 65.865 72.1567 65.9686 72.4301 65.9553C72.4673 65.9533 72.5048 65.9522 72.5423 65.9522C73.6572 65.9522 74.5642 66.8566 74.5642 67.9683C74.5642 68.0906 74.5652 69.5205 74.5657 70.5174H59.2675C58.7361 70.5174 58.3055 70.9479 58.3055 71.4794C58.3055 72.0107 58.736 72.4413 59.2675 72.4413H75.5284C75.7837 72.4411 76.0285 72.3396 76.2089 72.1591C76.3893 71.9786 76.4905 71.7338 76.4904 71.4784C76.4904 71.4784 76.4881 68.157 76.4881 67.9679Z" fill="#CD001F" stroke="#CD001F"/>
</g>
<defs>
<clipPath id="clip0_18_335">
<rect width="59" height="59" fill="white" transform="translate(34 33.979)"/>
</clipPath>
</defs>
</svg>
