<svg width="127" height="127" viewBox="0 0 127 127" fill="none" xmlns="http://www.w3.org/2000/svg">
<rect width="126" height="126" transform="translate(0.5 0.479004)" fill="#F5E200"/>
<g clip-path="url(#clip0_18_365)">
<path d="M66.7511 58.8029H65.3876C64.8563 58.8029 64.4257 59.2263 64.4257 59.7485C64.4257 60.2708 64.8562 60.6942 65.3876 60.6942H66.7511C67.2824 60.6942 67.7131 60.2708 67.7131 59.7485C67.7131 59.2263 67.2826 58.8029 66.7511 58.8029Z" fill="#CD001F" stroke="#CD001F"/>
<path d="M69.1223 72.1437H62.0252C61.494 72.1437 61.0633 72.5672 61.0633 73.0894V78.0645C61.0633 78.5867 61.494 79.0102 62.0252 79.0102C65.7298 79.0102 67.7223 77.4565 68.7413 76.1533C69.8575 74.726 70.0673 73.277 70.0756 73.2161C70.1538 72.6485 69.7041 72.1437 69.1223 72.1437ZM67.2162 75.0005C66.273 76.2066 64.853 76.9025 62.9873 77.0758V74.0349H67.8104C67.6698 74.3329 67.4774 74.6665 67.2162 75.0005Z" fill="#CD001F" stroke="#CD001F"/>
<path d="M87.8531 42.0097C84.5226 38.6443 80.0736 36.7492 75.3254 36.6734C75.188 36.6713 75.0497 36.6701 74.9103 36.6701H63.8031C63.2718 36.6701 62.8411 37.0936 62.8411 37.6158C62.8411 38.138 63.2718 38.5615 63.8031 38.5615H74.9102C75.0392 38.5615 75.167 38.5625 75.294 38.5645C83.9963 38.7033 91.076 45.8384 91.076 54.4697C91.076 62.4948 87.6505 70.1094 81.6461 75.5028C81.6461 74.9753 81.6461 60.5237 81.6461 59.3478C81.6449 59.3481 81.6439 59.3486 81.6427 59.3489C81.6038 58.5416 80.6227 58.1546 80.0267 58.7033L74.1683 64.0963V54.7264C74.1683 54.2042 73.7378 53.7807 73.2063 53.7807H57.7121C50.3347 53.7807 48.0149 42.1439 47.476 38.5611H57.5669C58.0982 38.5611 58.5289 38.1377 58.5289 37.6155C58.5289 37.0932 58.0982 36.6698 57.5669 36.6698H46.3816C46.1104 36.6698 45.852 36.7823 45.6697 36.9795C45.4874 37.1767 45.3982 37.4405 45.424 37.7058C45.4416 37.8854 45.8723 42.1574 47.5225 46.5017C49.6213 52.027 52.7764 55.1508 56.6891 55.6105V55.7931L56.6755 55.8345H45.851C45.3198 55.8345 44.8891 56.2579 44.8891 56.7802C44.8891 57.3024 45.3198 57.7258 45.851 57.7258H56.0542L51.9028 70.3618C51.8083 70.6495 51.8595 70.9645 52.0404 71.209C52.2215 71.4535 52.5106 71.5981 52.8182 71.5981H56.6892V73.2215H51.756C51.2417 73.2215 50.8183 73.6193 50.7951 74.1244L50.5933 78.5033L43.1733 73.3927C43.0116 73.2814 42.8189 73.2217 42.6213 73.2217H35.924V57.726H39.6151C40.1464 57.726 40.5771 57.3025 40.5771 56.7803C40.5771 56.2581 40.1464 55.8346 39.6151 55.8346H34.962C34.4307 55.8346 34 56.2581 34 56.7803V74.1671C34 74.6894 34.4307 75.1128 34.962 75.1128H42.3177C51.6611 81.548 51.0451 81.2109 51.4749 81.2109C51.6197 81.2109 51.7651 81.1788 51.8995 81.1138C52.2145 80.9614 52.42 80.6527 52.4359 80.308L52.6753 75.1128H56.6892V77.2556C56.6892 78.3451 56.9762 79.4198 57.5188 80.3632C58.6589 82.349 60.8077 83.5826 63.1265 83.5826H64.892V89.3423C64.892 89.8645 65.3225 90.288 65.854 90.288H80.6842C81.2156 90.288 81.6462 89.8645 81.6462 89.3423V82.6371V78.0134L82.2139 77.5347C89.0687 71.7544 93 63.3476 93 54.4696C93 49.7884 91.172 45.3636 87.8531 42.0097ZM63.1265 81.6914C61.5005 81.6913 59.9938 80.8261 59.1938 79.4329C58.8138 78.7722 58.6129 78.0194 58.6129 77.2555V70.6524C58.6129 70.1301 58.1822 69.7067 57.6509 69.7067H54.1396L58.2907 57.0729L58.5665 56.2319C58.5972 56.1382 58.6129 56.0402 58.6129 55.9418V55.6722H72.2442V66.2774C72.2442 66.6543 72.4718 66.9951 72.8236 67.1451C73.1754 67.2952 73.584 67.2253 73.8638 66.9678L79.7221 61.5748V77.5785V81.6913H65.854H63.1265V81.6914ZM79.7222 88.3967H66.816V83.5827H79.7222V88.3967Z" fill="#CD001F" stroke="#CD001F"/>
<path d="M49.0869 62.6684H40.5584C40.0272 62.6684 39.5964 63.0918 39.5964 63.6141C39.5964 64.1363 40.0272 64.5597 40.5584 64.5597H49.087C49.6183 64.5597 50.049 64.1363 50.049 63.6141C50.049 63.0917 49.6183 62.6684 49.0869 62.6684Z" fill="#CD001F" stroke="#CD001F"/>
<path d="M49.0869 66.0784H40.5584C40.0272 66.0784 39.5964 66.5019 39.5964 67.0241C39.5964 67.5463 40.0272 67.9698 40.5584 67.9698H49.087C49.6183 67.9698 50.049 67.5463 50.049 67.0241C50.049 66.5019 49.6183 66.0784 49.0869 66.0784Z" fill="#CD001F" stroke="#CD001F"/>
</g>
<defs>
<clipPath id="clip0_18_365">
<rect width="59" height="58" fill="white" transform="translate(34 34.479)"/>
</clipPath>
</defs>
</svg>
