<svg width="127" height="127" viewBox="0 0 127 127" fill="none" xmlns="http://www.w3.org/2000/svg">
<rect width="126" height="126" transform="translate(0.5 0.479004)" fill="#F5E200"/>
<g clip-path="url(#clip0_18_393)">
<path d="M89.1936 56.296C88.9585 56.1735 88.6833 56.1533 88.4331 56.2402C88.1827 56.3273 87.9794 56.5137 87.871 56.7557L85.5216 61.9988C85.3136 62.4632 85.5032 63.0097 85.9546 63.245C89.0582 64.8639 90.9863 68.0441 90.9863 71.5446C90.9863 76.3759 87.3083 80.3633 82.6086 80.8469V77.0264C82.6086 76.6572 82.3973 76.3205 82.0648 76.16C81.7324 75.9997 81.3372 76.0438 81.0481 76.2734L72.386 83.1585C72.1693 83.3309 72.0371 83.5885 72.0238 83.8651C72.0105 84.1418 72.1171 84.4109 72.3162 84.6034L80.7036 92.7089C80.8865 92.8857 81.1276 92.979 81.3723 92.979C81.4969 92.979 81.6226 92.9549 81.7421 92.905C82.0963 92.7575 82.329 92.4133 82.334 92.0295L82.3857 88.037C91.2167 87.5426 98.249 80.1942 98.249 71.2321C98.2486 64.9321 94.7789 59.209 89.1936 56.296ZM81.4355 86.1396C80.9091 86.1396 80.4804 86.5628 80.4736 87.0892L80.4388 89.7777L74.4416 83.9821L80.6845 79.02V81.8582C80.6845 82.3896 81.115 82.8202 81.6465 82.8202C87.8573 82.8202 92.91 77.762 92.91 71.5447C92.91 67.6299 90.9097 64.0472 87.6329 61.9915L89.195 58.5057C93.6177 61.2074 96.3247 65.9948 96.3247 71.2323C96.3248 79.4521 89.6455 86.1396 81.4355 86.1396Z" fill="#CD001F" stroke="#CD001F"/>
<path d="M54.684 42.3545L46.2967 34.2492C46.0209 33.9827 45.6128 33.9053 45.2582 34.053C44.904 34.2005 44.6713 34.5447 44.6664 34.9286L44.6146 38.9211C35.7836 39.4155 28.7513 46.7638 28.7513 55.7259C28.7513 62.026 32.221 67.7491 37.8063 70.662C37.9449 70.7343 38.0978 70.771 38.251 70.771C38.3575 70.771 38.4642 70.7532 38.5668 70.7177C38.8171 70.6306 39.0205 70.4443 39.1288 70.2024L41.4783 64.9592C41.6865 64.4947 41.4967 63.9483 41.0455 63.713C37.9419 62.0941 36.0138 58.9138 36.0138 55.4133C36.0138 50.582 39.6918 46.5947 44.3915 46.111V49.9315C44.3915 50.3007 44.6028 50.6374 44.9353 50.798C45.2678 50.9586 45.663 50.9145 45.952 50.6846L54.6141 43.7994C54.8308 43.627 54.9629 43.3695 54.9763 43.0928C54.9896 42.8161 54.883 42.5471 54.684 42.3545ZM46.3154 47.9381V45.1C46.3154 44.5686 45.8849 44.138 45.3534 44.138C39.1426 44.138 34.0898 49.1962 34.0898 55.4135C34.0898 59.3283 36.0902 62.9109 39.3668 64.9666L37.8048 68.4525C33.3819 65.7508 30.6752 60.9634 30.6752 55.7259C30.6752 47.5058 37.3545 40.8183 45.5645 40.8183C46.0909 40.8183 46.5196 40.3952 46.5264 39.8688L46.5612 37.1803L52.5584 42.9759L46.3154 47.9381Z" fill="#CD001F" stroke="#CD001F"/>
<path d="M40.7031 70.9985C42.7031 69.2407 44.3789 67.2954 45.7305 65.1626C47.0898 63.0298 47.7695 60.8384 47.7695 58.5884C47.7695 57.1978 47.5117 56.2017 46.9961 55.6001C46.4883 54.9985 45.8398 54.6978 45.0508 54.6978C44.6289 54.6978 44.2305 54.7837 43.8555 54.9556C43.4883 55.1196 43.2227 55.3462 43.0586 55.6353C43.543 55.7603 43.918 55.9868 44.1836 56.3149C44.457 56.6431 44.5938 57.0259 44.5938 57.4634C44.5938 57.8149 44.5078 58.1235 44.3359 58.3892C44.1719 58.6548 43.9492 58.8579 43.668 58.9985C43.3867 59.1392 43.082 59.2095 42.7539 59.2095C42.3867 59.2095 42.0703 59.1313 41.8047 58.9751C41.5391 58.811 41.3359 58.5962 41.1953 58.3306C41.0625 58.0649 40.9961 57.7759 40.9961 57.4634C40.9961 56.7212 41.4141 56.0259 42.25 55.3774C42.7109 54.979 43.2734 54.6743 43.9375 54.4634C44.6094 54.2524 45.3477 54.147 46.1523 54.147C47.1602 54.147 48.0586 54.3071 48.8477 54.6274C49.6367 54.9478 50.2578 55.4204 50.7109 56.0454C51.1641 56.6626 51.3906 57.4087 51.3906 58.2837C51.3906 59.3931 51.0273 60.4478 50.3008 61.4478C49.582 62.4478 48.4727 63.7095 46.9727 65.2329C45.4727 66.7485 44.3672 67.9087 43.6562 68.7134H49.5156C49.9688 68.7134 50.332 68.5884 50.6055 68.3384C50.8867 68.0884 51.0664 67.6626 51.1445 67.061H51.6953C51.6484 67.4204 51.625 67.8774 51.625 68.4321C51.625 69.4165 51.6836 70.4321 51.8008 71.479H45.1914C44.4648 71.479 43.8398 71.4751 43.3164 71.4673C42.8008 71.4595 42.3477 71.4556 41.957 71.4556C41.6836 71.4556 41.2656 71.4634 40.7031 71.479V70.9985ZM62.8867 68.936C62.8867 69.5376 62.9258 69.9751 63.0039 70.2485C63.0898 70.522 63.2422 70.7095 63.4609 70.811C63.6875 70.9126 64.0469 70.9751 64.5391 70.9985V71.479C63.7812 71.4321 62.6133 71.4087 61.0352 71.4087C59.6445 71.4087 58.543 71.4321 57.7305 71.479V70.9985C58.3555 70.9751 58.8125 70.9126 59.1016 70.811C59.3906 70.7095 59.5898 70.522 59.6992 70.2485C59.8086 69.9751 59.8633 69.5376 59.8633 68.936V67.7642H53.1133V67.2603L62.5 54.147H62.8867V65.4321H65.4766V67.7642H62.8867V68.936ZM59.8633 58.5532L54.9648 65.4321H59.8633V58.5532ZM66.9414 71.8188L73.4688 54.147H74.2539L67.7266 71.8188H66.9414ZM87.1914 54.9907C85.9492 56.811 84.9805 58.354 84.2852 59.6196C83.5977 60.8853 83.0625 62.2173 82.6797 63.6157C82.2969 65.0142 82.1133 66.5649 82.1289 68.2681C82.1289 68.5181 82.1445 68.8462 82.1758 69.2524C82.207 69.6587 82.2227 69.9517 82.2227 70.1313C82.2227 70.6313 82.0742 71.0376 81.7773 71.3501C81.4805 71.6626 81.0391 71.8188 80.4531 71.8188C79.8672 71.8188 79.4297 71.6509 79.1406 71.3149C78.8594 70.9712 78.7188 70.5454 78.7188 70.0376C78.7188 68.6938 79.0312 67.2915 79.6562 65.8306C80.2812 64.3696 81.0352 62.9868 81.918 61.6821C82.8086 60.3774 83.8945 58.9009 85.1758 57.2524H78.2969C77.6406 57.2524 77.1562 57.3931 76.8438 57.6743C76.5312 57.9478 76.332 58.4282 76.2461 59.1157H75.6953C75.75 58.5298 75.7773 57.8813 75.7773 57.1704C75.7773 56.4595 75.7188 55.5649 75.6016 54.4868C76.7578 54.5337 78.7109 54.5571 81.4609 54.5571C83.7266 54.5571 85.6367 54.5337 87.1914 54.4868V54.9907Z" fill="#CD001F"/>
</g>
<defs>
<clipPath id="clip0_18_393">
<rect width="71" height="60" fill="white" transform="translate(28 33.479)"/>
</clipPath>
</defs>
</svg>
