<svg width="127" height="127" viewBox="0 0 127 127" fill="none" xmlns="http://www.w3.org/2000/svg">
<rect width="126" height="126" transform="translate(0.5 0.479004)" fill="#F5E200"/>
<g clip-path="url(#clip0_18_379)">
<path d="M73.8125 67.229C73.2947 67.229 72.875 67.6487 72.875 68.1665V73.7915C72.875 74.3093 73.2947 74.729 73.8125 74.729H79.4375C79.9553 74.729 80.375 74.3093 80.375 73.7915V68.1665C80.375 67.6487 79.9553 67.229 79.4375 67.229H73.8125Z" fill="#CD001F"/>
<path fill-rule="evenodd" clip-rule="evenodd" d="M39.125 50.354C39.125 47.2474 41.6434 44.729 44.75 44.729H82.25C85.3566 44.729 87.875 47.2474 87.875 50.354V76.604C87.875 79.7106 85.3566 82.229 82.25 82.229H44.75C41.6434 82.229 39.125 79.7106 39.125 76.604V50.354ZM84.125 50.354V52.229H42.875V50.354C42.875 49.3185 43.7145 48.479 44.75 48.479H82.25C83.2855 48.479 84.125 49.3185 84.125 50.354ZM42.875 57.854V55.979H84.125V57.854H42.875ZM42.875 61.604H84.125V76.604C84.125 77.6395 83.2855 78.479 82.25 78.479H44.75C43.7145 78.479 42.875 77.6395 42.875 76.604V61.604Z" fill="#CD001F"/>
<line x1="40.8928" y1="41.7112" x2="84.8928" y2="85.7112" stroke="#CD001F" stroke-width="5"/>
</g>
<defs>
<clipPath id="clip0_18_379">
<rect width="50" height="48" fill="white" transform="translate(38.5 39.479)"/>
</clipPath>
</defs>
</svg>
