<svg width="301" height="228" viewBox="0 0 301 228" fill="none" xmlns="http://www.w3.org/2000/svg">
<g clip-path="url(#clip0_67_1241)">
<path d="M51.9055 215.187C51.9055 215.187 14.5483 188.582 3.7966 143.304C-6.95506 98.0201 9.45969 43.1127 40.5862 15.3787C71.7195 -12.3554 127.755 6.3232 152.658 29.5295L177.56 52.7359C177.56 52.7359 201.334 65.7514 232.468 64.6229C263.601 63.4875 291.335 105.94 298.694 139.337C306.054 172.735 288.504 216.883 288.504 216.883L51.9055 215.187Z" fill="#DDECFF"/>
<g style="mix-blend-mode:multiply">
<path d="M34.9299 221.979C34.9299 221.979 8.89202 207.828 2.10042 174.998C-4.69119 142.169 24.7391 112.171 27.5706 95.7562C30.4022 79.3415 24.1714 58.9667 50.2093 43.1128C76.2472 27.2657 122.66 32.9219 140.21 28.9619C157.76 25.0018 178.135 -2.17142 213.228 4.05935C248.322 10.2833 282.286 28.9619 283.983 69.7183C285.679 110.475 272.663 111.603 285.679 133.681C298.694 155.759 303.79 171.038 297.566 193.677C291.342 216.316 278.32 222.546 278.32 222.546L34.9299 221.979Z" fill="#DDECFF"/>
</g>
<g style="mix-blend-mode:multiply">
<path d="M89.2969 214.619C87.676 212.923 63.9225 165.375 90.3776 121.794C116.833 78.2129 183.237 83.3015 209.692 100.284C236.147 117.266 249.101 139.337 251.803 162.544C254.504 185.75 236.688 221.979 236.688 221.979L89.2969 214.619Z" fill="#DDECFF"/>
</g>
<path d="M275.556 112.499H245.039C243.15 112.499 241.619 114.03 241.619 115.919V131.157C241.619 133.046 243.15 134.577 245.039 134.577H275.556C277.445 134.577 278.976 133.046 278.976 131.157V115.919C278.976 114.03 277.445 112.499 275.556 112.499Z" fill="#60A8FF"/>
<path d="M260.298 143.209L265.14 131.746H255.462L260.298 143.209Z" fill="#60A8FF"/>
<path d="M260.188 119.749H268.922V121.028L273.204 118.552L268.922 116.083V117.362H260.188V119.749Z" fill="#223A7A"/>
<path d="M273.204 124.769H264.47V123.49L260.188 125.96L264.47 128.429V127.15H273.204V124.769Z" fill="white"/>
<path d="M254.826 127.019L254.409 127.17C254.409 127.17 253.109 125.693 252.439 124.078C251.769 122.464 251.741 120.501 251.741 120.501L252.042 120.371L250.196 115.953C249.867 116.213 249.553 116.541 249.3 116.972C248.253 118.737 248.356 121.452 249.409 124.099C250.462 126.746 251.584 129.112 253.636 130.596C254.846 131.472 255.886 131.629 256.686 131.499L254.819 127.026L254.826 127.019Z" fill="#223A7A"/>
<path d="M256.146 126.5L255.571 126.712L257.459 131.239C257.671 131.171 257.863 131.082 258.034 130.993C258.519 130.727 258.738 130.138 258.533 129.619L257.548 127.129C257.329 126.575 256.707 126.301 256.153 126.5H256.146Z" fill="#223A7A"/>
<path d="M251.646 115.173C251.413 115.256 251.16 115.372 250.907 115.522L252.795 120.036L253.431 119.77C253.985 119.537 254.245 118.915 254.033 118.354L253.041 115.81C252.829 115.256 252.206 114.968 251.652 115.173H251.646Z" fill="#223A7A"/>
<path d="M80.4672 206.98V156.039C80.4672 156.039 79.8995 142.313 87.1151 138.353C94.3308 134.392 124.753 136.513 124.753 136.513V206.98H80.4672Z" fill="#1C83FF"/>
<path d="M134.267 88.821C134.267 88.821 132.427 104.244 131.722 105.516L131.018 106.788L127.482 109.196C127.482 109.196 134.273 118.819 142.624 120.372C150.975 121.931 150.264 116.972 150.264 116.972L148.992 114.284L150.688 99.5659C150.688 99.5659 135.546 92.6306 134.273 88.8142L134.267 88.821Z" fill="#FF9D8C"/>
<path d="M123.084 110.475L128.603 108.067C128.603 108.067 132.139 113.867 140.347 117.266C148.554 120.666 148.698 118.682 149.122 117.266C149.546 115.851 148.978 114.298 148.978 114.298L149.587 109.346L152.87 110.441L164.264 202.603L134.971 204.018L123.084 110.482V110.475Z" fill="white"/>
<path d="M150.114 109.435C150.114 109.435 152.097 114.011 153.937 124.762C155.777 135.514 157.473 153.632 157.897 166.08C158.321 178.527 158.601 206.973 158.601 206.973H195.534C195.959 206.973 198.503 192.966 198.503 192.966C198.503 192.966 182.369 179.143 181.52 176.879C180.953 175.368 181.24 147.401 178.832 134.522C176.425 121.644 173.313 119.051 166.802 115.844C160.072 112.527 150.107 109.428 150.107 109.428L150.114 109.435Z" fill="#223A7A"/>
<path d="M169.36 190.763C169.168 190.763 169.018 190.613 169.018 190.421C169.018 189.409 168.84 175.033 168.662 161.135C168.491 147.23 168.307 132.853 168.307 131.841C168.307 131.65 168.457 131.499 168.649 131.499C168.84 131.499 168.991 131.65 168.991 131.841C168.991 132.853 169.168 147.23 169.346 161.128C169.517 175.033 169.702 189.409 169.702 190.421C169.702 190.613 169.551 190.763 169.36 190.763Z" fill="#8593B6"/>
<path d="M95.774 187.309L95.4935 206.98H138.514C138.514 206.98 140.354 190.285 139.649 188.725C138.945 187.166 95.7808 187.309 95.7808 187.309H95.774Z" fill="#223A7A"/>
<g style="mix-blend-mode:multiply">
<path d="M143.65 105.092C145.401 106.508 147.802 107.636 149.669 108.327L150.681 99.5726C150.681 99.5726 139.307 94.3609 135.45 90.4897C136.257 94.8944 138.24 100.728 143.65 105.092Z" fill="#8E9BBB"/>
</g>
<path d="M163.984 60.0953C163.984 60.0953 166.952 65.1907 167.52 71.4146C168.088 77.6386 167.52 93.6293 162.425 100.421C157.329 107.212 146.714 105.229 141.906 101.125C137.488 97.3568 133.131 93.1984 132.003 84.991C130.867 76.7836 134.41 61.217 144.457 57.9614C154.505 54.7058 163.984 60.0816 163.984 60.0816V60.0953Z" fill="#FF9D8C"/>
<path d="M176.746 198.082C176.746 198.082 176.247 198.082 175.488 198.061C175.31 198.054 175.112 198.061 174.907 198.054C174.175 198.034 173.286 198.013 172.39 197.986C172.191 197.979 171.986 197.972 171.788 197.965C170.899 197.945 170.14 198.054 169.428 198.013H169.408C169.257 198.006 169.038 198.027 168.861 198.034C168.772 198.041 168.69 198.047 168.635 198.041C168.224 197.965 168.142 197.87 167.698 197.671C167.123 197.411 159.347 195.674 153.02 195.715C146.701 195.743 141.031 196.173 140.107 195.401C139.177 194.614 138.616 186.673 144.013 186.154L150.647 188.671C150.647 188.671 165.796 186.872 171.35 190.969C176.917 195.065 176.746 198.082 176.746 198.082Z" fill="#FF9D8C"/>
<path d="M169.408 198.013C169.257 198.006 169.038 198.027 168.861 198.034C168.724 197.815 168.436 197.418 168.279 197.254C166.569 195.51 162.438 194.381 160.94 194.019C160.804 193.985 160.715 193.848 160.749 193.711C160.776 193.574 160.92 193.492 161.064 193.52C163.245 194.046 167.876 195.394 169.189 197.603C169.23 197.664 169.339 197.876 169.408 198.013Z" fill="#223A7A"/>
<path d="M172.39 197.986C172.191 197.986 171.986 197.979 171.788 197.965C169.921 194.559 166.863 193.581 163.095 192.371L162.869 192.295C162.739 192.254 162.664 192.104 162.705 191.967C162.746 191.837 162.89 191.762 163.033 191.803L163.252 191.878C167.246 193.157 170.454 194.19 172.397 197.986H172.39Z" fill="#223A7A"/>
<path d="M175.488 198.061C175.31 198.061 175.112 198.061 174.907 198.054C173.771 195.674 170.023 191.687 165.072 190.763C164.928 190.736 164.839 190.606 164.859 190.463C164.887 190.326 165.024 190.237 165.16 190.257C170.27 191.215 174.387 195.387 175.495 198.061H175.488Z" fill="#223A7A"/>
<path d="M135.395 77.9941C135.395 77.9941 138.507 76.5099 140.702 72.331C142.898 68.1589 142.611 64.4041 142.611 64.4041C142.611 64.4041 146.571 63.768 152.514 65.5394C158.458 67.3108 165.53 69.7115 171.473 66.3191C177.417 62.9199 177.417 57.4757 174.517 55.2118C171.268 52.6744 164.825 54.2201 164.825 54.2201C164.825 54.2201 167.301 51.8126 165.961 50.3968C164.613 48.981 159.737 50.8208 159.737 50.8208C159.737 50.8208 153.793 46.0811 142.542 46.6488C131.291 47.2164 125.915 55.0682 125.279 63.8432C124.643 72.6183 127.824 81.3933 127.824 81.3933L135.395 77.9941Z" fill="#223A7A"/>
<g style="mix-blend-mode:multiply">
<path d="M158.218 80.1213C157.582 81.6943 157.596 83.5205 157.439 85.1825C157.316 86.482 157.076 87.9935 158.266 88.869C158.834 89.2862 161.522 90.4147 160.14 91.3312C159.614 91.68 158.731 91.5842 158.129 91.5569C157.719 91.5363 157.302 91.5227 156.885 91.4885C156.44 91.4543 156.009 91.3243 155.565 91.3175C155.305 91.3175 155.223 91.6595 155.435 91.7962C156.146 92.2408 157.199 92.3844 158.027 92.4118C158.861 92.446 159.422 92.4118 160.174 92.0356C160.633 91.8099 161.084 91.4816 161.153 90.9345C161.235 90.3189 160.77 89.7649 160.304 89.4161C159.771 89.0194 159.114 88.8348 158.574 88.4449C157.822 87.9114 157.883 87.0018 157.938 86.1674C158.068 84.1565 158.526 82.1799 158.704 80.176C158.731 79.8682 158.307 79.8682 158.212 80.1076L158.218 80.1213Z" fill="#8E9BBB"/>
</g>
<path d="M164.005 84.8267C163.793 86.0167 162.924 86.8648 162.069 86.7144C161.207 86.5639 160.687 85.4696 160.893 84.2795C161.105 83.0894 161.973 82.2413 162.828 82.3918C163.69 82.5423 164.21 83.6366 164.005 84.8267Z" fill="#223A7A"/>
<path d="M153.178 83.8828C152.986 85.1687 152.077 86.0988 151.153 85.962C150.23 85.8253 149.628 84.6694 149.819 83.3836C150.011 82.0977 150.921 81.1676 151.844 81.3044C152.767 81.4412 153.369 82.597 153.178 83.8828Z" fill="#223A7A"/>
<path d="M161.488 79.9091C162.151 80.0185 162.815 79.9091 163.485 79.957C163.642 79.9706 163.806 79.9912 163.964 80.0048C164.08 80.0185 163.752 79.9706 163.909 79.998C163.943 79.998 163.977 80.0117 164.011 80.0117C164.093 80.0254 164.176 80.0459 164.258 80.0664C164.401 80.1006 164.538 80.1553 164.682 80.1827C164.812 80.21 164.955 80.2442 165.085 80.2374C165.16 80.2305 165.229 80.2169 165.304 80.21C165.256 80.2169 165.215 80.2237 165.167 80.2374C165.167 80.2511 165.414 80.2169 165.441 80.21C165.817 80.1211 166.056 79.6834 165.947 79.314C165.92 79.2046 165.872 79.1157 165.803 79.0268C165.776 78.9926 165.749 78.9516 165.714 78.9174C165.742 78.9447 165.769 78.9789 165.797 79.0063C165.769 78.9652 165.742 78.931 165.708 78.89C165.673 78.8284 165.619 78.7737 165.557 78.7395C165.502 78.6985 165.455 78.6575 165.4 78.6164C165.222 78.4933 164.996 78.4249 164.784 78.3702C164.388 78.2676 163.977 78.2197 163.567 78.2129C163.163 78.2129 162.76 78.2539 162.363 78.3086C162.007 78.3565 161.618 78.4796 161.33 78.6917C161.111 78.8558 160.975 79.0678 161.009 79.3551C161.043 79.5945 161.228 79.868 161.488 79.9091Z" fill="#223A7A"/>
<path d="M153.937 78.0147C153.848 77.96 153.752 77.9121 153.663 77.8711C153.581 77.8369 153.362 77.7206 153.527 77.8095C153.465 77.7753 153.403 77.7411 153.342 77.7138C153.068 77.577 152.781 77.4812 152.487 77.406C151.844 77.2418 151.16 77.2008 150.497 77.2692C149.792 77.3444 149.142 77.5154 148.534 77.8848C148.445 77.9395 148.356 77.9873 148.287 78.0626C148.24 78.1241 148.192 78.1857 148.144 78.2472C148.158 78.2267 148.171 78.2062 148.185 78.1857C147.993 78.3156 147.884 78.5345 147.891 78.7602C147.891 78.9791 148.007 79.1637 148.199 79.2663C148.431 79.3963 148.65 79.3347 148.883 79.2663H148.527C148.725 79.3005 148.862 79.3074 149.06 79.2663C149.067 79.2663 149.252 79.2185 149.129 79.2458C149.012 79.2732 149.32 79.2253 149.354 79.2185C149.395 79.2185 149.608 79.1911 149.382 79.2185C149.423 79.2185 149.464 79.2116 149.505 79.2048C149.614 79.1911 149.717 79.1774 149.826 79.1706C150.291 79.1364 150.757 79.1159 151.228 79.0953C151.659 79.0817 152.104 79.0748 152.542 79.0953C152.726 79.1022 152.911 79.109 153.096 79.1159C153.198 79.1159 153.157 79.1364 153.082 79.1159C153.123 79.1295 153.157 79.1364 153.198 79.1432C153.273 79.1637 153.349 79.1911 153.424 79.2185C153.725 79.3347 154.087 79.1159 154.197 78.8354C154.32 78.5345 154.217 78.1857 153.93 78.0147H153.937Z" fill="#223A7A"/>
<path d="M157.295 97.6919C157.945 96.3856 159.128 95.428 160.489 94.8125C159.306 94.6894 153.704 94.1764 152.295 94.9766C150.715 95.8726 152.59 99.4838 155.859 99.6617C156.201 99.6822 156.515 99.6548 156.816 99.607C156.844 98.9504 156.994 98.2938 157.295 97.6919Z" fill="#223A7A"/>
<path d="M131.435 90.0931C131.435 90.0931 132.003 92.2885 135.258 94.8328C138.514 97.3771 143.233 99.2443 143.233 99.2443L143.609 97.596C143.609 97.596 138.726 95.4757 136.462 93.1366C134.198 90.8044 133.918 89.5254 133.918 89.5254L131.442 90.0931H131.435Z" fill="#DEE1EB"/>
<path d="M144.17 96.3717C146.79 96.2486 148.253 98.3209 148.431 99.6615C148.616 101.002 147.357 102.507 144.409 101.187C140.75 99.5452 141.544 96.4948 144.163 96.3717H144.17Z" fill="#223A7A"/>
<path d="M133.487 73.8905C133.487 73.8905 134.615 65.7583 140.066 60.232C150.469 49.6924 159.313 50.3285 159.313 50.3285C159.313 50.3285 159.244 48.8443 155.913 47.709C152.788 46.6488 151.386 47.2165 151.386 47.2165C151.386 47.2165 142.823 47.921 135.607 55.9163C128.391 63.9117 127.612 74.1025 127.612 74.1025L133.487 73.8905Z" fill="#DEE1EB"/>
<path d="M132.707 72.8987C125.895 71.7428 122.092 77.0708 121.812 82.4534C121.531 87.8293 125.437 91.9193 130.655 91.5089C142.399 90.5924 141.058 74.3145 132.707 72.8987Z" fill="white"/>
<path d="M129.315 86.2836C127.516 86.2836 125.998 85.3808 125.129 83.7872C124.199 82.0842 124.274 79.9844 125.327 78.4387C125.409 78.3224 125.567 78.2951 125.683 78.3703C125.799 78.4524 125.833 78.6097 125.751 78.726C124.808 80.1144 124.739 82.0021 125.58 83.541C126.374 84.9978 127.783 85.8253 129.452 85.7706C131.011 85.7296 132.331 85.0183 133.165 83.7667C134.123 82.3372 134.342 80.3674 133.726 78.7397C133.111 77.1255 131.435 76.0312 129.91 76.2296C129.773 76.2501 129.643 76.1475 129.623 76.0107C129.602 75.8739 129.705 75.744 129.841 75.7234C131.626 75.4841 133.501 76.7083 134.205 78.5618C134.882 80.3401 134.636 82.4945 133.589 84.0539C132.652 85.4492 131.189 86.2426 129.465 86.2836C129.417 86.2836 129.369 86.2836 129.322 86.2836H129.315Z" fill="#818FB3"/>
<path d="M124.363 108.491C124.363 108.491 103.701 113.587 96.4852 121.794C89.2696 130.001 85.8704 170.471 85.7336 177.973C85.5968 185.476 90.829 188.588 93.941 190.709C97.0529 192.829 110.78 196.652 121.819 197.22C132.858 197.787 143.329 197.22 143.329 197.22C143.329 197.22 143.295 194.812 144.991 191.276C146.564 187.993 148.561 187.316 148.561 187.316L139.082 183.917C139.082 183.917 137.42 154.172 134.834 139.768C131.866 123.21 124.363 108.498 124.363 108.498V108.491Z" fill="#223A7A"/>
<path d="M158.601 179.164C158.554 179.164 158.506 179.157 158.465 179.136C158.294 179.061 158.212 178.856 158.294 178.685C160.229 174.314 162.233 165.745 163.362 159.726L163.457 159.24C163.799 157.469 164.223 155.273 163.375 153.748C162.944 152.975 161.966 151.293 161.023 149.679C160.045 148.003 159.128 146.416 158.868 145.944C158.369 145.021 159.942 142.552 162.213 139.166C162.828 138.25 163.355 137.463 163.663 136.93C164.47 135.528 163.936 134.249 163.307 132.758L163.095 132.245C162.527 130.856 161.884 129.468 161.262 128.121C161.009 127.573 160.756 127.019 160.503 126.465C160.168 125.734 159.839 124.988 159.497 124.236C157.5 119.776 155.428 115.167 152.781 110.714C152.685 110.55 152.74 110.345 152.897 110.242C153.061 110.146 153.267 110.201 153.369 110.358C156.037 114.845 158.116 119.475 160.12 123.949C160.455 124.701 160.79 125.446 161.118 126.171C161.371 126.725 161.624 127.272 161.878 127.82C162.5 129.174 163.15 130.569 163.717 131.971L163.929 132.477C164.565 133.989 165.222 135.562 164.244 137.251C163.923 137.805 163.389 138.606 162.767 139.529C161.583 141.293 159.121 144.966 159.456 145.602C159.709 146.067 160.626 147.647 161.597 149.316C162.541 150.937 163.519 152.62 163.957 153.399C164.928 155.137 164.477 157.476 164.114 159.35L164.018 159.835C163.608 162.024 161.426 173.241 158.902 178.945C158.848 179.075 158.718 179.15 158.588 179.15L158.601 179.164Z" fill="#8593B6"/>
<path d="M138.439 180.361C138.35 180.361 138.261 180.326 138.199 180.258C136.592 178.637 128.836 165.211 128.261 162.687C127.947 161.306 128.74 157.797 129.506 154.405C130.101 151.778 130.717 149.063 130.539 148.325C130.279 147.223 128.296 145.602 126.381 144.036C124.062 142.142 121.668 140.186 121.203 138.421C120.676 136.417 121.128 123.873 121.422 115.577C121.531 112.595 121.613 110.235 121.613 109.394C121.613 109.203 121.764 109.052 121.955 109.052C122.147 109.052 122.297 109.203 122.297 109.394C122.297 110.249 122.215 112.609 122.106 115.598C121.826 123.354 121.36 136.335 121.86 138.243C122.27 139.789 124.678 141.759 126.805 143.496C128.904 145.213 130.881 146.827 131.196 148.154C131.408 149.043 130.833 151.594 130.163 154.542C129.445 157.701 128.638 161.285 128.918 162.516C129.486 164.992 137.098 178.165 138.678 179.759C138.808 179.896 138.808 180.108 138.678 180.244C138.61 180.313 138.528 180.347 138.439 180.347V180.361Z" fill="#8593B6"/>
<path d="M110.636 174.492C110.636 174.492 110.602 174.492 110.588 174.492C110.404 174.465 110.274 174.294 110.294 174.103C110.547 172.324 114.473 136.896 114.651 134.181C114.665 133.989 114.829 133.845 115.013 133.859C115.205 133.873 115.342 134.037 115.335 134.222C115.157 136.937 111.224 172.413 110.971 174.191C110.944 174.362 110.8 174.486 110.636 174.486V174.492Z" fill="#8593B6"/>
<path d="M138.794 184.115C138.753 184.115 138.705 184.109 138.664 184.088C137.796 183.732 133.952 182.44 129.089 180.798C119.268 177.488 105.821 172.953 103.263 171.62C103.092 171.531 103.031 171.326 103.12 171.161C103.208 170.99 103.414 170.929 103.578 171.018C106.088 172.324 120.061 177.037 129.308 180.155C134.184 181.804 138.035 183.096 138.924 183.459C139.102 183.527 139.184 183.732 139.116 183.903C139.061 184.033 138.931 184.115 138.801 184.115H138.794Z" fill="#8593B6"/>
<path d="M134.068 198.219C125.423 198.219 108.673 196.659 95.9449 192.159C95.7671 192.097 95.6713 191.899 95.7397 191.721C95.8013 191.543 95.9996 191.447 96.1774 191.516C112.257 197.206 134.752 198.177 138.938 197.234C139.123 197.193 139.307 197.309 139.348 197.494C139.389 197.678 139.273 197.863 139.088 197.904C138.186 198.109 136.428 198.219 134.082 198.219H134.068Z" fill="#8593B6"/>
<path d="M35.1488 113.265C37.8298 115.625 41.2291 117.136 43.5818 119.865C44.5052 120.939 45.3396 122.081 46.2014 123.21C46.8238 124.031 48.4994 125.392 48.7662 126.418C48.8824 126.869 48.8619 126.253 48.7388 125.802C48.7388 125.782 48.7251 125.768 48.7183 125.747C48.4857 123.661 48.3148 121.568 48.2395 119.469C48.1643 117.376 48.2942 115.276 48.1643 113.19C47.9796 110.242 47.0563 107.39 44.6488 105.544C43.4724 104.641 41.9609 104.094 40.8734 103.088C39.8475 102.137 40.2579 101.05 40.8597 99.9899C41.4274 98.9982 42.1114 98.0201 42.3302 96.8779C42.5833 95.5784 42.0908 94.2379 41.4342 93.1367C40.0321 90.784 36.927 88.1576 33.9792 88.5133C31.5238 88.8073 31.2434 91.6389 31.2845 93.6087C31.3187 95.5237 31.5102 97.4388 31.5238 99.3538C31.5444 101.324 31.2092 103.259 31.1819 105.222C31.134 108.56 32.6797 111.104 35.1282 113.258L35.1488 113.265Z" fill="#6BAEFF"/>
<path d="M60.0787 143.893C60.8242 142.107 61.686 140.445 62.7393 138.825C64.1824 136.602 65.7897 134.434 66.7609 131.944C67.7526 129.4 67.609 126.684 67.7047 124.01C67.7731 122.04 68.3613 120.084 68.204 118.108C68.1288 117.164 67.5816 115.632 66.3574 115.789C65.4067 115.912 64.839 117.089 64.4765 117.848C63.8404 119.161 63.3959 120.563 62.9239 121.945C62.7393 122.485 62.5614 123.032 62.3289 123.552C62.1921 123.853 61.7612 124.592 61.3509 124.496C60.6532 124.325 61.2893 121.486 61.3919 120.98C61.9117 118.457 62.6914 116.111 62.8008 113.512C62.9581 109.743 62.664 105.263 58.9776 103.198C58.0132 102.657 56.7958 102.336 55.8793 103.143C54.9765 103.936 54.7234 105.311 54.5866 106.446C54.1762 109.928 54.997 113.218 56.1118 116.494C57.0351 119.195 58.1295 121.986 58.2115 124.879C58.2868 127.663 56.8436 130.125 56.1597 132.758C55.0791 136.944 55.2979 139.167 55.2979 140.521C55.2979 142.217 55.3526 143.899 55.4757 145.596C55.592 147.155 55.722 148.708 55.9135 150.26C55.9545 150.575 55.9887 150.903 56.0297 151.231C55.4279 149.788 55.2227 148.14 54.7234 146.69C53.8411 144.118 52.822 141.595 51.9739 139.009C51.2763 136.875 50.6129 134.721 49.6964 132.662C48.8346 130.733 47.7882 128.695 46.1741 127.28C45.196 126.425 44.0196 125.925 42.7133 125.932C41.8789 125.932 41.1265 126.226 40.3331 126.438C39.3551 126.698 38.5822 126.609 37.7752 125.987C35.1351 123.956 34.3281 120.317 32.3788 117.745C30.922 115.83 27.4612 112.561 24.917 114.654C23.5696 115.762 23.1934 117.903 23.2686 119.551C23.3576 121.61 24.2604 123.497 25.3273 125.221C26.4695 127.054 27.94 128.695 28.9864 130.576C29.6088 131.691 29.7046 132.758 29.602 134.01C29.5062 135.193 29.4037 136.335 29.8072 137.477C31.0178 140.904 34.8 140.425 37.741 140.514C39.7997 140.575 42.002 140.883 43.9581 141.54C46.2151 142.299 47.6856 143.769 48.4926 145.999C49.074 147.613 49.3886 149.453 50.4898 150.821C51.0096 151.464 51.6935 151.943 52.4459 152.278C53.5949 152.784 57.0899 153.003 57.1104 152.688C57.1993 151.621 57.7054 150.493 58.02 149.48C58.6151 147.579 59.3127 145.726 60.0856 143.886L60.0787 143.893Z" fill="#6BAEFF"/>
<path d="M76.3088 143.243C76.0079 141.287 76.0626 139.125 75.1392 137.327C75.0709 137.197 74.8999 137.162 74.7768 137.231C74.1133 137.6 74.086 138.674 74.0313 139.33C73.9423 140.425 74.0107 141.519 73.8739 142.607C73.6414 144.522 73.1968 146.491 72.5061 148.29C71.7264 150.328 70.3106 151.484 68.2519 152.12C66.9319 152.531 65.6324 152.886 64.5244 153.762C63.5327 154.548 62.8487 155.629 62.3426 156.771C60.9679 159.856 60.3113 163.296 59.6752 166.593C59.2443 168.809 58.8955 171.038 58.3552 173.234C57.8149 175.429 57.2403 177.611 56.9326 179.854C56.8778 179.971 56.8231 180.08 56.7753 180.196C56.6316 180.531 57.1583 180.709 57.3361 180.436C59.4632 177.166 62.0485 174.225 65.5845 172.427C67.1781 171.613 69.2983 171.442 70.632 170.163C71.6443 169.192 71.7811 167.707 71.6306 166.381C71.4323 164.643 70.5978 163.214 69.7292 161.73C69.2505 160.916 68.6896 160.047 68.8811 159.056C69.0658 158.125 69.8387 157.435 70.6047 156.956C72.0752 156.046 73.7919 155.636 74.9888 154.323C76.1036 153.105 76.726 151.58 76.8491 149.938C77.0133 147.75 76.6371 145.397 76.302 143.236L76.3088 143.243Z" fill="#6BAEFF"/>
<path d="M47.3368 154.542C45.4628 152.127 43.1989 150.041 40.6546 148.352C39.2936 147.449 36.0927 145.671 35.4429 148.331C35.0668 149.891 36.592 151.423 37.5974 152.401C39.1089 153.871 40.853 155.137 42.1251 156.833C40.5452 157.339 38.8969 157.435 37.529 158.522C35.908 159.815 35.1762 162.304 36.7903 163.891C37.5769 164.664 38.6165 165.136 39.5877 165.608C40.8598 166.223 42.1525 166.777 43.452 167.325C46.263 168.501 49.1082 169.691 51.502 171.613C53.9437 173.569 56.2418 176.886 56.4333 180.08C56.4538 180.388 56.3375 180.108 56.5154 179.971C56.618 180.06 56.9463 179.902 56.9463 179.725C56.8984 174.985 56.0434 170.464 54.1079 166.121C52.3091 162.092 50.0452 158.037 47.3368 154.548V154.542Z" fill="#6BAEFF"/>
<path d="M40.8529 110.386C41.8857 112.534 42.9663 114.633 44.1154 116.726C45.2234 118.744 46.3245 120.741 47.1521 122.895C48.1712 125.542 49.2381 128.148 50.3119 130.774C51.4336 133.503 52.4322 136.28 53.2324 139.119C54.7986 144.659 55.9613 150.356 56.5359 156.087C56.83 159.001 56.9599 161.928 56.8778 164.856C56.8163 167.14 56.5564 169.404 56.3444 171.681C56.1187 174.048 55.9613 176.448 56.1597 178.822C56.3238 180.805 56.6384 183.172 58.1842 184.587C58.4851 184.868 58.916 184.519 58.7382 184.163C56.9052 180.409 57.0078 176.312 57.3566 172.242C57.5481 169.992 57.8148 167.756 57.8969 165.498C57.9927 162.626 57.8832 159.746 57.6097 156.888C57.0762 151.266 55.9545 145.712 54.5045 140.261C53.759 137.463 52.8357 134.721 51.7756 132.033C50.7086 129.338 49.4775 126.712 48.4448 124.003C46.5776 119.099 43.7324 114.756 41.2086 110.188C41.0786 109.948 40.7367 110.16 40.8461 110.4L40.8529 110.386Z" fill="#43588E"/>
<path d="M56.6316 150.472C56.9257 146.902 57.2472 143.462 58.4441 140.062C59.0049 138.476 59.682 136.93 60.2292 135.336C60.6737 134.016 61.344 132.211 61.002 130.809C60.961 130.651 60.7353 130.658 60.6943 130.809C60.4617 131.609 60.4891 132.484 60.3249 133.305C60.1608 134.105 59.9487 134.885 59.7025 135.665C59.1759 137.313 58.4851 138.893 57.8901 140.521C56.7342 143.66 56.1392 147.134 56.3922 150.472C56.4059 150.629 56.6248 150.629 56.6384 150.472H56.6316Z" fill="#43588E"/>
<path d="M35.9422 129.954C37.358 133.373 41.619 133.572 44.7241 134.338C46.9401 134.885 48.5747 136.362 49.7511 138.284C51.0369 140.384 51.9056 142.846 52.6237 145.192C52.6305 145.219 52.6716 145.206 52.6647 145.178C51.7961 141.075 50.5513 136.137 46.3245 134.228C42.9322 132.696 38.466 133.469 36.3047 129.803C36.1953 129.625 35.867 129.742 35.9559 129.954H35.9422Z" fill="#43588E"/>
<path d="M54.3882 149.932C54.5592 150.157 54.7097 150.397 54.8875 150.623C54.9764 150.732 55.0585 150.835 55.1679 150.923C55.2774 151.012 55.4073 151.129 55.5646 151.122C55.6262 151.122 55.674 151.047 55.6398 150.992C55.5715 150.876 55.4415 150.807 55.3457 150.725C55.2432 150.636 55.1406 150.547 55.0448 150.452C54.8465 150.267 54.6686 150.062 54.4703 149.87C54.4361 149.836 54.3609 149.884 54.3951 149.932H54.3882Z" fill="#43588E"/>
<path d="M45.5312 160.786C47.9728 162.79 50.2299 165.163 52.0218 167.769C52.8768 169.014 53.6701 170.327 54.3883 171.654C55.168 173.104 55.6878 174.636 56.2965 176.161C56.3444 176.278 56.5564 176.278 56.5359 176.127C56.1939 172.906 54.1557 170.149 52.5279 167.468C51.6798 166.08 50.6266 164.958 49.4912 163.795C48.3217 162.599 47.1248 161.463 45.7569 160.499C45.5927 160.383 45.3738 160.656 45.538 160.786H45.5312Z" fill="#43588E"/>
<path d="M64.9894 156.997C63.813 157.667 63.772 159.521 63.7515 160.711C63.7104 162.995 64.2713 165.136 63.2727 167.311C62.3699 169.274 60.9268 170.915 59.7914 172.734C58.7313 174.444 57.678 176.626 57.7054 178.678C57.7054 178.794 57.89 178.863 57.9447 178.74C58.3756 177.809 58.5261 176.749 58.8339 175.771C59.1758 174.67 59.6614 173.671 60.2838 172.707C61.3782 171.011 62.7187 169.472 63.6078 167.653C64.5448 165.731 64.408 163.829 64.3465 161.75C64.3055 160.423 64.1755 158.289 65.2425 157.305C65.4066 157.147 65.1946 156.887 65.0031 156.997H64.9894Z" fill="#43588E"/>
<path d="M57.1241 178.89C52.3843 178.822 43.3494 178.774 43.3494 178.774L45.5859 195.366C46.092 199.101 49.2724 201.885 53.0409 201.885H61.2072C64.9758 201.885 68.163 199.101 68.6623 195.366L70.8988 178.774C70.8988 178.774 61.8638 178.829 57.1241 178.89Z" fill="white"/>
<path d="M286.315 148.393L259.265 201.98L180.399 202.548L204.734 147.641L286.315 148.393Z" fill="#F6F7FA"/>
<path d="M128.056 202.213L128.07 197.924H179.127L202.613 146.416H284.263L286.315 148.4H206.553L182.143 202.172C182.143 202.172 128.056 202.076 128.056 202.213Z" fill="#D9DEE8"/>
<path d="M245.36 177.967C244.471 180.641 239.636 182.706 234.561 182.576C229.486 182.447 226.093 180.183 226.989 177.508C227.878 174.834 232.714 172.769 237.789 172.899C242.864 173.029 246.256 175.292 245.36 177.967Z" fill="#D9DEE8"/>
<path d="M182.143 202.507C182.095 202.507 182.047 202.5 181.999 202.479C181.828 202.404 181.753 202.199 181.828 202.028L206.327 148.058H286.308C286.5 148.058 286.65 148.208 286.65 148.4C286.65 148.591 286.5 148.742 286.308 148.742H206.765L182.444 202.315C182.389 202.438 182.259 202.514 182.129 202.514L182.143 202.507Z" fill="white"/>
<path d="M124.5 206.269H30.6826V227.067H124.5V206.269Z" fill="#596B9B"/>
<path d="M292.765 206.269H123.966V227.067H292.765V206.269Z" fill="#7A89AF"/>
<g style="mix-blend-mode:multiply">
<path d="M124.5 206.269H123.966H30.6826V210.092H123.966H124.5H292.765V206.269H124.5Z" fill="#BDC4D7"/>
</g>
<path d="M128.603 202.165H26.1549V207.26H128.603V202.165Z" fill="#6F7FA9"/>
<path d="M296.868 202.165H128.07V207.26H296.868V202.165Z" fill="#9CA6C3"/>
<path d="M100.815 69.0754H67.6978C65.6468 69.0754 63.984 70.7382 63.984 72.7893V89.3203C63.984 91.3714 65.6468 93.0341 67.6978 93.0341H100.815C102.866 93.0341 104.528 91.3714 104.528 89.3203V72.7893C104.528 70.7382 102.866 69.0754 100.815 69.0754Z" fill="white"/>
<path d="M113.967 81.0513L101.526 75.8054V86.2972L113.967 81.0513Z" fill="white"/>
<path d="M76.3977 83.3427C77.6631 83.3427 78.6889 82.3169 78.6889 81.0515C78.6889 79.7861 77.6631 78.7603 76.3977 78.7603C75.1323 78.7603 74.1064 79.7861 74.1064 81.0515C74.1064 82.3169 75.1323 83.3427 76.3977 83.3427Z" fill="#223A7A"/>
<path d="M84.2562 83.3427C85.5216 83.3427 86.5474 82.3169 86.5474 81.0515C86.5474 79.7861 85.5216 78.7603 84.2562 78.7603C82.9908 78.7603 81.965 79.7861 81.965 81.0515C81.965 82.3169 82.9908 83.3427 84.2562 83.3427Z" fill="#223A7A"/>
<path d="M92.1148 83.3427C93.3802 83.3427 94.4061 82.3169 94.4061 81.0515C94.4061 79.7861 93.3802 78.7603 92.1148 78.7603C90.8494 78.7603 89.8236 79.7861 89.8236 81.0515C89.8236 82.3169 90.8494 83.3427 92.1148 83.3427Z" fill="#223A7A"/>
<path d="M269.428 18.2102H192.97C188.059 18.2102 184.078 22.1908 184.078 27.1015V63.3713C184.078 68.282 188.059 72.2626 192.97 72.2626H199.823C200.014 75.5524 199.543 80.4426 196.8 86.6939C205.637 82.6176 210.718 76.5031 213.379 72.2626H269.435C274.346 72.2626 278.326 68.282 278.326 63.3713V27.1015C278.326 22.1908 274.346 18.2102 269.435 18.2102H269.428Z" fill="#60A8FF"/>
<path d="M236.811 35.4937H198.886C197.846 35.4937 196.998 34.6456 196.998 33.606C196.998 32.5664 197.846 31.7183 198.886 31.7183H236.811C237.851 31.7183 238.699 32.5595 238.699 33.606C238.699 34.6456 237.857 35.4937 236.811 35.4937Z" fill="white"/>
<path d="M264.005 46.4846H198.154C197.518 46.4846 196.998 45.9648 196.998 45.3287C196.998 44.6927 197.518 44.1729 198.154 44.1729H264.005C264.641 44.1729 265.161 44.6927 265.161 45.3287C265.161 45.9648 264.641 46.4846 264.005 46.4846Z" fill="#D2E6FF"/>
<path d="M264.005 52.9001H198.154C197.518 52.9001 196.998 52.3803 196.998 51.7443C196.998 51.1082 197.518 50.5884 198.154 50.5884H264.005C264.641 50.5884 265.161 51.1082 265.161 51.7443C265.161 52.3803 264.641 52.9001 264.005 52.9001Z" fill="#D2E6FF"/>
<path d="M249.642 59.7395H198.161C197.525 59.7395 197.005 59.2197 197.005 58.5836C197.005 57.9475 197.525 57.4277 198.161 57.4277H249.642C250.278 57.4277 250.798 57.9475 250.798 58.5836C250.798 59.2197 250.278 59.7395 249.642 59.7395Z" fill="#D2E6FF"/>
<path d="M263.485 35.4937H245.394C244.355 35.4937 243.507 34.6456 243.507 33.606C243.507 32.5664 244.355 31.7183 245.394 31.7183H263.485C264.524 31.7183 265.373 32.5595 265.373 33.606C265.373 34.6456 264.524 35.4937 263.485 35.4937Z" fill="white"/>
<path d="M217.886 102.144H197.347C196.592 102.144 195.979 102.757 195.979 103.512V117.547C195.979 118.302 196.592 118.915 197.347 118.915H217.886C218.641 118.915 219.254 118.302 219.254 117.547V103.512C219.254 102.757 218.641 102.144 217.886 102.144Z" fill="white"/>
<path d="M207.764 113.039C207.647 113.039 207.531 112.998 207.435 112.923L196.253 103.69C196.034 103.512 196.007 103.184 196.184 102.965C196.369 102.746 196.69 102.719 196.909 102.897L207.757 111.856L218.324 102.664C218.536 102.479 218.864 102.5 219.049 102.712C219.233 102.924 219.213 103.252 219.001 103.437L208.106 112.916C208.01 112.998 207.887 113.039 207.77 113.039H207.764Z" fill="#6F7FA9"/>
<path d="M196.581 118.532C196.451 118.532 196.328 118.484 196.225 118.388C196.02 118.19 196.013 117.868 196.205 117.663L204.022 109.442C204.214 109.237 204.542 109.23 204.747 109.421C204.953 109.62 204.959 109.941 204.768 110.146L196.95 118.367C196.848 118.47 196.718 118.525 196.581 118.525V118.532Z" fill="#6F7FA9"/>
<path d="M218.659 118.231C218.529 118.231 218.399 118.183 218.296 118.08L210.506 110.269C210.308 110.071 210.308 109.743 210.506 109.545C210.705 109.346 211.033 109.346 211.231 109.545L219.021 117.355C219.22 117.554 219.22 117.882 219.021 118.08C218.919 118.183 218.789 118.231 218.659 118.231Z" fill="#6F7FA9"/>
<path d="M289.256 87.3574H249.163C247.652 87.3574 246.427 88.5823 246.427 90.0932V96.365C246.427 97.8759 247.652 99.1008 249.163 99.1008H289.256C290.767 99.1008 291.992 97.8759 291.992 96.365V90.0932C291.992 88.5823 290.767 87.3574 289.256 87.3574Z" fill="#223A7A"/>
<path d="M252.056 96.3103C251.878 96.3103 251.735 96.2488 251.625 96.1188C251.516 95.9889 251.468 95.8315 251.481 95.64L251.652 94.1217C251.666 94.0806 251.652 94.0601 251.632 94.0464C251.605 94.0328 251.577 94.0464 251.536 94.067L250.285 94.9698C250.127 95.086 249.97 95.1271 249.806 95.0929C249.642 95.0587 249.505 94.9629 249.402 94.792C249.286 94.5868 249.265 94.4089 249.334 94.2516C249.402 94.0943 249.525 93.9917 249.69 93.9233L251.092 93.2873C251.133 93.2736 251.146 93.2531 251.146 93.2326C251.146 93.212 251.126 93.1847 251.092 93.1778L249.69 92.5418C249.512 92.4665 249.395 92.3434 249.341 92.1793C249.293 92.0151 249.307 91.8441 249.395 91.68C249.498 91.5158 249.635 91.4132 249.799 91.379C249.963 91.3448 250.127 91.379 250.278 91.4816L251.529 92.405C251.57 92.4323 251.598 92.4392 251.625 92.4255C251.652 92.4118 251.659 92.3844 251.646 92.3503L251.475 90.8319C251.461 90.6404 251.516 90.4762 251.632 90.3531C251.748 90.2232 251.899 90.1616 252.097 90.1616C252.275 90.1616 252.425 90.2232 252.542 90.3531C252.658 90.4831 252.699 90.6404 252.678 90.8319L252.507 92.3503C252.494 92.3913 252.507 92.4118 252.528 92.4255C252.555 92.4392 252.583 92.4255 252.624 92.405L253.875 91.5022C254.026 91.3859 254.19 91.3448 254.368 91.379C254.539 91.4132 254.669 91.509 254.764 91.68C254.881 91.8852 254.901 92.063 254.833 92.2203C254.764 92.3708 254.641 92.4802 254.477 92.5486L253.075 93.1847C253.034 93.1983 253.02 93.2189 253.02 93.2394C253.02 93.2599 253.041 93.2873 253.075 93.2941L254.477 93.9302C254.655 94.0054 254.778 94.1285 254.833 94.2927C254.888 94.4568 254.867 94.6278 254.764 94.792C254.676 94.9561 254.546 95.0587 254.368 95.0929C254.197 95.1271 254.033 95.0929 253.875 94.9903L252.624 94.067C252.583 94.0396 252.555 94.0328 252.528 94.0464C252.501 94.0601 252.494 94.0875 252.507 94.1217L252.678 95.64C252.706 95.8315 252.658 95.9957 252.535 96.1188C252.412 96.2488 252.254 96.3103 252.063 96.3103H252.056Z" fill="white"/>
<path d="M260.345 96.3103C260.168 96.3103 260.024 96.2488 259.915 96.1188C259.805 95.9889 259.757 95.8315 259.771 95.64L259.942 94.1217C259.956 94.0806 259.942 94.0601 259.921 94.0464C259.894 94.0328 259.867 94.0464 259.826 94.067L258.574 94.9698C258.417 95.086 258.259 95.1271 258.095 95.0929C257.931 95.0587 257.794 94.9629 257.692 94.792C257.575 94.5868 257.555 94.4089 257.623 94.2516C257.692 94.0943 257.815 93.9917 257.979 93.9233L259.381 93.2873C259.422 93.2736 259.436 93.2531 259.436 93.2326C259.436 93.212 259.415 93.1847 259.381 93.1778L257.979 92.5418C257.801 92.4665 257.685 92.3434 257.63 92.1793C257.582 92.0151 257.596 91.8441 257.685 91.68C257.787 91.5158 257.924 91.4132 258.088 91.379C258.253 91.3448 258.417 91.379 258.567 91.4816L259.819 92.405C259.86 92.4323 259.887 92.4392 259.915 92.4255C259.942 92.4118 259.949 92.3844 259.935 92.3503L259.764 90.8319C259.75 90.6404 259.805 90.4762 259.921 90.3531C260.038 90.2232 260.188 90.1616 260.386 90.1616C260.564 90.1616 260.715 90.2232 260.831 90.3531C260.947 90.4831 260.988 90.6404 260.968 90.8319L260.797 92.3503C260.783 92.3913 260.79 92.4118 260.817 92.4255C260.845 92.4392 260.872 92.4255 260.913 92.405L262.165 91.5022C262.315 91.3859 262.479 91.3448 262.657 91.379C262.828 91.4132 262.958 91.509 263.054 91.68C263.17 91.8852 263.191 92.063 263.122 92.2203C263.054 92.3708 262.931 92.4802 262.767 92.5486L261.365 93.1847C261.323 93.1983 261.31 93.2189 261.31 93.2394C261.31 93.2599 261.33 93.2873 261.365 93.2941L262.767 93.9302C262.944 94.0054 263.068 94.1285 263.122 94.2927C263.177 94.4568 263.156 94.6278 263.054 94.792C262.965 94.9561 262.835 95.0587 262.657 95.0929C262.486 95.1271 262.322 95.0929 262.165 94.9903L260.913 94.067C260.872 94.0396 260.845 94.0328 260.817 94.0464C260.79 94.0601 260.783 94.0875 260.797 94.1217L260.968 95.64C260.995 95.8315 260.947 95.9957 260.824 96.1188C260.701 96.2488 260.544 96.3103 260.352 96.3103H260.345Z" fill="white"/>
<path d="M268.642 96.3103C268.464 96.3103 268.32 96.2488 268.211 96.1188C268.101 95.9889 268.054 95.8315 268.067 95.64L268.238 94.1217C268.252 94.0806 268.238 94.0601 268.218 94.0464C268.19 94.0328 268.163 94.0464 268.122 94.067L266.87 94.9698C266.713 95.086 266.556 95.1271 266.392 95.0929C266.227 95.0587 266.091 94.9629 265.988 94.792C265.872 94.5868 265.851 94.4089 265.92 94.2516C265.988 94.0943 266.111 93.9917 266.275 93.9233L267.677 93.2873C267.718 93.2736 267.732 93.2531 267.732 93.2326C267.732 93.212 267.712 93.1847 267.677 93.1778L266.275 92.5418C266.098 92.4665 265.981 92.3434 265.927 92.1793C265.879 92.0151 265.892 91.8441 265.981 91.68C266.084 91.5158 266.221 91.4132 266.385 91.379C266.549 91.3448 266.713 91.379 266.864 91.4816L268.115 92.405C268.156 92.4323 268.184 92.4392 268.211 92.4255C268.238 92.4118 268.245 92.3844 268.231 92.3503L268.06 90.8319C268.047 90.6404 268.101 90.4762 268.218 90.3531C268.334 90.2232 268.484 90.1616 268.683 90.1616C268.861 90.1616 269.011 90.2232 269.127 90.3531C269.244 90.4831 269.285 90.6404 269.264 90.8319L269.093 92.3503C269.08 92.3913 269.086 92.4118 269.114 92.4255C269.141 92.4392 269.168 92.4255 269.209 92.405L270.461 91.5022C270.612 91.3859 270.776 91.3448 270.954 91.379C271.125 91.4132 271.254 91.509 271.35 91.68C271.467 91.8852 271.487 92.063 271.419 92.2203C271.35 92.3708 271.227 92.4802 271.063 92.5486L269.661 93.1847C269.62 93.1983 269.606 93.2189 269.606 93.2394C269.606 93.2599 269.627 93.2873 269.661 93.2941L271.063 93.9302C271.241 94.0054 271.364 94.1285 271.419 94.2927C271.473 94.4568 271.453 94.6278 271.35 94.792C271.261 94.9561 271.131 95.0587 270.954 95.0929C270.783 95.1271 270.618 95.0929 270.461 94.9903L269.209 94.067C269.168 94.0396 269.141 94.0328 269.114 94.0464C269.086 94.0601 269.08 94.0875 269.093 94.1217L269.264 95.64C269.292 95.8315 269.244 95.9957 269.121 96.1188C268.997 96.2488 268.84 96.3103 268.649 96.3103H268.642Z" fill="white"/>
<path d="M276.931 96.3103C276.753 96.3103 276.61 96.2488 276.5 96.1188C276.391 95.9889 276.343 95.8315 276.357 95.64L276.528 94.1217C276.541 94.0806 276.528 94.0601 276.507 94.0464C276.48 94.0328 276.452 94.0464 276.411 94.067L275.16 94.9698C275.002 95.086 274.845 95.1271 274.681 95.0929C274.517 95.0587 274.38 94.9629 274.278 94.792C274.161 94.5868 274.141 94.4089 274.209 94.2516C274.278 94.0943 274.401 93.9917 274.565 93.9233L275.967 93.2873C276.008 93.2736 276.022 93.2531 276.022 93.2326C276.022 93.212 276.001 93.1847 275.967 93.1778L274.565 92.5418C274.387 92.4665 274.271 92.3434 274.216 92.1793C274.168 92.0151 274.182 91.8441 274.271 91.68C274.373 91.5158 274.51 91.4132 274.674 91.379C274.838 91.3448 275.003 91.379 275.153 91.4816L276.405 92.405C276.446 92.4323 276.473 92.4392 276.5 92.4255C276.528 92.4118 276.535 92.3844 276.521 92.3503L276.35 90.8319C276.336 90.6404 276.391 90.4762 276.507 90.3531C276.623 90.2232 276.774 90.1616 276.972 90.1616C277.15 90.1616 277.301 90.2232 277.417 90.3531C277.533 90.4831 277.574 90.6404 277.554 90.8319L277.383 92.3503C277.369 92.3913 277.376 92.4118 277.403 92.4255C277.431 92.4392 277.458 92.4255 277.499 92.405L278.751 91.5022C278.901 91.3859 279.065 91.3448 279.243 91.379C279.414 91.4132 279.544 91.509 279.64 91.68C279.756 91.8852 279.776 92.063 279.708 92.2203C279.64 92.3708 279.517 92.4802 279.352 92.5486L277.95 93.1847C277.909 93.1983 277.896 93.2189 277.896 93.2394C277.896 93.2599 277.916 93.2873 277.95 93.2941L279.352 93.9302C279.53 94.0054 279.653 94.1285 279.708 94.2927C279.763 94.4568 279.742 94.6278 279.64 94.792C279.551 94.9561 279.421 95.0587 279.243 95.0929C279.072 95.1271 278.908 95.0929 278.751 94.9903L277.499 94.067C277.458 94.0396 277.431 94.0328 277.403 94.0464C277.376 94.0601 277.369 94.0875 277.383 94.1217L277.554 95.64C277.581 95.8315 277.533 95.9957 277.41 96.1188C277.287 96.2488 277.13 96.3103 276.938 96.3103H276.931Z" fill="white"/>
<path d="M285.227 96.3103C285.05 96.3103 284.906 96.2488 284.797 96.1188C284.687 95.9889 284.639 95.8315 284.653 95.64L284.824 94.1217C284.838 94.0806 284.824 94.0601 284.803 94.0464C284.776 94.0328 284.749 94.0464 284.708 94.067L283.456 94.9698C283.299 95.086 283.141 95.1271 282.977 95.0929C282.813 95.0587 282.676 94.9629 282.574 94.792C282.458 94.5868 282.437 94.4089 282.505 94.2516C282.574 94.0943 282.697 93.9917 282.861 93.9233L284.263 93.2873C284.304 93.2736 284.318 93.2531 284.318 93.2326C284.318 93.212 284.297 93.1847 284.263 93.1778L282.861 92.5418C282.683 92.4665 282.567 92.3434 282.512 92.1793C282.464 92.0151 282.478 91.8441 282.567 91.68C282.67 91.5158 282.806 91.4132 282.97 91.379C283.135 91.3448 283.299 91.379 283.449 91.4816L284.701 92.405C284.742 92.4323 284.769 92.4392 284.797 92.4255C284.824 92.4118 284.831 92.3844 284.817 92.3503L284.646 90.8319C284.632 90.6404 284.687 90.4762 284.803 90.3531C284.92 90.2232 285.07 90.1616 285.269 90.1616C285.446 90.1616 285.597 90.2232 285.713 90.3531C285.829 90.4831 285.87 90.6404 285.85 90.8319L285.679 92.3503C285.665 92.3913 285.672 92.4118 285.699 92.4255C285.727 92.4392 285.754 92.4255 285.795 92.405L287.047 91.5022C287.197 91.3859 287.361 91.3448 287.539 91.379C287.71 91.4132 287.84 91.509 287.936 91.68C288.052 91.8852 288.073 92.063 288.004 92.2203C287.936 92.3708 287.813 92.4802 287.649 92.5486L286.247 93.1847C286.206 93.1983 286.192 93.2189 286.192 93.2394C286.192 93.2599 286.212 93.2873 286.247 93.2941L287.649 93.9302C287.826 94.0054 287.95 94.1285 288.004 94.2927C288.059 94.4568 288.039 94.6278 287.936 94.792C287.847 94.9561 287.717 95.0587 287.539 95.0929C287.368 95.1271 287.204 95.0929 287.047 94.9903L285.795 94.067C285.754 94.0396 285.727 94.0328 285.699 94.0464C285.672 94.0601 285.665 94.0875 285.679 94.1217L285.85 95.64C285.877 95.8315 285.829 95.9957 285.706 96.1188C285.583 96.2488 285.426 96.3103 285.234 96.3103H285.227Z" fill="#67ACFF"/>
</g>
<defs>
<clipPath id="clip0_67_1241">
<rect width="300" height="227" fill="white" transform="translate(0.5 0.657959)"/>
</clipPath>
</defs>
</svg>
