<svg width="1400" height="1616" viewBox="0 0 1400 1616" fill="none" xmlns="http://www.w3.org/2000/svg">
<mask id="mask0_53_534" style="mask-type:alpha" maskUnits="userSpaceOnUse" x="0" y="0" width="1400" height="1616">
<rect y="0.996582" width="1400" height="1615" fill="#C4C4C4"/>
</mask>
<g mask="url(#mask0_53_534)">
<g opacity="0.5">
<path d="M37.8267 223.159C32.2358 219.562 24.7527 221.154 21.1321 226.781C17.535 232.371 19.1274 239.854 24.7549 243.475C30.3459 247.073 37.8289 245.481 41.4495 239.854C45.0701 234.227 43.4177 226.757 37.8267 223.159Z" fill="#F7F5F9"/>
<path d="M24.4867 28.1111C26.8619 29.6394 30.0082 28.9254 31.5128 26.5869C33.041 24.2119 32.3268 21.0656 29.9881 19.5609C27.6128 18.0326 24.4901 18.71 22.9619 21.0851C21.4573 23.4236 22.148 26.6063 24.4867 28.1111Z" fill="#F7F5F9"/>
<path d="M207.693 154.619C206.165 156.994 206.879 160.14 209.218 161.645C211.593 163.173 214.739 162.459 216.244 160.121C217.772 157.746 217.094 154.623 214.719 153.095C212.404 151.553 209.221 152.244 207.693 154.619Z" fill="#F7F5F9"/>
<path d="M89.4307 174.678C87.0555 173.149 83.9092 173.863 82.4045 176.202C80.8764 178.577 81.5906 181.723 83.9293 183.228C86.3046 184.756 89.4508 184.042 90.9554 181.704C92.4836 179.329 91.806 176.206 89.4307 174.678Z" fill="#F7F5F9"/>
<path d="M226.75 10.4857C232.341 14.0831 239.824 12.4912 243.445 6.86415C247.065 1.23707 245.449 -6.20934 239.822 -9.83021C234.231 -13.4276 226.748 -11.8357 223.127 -6.20861C219.507 -0.581534 221.159 6.88838 226.75 10.4857Z" fill="#F7F5F9"/>
<path d="M35.4501 110.484L27.4456 109.744L25.6146 129.56L33.6191 130.3L35.4501 110.484Z" fill="#F7F5F9"/>
<path d="M145.682 153.263L165.563 154.327L165.986 146.281L146.106 145.217L145.682 153.263Z" fill="#F7F5F9"/>
<path d="M166.349 199.5L158.729 202.059L165.064 220.924L172.684 218.366L166.349 199.5Z" fill="#F7F5F9"/>
<path d="M47.8922 290.843L28.019 289.779L27.5898 297.806L47.4629 298.87L47.8922 290.843Z" fill="#F7F5F9"/>
<path d="M91.6722 45.2646L71.8 44.1987L71.3701 52.2254L91.2422 53.2912L91.6722 45.2646Z" fill="#F7F5F9"/>
<path d="M14.9906 72.5828L30.0036 62.6609L25.5912 55.9468L14.5972 63.2363L0.903831 55.769L-12.1062 64.3447L-25.7996 56.8774L-38.7966 65.5131L-52.49 58.0458L-65.5 66.6215L-77.0529 60.3246L-80.9038 67.3536L-65.07 75.9914L-52.0966 67.3922L-38.4032 74.8595L-25.3931 66.2839L-11.6998 73.7512L1.29723 65.1155L14.9906 72.5828Z" fill="#F7F5F9"/>
<path d="M10.3128 198.223L-2.27041 189.352L-0.280548 173.892L-13.0465 164.903L-11.3787 151.871L-19.362 150.868L-21.6504 168.719L-8.88443 177.708L-10.8743 193.167L1.67241 202.015L10.3128 198.223Z" fill="#F7F5F9"/>
<path d="M109 99.694L124.292 96.5652L128.608 81.8271L122.264 74.9034L117.925 89.678L102.632 92.8068L98.2719 107.775L85.358 110.419L87.0052 118.299L104.64 114.662L109 99.694Z" fill="#F7F5F9"/>
<path d="M257.878 109.306L252.045 97.4928L244.822 101.009L252.8 117.199L268.368 117.657L274.29 129.734L279.368 121.842L273.446 109.765L257.878 109.306Z" fill="#F7F5F9"/>
<path d="M288.613 -6.80151L280.502 6.52776L288.371 19.7543L297.749 19.795L289.88 6.56839L297.991 -6.76089L290.023 -20.1546L296.891 -31.3906L290.013 -35.5577L280.645 -20.1952L288.613 -6.80151Z" fill="#F7F5F9"/>
<path d="M193.967 80.0673L178.549 77.69L167.829 92.1826L174.271 96.9473L182.101 86.3826L197.543 88.7233L206.837 76.2064L222.242 78.5236L231.513 66.0433L246.954 68.384L256.212 55.8436L269.249 57.8256L270.445 49.8636L252.635 47.1877L243.342 59.7045L227.96 57.3508L218.666 69.8676L203.224 67.5269L193.967 80.0673Z" fill="#F7F5F9"/>
<path d="M106.902 296.33L99.4348 282.639L108.034 269.676L100.567 255.985L109.154 242.961L101.663 229.306L108.896 218.306L102.207 213.846L92.2671 228.893L99.7576 242.547L91.1712 255.571L98.6382 269.262L90.0518 282.285L97.5423 295.94L88.9559 308.964L97.6022 324.757L104.627 320.907L98.3154 309.354L106.902 296.33Z" fill="#F7F5F9"/>
<path d="M156.411 37.2512L151.085 14.4497L143.245 16.2764L148.607 39.1014L156.411 37.2512Z" fill="#F7F5F9"/>
<path d="M77.7049 384.965L70.4631 388.453L79.0998 406.381L86.3415 402.893L77.7049 384.965Z" fill="#F7F5F9"/>
<path d="M-4.30943 516.794L-10.1193 504.944L-17.3655 508.497L-9.38769 524.687L6.18019 525.145L12.1257 537.186L17.204 529.293L11.2584 517.253L-4.30943 516.794Z" fill="#F7F5F9"/>
<path d="M26.4256 400.687L18.3142 414.016L26.2069 427.206L35.5848 427.246L27.6921 414.056L35.8034 400.727L27.835 387.333L34.7029 376.097L27.8251 371.93L18.4572 387.293L26.4256 400.687Z" fill="#F7F5F9"/>
<path d="M-68.1974 487.519L-83.6392 485.178L-94.3592 499.671L-87.9175 504.435L-80.063 493.834L-64.6447 496.211L-55.3509 483.694L-39.9456 486.012L-30.6519 473.495L-15.2335 475.872L-5.97634 463.332L7.06114 465.314L8.25721 457.352L-9.52902 454.639L-18.8228 467.156L-34.2281 464.839L-43.5218 477.356L-58.9402 474.978L-68.1974 487.519Z" fill="#F7F5F9"/>
</g>
<g opacity="0.456808">
<path fill-rule="evenodd" clip-rule="evenodd" d="M1251.76 364.587C1253.58 364.587 1255.06 363.11 1255.06 361.294C1255.06 359.472 1253.58 358 1251.76 358C1249.95 358 1248.47 359.472 1248.47 361.294C1248.47 363.11 1249.95 364.587 1251.76 364.587Z" fill="#F7F5F9"/>
<path fill-rule="evenodd" clip-rule="evenodd" d="M1284.75 364.587C1286.57 364.587 1288.05 363.11 1288.05 361.294C1288.05 359.472 1286.57 358 1284.75 358C1282.94 358 1281.46 359.472 1281.46 361.294C1281.46 363.11 1282.94 364.587 1284.75 364.587Z" fill="#F7F5F9"/>
<path fill-rule="evenodd" clip-rule="evenodd" d="M1317.74 364.587C1319.56 364.587 1321.03 363.11 1321.03 361.294C1321.03 359.472 1319.56 358 1317.74 358C1315.92 358 1314.45 359.472 1314.45 361.294C1314.45 363.11 1315.92 364.587 1317.74 364.587Z" fill="#F7F5F9"/>
<path fill-rule="evenodd" clip-rule="evenodd" d="M1350.73 364.587C1352.54 364.587 1354.02 363.11 1354.02 361.294C1354.02 359.472 1352.54 358 1350.73 358C1348.92 358 1347.43 359.472 1347.43 361.294C1347.43 363.11 1348.92 364.587 1350.73 364.587Z" fill="#F7F5F9"/>
<path fill-rule="evenodd" clip-rule="evenodd" d="M1383.72 364.587C1385.53 364.587 1387.01 363.11 1387.01 361.294C1387.01 359.472 1385.53 358 1383.72 358C1381.9 358 1380.42 359.472 1380.42 361.294C1380.42 363.11 1381.9 364.587 1383.72 364.587Z" fill="#F7F5F9"/>
<path fill-rule="evenodd" clip-rule="evenodd" d="M1251.76 397.57C1253.58 397.57 1255.06 396.098 1255.06 394.277C1255.06 392.46 1253.58 390.983 1251.76 390.983C1249.95 390.983 1248.47 392.46 1248.47 394.277C1248.47 396.098 1249.95 397.57 1251.76 397.57Z" fill="#F7F5F9"/>
<path fill-rule="evenodd" clip-rule="evenodd" d="M1284.75 397.57C1286.57 397.57 1288.05 396.098 1288.05 394.277C1288.05 392.46 1286.57 390.983 1284.75 390.983C1282.94 390.983 1281.46 392.46 1281.46 394.277C1281.46 396.098 1282.94 397.57 1284.75 397.57Z" fill="#F7F5F9"/>
<path fill-rule="evenodd" clip-rule="evenodd" d="M1317.74 397.57C1319.56 397.57 1321.03 396.098 1321.03 394.277C1321.03 392.46 1319.56 390.983 1317.74 390.983C1315.92 390.983 1314.45 392.46 1314.45 394.277C1314.45 396.098 1315.92 397.57 1317.74 397.57Z" fill="#F7F5F9"/>
<path fill-rule="evenodd" clip-rule="evenodd" d="M1350.73 397.57C1352.54 397.57 1354.02 396.098 1354.02 394.277C1354.02 392.46 1352.54 390.983 1350.73 390.983C1348.92 390.983 1347.43 392.46 1347.43 394.277C1347.43 396.098 1348.92 397.57 1350.73 397.57Z" fill="#F7F5F9"/>
<path fill-rule="evenodd" clip-rule="evenodd" d="M1383.72 397.57C1385.53 397.57 1387.01 396.098 1387.01 394.277C1387.01 392.46 1385.53 390.983 1383.72 390.983C1381.9 390.983 1380.42 392.46 1380.42 394.277C1380.42 396.098 1381.9 397.57 1383.72 397.57Z" fill="#F7F5F9"/>
<path fill-rule="evenodd" clip-rule="evenodd" d="M1251.76 430.562C1253.58 430.562 1255.06 429.09 1255.06 427.269C1255.06 425.447 1253.58 423.975 1251.76 423.975C1249.95 423.975 1248.47 425.447 1248.47 427.269C1248.47 429.09 1249.95 430.562 1251.76 430.562Z" fill="#F7F5F9"/>
<path fill-rule="evenodd" clip-rule="evenodd" d="M1284.75 430.562C1286.57 430.562 1288.05 429.09 1288.05 427.269C1288.05 425.447 1286.57 423.975 1284.75 423.975C1282.94 423.975 1281.46 425.447 1281.46 427.269C1281.46 429.09 1282.94 430.562 1284.75 430.562Z" fill="#F7F5F9"/>
<path fill-rule="evenodd" clip-rule="evenodd" d="M1317.74 430.562C1319.56 430.562 1321.03 429.09 1321.03 427.269C1321.03 425.447 1319.56 423.975 1317.74 423.975C1315.92 423.975 1314.45 425.447 1314.45 427.269C1314.45 429.09 1315.92 430.562 1317.74 430.562Z" fill="#F7F5F9"/>
<path fill-rule="evenodd" clip-rule="evenodd" d="M1350.73 430.562C1352.54 430.562 1354.02 429.09 1354.02 427.269C1354.02 425.447 1352.54 423.975 1350.73 423.975C1348.92 423.975 1347.43 425.447 1347.43 427.269C1347.43 429.09 1348.92 430.562 1350.73 430.562Z" fill="#F7F5F9"/>
<path fill-rule="evenodd" clip-rule="evenodd" d="M1383.72 430.562C1385.53 430.562 1387.01 429.09 1387.01 427.269C1387.01 425.447 1385.53 423.975 1383.72 423.975C1381.9 423.975 1380.42 425.447 1380.42 427.269C1380.42 429.09 1381.9 430.562 1383.72 430.562Z" fill="#F7F5F9"/>
<path fill-rule="evenodd" clip-rule="evenodd" d="M1251.76 463.55C1253.58 463.55 1255.06 462.073 1255.06 460.257C1255.06 458.44 1253.58 456.968 1251.76 456.968C1249.95 456.968 1248.47 458.44 1248.47 460.257C1248.47 462.073 1249.95 463.55 1251.76 463.55Z" fill="#F7F5F9"/>
<path fill-rule="evenodd" clip-rule="evenodd" d="M1284.75 463.55C1286.57 463.55 1288.05 462.073 1288.05 460.257C1288.05 458.44 1286.57 456.968 1284.75 456.968C1282.94 456.968 1281.46 458.44 1281.46 460.257C1281.46 462.073 1282.94 463.55 1284.75 463.55Z" fill="#F7F5F9"/>
<path fill-rule="evenodd" clip-rule="evenodd" d="M1317.74 463.55C1319.56 463.55 1321.03 462.073 1321.03 460.257C1321.03 458.44 1319.56 456.968 1317.74 456.968C1315.92 456.968 1314.45 458.44 1314.45 460.257C1314.45 462.073 1315.92 463.55 1317.74 463.55Z" fill="#F7F5F9"/>
<path fill-rule="evenodd" clip-rule="evenodd" d="M1350.73 463.55C1352.54 463.55 1354.02 462.073 1354.02 460.257C1354.02 458.44 1352.54 456.968 1350.73 456.968C1348.92 456.968 1347.43 458.44 1347.43 460.257C1347.43 462.073 1348.92 463.55 1350.73 463.55Z" fill="#F7F5F9"/>
<path fill-rule="evenodd" clip-rule="evenodd" d="M1383.72 463.55C1385.53 463.55 1387.01 462.073 1387.01 460.257C1387.01 458.44 1385.53 456.968 1383.72 456.968C1381.9 456.968 1380.42 458.44 1380.42 460.257C1380.42 462.073 1381.9 463.55 1383.72 463.55Z" fill="#F7F5F9"/>
<path fill-rule="evenodd" clip-rule="evenodd" d="M1251.76 496.538C1253.58 496.538 1255.06 495.065 1255.06 493.244C1255.06 491.428 1253.58 489.95 1251.76 489.95C1249.95 489.95 1248.47 491.428 1248.47 493.244C1248.47 495.065 1249.95 496.538 1251.76 496.538Z" fill="#F7F5F9"/>
<path fill-rule="evenodd" clip-rule="evenodd" d="M1284.75 496.538C1286.57 496.538 1288.05 495.065 1288.05 493.244C1288.05 491.428 1286.57 489.95 1284.75 489.95C1282.94 489.95 1281.46 491.428 1281.46 493.244C1281.46 495.065 1282.94 496.538 1284.75 496.538Z" fill="#F7F5F9"/>
<path fill-rule="evenodd" clip-rule="evenodd" d="M1317.74 496.538C1319.56 496.538 1321.03 495.065 1321.03 493.244C1321.03 491.428 1319.56 489.95 1317.74 489.95C1315.92 489.95 1314.45 491.428 1314.45 493.244C1314.45 495.065 1315.92 496.538 1317.74 496.538Z" fill="#F7F5F9"/>
<path fill-rule="evenodd" clip-rule="evenodd" d="M1350.73 496.538C1352.54 496.538 1354.02 495.065 1354.02 493.244C1354.02 491.428 1352.54 489.95 1350.73 489.95C1348.92 489.95 1347.43 491.428 1347.43 493.244C1347.43 495.065 1348.92 496.538 1350.73 496.538Z" fill="#F7F5F9"/>
<path fill-rule="evenodd" clip-rule="evenodd" d="M1383.72 496.538C1385.53 496.538 1387.01 495.065 1387.01 493.244C1387.01 491.428 1385.53 489.95 1383.72 489.95C1381.9 489.95 1380.42 491.428 1380.42 493.244C1380.42 495.065 1381.9 496.538 1383.72 496.538Z" fill="#F7F5F9"/>
<path fill-rule="evenodd" clip-rule="evenodd" d="M1251.76 529.53C1253.58 529.53 1255.06 528.058 1255.06 526.236C1255.06 524.415 1253.58 522.943 1251.76 522.943C1249.95 522.943 1248.47 524.415 1248.47 526.236C1248.47 528.058 1249.95 529.53 1251.76 529.53Z" fill="#F7F5F9"/>
<path fill-rule="evenodd" clip-rule="evenodd" d="M1284.75 529.53C1286.57 529.53 1288.05 528.058 1288.05 526.236C1288.05 524.415 1286.57 522.943 1284.75 522.943C1282.94 522.943 1281.46 524.415 1281.46 526.236C1281.46 528.058 1282.94 529.53 1284.75 529.53Z" fill="#F7F5F9"/>
<path fill-rule="evenodd" clip-rule="evenodd" d="M1317.74 529.53C1319.56 529.53 1321.03 528.058 1321.03 526.236C1321.03 524.415 1319.56 522.943 1317.74 522.943C1315.92 522.943 1314.45 524.415 1314.45 526.236C1314.45 528.058 1315.92 529.53 1317.74 529.53Z" fill="#F7F5F9"/>
<path fill-rule="evenodd" clip-rule="evenodd" d="M1350.73 529.53C1352.54 529.53 1354.02 528.058 1354.02 526.236C1354.02 524.415 1352.54 522.943 1350.73 522.943C1348.92 522.943 1347.43 524.415 1347.43 526.236C1347.43 528.058 1348.92 529.53 1350.73 529.53Z" fill="#F7F5F9"/>
<path fill-rule="evenodd" clip-rule="evenodd" d="M1383.72 529.53C1385.53 529.53 1387.01 528.058 1387.01 526.236C1387.01 524.415 1385.53 522.943 1383.72 522.943C1381.9 522.943 1380.42 524.415 1380.42 526.236C1380.42 528.058 1381.9 529.53 1383.72 529.53Z" fill="#F7F5F9"/>
<path fill-rule="evenodd" clip-rule="evenodd" d="M1251.76 562.518C1253.58 562.518 1255.06 561.041 1255.06 559.224C1255.06 557.408 1253.58 555.931 1251.76 555.931C1249.95 555.931 1248.47 557.408 1248.47 559.224C1248.47 561.041 1249.95 562.518 1251.76 562.518Z" fill="#F7F5F9"/>
<path fill-rule="evenodd" clip-rule="evenodd" d="M1284.75 562.518C1286.57 562.518 1288.05 561.041 1288.05 559.224C1288.05 557.408 1286.57 555.931 1284.75 555.931C1282.94 555.931 1281.46 557.408 1281.46 559.224C1281.46 561.041 1282.94 562.518 1284.75 562.518Z" fill="#F7F5F9"/>
<path fill-rule="evenodd" clip-rule="evenodd" d="M1317.74 562.518C1319.56 562.518 1321.03 561.041 1321.03 559.224C1321.03 557.408 1319.56 555.931 1317.74 555.931C1315.92 555.931 1314.45 557.408 1314.45 559.224C1314.45 561.041 1315.92 562.518 1317.74 562.518Z" fill="#F7F5F9"/>
<path fill-rule="evenodd" clip-rule="evenodd" d="M1350.73 562.518C1352.54 562.518 1354.02 561.041 1354.02 559.224C1354.02 557.408 1352.54 555.931 1350.73 555.931C1348.92 555.931 1347.43 557.408 1347.43 559.224C1347.43 561.041 1348.92 562.518 1350.73 562.518Z" fill="#F7F5F9"/>
<path fill-rule="evenodd" clip-rule="evenodd" d="M1383.72 562.518C1385.53 562.518 1387.01 561.041 1387.01 559.224C1387.01 557.408 1385.53 555.931 1383.72 555.931C1381.9 555.931 1380.42 557.408 1380.42 559.224C1380.42 561.041 1381.9 562.518 1383.72 562.518Z" fill="#F7F5F9"/>
<path fill-rule="evenodd" clip-rule="evenodd" d="M1251.76 595.505C1253.58 595.505 1255.06 594.033 1255.06 592.211C1255.06 590.39 1253.58 588.918 1251.76 588.918C1249.95 588.918 1248.47 590.39 1248.47 592.211C1248.47 594.033 1249.95 595.505 1251.76 595.505Z" fill="#F7F5F9"/>
<path fill-rule="evenodd" clip-rule="evenodd" d="M1284.75 595.505C1286.57 595.505 1288.05 594.033 1288.05 592.211C1288.05 590.39 1286.57 588.918 1284.75 588.918C1282.94 588.918 1281.46 590.39 1281.46 592.211C1281.46 594.033 1282.94 595.505 1284.75 595.505Z" fill="#F7F5F9"/>
<path fill-rule="evenodd" clip-rule="evenodd" d="M1317.74 595.505C1319.56 595.505 1321.03 594.033 1321.03 592.211C1321.03 590.39 1319.56 588.918 1317.74 588.918C1315.92 588.918 1314.45 590.39 1314.45 592.211C1314.45 594.033 1315.92 595.505 1317.74 595.505Z" fill="#F7F5F9"/>
<path fill-rule="evenodd" clip-rule="evenodd" d="M1350.73 595.505C1352.54 595.505 1354.02 594.033 1354.02 592.211C1354.02 590.39 1352.54 588.918 1350.73 588.918C1348.92 588.918 1347.43 590.39 1347.43 592.211C1347.43 594.033 1348.92 595.505 1350.73 595.505Z" fill="#F7F5F9"/>
<path fill-rule="evenodd" clip-rule="evenodd" d="M1383.72 595.505C1385.53 595.505 1387.01 594.033 1387.01 592.211C1387.01 590.39 1385.53 588.918 1383.72 588.918C1381.9 588.918 1380.42 590.39 1380.42 592.211C1380.42 594.033 1381.9 595.505 1383.72 595.505Z" fill="#F7F5F9"/>
<path fill-rule="evenodd" clip-rule="evenodd" d="M1251.76 628.498C1253.58 628.498 1255.06 627.021 1255.06 625.204C1255.06 623.383 1253.58 621.911 1251.76 621.911C1249.95 621.911 1248.47 623.383 1248.47 625.204C1248.47 627.021 1249.95 628.498 1251.76 628.498Z" fill="#F7F5F9"/>
<path fill-rule="evenodd" clip-rule="evenodd" d="M1284.75 628.498C1286.57 628.498 1288.05 627.021 1288.05 625.204C1288.05 623.383 1286.57 621.911 1284.75 621.911C1282.94 621.911 1281.46 623.383 1281.46 625.204C1281.46 627.021 1282.94 628.498 1284.75 628.498Z" fill="#F7F5F9"/>
<path fill-rule="evenodd" clip-rule="evenodd" d="M1317.74 628.498C1319.56 628.498 1321.03 627.021 1321.03 625.204C1321.03 623.383 1319.56 621.911 1317.74 621.911C1315.92 621.911 1314.45 623.383 1314.45 625.204C1314.45 627.021 1315.92 628.498 1317.74 628.498Z" fill="#F7F5F9"/>
<path fill-rule="evenodd" clip-rule="evenodd" d="M1350.73 628.498C1352.54 628.498 1354.02 627.021 1354.02 625.204C1354.02 623.383 1352.54 621.911 1350.73 621.911C1348.92 621.911 1347.43 623.383 1347.43 625.204C1347.43 627.021 1348.92 628.498 1350.73 628.498Z" fill="#F7F5F9"/>
<path fill-rule="evenodd" clip-rule="evenodd" d="M1383.72 628.498C1385.53 628.498 1387.01 627.021 1387.01 625.204C1387.01 623.383 1385.53 621.911 1383.72 621.911C1381.9 621.911 1380.42 623.383 1380.42 625.204C1380.42 627.021 1381.9 628.498 1383.72 628.498Z" fill="#F7F5F9"/>
<path fill-rule="evenodd" clip-rule="evenodd" d="M1251.76 661.481C1253.58 661.481 1255.06 660.009 1255.06 658.187C1255.06 656.376 1253.58 654.894 1251.76 654.894C1249.95 654.894 1248.47 656.376 1248.47 658.187C1248.47 660.009 1249.95 661.481 1251.76 661.481Z" fill="#F7F5F9"/>
<path fill-rule="evenodd" clip-rule="evenodd" d="M1284.75 661.481C1286.57 661.481 1288.05 660.009 1288.05 658.187C1288.05 656.376 1286.57 654.894 1284.75 654.894C1282.94 654.894 1281.46 656.376 1281.46 658.187C1281.46 660.009 1282.94 661.481 1284.75 661.481Z" fill="#F7F5F9"/>
<path fill-rule="evenodd" clip-rule="evenodd" d="M1317.74 661.481C1319.56 661.481 1321.03 660.009 1321.03 658.187C1321.03 656.376 1319.56 654.894 1317.74 654.894C1315.92 654.894 1314.45 656.376 1314.45 658.187C1314.45 660.009 1315.92 661.481 1317.74 661.481Z" fill="#F7F5F9"/>
<path fill-rule="evenodd" clip-rule="evenodd" d="M1350.73 661.481C1352.54 661.481 1354.02 660.009 1354.02 658.187C1354.02 656.376 1352.54 654.894 1350.73 654.894C1348.92 654.894 1347.43 656.376 1347.43 658.187C1347.43 660.009 1348.92 661.481 1350.73 661.481Z" fill="#F7F5F9"/>
<path fill-rule="evenodd" clip-rule="evenodd" d="M1383.72 661.481C1385.53 661.481 1387.01 660.009 1387.01 658.187C1387.01 656.376 1385.53 654.894 1383.72 654.894C1381.9 654.894 1380.42 656.376 1380.42 658.187C1380.42 660.009 1381.9 661.481 1383.72 661.481Z" fill="#F7F5F9"/>
<path fill-rule="evenodd" clip-rule="evenodd" d="M1251.76 694.473C1253.58 694.473 1255.06 693.001 1255.06 691.18C1255.06 689.358 1253.58 687.886 1251.76 687.886C1249.95 687.886 1248.47 689.358 1248.47 691.18C1248.47 693.001 1249.95 694.473 1251.76 694.473Z" fill="#F7F5F9"/>
<path fill-rule="evenodd" clip-rule="evenodd" d="M1284.75 694.473C1286.57 694.473 1288.05 693.001 1288.05 691.18C1288.05 689.358 1286.57 687.886 1284.75 687.886C1282.94 687.886 1281.46 689.358 1281.46 691.18C1281.46 693.001 1282.94 694.473 1284.75 694.473Z" fill="#F7F5F9"/>
<path fill-rule="evenodd" clip-rule="evenodd" d="M1317.74 694.473C1319.56 694.473 1321.03 693.001 1321.03 691.18C1321.03 689.358 1319.56 687.886 1317.74 687.886C1315.92 687.886 1314.45 689.358 1314.45 691.18C1314.45 693.001 1315.92 694.473 1317.74 694.473Z" fill="#F7F5F9"/>
<path fill-rule="evenodd" clip-rule="evenodd" d="M1350.73 694.473C1352.54 694.473 1354.02 693.001 1354.02 691.18C1354.02 689.358 1352.54 687.886 1350.73 687.886C1348.92 687.886 1347.43 689.358 1347.43 691.18C1347.43 693.001 1348.92 694.473 1350.73 694.473Z" fill="#F7F5F9"/>
<path fill-rule="evenodd" clip-rule="evenodd" d="M1383.72 694.473C1385.53 694.473 1387.01 693.001 1387.01 691.18C1387.01 689.358 1385.53 687.886 1383.72 687.886C1381.9 687.886 1380.42 689.358 1380.42 691.18C1380.42 693.001 1381.9 694.473 1383.72 694.473Z" fill="#F7F5F9"/>
<path fill-rule="evenodd" clip-rule="evenodd" d="M1251.76 727.461C1253.58 727.461 1255.06 725.983 1255.06 724.172C1255.06 722.351 1253.58 720.878 1251.76 720.878C1249.95 720.878 1248.47 722.351 1248.47 724.172C1248.47 725.983 1249.95 727.461 1251.76 727.461Z" fill="#F7F5F9"/>
<path fill-rule="evenodd" clip-rule="evenodd" d="M1284.75 727.461C1286.57 727.461 1288.05 725.983 1288.05 724.172C1288.05 722.351 1286.57 720.878 1284.75 720.878C1282.94 720.878 1281.46 722.351 1281.46 724.172C1281.46 725.983 1282.94 727.461 1284.75 727.461Z" fill="#F7F5F9"/>
<path fill-rule="evenodd" clip-rule="evenodd" d="M1317.74 727.461C1319.56 727.461 1321.03 725.983 1321.03 724.172C1321.03 722.351 1319.56 720.878 1317.74 720.878C1315.92 720.878 1314.45 722.351 1314.45 724.172C1314.45 725.983 1315.92 727.461 1317.74 727.461Z" fill="#F7F5F9"/>
<path fill-rule="evenodd" clip-rule="evenodd" d="M1350.73 727.461C1352.54 727.461 1354.02 725.983 1354.02 724.172C1354.02 722.351 1352.54 720.878 1350.73 720.878C1348.92 720.878 1347.43 722.351 1347.43 724.172C1347.43 725.983 1348.92 727.461 1350.73 727.461Z" fill="#F7F5F9"/>
<path fill-rule="evenodd" clip-rule="evenodd" d="M1383.72 727.461C1385.53 727.461 1387.01 725.983 1387.01 724.172C1387.01 722.351 1385.53 720.878 1383.72 720.878C1381.9 720.878 1380.42 722.351 1380.42 724.172C1380.42 725.983 1381.9 727.461 1383.72 727.461Z" fill="#F7F5F9"/>
<path fill-rule="evenodd" clip-rule="evenodd" d="M1251.76 760.448C1253.58 760.448 1255.06 758.976 1255.06 757.155C1255.06 755.338 1253.58 753.861 1251.76 753.861C1249.95 753.861 1248.47 755.338 1248.47 757.155C1248.47 758.976 1249.95 760.448 1251.76 760.448Z" fill="#F7F5F9"/>
<path fill-rule="evenodd" clip-rule="evenodd" d="M1284.75 760.448C1286.57 760.448 1288.05 758.976 1288.05 757.155C1288.05 755.338 1286.57 753.861 1284.75 753.861C1282.94 753.861 1281.46 755.338 1281.46 757.155C1281.46 758.976 1282.94 760.448 1284.75 760.448Z" fill="#F7F5F9"/>
<path fill-rule="evenodd" clip-rule="evenodd" d="M1317.74 760.448C1319.56 760.448 1321.03 758.976 1321.03 757.155C1321.03 755.338 1319.56 753.861 1317.74 753.861C1315.92 753.861 1314.45 755.338 1314.45 757.155C1314.45 758.976 1315.92 760.448 1317.74 760.448Z" fill="#F7F5F9"/>
<path fill-rule="evenodd" clip-rule="evenodd" d="M1350.73 760.448C1352.54 760.448 1354.02 758.976 1354.02 757.155C1354.02 755.338 1352.54 753.861 1350.73 753.861C1348.92 753.861 1347.43 755.338 1347.43 757.155C1347.43 758.976 1348.92 760.448 1350.73 760.448Z" fill="#F7F5F9"/>
<path fill-rule="evenodd" clip-rule="evenodd" d="M1383.72 760.448C1385.53 760.448 1387.01 758.976 1387.01 757.155C1387.01 755.338 1385.53 753.861 1383.72 753.861C1381.9 753.861 1380.42 755.338 1380.42 757.155C1380.42 758.976 1381.9 760.448 1383.72 760.448Z" fill="#F7F5F9"/>
<path fill-rule="evenodd" clip-rule="evenodd" d="M1251.76 793.441C1253.58 793.441 1255.06 791.969 1255.06 790.147C1255.06 788.326 1253.58 786.854 1251.76 786.854C1249.95 786.854 1248.47 788.326 1248.47 790.147C1248.47 791.969 1249.95 793.441 1251.76 793.441Z" fill="#F7F5F9"/>
<path fill-rule="evenodd" clip-rule="evenodd" d="M1284.75 793.441C1286.57 793.441 1288.05 791.969 1288.05 790.147C1288.05 788.326 1286.57 786.854 1284.75 786.854C1282.94 786.854 1281.46 788.326 1281.46 790.147C1281.46 791.969 1282.94 793.441 1284.75 793.441Z" fill="#F7F5F9"/>
<path fill-rule="evenodd" clip-rule="evenodd" d="M1317.74 793.441C1319.56 793.441 1321.03 791.969 1321.03 790.147C1321.03 788.326 1319.56 786.854 1317.74 786.854C1315.92 786.854 1314.45 788.326 1314.45 790.147C1314.45 791.969 1315.92 793.441 1317.74 793.441Z" fill="#F7F5F9"/>
<path fill-rule="evenodd" clip-rule="evenodd" d="M1350.73 793.441C1352.54 793.441 1354.02 791.969 1354.02 790.147C1354.02 788.326 1352.54 786.854 1350.73 786.854C1348.92 786.854 1347.43 788.326 1347.43 790.147C1347.43 791.969 1348.92 793.441 1350.73 793.441Z" fill="#F7F5F9"/>
<path fill-rule="evenodd" clip-rule="evenodd" d="M1383.72 793.441C1385.53 793.441 1387.01 791.969 1387.01 790.147C1387.01 788.326 1385.53 786.854 1383.72 786.854C1381.9 786.854 1380.42 788.326 1380.42 790.147C1380.42 791.969 1381.9 793.441 1383.72 793.441Z" fill="#F7F5F9"/>
<path fill-rule="evenodd" clip-rule="evenodd" d="M1251.76 826.428C1253.58 826.428 1255.06 824.951 1255.06 823.135C1255.06 821.318 1253.58 819.841 1251.76 819.841C1249.95 819.841 1248.47 821.318 1248.47 823.135C1248.47 824.951 1249.95 826.428 1251.76 826.428Z" fill="#F7F5F9"/>
<path fill-rule="evenodd" clip-rule="evenodd" d="M1284.75 826.428C1286.57 826.428 1288.05 824.951 1288.05 823.135C1288.05 821.318 1286.57 819.841 1284.75 819.841C1282.94 819.841 1281.46 821.318 1281.46 823.135C1281.46 824.951 1282.94 826.428 1284.75 826.428Z" fill="#F7F5F9"/>
<path fill-rule="evenodd" clip-rule="evenodd" d="M1317.74 826.428C1319.56 826.428 1321.03 824.951 1321.03 823.135C1321.03 821.318 1319.56 819.841 1317.74 819.841C1315.92 819.841 1314.45 821.318 1314.45 823.135C1314.45 824.951 1315.92 826.428 1317.74 826.428Z" fill="#F7F5F9"/>
<path fill-rule="evenodd" clip-rule="evenodd" d="M1350.73 826.428C1352.54 826.428 1354.02 824.951 1354.02 823.135C1354.02 821.318 1352.54 819.841 1350.73 819.841C1348.92 819.841 1347.43 821.318 1347.43 823.135C1347.43 824.951 1348.92 826.428 1350.73 826.428Z" fill="#F7F5F9"/>
<path fill-rule="evenodd" clip-rule="evenodd" d="M1383.72 826.428C1385.53 826.428 1387.01 824.951 1387.01 823.135C1387.01 821.318 1385.53 819.841 1383.72 819.841C1381.9 819.841 1380.42 821.318 1380.42 823.135C1380.42 824.951 1381.9 826.428 1383.72 826.428Z" fill="#F7F5F9"/>
<path fill-rule="evenodd" clip-rule="evenodd" d="M1251.76 859.416C1253.58 859.416 1255.06 857.944 1255.06 856.122C1255.06 854.301 1253.58 852.829 1251.76 852.829C1249.95 852.829 1248.47 854.301 1248.47 856.122C1248.47 857.944 1249.95 859.416 1251.76 859.416Z" fill="#F7F5F9"/>
<path fill-rule="evenodd" clip-rule="evenodd" d="M1284.75 859.416C1286.57 859.416 1288.05 857.944 1288.05 856.122C1288.05 854.301 1286.57 852.829 1284.75 852.829C1282.94 852.829 1281.46 854.301 1281.46 856.122C1281.46 857.944 1282.94 859.416 1284.75 859.416Z" fill="#F7F5F9"/>
<path fill-rule="evenodd" clip-rule="evenodd" d="M1317.74 859.416C1319.56 859.416 1321.03 857.944 1321.03 856.122C1321.03 854.301 1319.56 852.829 1317.74 852.829C1315.92 852.829 1314.45 854.301 1314.45 856.122C1314.45 857.944 1315.92 859.416 1317.74 859.416Z" fill="#F7F5F9"/>
<path fill-rule="evenodd" clip-rule="evenodd" d="M1350.73 859.416C1352.54 859.416 1354.02 857.944 1354.02 856.122C1354.02 854.301 1352.54 852.829 1350.73 852.829C1348.92 852.829 1347.43 854.301 1347.43 856.122C1347.43 857.944 1348.92 859.416 1350.73 859.416Z" fill="#F7F5F9"/>
<path fill-rule="evenodd" clip-rule="evenodd" d="M1383.72 859.416C1385.53 859.416 1387.01 857.944 1387.01 856.122C1387.01 854.301 1385.53 852.829 1383.72 852.829C1381.9 852.829 1380.42 854.301 1380.42 856.122C1380.42 857.944 1381.9 859.416 1383.72 859.416Z" fill="#F7F5F9"/>
<path fill-rule="evenodd" clip-rule="evenodd" d="M1251.76 892.409C1253.58 892.409 1255.06 890.932 1255.06 889.115C1255.06 887.294 1253.58 885.822 1251.76 885.822C1249.95 885.822 1248.47 887.294 1248.47 889.115C1248.47 890.932 1249.95 892.409 1251.76 892.409Z" fill="#F7F5F9"/>
<path fill-rule="evenodd" clip-rule="evenodd" d="M1284.75 892.409C1286.57 892.409 1288.05 890.932 1288.05 889.115C1288.05 887.294 1286.57 885.822 1284.75 885.822C1282.94 885.822 1281.46 887.294 1281.46 889.115C1281.46 890.932 1282.94 892.409 1284.75 892.409Z" fill="#F7F5F9"/>
<path fill-rule="evenodd" clip-rule="evenodd" d="M1317.74 892.409C1319.56 892.409 1321.03 890.932 1321.03 889.115C1321.03 887.294 1319.56 885.822 1317.74 885.822C1315.92 885.822 1314.45 887.294 1314.45 889.115C1314.45 890.932 1315.92 892.409 1317.74 892.409Z" fill="#F7F5F9"/>
<path fill-rule="evenodd" clip-rule="evenodd" d="M1350.73 892.409C1352.54 892.409 1354.02 890.932 1354.02 889.115C1354.02 887.294 1352.54 885.822 1350.73 885.822C1348.92 885.822 1347.43 887.294 1347.43 889.115C1347.43 890.932 1348.92 892.409 1350.73 892.409Z" fill="#F7F5F9"/>
<path fill-rule="evenodd" clip-rule="evenodd" d="M1383.72 892.409C1385.53 892.409 1387.01 890.932 1387.01 889.115C1387.01 887.294 1385.53 885.822 1383.72 885.822C1381.9 885.822 1380.42 887.294 1380.42 889.115C1380.42 890.932 1381.9 892.409 1383.72 892.409Z" fill="#F7F5F9"/>
<path fill-rule="evenodd" clip-rule="evenodd" d="M1251.76 925.391C1253.58 925.391 1255.06 923.919 1255.06 922.097C1255.06 920.286 1253.58 918.804 1251.76 918.804C1249.95 918.804 1248.47 920.286 1248.47 922.097C1248.47 923.919 1249.95 925.391 1251.76 925.391Z" fill="#F7F5F9"/>
<path fill-rule="evenodd" clip-rule="evenodd" d="M1284.75 925.391C1286.57 925.391 1288.05 923.919 1288.05 922.097C1288.05 920.286 1286.57 918.804 1284.75 918.804C1282.94 918.804 1281.46 920.286 1281.46 922.097C1281.46 923.919 1282.94 925.391 1284.75 925.391Z" fill="#F7F5F9"/>
<path fill-rule="evenodd" clip-rule="evenodd" d="M1317.74 925.391C1319.56 925.391 1321.03 923.919 1321.03 922.097C1321.03 920.286 1319.56 918.804 1317.74 918.804C1315.92 918.804 1314.45 920.286 1314.45 922.097C1314.45 923.919 1315.92 925.391 1317.74 925.391Z" fill="#F7F5F9"/>
<path fill-rule="evenodd" clip-rule="evenodd" d="M1350.73 925.391C1352.54 925.391 1354.02 923.919 1354.02 922.097C1354.02 920.286 1352.54 918.804 1350.73 918.804C1348.92 918.804 1347.43 920.286 1347.43 922.097C1347.43 923.919 1348.92 925.391 1350.73 925.391Z" fill="#F7F5F9"/>
<path fill-rule="evenodd" clip-rule="evenodd" d="M1383.72 925.391C1385.53 925.391 1387.01 923.919 1387.01 922.097C1387.01 920.286 1385.53 918.804 1383.72 918.804C1381.9 918.804 1380.42 920.286 1380.42 922.097C1380.42 923.919 1381.9 925.391 1383.72 925.391Z" fill="#F7F5F9"/>
<path fill-rule="evenodd" clip-rule="evenodd" d="M1251.76 958.384C1253.58 958.384 1255.06 956.912 1255.06 955.09C1255.06 953.269 1253.58 951.797 1251.76 951.797C1249.95 951.797 1248.47 953.269 1248.47 955.09C1248.47 956.912 1249.95 958.384 1251.76 958.384Z" fill="#F7F5F9"/>
<path fill-rule="evenodd" clip-rule="evenodd" d="M1284.75 958.384C1286.57 958.384 1288.05 956.912 1288.05 955.09C1288.05 953.269 1286.57 951.797 1284.75 951.797C1282.94 951.797 1281.46 953.269 1281.46 955.09C1281.46 956.912 1282.94 958.384 1284.75 958.384Z" fill="#F7F5F9"/>
<path fill-rule="evenodd" clip-rule="evenodd" d="M1317.74 958.384C1319.56 958.384 1321.03 956.912 1321.03 955.09C1321.03 953.269 1319.56 951.797 1317.74 951.797C1315.92 951.797 1314.45 953.269 1314.45 955.09C1314.45 956.912 1315.92 958.384 1317.74 958.384Z" fill="#F7F5F9"/>
<path fill-rule="evenodd" clip-rule="evenodd" d="M1350.73 958.384C1352.54 958.384 1354.02 956.912 1354.02 955.09C1354.02 953.269 1352.54 951.797 1350.73 951.797C1348.92 951.797 1347.43 953.269 1347.43 955.09C1347.43 956.912 1348.92 958.384 1350.73 958.384Z" fill="#F7F5F9"/>
<path fill-rule="evenodd" clip-rule="evenodd" d="M1383.72 958.384C1385.53 958.384 1387.01 956.912 1387.01 955.09C1387.01 953.269 1385.53 951.797 1383.72 951.797C1381.9 951.797 1380.42 953.269 1380.42 955.09C1380.42 956.912 1381.9 958.384 1383.72 958.384Z" fill="#F7F5F9"/>
<mask id="mask1_53_534" style="mask-type:luminance" maskUnits="userSpaceOnUse" x="-20" y="1173" width="207" height="16">
<path fill-rule="evenodd" clip-rule="evenodd" d="M-19.9995 1173.7H186.39V1188.87H-19.9995V1173.7Z" fill="white"/>
</mask>
<g mask="url(#mask1_53_534)">
<path fill-rule="evenodd" clip-rule="evenodd" d="M111.972 1173.7H111.978C118.156 1173.7 123.934 1175.88 128.247 1179.84C131.572 1182.89 135.992 1184.56 140.699 1184.56C145.406 1184.56 149.832 1182.89 153.158 1179.84C157.476 1175.88 163.26 1173.7 169.438 1173.7H169.45C175.629 1173.7 181.407 1175.88 185.719 1179.84C186.676 1180.72 186.604 1182.09 185.54 1182.89C184.487 1183.68 182.848 1183.62 181.891 1182.74C178.572 1179.69 174.152 1178.01 169.45 1178.01H169.438C164.737 1178.01 160.311 1179.69 156.98 1182.74C152.661 1186.7 146.878 1188.87 140.699 1188.87C134.515 1188.87 128.737 1186.7 124.419 1182.74C121.099 1179.69 116.685 1178.01 111.978 1178.01H111.972C107.265 1178.01 102.839 1179.69 99.5073 1182.74C95.189 1186.7 89.4112 1188.87 83.2267 1188.87H83.2208C77.0423 1188.87 71.2585 1186.7 66.9402 1182.74C60.2832 1176.64 48.6739 1176.64 42.005 1182.74C37.6926 1186.7 31.9029 1188.87 25.7184 1188.87C19.5339 1188.87 13.7442 1186.7 9.42586 1182.74C6.10635 1179.69 1.68033 1178.01 -3.03279 1178.01H-3.03877C-7.7459 1178.01 -12.1719 1179.69 -15.5034 1182.74C-16.4723 1183.62 -18.1052 1183.69 -19.1579 1182.88C-20.2105 1182.08 -20.2883 1180.71 -19.3253 1179.84C-15.001 1175.88 -9.21725 1173.7 -3.03877 1173.7H-3.03279C3.15168 1173.7 8.93541 1175.88 13.2598 1179.84C16.5793 1182.89 21.0053 1184.56 25.7184 1184.56C30.4315 1184.56 34.8575 1182.89 38.189 1179.84C46.8257 1171.93 62.1254 1171.93 70.7621 1179.84C74.0936 1182.89 78.5136 1184.56 83.2208 1184.56H83.2267C87.9339 1184.56 92.3539 1182.89 95.6914 1179.84C100.01 1175.88 105.787 1173.7 111.972 1173.7Z" fill="#F7F5F9"/>
</g>
<path fill-rule="evenodd" clip-rule="evenodd" d="M111.972 1209H111.978C118.157 1209 123.934 1211.18 128.247 1215.14C131.572 1218.19 135.992 1219.86 140.699 1219.86C145.407 1219.86 149.833 1218.19 153.158 1215.14C157.476 1211.18 163.26 1209 169.439 1209H169.451C175.629 1209 181.407 1211.18 185.719 1215.14C186.676 1216.02 186.604 1217.39 185.54 1218.19C184.487 1218.98 182.848 1218.92 181.891 1218.04C178.572 1214.99 174.152 1213.32 169.451 1213.32H169.439C164.738 1213.32 160.311 1214.99 156.98 1218.04C152.662 1222 146.878 1224.17 140.699 1224.17C134.515 1224.17 128.737 1222 124.419 1218.04C121.099 1214.99 116.685 1213.32 111.978 1213.32H111.972C107.265 1213.32 102.839 1214.99 99.5076 1218.04C95.1892 1222 89.4115 1224.17 83.227 1224.17H83.221C77.0425 1224.17 71.2588 1222 66.9404 1218.04C60.2835 1211.94 48.6741 1211.94 42.0052 1218.04C37.6928 1222 31.9031 1224.17 25.7186 1224.17C19.5342 1224.17 13.7445 1222 9.42611 1218.04C6.10659 1214.99 1.68057 1213.32 -3.03254 1213.32H-3.03852C-7.74565 1213.32 -12.1717 1214.99 -15.5032 1218.04C-16.4721 1218.92 -18.1049 1218.99 -19.1576 1218.18C-20.2103 1217.38 -20.288 1216.02 -19.3251 1215.14C-15.0007 1211.18 -9.21701 1209 -3.03852 1209H-3.03254C3.15192 1209 8.93565 1211.18 13.26 1215.14C16.5795 1218.19 21.0055 1219.86 25.7186 1219.86C30.4318 1219.86 34.8578 1218.19 38.1892 1215.14C46.826 1207.23 62.1256 1207.23 70.7624 1215.14C74.0938 1218.19 78.5139 1219.86 83.221 1219.86H83.227C87.9341 1219.86 92.3542 1218.19 95.6916 1215.14C100.01 1211.18 105.788 1209 111.972 1209Z" fill="#F7F5F9"/>
<path fill-rule="evenodd" clip-rule="evenodd" d="M111.972 1244.17H111.978C118.157 1244.17 123.934 1246.35 128.247 1250.31C131.572 1253.36 135.992 1255.04 140.699 1255.04C145.407 1255.04 149.833 1253.36 153.158 1250.31C157.476 1246.35 163.26 1244.17 169.439 1244.17H169.451C175.629 1244.17 181.407 1246.35 185.719 1250.31C186.676 1251.19 186.604 1252.56 185.54 1253.36C184.487 1254.15 182.848 1254.09 181.891 1253.21C178.572 1250.17 174.152 1248.49 169.451 1248.49H169.439C164.738 1248.49 160.311 1250.17 156.98 1253.21C152.662 1257.17 146.878 1259.35 140.699 1259.35C134.515 1259.35 128.737 1257.17 124.419 1253.21C121.099 1250.17 116.685 1248.49 111.978 1248.49H111.972C107.265 1248.49 102.839 1250.17 99.5076 1253.21C95.1892 1257.17 89.4115 1259.35 83.227 1259.35H83.221C77.0425 1259.35 71.2588 1257.17 66.9404 1253.21C60.2835 1247.12 48.6741 1247.12 42.0052 1253.21C37.6928 1257.17 31.9031 1259.35 25.7186 1259.35C19.5342 1259.35 13.7445 1257.17 9.42611 1253.21C6.10659 1250.17 1.68057 1248.49 -3.03254 1248.49H-3.03852C-7.74565 1248.49 -12.1717 1250.17 -15.5032 1253.21C-16.4721 1254.09 -18.1049 1254.16 -19.1576 1253.35C-20.2103 1252.56 -20.288 1251.19 -19.3251 1250.31C-15.0007 1246.35 -9.21701 1244.17 -3.03852 1244.17H-3.03254C3.15192 1244.17 8.93565 1246.35 13.26 1250.31C16.5795 1253.36 21.0055 1255.04 25.7186 1255.04C30.4318 1255.04 34.8578 1253.36 38.1892 1250.31C46.826 1242.4 62.1256 1242.4 70.7624 1250.31C74.0938 1253.36 78.5139 1255.04 83.221 1255.04H83.227C87.9341 1255.04 92.3542 1253.36 95.6916 1250.31C100.01 1246.35 105.788 1244.17 111.972 1244.17Z" fill="#F7F5F9"/>
</g>
</g>
</svg>
