<svg width="200" height="201" viewBox="0 0 200 201" fill="none" xmlns="http://www.w3.org/2000/svg">
<rect width="200" height="200" transform="translate(0 0.877441)" fill="white"/>
<path d="M76.4196 55.6294V52.6774H73.6476V55.6294H71.8836C67.8516 55.6294 66.0516 57.9334 66.0516 61.9294V68.8054C66.0516 72.8014 67.8516 75.1054 71.8836 75.1054H73.6476V77.8774H76.4196V75.1054H78.1836C82.2156 75.1054 84.0156 72.8014 84.0156 68.8054V61.9294C84.0156 57.9334 82.2156 55.6294 78.1836 55.6294H76.4196ZM73.6476 58.1134V72.6574H71.8836C69.7596 72.6574 68.8236 71.3974 68.8236 68.9854V61.7494C68.8236 59.3374 69.7596 58.1134 71.8836 58.1134H73.6476ZM76.4196 72.6574V58.1134H78.1836C80.3436 58.1134 81.2796 59.3374 81.2796 61.7494V68.9854C81.2796 71.3974 80.3076 72.6574 78.1836 72.6574H76.4196ZM87.2677 71.7934C87.2677 75.6094 89.1757 78.1294 93.0277 78.1294C96.9157 78.1294 98.8237 75.6094 98.8237 71.7934V58.7614C98.8237 54.9094 96.9157 52.4254 93.0277 52.4254C89.1757 52.4254 87.2677 54.9094 87.2677 58.7614V71.7934ZM90.0397 58.6174C90.0397 56.3494 91.0117 54.9814 93.0277 54.9814C95.0797 54.9814 96.0157 56.3494 96.0157 58.6174V71.9374C96.0157 74.2414 95.0797 75.5734 93.0277 75.5734C91.0117 75.5734 90.0397 74.2414 90.0397 71.9374V58.6174ZM108.856 77.8774V55.2334H113.5V52.6774H101.404V55.2334H106.048V77.8774H108.856ZM116.094 71.7934C116.094 75.6094 118.002 78.1294 121.854 78.1294C125.742 78.1294 127.65 75.6094 127.65 71.7934V58.7614C127.65 54.9094 125.742 52.4254 121.854 52.4254C118.002 52.4254 116.094 54.9094 116.094 58.7614V71.7934ZM118.866 58.6174C118.866 56.3494 119.838 54.9814 121.854 54.9814C123.906 54.9814 124.842 56.3494 124.842 58.6174V71.9374C124.842 74.2414 123.906 75.5734 121.854 75.5734C119.838 75.5734 118.866 74.2414 118.866 71.9374V58.6174ZM51.1954 89.8254V109.877H53.7154V84.6774H50.5834L46.9114 95.5134L44.3194 103.469V84.6774H41.8354V109.877H44.7514L48.4954 98.1774L51.1954 89.8254ZM67.4739 87.2334V109.877H70.2819V84.6774H60.0219L59.3379 103.757C59.2659 106.169 58.8699 107.357 56.5299 107.357V109.913H56.9979C60.8499 109.877 61.9299 107.609 62.0739 103.613L62.6499 87.2334H67.4739ZM83.362 89.8254V109.877H85.882V84.6774H82.75L79.078 95.5134L76.486 103.469V84.6774H74.002V109.877H76.918L80.662 98.1774L83.362 89.8254ZM105.95 87.2334V109.877H108.758V84.6774H98.4983L97.8143 103.757C97.7423 106.169 97.3463 107.357 95.0063 107.357V109.913H95.4743C99.3263 109.877 100.406 107.609 100.55 103.613L101.126 87.2334H105.95ZM112.262 103.793C112.262 107.609 114.17 110.129 118.022 110.129C121.91 110.129 123.818 107.609 123.818 103.793V90.7614C123.818 86.9094 121.91 84.4254 118.022 84.4254C114.17 84.4254 112.262 86.9094 112.262 90.7614V103.793ZM115.034 90.6174C115.034 88.3494 116.006 86.9814 118.022 86.9814C120.074 86.9814 121.01 88.3494 121.01 90.6174V103.937C121.01 106.241 120.074 107.573 118.022 107.573C116.006 107.573 115.034 106.241 115.034 103.937V90.6174ZM137.271 87.2334V84.6774H127.227V109.877H129.999V87.2334H137.271ZM140.527 103.793C140.527 107.609 142.435 110.129 146.287 110.129C150.175 110.129 152.083 107.609 152.083 103.793V90.7614C152.083 86.9094 150.175 84.4254 146.287 84.4254C142.435 84.4254 140.527 86.9094 140.527 90.7614V103.793ZM143.299 90.6174C143.299 88.3494 144.271 86.9814 146.287 86.9814C148.339 86.9814 149.275 88.3494 149.275 90.6174V103.937C149.275 106.241 148.339 107.573 146.287 107.573C144.271 107.573 143.299 106.241 143.299 103.937V90.6174ZM36.4832 130.537V141.877H39.2912V116.677H36.4832V128.017H30.2912V116.677H27.4832V141.877H30.2912V130.537H36.4832ZM45.7065 127.837V119.233H53.2665V116.677H42.8985V141.877H53.2665V139.321H45.7065V130.357H51.8625V127.837H45.7065ZM71.901 130.537V141.877H74.709V116.677H71.901V128.017H65.709V116.677H62.901V141.877H65.709V130.537H71.901ZM87.5323 136.801L88.5043 141.877H91.3123L86.4883 116.677H82.4203L77.5963 141.877H80.1883L81.1603 136.801H87.5323ZM84.2923 119.845L87.1363 134.389H81.5203L84.2923 119.845ZM94.2238 116.677V141.877H112.26V116.677H109.488V139.321H104.664V116.677H101.856V139.321H97.0318V116.677H94.2238ZM126.05 119.233V141.877H128.858V116.677H118.598L117.914 135.757C117.842 138.169 117.446 139.357 115.106 139.357V141.913H115.574C119.426 141.877 120.506 139.609 120.65 135.613L121.226 119.233H126.05ZM132.362 135.793C132.362 139.609 134.27 142.129 138.122 142.129C142.01 142.129 143.918 139.609 143.918 135.793V122.761C143.918 118.909 142.01 116.425 138.122 116.425C134.27 116.425 132.362 118.909 132.362 122.761V135.793ZM135.134 122.617C135.134 120.349 136.106 118.981 138.122 118.981C140.174 118.981 141.11 120.349 141.11 122.617V135.937C141.11 138.241 140.174 139.573 138.122 139.573C136.106 139.573 135.134 138.241 135.134 135.937V122.617ZM152.726 116.425C148.874 116.425 147.074 118.945 147.074 122.761V135.793C147.074 139.609 148.874 142.129 152.726 142.129C156.614 142.129 158.414 139.609 158.414 135.793V132.661H155.75V135.937C155.75 138.205 154.85 139.573 152.798 139.573C150.782 139.573 149.846 138.205 149.846 135.937V122.617C149.846 120.349 150.782 118.981 152.798 118.981C154.85 118.981 155.75 120.349 155.75 122.617V125.029H158.414V122.761C158.414 118.945 156.614 116.425 152.726 116.425ZM164.494 126.613V116.677H161.686V141.877H167.194C171.118 141.877 172.846 139.537 172.846 135.721V132.697C172.846 128.701 170.974 126.613 166.978 126.613H164.494ZM164.494 139.321V129.133H166.978C169.066 129.133 170.074 130.069 170.074 132.517V135.865C170.074 138.169 169.246 139.321 167.194 139.321H164.494Z" fill="#4F4F4F"/>
</svg>
