<svg width="200" height="47" viewBox="0 0 200 47" fill="none" xmlns="http://www.w3.org/2000/svg">
<g clip-path="url(#clip0_139_3159)">
<mask id="mask0_139_3159" style="mask-type:luminance" maskUnits="userSpaceOnUse" x="0" y="0" width="200" height="46">
<path d="M199.972 0.152588H0V45.9952H199.972V0.152588Z" fill="white"/>
</mask>
<g mask="url(#mask0_139_3159)">
<path d="M37.492 1.6881C39.2989 1.69013 41.0311 2.4088 42.3088 3.68643C43.5864 4.96408 44.3051 6.69634 44.3071 8.5032V37.6446C44.3051 39.4515 43.5864 41.1837 42.3088 42.4614C41.0311 43.739 39.2989 44.4576 37.492 44.4597H8.35061C6.54375 44.4576 4.81149 43.739 3.53385 42.4614C2.25621 41.1837 1.53754 39.4515 1.53551 37.6446V8.5032C1.53754 6.69634 2.25621 4.96408 3.53385 3.68643C4.81149 2.4088 6.54375 1.69013 8.35061 1.6881H37.492ZM37.492 0.152588H8.35061C6.13589 0.152588 4.01187 1.03238 2.44584 2.59842C0.879794 4.16446 0 6.28848 0 8.5032V37.6446C0 39.8593 0.879794 41.9833 2.44584 43.5494C4.01187 45.1154 6.13589 45.9952 8.35061 45.9952H37.492C39.7067 45.9952 41.8307 45.1154 43.3968 43.5494C44.9628 41.9833 45.8426 39.8593 45.8426 37.6446V8.5032C45.8426 6.28848 44.9628 4.16446 43.3968 2.59842C41.8307 1.03238 39.7067 0.152588 37.492 0.152588Z" fill="white"/>
<path d="M36.9595 12.745C37.1886 12.3906 37.0312 12.1052 36.6089 12.1052H26.7561C26.5238 12.1179 26.2972 12.1819 26.0926 12.2925C25.888 12.4031 25.7104 12.5577 25.5724 12.745L14.5526 29.7968C14.4397 29.9935 14.3797 30.2159 14.3783 30.4427C14.377 30.6694 14.4344 30.8926 14.5449 31.0905L19.3715 38.7335C19.5967 39.0905 19.9691 39.0918 20.1982 38.7335L36.9595 12.745Z" fill="white"/>
<path d="M21.6608 12.1001C22.0831 12.1001 22.2417 12.3906 22.0127 12.7399L16.0805 21.9414C15.8527 22.2959 15.4804 22.2946 15.2552 21.9414L9.45481 12.7489C9.2296 12.3918 9.39083 12.1001 9.81309 12.1001H21.6608Z" fill="white"/>
<path d="M115.026 12.063H110.416V33.0201H115.026V12.063Z" fill="white"/>
<path d="M72.1062 12.063L66.1689 24.008L60.5797 12.063H55.2566L63.4792 29.6036L57.4779 41.4027H62.8433L77.5125 12.063H72.1062Z" fill="white"/>
<path d="M105.931 0.746338H101.363V33.0202H105.931V0.746338Z" fill="white"/>
<path d="M87.8248 16.0028C89.0592 16.0115 90.2668 16.3652 91.3109 17.0238C92.3551 17.6824 93.1943 18.6199 93.734 19.7303H98.4684C97.8382 17.3944 96.4514 15.3333 94.5251 13.8696C92.5987 12.4059 90.2414 11.622 87.8222 11.6407C81.7864 11.6407 77.0071 16.5454 77.0071 22.539C77.0071 28.5748 81.7864 33.4373 87.8222 33.4373C92.9777 33.4373 97.2106 29.9158 98.4684 25.0956H93.734C93.2222 26.2373 92.3932 27.2077 91.3455 27.8915C90.2979 28.5752 89.0757 28.9435 87.8248 28.9523C84.3456 28.9523 81.3693 26.0182 81.3693 22.539C81.3693 18.8947 84.3456 16.0028 87.8248 16.0028Z" fill="white"/>
<path d="M112.722 3.72136C111.045 3.72136 109.83 4.9792 109.83 6.57229C109.83 8.20632 111.045 9.58956 112.722 9.58956C114.356 9.58956 115.614 8.20632 115.614 6.57229C115.616 6.1939 115.542 5.81893 115.397 5.46947C115.251 5.12002 115.038 4.80313 114.768 4.53747C114.499 4.27181 114.179 4.06275 113.828 3.9226C113.476 3.78245 113.1 3.71401 112.722 3.72136Z" fill="white"/>
<path d="M170.522 5.35669H165.995V28.452C165.995 31.2185 168.133 33.0202 170.69 33.0202H177.271V28.493H171.768C171.438 28.493 171.123 28.3621 170.889 28.1291C170.656 27.896 170.526 27.58 170.526 27.2505V16.5902H177.274V12.063H170.526L170.522 5.35669Z" fill="white"/>
<path d="M129.367 11.6433C126.265 11.6433 123.583 12.6491 121.445 14.7873C119.567 16.8837 118.534 19.6029 118.548 22.4175C118.548 25.4347 119.638 28.2857 121.565 30.255C123.619 32.1833 126.344 33.4411 129.361 33.4411C132.379 33.4411 135.145 32.1833 137.241 30.1296C138.164 29.2492 138.751 28.2434 139.337 27.0278L133.973 27.1519C132.8 28.3676 131.249 28.9958 129.367 28.9958C127.523 28.9958 125.93 28.4098 124.798 27.1942C124.003 26.417 123.423 25.4471 123.113 24.3791H140.097L140.111 24.0157C140.156 23.5601 140.223 22.9344 140.223 22.4098C140.218 16.2127 135.523 11.6433 129.367 11.6433ZM123.218 20.1526C124.114 17.6843 126.459 16.0029 129.367 16.0029C132.238 16.0029 134.54 17.6817 135.46 20.1526H123.218Z" fill="white"/>
<path d="M153.463 11.6433C151.527 11.6433 149.694 12.1935 148.307 13.5115V12.063H143.78V33.0201H148.305V20.9485C148.305 18.2614 150.316 15.9184 152.957 15.9184C155.724 15.9184 157.735 18.2217 157.735 20.9485V33.0201H162.262V20.6081C162.265 15.4155 158.66 11.6433 153.463 11.6433Z" fill="white"/>
<path d="M193.575 20.2421H187.03C186.558 20.2296 186.109 20.0329 185.779 19.6942C185.449 19.3554 185.264 18.9012 185.264 18.4283C185.264 17.9554 185.449 17.5012 185.779 17.1624C186.109 16.8237 186.558 16.627 187.03 16.6145H198.76V12.0527H187.03C185.333 12.0527 183.706 12.7268 182.507 13.9267C181.306 15.1264 180.632 16.7538 180.632 18.4507C180.632 20.1476 181.306 21.7749 182.507 22.9747C183.706 24.1746 185.333 24.8486 187.03 24.8486H193.575C193.812 24.8438 194.047 24.8868 194.266 24.9751C194.486 25.0634 194.686 25.1952 194.854 25.3625C195.02 25.5298 195.152 25.7293 195.24 25.9488C195.328 26.1683 195.372 26.4035 195.367 26.6401C195.365 27.119 195.179 27.5786 194.843 27.9213C194.509 28.264 194.054 28.4627 193.575 28.475H181.464V33.038H193.575C195.272 33.038 196.9 32.3639 198.1 31.1641C199.299 29.9643 199.973 28.3369 199.973 26.6401C199.973 24.9432 199.299 23.3158 198.1 22.1161C196.9 20.9162 195.272 20.2421 193.575 20.2421Z" fill="white"/>
</g>
</g>
<defs>
<clipPath id="clip0_139_3159">
<rect width="200" height="45.9373" fill="white" transform="translate(0 0.152588)"/>
</clipPath>
</defs>
</svg>
