<svg width="291" height="122" viewBox="0 0 291 122" fill="none" xmlns="http://www.w3.org/2000/svg">
<g opacity="0.15">
<path d="M73.2915 15.7145L88.0147 21.1934L26.4756 58.8239V33.3556H28.7146H35.0925C36.3816 33.4158 38.6206 33.476 40.7239 33.5964H40.7918C40.8596 33.5964 40.8596 33.5964 40.8596 33.5964C41.4703 33.6566 42.0809 33.6566 42.6915 33.7169C42.8951 33.7169 43.0986 33.7771 43.3022 33.7771C44.5913 33.8975 45.6769 34.0781 46.1519 34.2587C46.2197 34.2587 46.2197 34.3189 46.2197 34.3189C46.4911 34.3791 46.6946 34.4394 46.8982 34.5598C47.0339 34.62 47.2374 34.62 47.3731 34.6802C47.3731 34.6802 47.441 34.6802 47.441 34.7404C48.1195 34.9812 48.5266 35.2221 48.798 35.4629C49.8835 36.1252 50.6978 36.9681 51.037 37.9315C51.037 37.9917 51.1048 37.9917 51.1048 38.0519L73.1558 24.5651C72.2737 23.6018 71.3239 22.6385 70.3061 21.7955C67.3208 19.327 63.7926 17.4003 59.6538 16.0155C55.5829 14.6307 51.1048 13.848 46.2197 13.6674L39.0956 13.4265H0.964355V74.2975V78.3917V91.9386L120.107 0L73.2915 15.7145Z" fill="black"/>
<path d="M1.03223 97.177V100.248V101.091V109.279H45.3377C50.155 109.279 54.7009 108.617 58.8397 107.352C62.9785 106.088 66.5745 104.221 69.6955 101.873C72.7487 99.5251 75.1913 96.6953 76.8875 93.444C78.5837 90.1927 79.4658 86.5802 79.4658 82.6065C79.4658 80.6196 79.1944 78.6327 78.7194 76.5856C78.1766 74.5385 77.3624 72.6118 76.209 70.7453C75.0556 68.8789 73.5629 67.193 71.731 65.6276C70.374 64.4836 68.6778 63.5203 66.8458 62.6774L51.4441 77.4887C51.919 78.5123 52.1904 79.7164 52.1904 81.041C52.1904 81.9442 52.0547 82.8473 51.7833 83.7504C51.5119 84.6535 50.9692 85.5567 50.2228 86.3394C49.4765 87.1823 48.5266 87.8446 47.3053 88.3263C46.084 88.8079 44.5913 89.0488 42.6916 89.0488H32.1071L95.1389 28.3584L98.5314 42.5677L123.5 3.0708L1.03223 97.177Z" fill="white" fill-opacity="0.25"/>
</g>
<g opacity="0.7">
<path d="M71.4359 98.7468C71.4359 102.196 70.0907 104.864 67.4002 106.749C64.9167 108.451 61.7089 109.279 57.7249 109.279C56.6901 109.279 55.1379 109.233 53.0166 109.187C50.947 109.095 49.3431 109.095 48.3083 109.095C46.7561 109.095 44.6348 109.141 41.8926 109.279C43.0309 107.991 43.6517 101.966 43.6517 91.1584C43.6517 84.9956 43.6517 81.8222 43.6517 81.6383C43.4448 77.4071 42.9274 74.3717 42.0995 72.4861C43.7035 72.67 45.2557 72.762 46.6526 72.762C47.9979 72.762 50.0157 72.716 52.7062 72.6241C55.3966 72.5321 57.4145 72.4861 58.7597 72.4861C62.1228 72.4861 64.8132 73.1759 66.8828 74.5557C69.1594 76.1194 70.2976 78.3269 70.2976 81.2703C70.2976 86.3293 66.5724 89.2267 59.1736 89.9626C63.0024 90.2385 65.848 90.9284 67.7624 91.9862C70.1942 93.3659 71.4359 95.6195 71.4359 98.7468ZM63.8302 81.6842C63.8302 77.683 60.881 75.7054 54.9827 75.7054C53.327 75.7054 51.5679 75.7974 49.6535 75.8894C49.55 76.9932 49.4983 81.0404 49.4983 87.985C51.2575 88.169 53.1718 88.2609 55.2931 88.2609C57.8284 88.2609 59.8462 87.709 61.4502 86.6053C63.0024 85.5475 63.8302 83.8918 63.8302 81.6842ZM64.865 98.9768C64.865 94.3317 61.5536 91.9862 54.9827 91.9862C54.7758 91.9862 52.9649 92.0322 49.4983 92.0782V101.828C49.4983 103.714 49.964 104.956 50.8953 105.507C51.5679 105.921 53.0683 106.105 55.2931 106.105C57.9836 106.105 60.2084 105.553 61.9676 104.404C63.8819 103.116 64.865 101.322 64.865 98.9768Z" fill="#CB2026"/>
<path d="M103.204 92.0781C103.204 92.9979 103.153 94.0097 103.049 95.1135H82.1462C82.7671 102.38 86.6476 106.013 93.8394 106.013C97.4094 106.013 100.255 105.047 102.221 103.162C101.549 104.864 101.135 106.611 100.979 108.359C98.3407 109.049 95.5985 109.371 92.7528 109.371C87.4754 109.371 83.388 108.083 80.3353 105.461C77.3344 102.84 75.834 99.2066 75.834 94.5616C75.834 90.1924 77.024 86.6971 79.3523 84.1676C81.9393 81.4082 85.6645 80.0745 90.4763 80.0745C94.6155 80.0745 97.7716 81.1322 99.8929 83.2478C102.118 85.4554 103.204 88.3988 103.204 92.0781ZM97.1507 92.0781C97.2025 86.0533 94.8224 83.0639 90.1141 83.0639C85.2506 83.0639 82.5601 86.0533 82.1462 92.0781H97.1507Z" fill="#CB2026"/>
<path d="M136.525 95.5274C136.525 104.818 130.678 109.463 119.037 109.463C117.898 109.463 116.812 109.279 115.932 108.865C114.484 108.267 113.501 107.945 113.087 107.853C110.603 105.599 109.361 102.886 109.361 99.7126C109.361 99.1147 109.413 98.1489 109.517 96.9071C109.62 95.6654 109.672 94.6996 109.672 94.0557C109.672 93.2279 109.672 91.9861 109.672 90.2385C109.62 88.5368 109.62 87.2491 109.62 86.3752C109.62 83.4778 109.827 81.2703 110.293 79.7066C111.12 76.8551 112.983 74.7396 115.932 73.2679C118.416 72.0261 121.468 71.4282 125.038 71.4282C127.781 71.4282 130.316 71.8421 132.592 72.716C131.816 74.2337 131.195 75.7973 130.73 77.407C129.281 75.6134 127.056 74.7396 124.107 74.7396C123.021 74.7396 121.934 74.9695 120.899 75.4754C119.864 75.9813 118.83 76.4872 117.795 76.9931C116.036 78.9707 115.156 81.0403 115.156 83.2938V89.0427C117.122 85.1795 120.485 83.2938 125.297 83.2938C129.178 83.2938 132.127 84.4896 134.093 86.9271C135.697 88.9967 136.525 91.8941 136.525 95.5274ZM130.885 97.413C130.885 94.7916 130.316 92.584 129.229 90.7904C127.781 88.6288 125.711 87.571 122.969 87.571C119.864 87.571 117.743 88.3068 116.605 89.7786C115.725 90.9743 115.26 92.9979 115.26 95.8953C115.26 98.7468 115.518 101.276 116.087 103.53C116.708 104.128 117.329 104.68 117.95 105.231C118.726 105.967 119.451 106.289 120.071 106.289C124.055 106.289 126.798 105.691 128.35 104.542C130.057 103.254 130.885 100.862 130.885 97.413Z" fill="#CB2026"/>
<path d="M172.949 80.3963C171.604 82.4199 170.155 85.4553 168.603 89.5485L160.738 110.244C159.29 114.016 157.737 116.683 156.03 118.247C153.805 120.316 150.753 121.328 146.769 121.328C146.251 121.328 145.475 121.282 144.492 121.236C145.32 119.443 145.837 117.603 146.044 115.625C146.769 116.269 147.648 116.591 148.683 116.591C150.753 116.591 152.512 115.763 153.909 114.062C154.581 113.188 155.513 111.532 156.703 109.049C155.409 109.049 154.323 109.095 153.34 109.187C148.735 94.2856 144.751 84.6735 141.388 80.3503C142.785 80.4883 144.182 80.5343 145.682 80.5343C146.872 80.5343 148.528 80.4883 150.597 80.3503C150.442 80.8102 150.39 81.3621 150.39 82.006C150.39 83.9376 151.218 87.111 152.874 91.5261L158.203 105.737C158.307 105.001 158.876 103.3 159.807 100.586C160.945 97.4589 162.032 94.3775 163.17 91.2502C164.619 86.927 165.395 83.8916 165.395 82.098C165.395 81.5001 165.291 80.9482 165.033 80.3503C166.74 80.4883 168.085 80.5343 169.017 80.5343C169.948 80.5343 171.345 80.5343 172.949 80.3963Z" fill="white"/>
<path d="M195.507 81.3161C194.835 82.8798 194.266 84.4435 193.955 86.0072C192.196 84.3975 189.92 83.5697 187.126 83.5697C183.814 83.5697 181.279 84.6735 179.468 86.835C177.864 88.7666 177.088 91.2501 177.088 94.2855C177.088 97.7348 178.019 100.586 179.934 102.748C182.003 105.093 184.953 106.289 188.73 106.289C191.11 106.289 193.127 105.691 194.835 104.495C194.214 106.013 193.8 107.485 193.593 108.911C191.42 109.325 189.557 109.508 187.953 109.508C182.573 109.508 178.382 108.267 175.381 105.737C172.38 103.208 170.879 99.5745 170.879 94.8374C170.879 90.3303 172.38 86.743 175.329 84.1216C178.278 81.4541 182.314 80.1204 187.333 80.1204C189.713 80.1204 192.455 80.5343 195.507 81.3161Z" fill="white"/>
<path d="M225.051 80.3965C224.223 85.2255 223.757 88.9968 223.757 91.6182V102.472C223.757 105.278 224.119 107.531 224.896 109.279C223.188 109.095 221.895 108.957 220.963 108.957C220.032 108.957 218.739 109.049 217.135 109.279C217.807 106.979 218.169 101.966 218.169 94.2397C218.169 92.86 218.169 91.1583 218.118 89.1347C218.118 85.7314 218.118 84.0757 218.118 84.0757H205.183V102.012C205.183 105.14 205.545 107.577 206.321 109.279C204.614 109.095 203.32 108.957 202.389 108.957C201.457 108.957 200.164 109.049 198.56 109.279C199.233 107.025 199.543 104.128 199.543 100.586V88.9048C199.543 85.4555 199.233 82.65 198.56 80.3965H225.051Z" fill="white"/>
<path d="M255.577 92.0781C255.577 92.9979 255.526 94.0097 255.422 95.1135H234.519C235.14 102.38 239.021 106.013 246.212 106.013C249.782 106.013 252.628 105.047 254.594 103.162C253.922 104.864 253.508 106.611 253.353 108.359C250.714 109.049 247.92 109.371 245.126 109.371C239.9 109.371 235.761 108.083 232.708 105.461C229.707 102.84 228.207 99.2066 228.207 94.5616C228.207 90.1924 229.397 86.6971 231.725 84.1676C234.312 81.4082 238.038 80.0745 242.849 80.0745C246.989 80.0745 250.145 81.1322 252.318 83.2478C254.491 85.4554 255.577 88.3988 255.577 92.0781ZM249.472 92.0781C249.524 86.0533 247.144 83.0639 242.435 83.0639C237.572 83.0639 234.881 86.0533 234.468 92.0781H249.472Z" fill="white"/>
<path d="M290.036 109.325C287.966 109.049 286.414 108.911 285.276 108.911C284.293 108.911 282.792 109.049 280.723 109.325C280.412 107.853 279.481 106.013 277.929 103.806C276.635 102.104 275.29 100.356 273.997 98.6547C272.6 100.402 271.203 102.104 269.754 103.898C267.943 106.335 266.856 108.129 266.546 109.325C264.787 109.095 263.39 108.957 262.355 108.957C261.062 108.957 259.82 109.095 258.526 109.325C260.648 107.807 262.924 105.599 265.356 102.656C267.374 100.218 269.34 97.7349 271.306 95.2974C269.392 92.7219 267.426 90.1464 265.459 87.5709C263.183 84.6275 261.01 82.236 258.889 80.3503C260.958 80.5343 262.562 80.6263 263.649 80.6263C264.787 80.6263 266.391 80.5343 268.46 80.3503C268.357 80.5343 268.357 80.7643 268.357 80.9022C268.357 81.6381 269.288 83.3397 271.099 86.0072C272.393 87.7089 273.634 89.4105 274.876 91.1122C276.325 89.4105 277.825 87.7089 279.222 86.0072C280.826 83.9376 281.913 82.052 282.43 80.3503C284.138 80.5343 285.483 80.6263 286.414 80.6263C287.708 80.6263 288.898 80.5343 289.932 80.3503C287.966 82.236 283.827 86.973 277.36 94.5615C279.274 97.137 281.24 99.7125 283.154 102.288C285.638 105.277 287.863 107.623 290.036 109.325Z" fill="white"/>
</g>
</svg>
