<svg width="223" height="137" viewBox="0 0 223 137" fill="none" xmlns="http://www.w3.org/2000/svg">
<g opacity="0.15">
<path d="M80.3532 20.4966L96.6085 27.3133L28.6658 74.1316V42.445H31.1378H38.1793C39.6026 42.5199 42.0746 42.5948 44.3968 42.7446H44.4717C44.5466 42.7446 44.5466 42.7446 44.5466 42.7446C45.2208 42.8195 45.895 42.8195 46.5691 42.8944C46.7939 42.8944 47.0186 42.9693 47.2433 42.9693C48.6666 43.1192 49.8651 43.3439 50.3895 43.5686C50.4644 43.5686 50.4644 43.6435 50.4644 43.6435C50.7641 43.7184 50.9888 43.7934 51.2135 43.9432C51.3633 44.0181 51.588 44.0181 51.7379 44.093C51.7379 44.093 51.8128 44.093 51.8128 44.1679C52.5619 44.4675 53.0113 44.7672 53.311 45.0668C54.5095 45.8908 55.4084 46.9395 55.783 48.1381C55.783 48.213 55.8579 48.213 55.8579 48.2879L80.2033 31.5083C79.2295 30.3097 78.1808 29.1112 77.0572 28.0624C73.7612 24.9912 69.8659 22.5941 65.2964 20.8711C60.8019 19.1482 55.8579 18.1744 50.4644 17.9497L42.599 17.6501H0.5V93.3832V98.477V115.332L132.04 0.945312L80.3532 20.4966Z" fill="black"/>
<path d="M0.574707 121.849V125.669V126.718V136.906H49.4904C54.8089 136.906 59.8279 136.082 64.3973 134.509C68.9668 132.935 72.937 130.613 76.3828 127.692C79.7537 124.77 82.4504 121.25 84.3231 117.205C86.1959 113.159 87.1697 108.665 87.1697 103.721C87.1697 101.249 86.8701 98.7769 86.3457 96.23C85.7464 93.6831 84.8475 91.286 83.574 88.9638C82.3006 86.6416 80.6526 84.5441 78.6301 82.5965C77.1319 81.1732 75.2591 79.9747 73.2366 78.9259L56.2322 97.3536C56.7566 98.6271 57.0562 100.125 57.0562 101.773C57.0562 102.897 56.9064 104.021 56.6067 105.144C56.3071 106.268 55.7078 107.391 54.8838 108.365C54.0598 109.414 53.0111 110.238 51.6628 110.837C50.3144 111.437 48.6664 111.736 46.5689 111.736H34.8831L104.474 36.2277L108.219 53.9063L135.786 4.76587L0.574707 121.849Z" fill="white" fill-opacity="0.25"/>
</g>
<g opacity="0.7">
<path d="M27.7608 96.2241C27.7608 99.6734 26.565 102.341 24.1735 104.227C21.9659 105.928 19.1145 106.756 15.5732 106.756C14.6534 106.756 13.2736 106.71 11.388 106.664C9.54839 106.572 8.12267 106.572 7.20286 106.572C5.82313 106.572 3.93751 106.618 1.5 106.756C2.5118 105.468 3.06368 99.4435 3.06368 88.6356C3.06368 82.4729 3.06368 79.2995 3.06368 79.1155C2.87972 74.8844 2.41981 71.849 1.68396 69.9634C3.10968 70.1473 4.4894 70.2393 5.73115 70.2393C6.92691 70.2393 8.72055 70.1933 11.1121 70.1014C13.5036 70.0094 15.2972 69.9634 16.493 69.9634C19.4824 69.9634 21.8739 70.6532 23.7136 72.033C25.7372 73.5967 26.749 75.8042 26.749 78.7476C26.749 83.8066 23.4376 86.704 16.8609 87.4399C20.2642 87.7158 22.7937 88.4057 24.4954 89.4635C26.657 90.8432 27.7608 93.0968 27.7608 96.2241ZM21.0001 79.1615C21.0001 75.1603 18.3786 73.1827 13.1357 73.1827C11.664 73.1827 10.1003 73.2747 8.39862 73.3667C8.30664 74.4705 8.26065 78.5177 8.26065 85.4623C9.82434 85.6462 11.526 85.7382 13.4116 85.7382C15.6652 85.7382 17.4588 85.1863 18.8845 84.0826C20.2642 83.0248 21.0001 81.3691 21.0001 79.1615ZM21.9199 96.4541C21.9199 91.809 18.9765 89.4635 13.1357 89.4635C12.9517 89.4635 11.342 89.5095 8.26065 89.5555V99.3055C8.26065 101.191 8.67456 102.433 9.5024 102.985C10.1003 103.399 11.434 103.583 13.4116 103.583C15.8031 103.583 17.7807 103.031 19.3444 101.881C21.0461 100.593 21.9199 98.7996 21.9199 96.4541Z" fill="#CB2026"/>
<path d="M55.9991 89.5558C55.9991 90.4757 55.9531 91.4875 55.8611 92.5912H37.2808C37.8327 99.8578 41.282 103.491 47.6747 103.491C50.8481 103.491 53.3776 102.525 55.1252 100.64C54.5274 102.341 54.1594 104.089 54.0215 105.837C51.6759 106.526 49.2384 106.848 46.7089 106.848C42.0178 106.848 38.3846 105.561 35.6711 102.939C33.0037 100.318 31.6699 96.6844 31.6699 92.0393C31.6699 87.6702 32.7277 84.1749 34.7973 81.6454C37.0968 78.886 40.4082 77.5522 44.6853 77.5522C48.3646 77.5522 51.17 78.61 53.0556 80.7256C55.0333 82.9332 55.9991 85.8766 55.9991 89.5558ZM50.6181 89.5558C50.6641 83.5311 48.5486 80.5416 44.3634 80.5416C40.0403 80.5416 37.6487 83.5311 37.2808 89.5558H50.6181Z" fill="#CB2026"/>
<path d="M85.6173 93.0049C85.6173 102.295 80.4204 106.94 70.0725 106.94C69.0607 106.94 68.0948 106.756 67.313 106.342C66.0253 105.744 65.1514 105.422 64.7835 105.33C62.576 103.077 61.4722 100.363 61.4722 97.1901C61.4722 96.5922 61.5182 95.6264 61.6101 94.3847C61.7021 93.1429 61.7481 92.1771 61.7481 91.5332C61.7481 90.7054 61.7481 89.4636 61.7481 87.716C61.7021 86.0143 61.7021 84.7266 61.7021 83.8528C61.7021 80.9554 61.8861 78.7478 62.3 77.1841C63.0359 74.3327 64.6915 72.2171 67.313 70.7454C69.5206 69.5036 72.234 68.9058 75.4074 68.9058C77.8449 68.9058 80.0984 69.3197 82.122 70.1935C81.4322 71.7112 80.8803 73.2749 80.4664 74.8846C79.1786 73.0909 77.201 72.2171 74.5795 72.2171C73.6137 72.2171 72.6479 72.447 71.7281 72.9529C70.8083 73.4588 69.8885 73.9648 68.9687 74.4707C67.405 76.4483 66.6231 78.5178 66.6231 80.7714V86.5202C68.3708 82.657 71.3602 80.7714 75.6373 80.7714C79.0867 80.7714 81.7081 81.9671 83.4558 84.4047C84.8815 86.4742 85.6173 89.3717 85.6173 93.0049ZM80.6043 94.8906C80.6043 92.2691 80.0984 90.0615 79.1326 88.2679C77.8449 86.1063 76.0053 85.0485 73.5678 85.0485C70.8083 85.0485 68.9227 85.7844 67.9109 87.2561C67.129 88.4519 66.7151 90.4754 66.7151 93.3729C66.7151 96.2243 66.9451 98.7538 67.451 101.007C68.0029 101.605 68.5548 102.157 69.1066 102.709C69.7965 103.445 70.4404 103.767 70.9923 103.767C74.5336 103.767 76.9711 103.169 78.3508 102.019C79.8685 100.731 80.6043 98.3399 80.6043 94.8906Z" fill="#CB2026"/>
<path d="M117.995 77.8736C116.799 79.8972 115.511 82.9326 114.132 87.0258L107.141 107.722C105.853 111.493 104.474 114.16 102.956 115.724C100.978 117.794 98.2648 118.805 94.7235 118.805C94.2636 118.805 93.5737 118.759 92.6999 118.713C93.4357 116.92 93.8956 115.08 94.0796 113.103C94.7235 113.746 95.5053 114.068 96.4251 114.068C98.2648 114.068 99.8285 113.241 101.07 111.539C101.668 110.665 102.496 109.009 103.554 106.526C102.404 106.526 101.438 106.572 100.564 106.664C96.4711 91.7629 92.9298 82.1508 89.9404 77.8276C91.1822 77.9656 92.4239 78.0116 93.7577 78.0116C94.8155 78.0116 96.2872 77.9656 98.1268 77.8276C97.9888 78.2875 97.9428 78.8394 97.9428 79.4833C97.9428 81.4149 98.6787 84.5883 100.15 89.0034L104.887 103.215C104.979 102.479 105.485 100.777 106.313 98.0636C107.325 94.9362 108.291 91.8548 109.303 88.7275C110.59 84.4043 111.28 81.3689 111.28 79.5753C111.28 78.9774 111.188 78.4255 110.958 77.8276C112.476 77.9656 113.672 78.0116 114.5 78.0116C115.327 78.0116 116.569 78.0116 117.995 77.8736Z" fill="white"/>
<path d="M138.047 78.7939C137.449 80.3576 136.943 81.9213 136.667 83.485C135.103 81.8753 133.08 81.0475 130.596 81.0475C127.653 81.0475 125.399 82.1512 123.79 84.3128C122.364 86.2444 121.674 88.7279 121.674 91.7633C121.674 95.2126 122.502 98.0641 124.204 100.226C126.043 102.571 128.665 103.767 132.022 103.767C134.138 103.767 135.931 103.169 137.449 101.973C136.897 103.491 136.529 104.963 136.345 106.388C134.414 106.802 132.758 106.986 131.332 106.986C126.549 106.986 122.824 105.745 120.156 103.215C117.489 100.686 116.155 97.0523 116.155 92.3152C116.155 87.8081 117.489 84.2208 120.11 81.5994C122.732 78.9319 126.319 77.5981 130.78 77.5981C132.896 77.5981 135.333 78.0121 138.047 78.7939Z" fill="white"/>
<path d="M164.308 77.8735C163.572 82.7026 163.158 86.4738 163.158 89.0953V99.9491C163.158 102.755 163.48 105.008 164.17 106.756C162.652 106.572 161.502 106.434 160.674 106.434C159.846 106.434 158.697 106.526 157.271 106.756C157.869 104.456 158.191 99.4432 158.191 91.7168C158.191 90.337 158.191 88.6354 158.145 86.6118C158.145 83.2085 158.145 81.5528 158.145 81.5528H146.647V99.4892C146.647 102.617 146.969 105.054 147.659 106.756C146.141 106.572 144.991 106.434 144.164 106.434C143.336 106.434 142.186 106.526 140.76 106.756C141.358 104.502 141.634 101.605 141.634 98.0635V86.3818C141.634 82.9325 141.358 80.1271 140.76 77.8735H164.308Z" fill="white"/>
<path d="M191.442 89.5558C191.442 90.4757 191.396 91.4875 191.304 92.5912H172.724C173.276 99.8578 176.725 103.491 183.118 103.491C186.291 103.491 188.82 102.525 190.568 100.64C189.97 102.341 189.602 104.089 189.464 105.837C187.119 106.526 184.635 106.848 182.152 106.848C177.507 106.848 173.827 105.561 171.114 102.939C168.447 100.318 167.113 96.6844 167.113 92.0393C167.113 87.6702 168.171 84.1749 170.24 81.6454C172.54 78.886 175.851 77.5522 180.128 77.5522C183.807 77.5522 186.613 78.61 188.545 80.7256C190.476 82.9332 191.442 85.8766 191.442 89.5558ZM186.015 89.5558C186.061 83.5311 183.945 80.5416 179.76 80.5416C175.437 80.5416 173.046 83.5311 172.678 89.5558H186.015Z" fill="white"/>
<path d="M222.072 106.802C220.232 106.526 218.853 106.388 217.841 106.388C216.967 106.388 215.633 106.526 213.794 106.802C213.518 105.33 212.69 103.491 211.31 101.283C210.16 99.5813 208.964 97.8336 207.815 96.132C206.573 97.8796 205.331 99.5813 204.043 101.375C202.434 103.812 201.468 105.606 201.192 106.802C199.628 106.572 198.387 106.434 197.467 106.434C196.317 106.434 195.213 106.572 194.063 106.802C195.949 105.284 197.973 103.077 200.134 100.133C201.928 97.6957 203.676 95.2122 205.423 92.7746C203.722 90.1992 201.974 87.6237 200.226 85.0482C198.203 82.1048 196.271 79.7133 194.385 77.8276C196.225 78.0116 197.651 78.1036 198.617 78.1036C199.628 78.1036 201.054 78.0116 202.894 77.8276C202.802 78.0116 202.802 78.2416 202.802 78.3795C202.802 79.1154 203.63 80.817 205.239 83.4845C206.389 85.1862 207.493 86.8878 208.597 88.5895C209.884 86.8878 211.218 85.1862 212.46 83.4845C213.886 81.4149 214.851 79.5293 215.311 77.8276C216.829 78.0116 218.025 78.1036 218.853 78.1036C220.002 78.1036 221.06 78.0116 221.98 77.8276C220.232 79.7133 216.553 84.4503 210.804 92.0388C212.506 94.6143 214.253 97.1898 215.955 99.7653C218.163 102.755 220.14 105.1 222.072 106.802Z" fill="white"/>
</g>
</svg>
