<svg width="200" height="50" viewBox="0 0 200 50" fill="none" xmlns="http://www.w3.org/2000/svg">
<g clip-path="url(#clip0_139_3211)">
<path d="M75.3392 33.2003C75.3392 33.6792 75.1796 33.9984 74.8603 34.3177C74.5411 34.6369 74.0623 34.7965 73.4238 34.7965C72.7853 34.7965 71.9872 34.4773 71.3488 33.6792L63.8468 25.6983L63.6872 25.5387V32.5619C63.6872 34.158 63.0487 34.9561 61.6121 34.9561C60.3352 34.9561 59.5371 34.158 59.5371 32.5619V15.6425C59.5371 14.0463 60.3352 13.2482 62.091 13.2482H66.7199C69.1141 13.2482 71.0295 13.7271 72.4661 14.8444C74.0623 15.9617 74.8603 17.5579 74.8603 19.6329C74.8603 23.1445 72.7853 25.2195 68.4757 25.3791L74.3815 31.2849C74.8603 31.9234 75.3392 32.5619 75.3392 33.2003ZM70.3911 19.6329C70.3911 17.5579 69.1141 16.4406 66.5603 16.4406H63.5275V22.6656C64.0064 22.8252 64.9641 22.8252 66.241 22.8252C69.1141 22.9849 70.3911 21.8675 70.3911 19.6329Z" fill="white"/>
<path d="M93.0567 25.6983C93.0567 26.3368 92.8971 26.8157 92.4182 27.1349C91.9394 27.4541 91.3009 27.6137 90.6624 27.6137H80.9258C80.9258 28.7311 81.4046 29.6888 82.3623 30.3272C83.1604 30.9657 84.2777 31.4446 85.5547 31.4446C86.672 31.4446 87.7893 31.1253 89.0662 30.4869C90.3432 29.8484 91.1413 29.5292 91.3009 29.5292C92.4182 29.5292 92.8971 30.008 92.8971 30.9657C92.8971 31.2849 92.7374 31.6042 92.4182 32.083C91.7797 32.8811 90.6624 33.5196 89.2259 33.9984C87.9489 34.4773 86.672 34.6369 85.3951 34.6369C82.8412 34.6369 80.7662 33.8388 79.17 32.2426C77.5738 30.6465 76.9354 28.7311 76.9354 26.3368C76.9354 24.1022 77.7334 22.1868 79.3296 20.5906C80.9258 18.9944 82.8412 18.1964 85.3951 18.1964C87.6297 18.1964 89.5451 18.9944 90.9817 20.431C92.4182 21.8675 93.0567 23.6233 93.0567 25.6983ZM89.0662 25.2195C89.0662 24.1022 88.5874 23.1445 87.9489 22.506C87.3105 21.7079 86.3528 21.3887 85.0758 21.3887C83.9585 21.3887 82.8412 21.7079 82.0431 22.506C81.245 23.3041 80.7662 24.1022 80.7662 25.2195H89.0662Z" fill="white"/>
<path d="M110.774 32.2426C110.774 33.8388 110.136 34.6369 108.699 34.6369C107.422 34.6369 106.624 33.8388 106.624 32.2426V25.2195C106.624 22.8252 105.507 21.5483 103.272 21.5483C101.037 21.5483 99.9202 22.8252 99.9202 25.2195V32.2426C99.9202 33.8388 99.2817 34.6369 97.8452 34.6369C96.4086 34.6369 95.7701 33.8388 95.7701 32.2426V20.9098C95.7701 19.3137 96.4086 18.5156 97.8452 18.5156C98.6432 18.5156 99.1221 18.8348 99.4413 19.3137C99.6009 19.6329 99.6009 19.7925 99.7606 20.1117C100.878 18.9944 102.474 18.356 104.389 18.356C106.464 18.356 108.061 18.8348 109.018 19.9521C110.136 21.0694 110.615 22.506 110.615 24.4214V32.2426H110.774Z" fill="white"/>
<path d="M130.088 26.4964C130.088 28.7311 129.29 30.8061 127.853 32.2426C126.257 33.8388 124.342 34.6369 121.788 34.6369C119.234 34.6369 117.318 33.8388 115.722 32.2426C114.286 30.6465 113.488 28.7311 113.488 26.4964C113.488 24.2618 114.286 22.1868 115.722 20.7502C117.318 19.1541 119.393 18.1964 121.788 18.1964C124.342 18.1964 126.417 18.9944 127.853 20.5906C129.449 22.3464 130.088 24.2618 130.088 26.4964ZM121.788 21.5483C120.351 21.5483 119.234 22.0272 118.595 23.1445C117.957 24.1022 117.638 25.2195 117.638 26.4964C117.638 27.7734 117.957 28.8907 118.595 29.8484C119.393 30.9657 120.511 31.4446 121.788 31.4446C123.224 31.4446 124.342 30.9657 124.98 29.8484C125.619 29.0503 125.938 27.933 125.938 26.4964C125.938 25.2195 125.619 24.1022 124.98 23.1445C124.342 22.1868 123.224 21.5483 121.788 21.5483Z" fill="white"/>
<path d="M145.89 20.1118C145.89 20.431 145.73 20.7502 145.571 21.2291L140.782 33.0407C140.303 34.1581 139.505 34.7965 138.547 34.7965C137.43 34.7965 136.792 34.1581 136.153 33.0407L131.205 21.2291C131.045 20.9099 131.045 20.5906 131.045 20.2714C131.045 19.7925 131.205 19.3137 131.524 18.9945C131.844 18.6752 132.322 18.5156 132.961 18.5156C133.919 18.5156 134.557 18.9945 135.036 20.1118L138.547 29.8484L142.059 19.9522C142.378 18.9945 143.017 18.5156 143.974 18.5156C145.251 18.356 145.89 18.9945 145.89 20.1118Z" fill="white"/>
<path d="M163.129 32.2426C163.129 33.8388 162.49 34.6369 161.213 34.6369C160.415 34.6369 159.936 34.3177 159.617 33.6792C159.617 33.36 159.457 33.0407 159.298 32.7215C158.021 33.9984 156.425 34.6369 154.509 34.6369C152.115 34.6369 150.359 33.8388 148.923 32.083C147.646 30.4869 147.007 28.7311 147.007 26.4964C147.007 24.7406 147.486 23.3041 148.284 22.0272C149.082 20.5906 150.359 19.4733 151.955 18.8348C152.913 18.5156 153.871 18.1964 154.828 18.1964C156.584 18.1964 158.18 18.8348 159.457 20.1118C159.457 19.9521 159.617 19.6329 159.777 19.3137C160.096 18.6752 160.575 18.356 161.373 18.356C162.65 18.356 163.288 19.1541 163.288 20.7502V32.2426H163.129ZM154.988 21.7079C153.551 21.7079 152.434 22.1868 151.796 23.1445C151.157 23.9426 150.838 25.0599 150.838 26.4964C150.838 27.7734 151.157 28.8907 151.796 29.6888C152.594 30.8061 153.551 31.2849 154.988 31.2849C156.425 31.2849 157.542 30.8061 158.18 29.6888C158.819 28.8907 159.138 27.7734 159.138 26.4964C159.138 25.2195 158.819 24.1022 158.18 23.3041C157.382 22.1868 156.425 21.7079 154.988 21.7079Z" fill="white"/>
<path d="M174.94 20.1118C174.94 20.9098 174.621 21.3887 173.823 21.5483C173.504 21.7079 172.706 21.7079 171.588 21.7079V32.2426C171.588 33.8388 170.95 34.6369 169.513 34.6369C168.236 34.6369 167.598 33.8388 167.598 32.2426V21.7079H166.959C166.321 21.7079 165.842 21.5483 165.523 21.2291C165.044 20.9098 164.884 20.5906 164.884 20.1118C164.884 18.9944 165.842 18.5156 167.598 18.5156V15.6425C167.598 14.0463 168.236 13.2482 169.673 13.2482C170.95 13.2482 171.748 14.0463 171.748 15.6425V18.356C172.865 18.356 173.504 18.356 173.982 18.5156C174.621 18.8348 174.94 19.3137 174.94 20.1118Z" fill="white"/>
<path d="M180.846 14.5252C180.846 15.1636 180.686 15.6425 180.208 16.1213C179.729 16.6002 179.25 16.7598 178.452 16.7598C177.813 16.7598 177.175 16.6002 176.696 16.1213C176.217 15.6425 176.057 15.1636 176.057 14.5252C176.057 13.8867 176.217 13.4078 176.696 12.929C177.175 12.4501 177.813 12.2905 178.452 12.2905C179.09 12.2905 179.729 12.4501 180.208 12.929C180.686 13.4078 180.846 13.8867 180.846 14.5252ZM180.527 32.2426C180.527 33.8388 179.888 34.6369 178.452 34.6369C177.015 34.6369 176.377 33.8388 176.377 32.2426V20.7502C176.377 19.1541 177.015 18.356 178.452 18.356C179.888 18.356 180.527 19.1541 180.527 20.7502V32.2426Z" fill="white"/>
<path d="M200 26.4964C200 28.7311 199.202 30.8061 197.765 32.2426C196.169 33.8388 194.254 34.6369 191.7 34.6369C189.146 34.6369 187.231 33.8388 185.634 32.2426C184.198 30.6465 183.4 28.7311 183.4 26.4964C183.4 24.2618 184.198 22.1868 185.634 20.7502C187.231 19.1541 189.306 18.1964 191.7 18.1964C194.254 18.1964 196.329 18.9944 197.765 20.5906C199.202 22.3464 200 24.2618 200 26.4964ZM191.7 21.5483C190.263 21.5483 189.146 22.0272 188.508 23.1445C187.869 24.1022 187.55 25.2195 187.55 26.4964C187.55 27.7734 187.869 28.8907 188.508 29.8484C189.306 30.9657 190.263 31.4446 191.7 31.4446C193.136 31.4446 194.254 30.9657 194.892 29.8484C195.531 29.0503 195.85 27.933 195.85 26.4964C195.85 25.2195 195.531 24.1022 194.892 23.1445C194.094 22.1868 193.136 21.5483 191.7 21.5483Z" fill="white"/>
<path d="M37.1907 46.4485C32.083 49.162 24.1022 49.3216 18.9944 44.5331C11.3328 37.1907 16.6002 26.8156 16.6002 26.8156L16.7598 26.9753C17.5579 27.6137 22.506 31.2849 28.731 27.1349C31.7638 25.0599 33.0407 18.9944 29.2099 15.004C27.2945 12.929 19.154 10.5347 11.3328 19.7925C6.38468 25.5387 6.38468 40.0638 17.7175 48.8428C17.7175 48.8428 5.26736 44.8524 3.35196 29.5291C1.9154 15.3232 11.1732 4.30966 25.3791 4.15004C37.9888 4.15004 43.0966 14.5251 41.5004 22.6656C39.7446 31.6042 28.4118 35.1157 21.5483 31.9234C21.0694 34.3176 20.2713 39.4254 23.6233 42.4581C29.0503 47.2466 41.3408 46.4485 47.8851 34.6369C49.162 31.6042 49.9601 28.2522 49.9601 24.7406C49.8005 11.1732 38.6273 0 24.9002 0C11.1732 0 0 11.1732 0 24.9002C0 38.6273 11.1732 49.8005 24.9002 49.8005C30.1676 49.8005 34.9561 48.2043 39.1061 45.3312C38.4677 45.8101 37.8292 46.1293 37.1907 46.4485Z" fill="white"/>
</g>
<defs>
<clipPath id="clip0_139_3211">
<rect width="200" height="49.8005" fill="white"/>
</clipPath>
</defs>
</svg>
